<?xml version="1.0" encoding="utf-8"?>
<!-- Generator: Adobe Illustrator 23.0.6, SVG Export Plug-In . SVG Version: 6.00 Build 0)  -->
<svg version="1.1" id="icon" xmlns="http://www.w3.org/2000/svg" xmlns:xlink="http://www.w3.org/1999/xlink" x="0px" y="0px"
	 viewBox="0 0 400 444.9" style="enable-background:new 0 0 400 444.9;" xml:space="preserve">
<style type="text/css">
	.st0{fill:#7EB9C7;}
	.st1{fill:#22B573;stroke:#3D4451;stroke-width:9.3963;stroke-miterlimit:10;}
	.st2{fill:#FFFFFF;}
	.st3{fill:#FBB03B;}
	.st4{fill:none;stroke:#3D4451;stroke-width:12.1082;stroke-miterlimit:10;}
	.st5{fill:#7EB9C7;stroke:#3D4451;stroke-width:10.228;stroke-miterlimit:10;}
	.st6{fill:none;stroke:#3D4451;stroke-width:13.8866;stroke-linecap:round;stroke-linejoin:round;stroke-miterlimit:10;}
	.st7{fill:#ED1C24;stroke:#3D4451;stroke-width:10.8007;stroke-miterlimit:10;}
	.st8{fill:none;stroke:#3D4451;stroke-width:8;stroke-miterlimit:10;}
</style>
<g>
	<rect x="115.4" y="376.6" class="st0" width="156" height="16"/>
	<rect x="93.9" y="407.6" class="st0" width="197" height="19.5"/>
	<g>
		<path class="st1" d="M230.1,361.8c13.5-3.9,26.3-9.7,38-17l36.9,26.7l43.4-44.9l-28.3-36.9c6.4-11.7,11.4-24.3,14.6-37.5l46.3-7.6
			l-0.8-62.4l-46.8-6.1c-3.6-12.9-8.9-25.1-15.6-36.4l27.7-38.5l-44.6-43.4l-37.2,28.7c-11.5-6.6-24-11.7-37.2-15.1l-7.4-46
			l-62.2,1.1l-6,45.3c-13.7,3.6-26.6,9.1-38.4,16.2L76,61.6l-43.4,44.9l26.8,35c-7.2,12.3-12.7,25.8-16.2,40L0,188.5l0.8,62.4
			l42.9,5.6c3.8,14.3,9.7,27.8,17.2,40.1l-25.4,35.3l44.6,43.4l34.7-26.8c12.4,7,25.8,12.3,40,15.5 M295.3,264.8
			c-27.9,59.4-98.4,85-157.5,57.2c-59.1-27.8-84.4-98.4-56.6-157.8c27.9-59.4,98.4-85,157.5-57.2
			C297.9,134.8,323.2,205.4,295.3,264.8z"/>
		<g>
			<g>
				<g>
					<g>
						<g>
							<path class="st2" d="M194.5,132.4c-73-0.5-110.9,83-68.5,129.3c28.5,31.2,19.3,58.9,19.3,58.9H233
								c-10.3-32.7,6.7-42.4,11.9-50.9C300.5,208.7,262.6,132.9,194.5,132.4z"/>
						</g>
						<g>
							<path class="st3" d="M224.3,270.7c-4.5,5.6-21.7,14.5-15.1,40.7h-46.7c0,0,3.6-22.2-14.8-47.1c-18.2-24.7-16.8-64.4,4.7-86.7
								c10.4-10.7,24.7-17,39.5-16.6c9.3,0.3,18.5,2.8,26.6,7.5c12.9,7.4,22.3,21.2,25.1,36c3.1,16.4,0.5,33.9-6.6,48.9
								c-2.7,5.8-8.6,12.4-12.6,17.5"/>
						</g>
						<g>
							<path class="st4" d="M194.5,132.4c-80.7,0-110.9,83-68.5,129.3c28.5,31.2,19.3,58.9,19.3,58.9H233
								c-10.3-32.7,6.7-42.4,11.9-50.9C300.5,208.7,249.7,132.4,194.5,132.4z"/>
						</g>
					</g>
				</g>
			</g>
			<path class="st5" d="M240.9,342.5H140.7c-4.4,0-7.9-3.6-7.9-7.9v-4.6c0-4.4,3.6-7.9,7.9-7.9h100.2c4.4,0,7.9,3.6,7.9,7.9v4.6
				C248.9,338.9,245.3,342.5,240.9,342.5z"/>
			<path class="st5" d="M240.9,363H140.7c-4.4,0-7.9-3.6-7.9-7.9v-4.6c0-4.4,3.6-7.9,7.9-7.9h100.2c4.4,0,7.9,3.6,7.9,7.9v4.6
				C248.9,359.4,245.3,363,240.9,363z"/>
		</g>
		<line class="st6" x1="188" y1="312.2" x2="188" y2="242.8"/>
		
			<ellipse transform="matrix(0.9239 -0.3827 0.3827 0.9239 -72.1121 89.1326)" class="st7" cx="188" cy="225.8" rx="23.1" ry="23.1"/>
	</g>
	<rect x="115.4" y="365.6" class="st8" width="156" height="27"/>
	<rect x="93.9" y="392.6" class="st8" width="197" height="34.5"/>
</g>
</svg>
