<svg id="Capa_1" enable-background="new 0 0 512 512" height="512" viewBox="0 0 512 512" width="512" xmlns="http://www.w3.org/2000/svg"><switch><g><g><g><g fill="#f2f2f2"><path d="m455.111 229.503v-139.235c0-11.704-9.488-21.192-21.192-21.192h-110.083-39.371v160.428h170.646z"/><path d="m56.889 286.433v102.707c0 7.605 4.075 14.627 10.678 18.4l120.598 68.913 39.37 22.497v-212.517z"/><path d="m227.535 69.076h-39.37-110.084c-11.704 0-21.192 9.488-21.192 21.192v139.235h170.646z"/><path d="m284.465 286.433v212.517l39.371-22.498 120.598-68.913c6.603-3.773 10.678-10.795 10.678-18.4v-102.706z"/><path d="m323.836 56.889h118.334c7.147 0 12.941-5.794 12.941-12.941v-31.007c0-7.147-5.794-12.941-12.941-12.941h-118.334-39.371v56.889z"/><path d="m188.165 0h-118.335c-7.147 0-12.941 5.794-12.941 12.941v31.007c0 7.147 5.794 12.941 12.941 12.941h118.335 39.37v-56.889z"/></g><g fill="#c8102e"><path d="m227.535 0h56.929v56.889h-56.929z"/><path d="m284.465 229.503v-160.427h-56.929v160.428h-170.647v56.929h170.646v212.517l17.951 10.258c6.515 3.723 14.513 3.723 21.028 0l17.95-10.257v-212.518h170.647v-56.929h-170.646z"/></g></g><g><g fill="#e4e4e4"><path d="m455.111 229.503v-139.235c0-11.704-9.488-21.192-21.192-21.192h-110.083-39.371v160.428h170.646z"/><path d="m227.535 69.076h-39.37-110.084c-2.676 0-5.226.517-7.584 1.422l157.038 157.038z"/><path d="m420.956 420.956 23.478-13.416c6.603-3.773 10.678-10.795 10.678-18.4v-102.707h-168.679z"/><path d="m323.836 56.889h118.334c7.147 0 12.941-5.794 12.941-12.941v-31.007c0-7.147-5.794-12.941-12.941-12.941h-118.334-39.371v56.889z"/><path d="m69.83 56.889h118.335 39.37v-56.889h-39.37-118.335c-7.147 0-12.941 5.794-12.941 12.941v31.007c0 7.147 5.794 12.941 12.941 12.941z"/></g><path d="m227.535 0h56.929v56.889h-56.929z" fill="#ba0f2b"/><path d="m286.433 286.433h168.678v-56.93h-170.646v-160.427h-56.93v158.459z" fill="#ba0f2b"/></g></g></g></switch></svg>