<svg height="512" viewBox="0 0 60 60" width="512" xmlns="http://www.w3.org/2000/svg"><g id="b"><path d="m12.18 30.47c.74-4.96 3.8-9.23 8.12-11.82l19.4.01c4.32 2.58 7.37 6.85 8.12 11.81l-2.82 4.53h-30z" fill="#a65a47"/><path d="m47.55 46.42c.78.34 1.61.58 2.45.58 3 0 7-5 7-9s-2-8-6-8-6 2-6 2c-.142.142-.283.284-.424.426l-29.15-.002c-.142-.141-.284-.282-.426-.424 0 0-2-2-6-2s-6 4-6 8 4 9 7 9c.84 0 1.67-.24 2.45-.58l17.55-10.42z" fill="#a65a47"/><path d="m13.567 38.247c-.005 1.191-.388 2.383-1.12 3.211-.258.291-.553.55-.876.766-.763.511-1.717.588-2.404-.102-1.815-1.822-2.803-4.489-1.684-6.949.403-.886 1.091-1.405 2.081-1.392.918.011 1.869.404 2.569.991.975.817 1.44 2.146 1.434 3.476z" fill="#fdd7ad"/><path d="m47.867 34.771c.7-.587 1.651-.98 2.569-.991.991-.012 1.678.506 2.081 1.392 1.119 2.461.131 5.127-1.684 6.949-.687.69-1.641.613-2.404.102-.323-.216-.618-.475-.876-.766-.732-.828-1.115-2.02-1.12-3.211-.006-1.33.459-2.659 1.434-3.476z" fill="#fdd7ad"/><path d="m43.73 43.1c.66-1.62 1.27-3.95 1.27-7.1 0-1.53-.09-2.84-.25-3.97-.57-4.03-2.07-5.76-3.75-7.03 0 0-5.168-4.307-9.909-.929-.645.459-1.538.459-2.183 0-4.74-3.378-9.909.929-9.909.929-1.68 1.27-3.18 3-3.75 7.03-.16 1.13-.25 2.44-.25 3.97 0 3.15.61 5.48 1.27 7.1h27.46z" fill="#f9c795"/><path d="m36.83 39.01c5.42 1.67 9.17 5.29 9.17 9.49 0 .17-.01.33-.02.5l-1.53 4c-2.56 3.55-8.07 6-14.45 6-8.84 0-16-4.7-16-10.5 0-4.2 3.75-7.82 9.17-9.49z" fill="#fdd7ad"/><circle cx="25" cy="31" fill="#35495e" r="3"/><circle cx="25" cy="31" fill="#fff" r="1"/><circle cx="35" cy="31" fill="#35495e" r="3"/><circle cx="35" cy="31" fill="#fff" r="1"/><path d="m39.996 16.267c.675 1.165.032 2.644-1.279 2.953-2.011.474-5.168.78-8.718.78s-6.706-.306-8.718-.78c-1.311-.309-1.954-1.788-1.279-2.953l8.267-14.267c.771-1.33 2.691-1.33 3.462 0z" fill="#ff5364"/><path d="m27 49c-.553 0-1-.447-1-1 0-2.935 2.393-4 4-4 .553 0 1 .447 1 1 0 .55-.444.997-.994 1-.472.008-2.006.175-2.006 2 0 .553-.447 1-1 1z" fill="#f9c795"/><path d="m39.02 14.59-17.74 4.63h-.01c-1.3-.32-1.94-1.79-1.27-2.95l.59-1.02 16.35-4.26z" fill="#f0c419"/><path d="m35 7.64-11.78 3.07 2.82-4.87h.01l6.87-1.79z" fill="#f0c419"/><path d="m34 53h19.5c3.03 0 5.5-2.47 5.5-5.5v-4c0-3.03-2.47-5.5-5.5-5.5s-5.5 2.47-5.5 5.5c0 1.1.9 2 2 2s2-.9 2-2c0-.83.67-1.5 1.5-1.5s1.5.67 1.5 1.5v4c0 .83-.67 1.5-1.5 1.5h-19.5z" fill="#955ba5"/><path d="m33.597 43c.266 0 .535-.047.779-.154 1.605-.703 2.624-1.785 2.624-3 0-2.125-3.13-3.846-7-3.846s-7 1.721-7 3.846c0 1.215 1.019 2.298 2.624 3 .244.107.513.154.779.154h7.193z" fill="#f09372"/><path d="m28 41h-1c-.552 0-1-.448-1-1s.448-1 1-1h1c.552 0 1 .448 1 1s-.448 1-1 1z" fill="#c03a2b"/><path d="m33 41h-1c-.552 0-1-.448-1-1s.448-1 1-1h1c.552 0 1 .448 1 1s-.448 1-1 1z" fill="#c03a2b"/><path d="m32 48h2c.552 0 1 .448 1 1v4c0 .552-.448 1-1 1h-2c-1.104 0-2-.896-2-2v-2c0-1.104.896-2 2-2z" fill="#ff5364"/></g></svg>