<?xml version="1.0" encoding="UTF-8" standalone="no"?>
<!-- Created with Inkscape (http://www.inkscape.org/) -->

<svg
   version="1.1"
   id="svg6996"
   xml:space="preserve"
   width="682.66669"
   height="682.66669"
   viewBox="0 0 682.66669 682.66669"
   xmlns="http://www.w3.org/2000/svg"
   xmlns:svg="http://www.w3.org/2000/svg"><defs
     id="defs7000"><clipPath
       clipPathUnits="userSpaceOnUse"
       id="clipPath7010"><path
         d="M 0,512 H 512 V 0 H 0 Z"
         id="path7008" /></clipPath></defs><g
     id="g7002"
     transform="matrix(1.3333333,0,0,-1.3333333,0,682.66667)"><g
       id="g7004"><g
         id="g7006"
         clip-path="url(#clipPath7010)"><g
           id="g7012"
           transform="translate(436.1211,97.0391)"><path
             d="m 0,0 h -421.173 c -4.113,0 -7.448,3.335 -7.448,7.448 v 248.166 c 0,4.114 3.335,7.448 7.448,7.448 H 0 c 4.114,0 7.448,-3.334 7.448,-7.448 V 7.448 C 7.448,3.335 4.114,0 0,0"
             style="fill:#5cc45c;fill-opacity:1;fill-rule:nonzero;stroke:none"
             id="path7014" /></g><g
           id="g7016"
           transform="translate(436.1211,360.1006)"><path
             d="m 0,0 h -421.173 c -4.113,0 -7.448,-3.334 -7.448,-7.448 V -249.185 H 7.448 V -7.448 C 7.448,-3.334 4.113,0 0,0"
             style="fill:#4ead4e;fill-opacity:1;fill-rule:nonzero;stroke:none"
             id="path7018" /></g><g
           id="g7020"
           transform="translate(465.5879,123.4707)"><path
             d="m 0,0 h -421.173 c -4.114,0 -7.448,3.334 -7.448,7.448 v 248.165 c 0,4.114 3.334,7.449 7.448,7.449 H 0 c 4.113,0 7.448,-3.335 7.448,-7.449 V 7.448 C 7.448,3.334 4.113,0 0,0"
             style="fill:#5cc45c;fill-opacity:1;fill-rule:nonzero;stroke:none"
             id="path7022" /></g><g
           id="g7024"
           transform="translate(465.5879,386.5322)"><path
             d="m 0,0 h -421.173 c -4.114,0 -7.448,-3.335 -7.448,-7.448 V -248.062 H 7.448 V -7.448 C 7.448,-3.335 4.113,0 0,0"
             style="fill:#4ead4e;fill-opacity:1;fill-rule:nonzero;stroke:none"
             id="path7026" /></g><g
           id="g7028"
           transform="translate(497.0518,151.8994)"><path
             d="m 0,0 h -421.173 c -4.114,0 -7.448,3.334 -7.448,7.447 v 248.166 c 0,4.114 3.334,7.449 7.448,7.449 H 0 c 4.113,0 7.448,-3.335 7.448,-7.449 V 7.447 C 7.448,3.334 4.113,0 0,0"
             style="fill:#5cc45c;fill-opacity:1;fill-rule:nonzero;stroke:none"
             id="path7030" /></g><g
           id="g7032"
           transform="translate(497.0518,414.9609)"><path
             d="M 0,0 H -46.415 V -263.062 H 0 c 4.113,0 7.448,3.334 7.448,7.449 V -7.448 C 7.448,-3.334 4.113,0 0,0"
             style="fill:#4ead4e;fill-opacity:1;fill-rule:nonzero;stroke:none"
             id="path7034" /></g><g
           id="g7036"
           transform="translate(125.7373,178.9258)"><path
             d="m 0,0 c -1.574,15.968 -14.313,28.706 -30.28,30.28 -0.903,0.089 -1.582,0.864 -1.582,1.771 v 144.907 c 0,0.907 0.679,1.682 1.582,1.771 15.967,1.574 28.706,14.312 30.28,30.28 0.089,0.902 0.863,1.582 1.771,1.582 h 317.915 c 0.907,0 1.681,-0.68 1.77,-1.582 1.574,-15.968 14.313,-28.706 30.28,-30.28 0.903,-0.089 1.582,-0.864 1.582,-1.771 V 32.051 c 0,-0.907 -0.679,-1.682 -1.582,-1.771 C 335.769,28.706 323.03,15.968 321.456,0 c -0.089,-0.902 -0.863,-1.582 -1.77,-1.582 H 181.763 167.93 146.93 1.771 C 0.863,-1.582 0.089,-0.902 0,0"
             style="fill:#a0e557;fill-opacity:1;fill-rule:nonzero;stroke:none"
             id="path7038" /></g><g
           id="g7040"
           transform="translate(477.4736,357.6543)"><path
             d="m 0,0 c -15.968,1.574 -28.706,14.313 -30.28,30.279 -0.089,0.904 -0.864,1.582 -1.771,1.582 h -21.367 v -212.172 h 21.367 c 0.907,0 1.682,0.68 1.771,1.582 1.574,15.968 14.312,28.707 30.28,30.28 0.902,0.09 1.582,0.864 1.582,1.771 V -1.771 C 1.582,-0.863 0.902,-0.089 0,0"
             style="fill:#93cc4a;fill-opacity:1;fill-rule:nonzero;stroke:none"
             id="path7042" /></g><g
           id="g7044"
           transform="translate(358.4297,283.4297)"><path
             d="m 0,0 c 0,-39.745 -32.22,-71.965 -71.965,-71.965 -39.745,0 -71.965,32.22 -71.965,71.965 0,39.745 32.22,71.965 71.965,71.965 C -32.22,71.965 0,39.745 0,0"
             style="fill:#f3e8d7;fill-opacity:1;fill-rule:nonzero;stroke:none"
             id="path7046" /></g><g
           id="g7048"
           transform="translate(286.4648,355.3945)"><path
             d="m 0,0 c -9.741,0 -19.025,-1.945 -27.5,-5.453 26.1,-10.803 44.465,-36.508 44.465,-66.512 0,-30.003 -18.365,-55.708 -44.465,-66.511 8.475,-3.507 17.759,-5.454 27.5,-5.454 39.745,0 71.965,32.221 71.965,71.965 C 71.965,-32.22 39.745,0 0,0"
             style="fill:#ddd1c3;fill-opacity:1;fill-rule:nonzero;stroke:none"
             id="path7050" /></g><g
           id="g7052"
           transform="translate(497.0518,151.8994)"><path
             d="m 0,0 h -421.173 c -4.114,0 -7.448,3.334 -7.448,7.447 v 248.166 c 0,4.114 3.334,7.449 7.448,7.449 H 0 c 4.113,0 7.448,-3.335 7.448,-7.449 V 7.447 C 7.448,3.334 4.113,0 0,0 Z"
             style="fill:none;stroke:#000000;stroke-width:15;stroke-linecap:round;stroke-linejoin:round;stroke-miterlimit:10;stroke-dasharray:none;stroke-opacity:1"
             id="path7054" /></g><g
           id="g7056"
           transform="translate(307.6113,389.5166)"><path
             d="m 0,0 h 137.812 c 0.907,0 1.681,-0.68 1.77,-1.582 1.574,-15.968 14.313,-28.706 30.28,-30.28 0.903,-0.089 1.582,-0.864 1.582,-1.771 V -178.54 c 0,-0.907 -0.679,-1.682 -1.582,-1.771 -15.967,-1.574 -28.706,-14.312 -30.28,-30.28 -0.089,-0.902 -0.863,-1.582 -1.77,-1.582 H -0.111"
             style="fill:none;stroke:#000000;stroke-width:15;stroke-linecap:round;stroke-linejoin:round;stroke-miterlimit:10;stroke-dasharray:none;stroke-opacity:1"
             id="path7058" /></g><g
           id="g7060"
           transform="translate(272.667,177.3437)"><path
             d="m 0,0 h -145.159 c -0.907,0 -1.682,0.68 -1.771,1.582 -1.574,15.968 -14.312,28.706 -30.28,30.28 -0.902,0.089 -1.582,0.864 -1.582,1.771 V 178.54 c 0,0.907 0.68,1.682 1.582,1.771 15.968,1.574 28.706,14.312 30.28,30.28 0.089,0.902 0.864,1.582 1.771,1.582 H 0.047"
             style="fill:none;stroke:#000000;stroke-width:15;stroke-linecap:round;stroke-linejoin:round;stroke-miterlimit:10;stroke-dasharray:none;stroke-opacity:1"
             id="path7062" /></g><g
           id="g7064"
           transform="translate(36.9668,360.1006)"><path
             d="m 0,0 h -22.019 c -4.113,0 -7.448,-3.334 -7.448,-7.448 v -248.165 c 0,-4.115 3.335,-7.449 7.448,-7.449 h 421.173 c 4.114,0 7.449,3.334 7.449,7.449 v 18.983"
             style="fill:none;stroke:#000000;stroke-width:15;stroke-linecap:round;stroke-linejoin:round;stroke-miterlimit:10;stroke-dasharray:none;stroke-opacity:1"
             id="path7066" /></g><g
           id="g7068"
           transform="translate(68.4307,386.5322)"><path
             d="m 0,0 h -24.016 c -4.114,0 -7.448,-3.335 -7.448,-7.448 v -248.166 c 0,-4.114 3.334,-7.448 7.448,-7.448 h 421.173 c 4.114,0 7.448,3.334 7.448,7.448 v 20.981"
             style="fill:none;stroke:#000000;stroke-width:15;stroke-linecap:round;stroke-linejoin:round;stroke-miterlimit:10;stroke-dasharray:none;stroke-opacity:1"
             id="path7070" /></g><g
           id="g7072"
           transform="translate(358.4297,283.4297)"><path
             d="m 0,0 c 0,-39.745 -32.22,-71.965 -71.965,-71.965 -39.745,0 -71.965,32.22 -71.965,71.965 0,39.745 32.22,71.965 71.965,71.965 C -32.22,71.965 0,39.745 0,0 Z"
             style="fill:none;stroke:#000000;stroke-width:15;stroke-linecap:round;stroke-linejoin:round;stroke-miterlimit:10;stroke-dasharray:none;stroke-opacity:1"
             id="path7074" /></g><g
           id="g7076"
           transform="translate(290.6523,282.6875)"><path
             d="m 0,0 v -24.207 c 6.195,1.147 10.096,4.818 10.096,11.357 C 10.096,-5.622 5.622,-2.409 0,0 m -5.392,14.913 v 20.88 c -6.424,-0.804 -11.013,-3.671 -11.013,-9.637 0,-6.539 4.933,-8.948 11.013,-11.243 M -6.08,-35.564 c -14.226,0.229 -23.862,7.916 -23.862,13.537 0,2.754 2.409,6.54 5.277,6.54 3.786,0 6.884,-8.032 18.585,-8.949 V 2.523 c -10.325,3.671 -21.797,7.801 -21.797,22.486 0,14.455 10.898,20.19 21.797,21.338 v 3.327 c 0,1.377 1.377,2.639 3.327,2.639 1.721,0 3.441,-1.262 3.441,-2.639 v -3.098 c 7.801,-0.229 18.815,-2.638 18.815,-8.26 0,-2.179 -1.607,-6.539 -5.048,-6.539 -2.753,0 -5.736,3.671 -13.767,4.245 V 12.733 c 9.981,-3.67 20.879,-8.718 20.879,-24.32 0,-14.111 -8.489,-21.912 -20.879,-23.633 v -3.9 c 0,-1.377 -1.72,-2.639 -3.441,-2.639 -1.95,0 -3.327,1.262 -3.327,2.639 z"
             style="fill:#000000;fill-opacity:1;fill-rule:nonzero;stroke:none"
             id="path7078" /></g></g></g></g></svg>
