<?xml version="1.0" encoding="UTF-8" standalone="no"?>
<!-- Created with Inkscape (http://www.inkscape.org/) -->

<svg
   version="1.1"
   id="svg552"
   xml:space="preserve"
   width="682.66669"
   height="682.66669"
   viewBox="0 0 682.66669 682.66669"
   xmlns="http://www.w3.org/2000/svg"
   xmlns:svg="http://www.w3.org/2000/svg"><defs
     id="defs556"><clipPath
       clipPathUnits="userSpaceOnUse"
       id="clipPath566"><path
         d="M 0,512 H 512 V 0 H 0 Z"
         id="path564" /></clipPath></defs><g
     id="g558"
     transform="matrix(1.3333333,0,0,-1.3333333,0,682.66667)"><g
       id="g560"><g
         id="g562"
         clip-path="url(#clipPath566)"><g
           id="g568"
           transform="translate(423.3072,118.3866)"><path
             d="m 0,0 c 0,16.204 -13.136,29.34 -29.34,29.34 -16.204,0 -29.34,-13.136 -29.34,-29.34 0,-16.204 13.136,-29.34 29.34,-29.34 C -13.136,-29.34 0,-16.204 0,0"
             style="fill:#ffc66c;fill-opacity:1;fill-rule:nonzero;stroke:none"
             id="path570" /></g><g
           id="g572"
           transform="translate(334.8683,54.8385)"><path
             d="m 0,0 c 0,13.255 -10.745,24 -24,24 -13.255,0 -24,-10.745 -24,-24 0,-13.255 10.745,-24 24,-24 13.255,0 24,10.745 24,24"
             style="fill:#ffc66c;fill-opacity:1;fill-rule:nonzero;stroke:none"
             id="path574" /></g><g
           id="g576"
           transform="translate(491.3845,307.673)"><path
             d="m 0,0 c 6.752,11.878 10.615,25.613 10.615,40.253 0,40.876 -30.059,74.729 -69.278,80.666 -13.828,42.599 -53.837,73.399 -101.046,73.399 -35.529,0 -66.98,-17.447 -86.265,-44.237 -15.662,26.482 -44.505,44.246 -77.502,44.246 -44.161,0 -80.889,-31.813 -88.524,-73.771 -22.952,-1.487 -41.111,-20.563 -41.111,-43.89 0,-5.566 1.045,-10.886 2.931,-15.788 -19.024,-13.684 -31.205,-34.673 -31.205,-58.219 0,-41.253 37.366,-74.695 83.459,-74.695 1.53,0 3.049,0.043 4.558,0.116 8.663,-31.36 37.381,-54.396 71.497,-54.396 22.959,0 43.478,10.433 57.086,26.812 18.563,-21.154 45.795,-34.512 76.151,-34.512 22.638,0 43.54,7.43 60.405,19.981 23.443,-15.458 54.683,-16.887 80.084,-1.075 22.599,14.068 35,38.308 34.981,63.103 13.573,2.791 23.779,14.805 23.779,29.203 C 10.615,-13.653 6.489,-5.469 0,0"
             style="fill:#ffc66c;fill-opacity:1;fill-rule:nonzero;stroke:none"
             id="path578" /></g><g
           id="g580"
           transform="translate(423.3072,118.3866)"><path
             d="m 0,0 c 0,16.204 -13.136,29.34 -29.34,29.34 -16.204,0 -29.34,-13.136 -29.34,-29.34 0,-16.204 13.136,-29.34 29.34,-29.34 C -13.136,-29.34 0,-16.204 0,0 Z"
             style="fill:none;stroke:#000000;stroke-width:20;stroke-linecap:round;stroke-linejoin:round;stroke-miterlimit:10;stroke-dasharray:none;stroke-opacity:1"
             id="path582" /></g><g
           id="g584"
           transform="translate(334.8683,54.8385)"><path
             d="m 0,0 c 0,13.255 -10.745,24 -24,24 -13.255,0 -24,-10.745 -24,-24 0,-13.255 10.745,-24 24,-24 13.255,0 24,10.745 24,24 z"
             style="fill:none;stroke:#000000;stroke-width:20;stroke-linecap:round;stroke-linejoin:round;stroke-miterlimit:10;stroke-dasharray:none;stroke-opacity:1"
             id="path586" /></g><g
           id="g588"
           transform="translate(256,10)"><path
             d="M 0,0 V 0"
             style="fill:none;stroke:#000000;stroke-width:20;stroke-linecap:round;stroke-linejoin:round;stroke-miterlimit:10;stroke-dasharray:none;stroke-opacity:1"
             id="path590" /></g><g
           id="g592"
           transform="translate(102.4267,343.503)"><path
             d="m 0,0 c -1.402,9.298 -9.403,16.434 -19.093,16.434 v 0 c -10.678,0 -19.334,-8.656 -19.334,-19.334 v -23.2 c 0,-10.678 8.656,-19.334 19.334,-19.334 v 0 c 9.69,0 17.691,7.135 19.093,16.433"
             style="fill:none;stroke:#000000;stroke-width:20;stroke-linecap:round;stroke-linejoin:round;stroke-miterlimit:10;stroke-dasharray:none;stroke-opacity:1"
             id="path594" /></g><g
           id="g596"
           transform="translate(303.206,343.503)"><path
             d="m 0,0 c -1.402,9.298 -9.403,16.434 -19.093,16.434 v 0 c -10.678,0 -19.334,-8.656 -19.334,-19.334 v -23.2 c 0,-10.678 8.656,-19.334 19.334,-19.334 v 0 c 9.69,0 17.691,7.135 19.093,16.433"
             style="fill:none;stroke:#000000;stroke-width:20;stroke-linecap:round;stroke-linejoin:round;stroke-miterlimit:10;stroke-dasharray:none;stroke-opacity:1"
             id="path598" /></g><g
           id="g600"
           transform="translate(150.9403,360.0688)"><path
             d="M 0,0 V 0 C -10.611,0 -19.213,-8.602 -19.213,-19.213 V -42.787 C -19.213,-53.398 -10.611,-62 0,-62 v 0 c 10.611,0 19.213,8.602 19.213,19.213 v 23.574 C 19.213,-8.602 10.611,0 0,0 Z"
             style="fill:none;stroke:#000000;stroke-width:20;stroke-linecap:round;stroke-linejoin:round;stroke-miterlimit:10;stroke-dasharray:none;stroke-opacity:1"
             id="path602" /></g><g
           id="g604"
           transform="translate(200.4146,298.0688)"><path
             d="M 0,0 V 61.868 L 35.545,0 v 61.868"
             style="fill:none;stroke:#000000;stroke-width:20;stroke-linecap:round;stroke-linejoin:round;stroke-miterlimit:10;stroke-dasharray:none;stroke-opacity:1"
             id="path606" /></g><g
           id="g608"
           transform="translate(354.7617,298.0688)"><path
             d="M 0,0 H -21.135 V 61.868 H 0"
             style="fill:none;stroke:#000000;stroke-width:20;stroke-linecap:round;stroke-linejoin:round;stroke-miterlimit:10;stroke-dasharray:none;stroke-opacity:1"
             id="path610" /></g><g
           id="g612"
           transform="translate(334.3315,329.0688)"><path
             d="M 0,0 H 17.26"
             style="fill:none;stroke:#000000;stroke-width:20;stroke-linecap:round;stroke-linejoin:round;stroke-miterlimit:10;stroke-dasharray:none;stroke-opacity:1"
             id="path614" /></g><g
           id="g616"
           transform="translate(396.3474,329.0688)"><path
             d="M 0,0 H -12.726 V 30.868 H 0 c 8.524,0 15.434,-6.91 15.434,-15.434 v 0 C 15.434,6.91 8.524,0 0,0 Z"
             style="fill:none;stroke:#000000;stroke-width:20;stroke-linecap:round;stroke-linejoin:round;stroke-miterlimit:10;stroke-dasharray:none;stroke-opacity:1"
             id="path618" /></g><g
           id="g620"
           transform="translate(383.6211,329.0688)"><path
             d="M 0,0 V -31"
             style="fill:none;stroke:#000000;stroke-width:20;stroke-linecap:round;stroke-linejoin:round;stroke-miterlimit:10;stroke-dasharray:none;stroke-opacity:1"
             id="path622" /></g><g
           id="g624"
           transform="translate(448,298.0688)"><path
             d="M 0,0 V 61.868"
             style="fill:none;stroke:#000000;stroke-width:20;stroke-linecap:round;stroke-linejoin:round;stroke-miterlimit:10;stroke-dasharray:none;stroke-opacity:1"
             id="path626" /></g><g
           id="g628"
           transform="translate(434.3466,359.9366)"><path
             d="M 0,0 H 27.307"
             style="fill:none;stroke:#000000;stroke-width:20;stroke-linecap:round;stroke-linejoin:round;stroke-miterlimit:10;stroke-dasharray:none;stroke-opacity:1"
             id="path630" /></g><g
           id="g632"
           transform="translate(491.3845,307.673)"><path
             d="m 0,0 c 6.752,11.878 10.615,25.613 10.615,40.253 0,40.876 -30.059,74.729 -69.278,80.666 -13.828,42.599 -53.837,73.399 -101.046,73.399 -35.529,0 -66.98,-17.447 -86.265,-44.237 -15.662,26.482 -44.505,44.246 -77.502,44.246 -44.161,0 -80.889,-31.813 -88.524,-73.771 -22.952,-1.487 -41.111,-20.563 -41.111,-43.89 0,-5.566 1.045,-10.886 2.931,-15.788 -19.024,-13.684 -31.205,-34.673 -31.205,-58.219 0,-41.253 37.366,-74.695 83.459,-74.695 1.53,0 3.049,0.043 4.558,0.116 8.663,-31.36 37.381,-54.396 71.497,-54.396 22.959,0 43.478,10.433 57.086,26.812 18.563,-21.154 45.795,-34.512 76.151,-34.512 22.638,0 43.54,7.43 60.405,19.981 23.443,-15.458 54.683,-16.887 80.084,-1.075 22.599,14.068 35,38.308 34.981,63.103 13.573,2.791 23.779,14.805 23.779,29.203 C 10.615,-13.653 6.489,-5.469 0,0 Z"
             style="fill:none;stroke:#000000;stroke-width:20;stroke-linecap:round;stroke-linejoin:round;stroke-miterlimit:10;stroke-dasharray:none;stroke-opacity:1"
             id="path634" /></g><g
           id="g636"
           transform="translate(299.3929,448.9285)"><path
             d="M 0,0 C -0.012,-0.008 -0.025,-0.015 -0.037,-0.023"
             style="fill:none;stroke:#000000;stroke-width:20;stroke-linecap:round;stroke-linejoin:round;stroke-miterlimit:10;stroke-dasharray:none;stroke-opacity:1"
             id="path638" /></g><g
           id="g640"
           transform="translate(390.8721,415.0063)"><path
             d="M 0,0 C -8.346,25.71 -32.135,42.985 -59.196,42.985"
             style="fill:none;stroke:#000000;stroke-width:20;stroke-linecap:round;stroke-linejoin:round;stroke-miterlimit:10;stroke-dasharray:none;stroke-opacity:1"
             id="path642" /></g></g></g></g></svg>
