<svg height="512" viewBox="0 0 345 345" width="512" xmlns="http://www.w3.org/2000/svg"><g id="Layer_4" data-name="Layer 4"><path d="m161.6 8.51c47.4-8.34 76.4 12.29 118.25 25.76 48.18 15.49 54 75 62.77 125s-6.21 107.79-52.56 134.1-68.28 40.63-95.62 43.94c-30.39 3.62-47.07-.16-108-34.09-61.63-34.3-81.78-70.46-81.78-130.31s8.34-93.57 60.58-125.01 48.91-31.06 96.36-39.39z" fill="#da9c61"/><g fill="#ae794d"><path d="m106.17 272.32c6.53-1.3 10.5 1.92 16.26 4 6.63 2.42 7.43 11.71 8.63 19.52s-.85 16.83-7.23 20.94-9.39 6.35-13.15 6.86c-4.18.57-6.47 0-14.86-5.32s-11.24-11-11.24-20.35 1.14-14.61 8.33-19.52 6.74-4.83 13.26-6.13z"/><path d="m278.16 277.85c4.73 4.51 5.08 9.18 7.2 14.72 2.44 6.37-2.94 11.46-7.14 16.15s-11.12 7.4-17.52 4.36-9.62-4.33-12.2-7c-2.86-3-3.86-5.1-5.54-14.23s.21-14.12 6.1-18.6 9.89-6.11 17.29-2.82 7.09 2.92 11.81 7.42z"/><path d="m281.06 26.94c6.35.43 9.71 3.24 14.89 5.68 6 2.81 5.53 8.87 5.67 14.06a11.6 11.6 0 0 1 -9.55 11.91c-6.57 1.38-9.72 2.23-13.35 1.83-4-.44-6.13-1.26-13.39-6.24s-9.24-9.15-8-15.08 3-9.06 10.41-10.79 6.96-1.8 13.32-1.37z"/><path d="m31 177c5 3.89 6.06 8.15 8.88 13.11 3.24 5.71-.75 10.63-3.74 15.12a12.27 12.27 0 0 1 -15 4.85c-6.24-2.47-9.35-3.5-12.1-5.85-3.06-2.62-4.3-4.48-7.31-12.75s-2.14-12.92 2.41-17.31 7.87-6.08 15-3.42 6.93 2.34 11.86 6.25z"/><path d="m112.29 28.16c4 3.26 3.46 7.55 4.57 12.29 1.27 5.46-5.36 11.28-10.69 16.51s-13.09 9.14-19.17 7.58-9.18-2.12-11.32-4.13c-2.38-2.24-3-4-2.93-12.18s3.05-13.23 10.1-18.58 11.55-7.65 18.61-6.09 6.8 1.34 10.83 4.6z"/><path d="m328.29 195.16c4 3.26 3.46 7.55 4.57 12.29 1.27 5.46-5.36 11.28-10.69 16.51s-13.09 9.14-19.17 7.59-9.18-2.12-11.32-4.13c-2.38-2.24-3-4-2.93-12.18s3-13.22 10.09-18.58 11.55-7.69 18.61-6.09 6.81 1.33 10.84 4.59z"/></g><rect fill="#feef9e" height="27" rx="3" transform="matrix(.747 -.665 .665 .747 -150.09 107.79)" width="6" x="63.5" y="237.5"/><rect fill="#feef9e" height="27" rx="3" transform="matrix(.185 .983 -.983 .185 470.96 -69.72)" width="6" x="274.5" y="235.5"/><rect fill="#feef9e" height="27" rx="3" transform="matrix(.841 .54 -.54 .841 136.77 -142.09)" width="6" x="307.5" y="148.5"/><rect fill="#feef9e" height="27" rx="3" transform="matrix(.637 .771 -.771 .637 81.91 -107.9)" width="6" x="152.5" y="19.5"/><path d="m342.62 159.27c-7.77-44.35-13.25-96.19-48-118.14 19.11 25.95 23.83 65.91 30 101.14 8.76 50-6.21 107.79-52.56 134.1s-68.28 40.63-95.62 43.94c-30.39 3.62-47.07-.16-108-34.09a241.58 241.58 0 0 1 -34-22.41c12.48 14.1 29.45 26.88 52 39.41 61 33.94 77.64 37.72 108 34.09 27.34-3.26 49.27-17.63 95.62-43.94s61.32-84.1 52.56-134.1z" fill="#c48b56"/><path d="m332.86 207.45c-1.11-4.74-.53-9-4.57-12.29a31.11 31.11 0 0 0 -3-2.29 76.09 76.09 0 0 0 -10.91 36.73 31.87 31.87 0 0 0 7.83-5.64c5.29-5.23 11.92-11.05 10.65-16.51z" fill="#986842"/><path d="m84.64 295.09c0 .93-.05 1.89-.05 2.91 0 9.35 2.77 15 11.24 20.35s10.68 5.89 14.86 5.32c3.76-.51 6.78-2.75 13.15-6.86a13.67 13.67 0 0 0 2.44-2 83.81 83.81 0 0 0 -41.64-19.72z" fill="#986842"/><path d="m278.16 277.85c-1.51-1.44-2.5-2.38-3.4-3.11-.89.55-1.66 1.41-2.7 1.62-11.26 2.32-20.65 8.8-28.89 16.51 1.56 8.21 2.59 10.27 5.33 13.16 2.57 2.71 5.79 4 12.2 7s13.32.33 17.52-4.36 9.58-9.78 7.14-16.15c-2.12-5.52-2.47-10.16-7.2-14.67z" fill="#986842"/><path d="m300.91 51.08a12.27 12.27 0 0 0 .7-4.4c-.14-5.19.3-11.25-5.67-14.06-5.19-2.44-8.54-5.25-14.89-5.68h-.41c1.89 5.77 8.8 13.24 20.27 24.14z" fill="#986842"/></g><g id="Emoticons"><circle id="path941-4-21-1-4-6-3" cx="231.12" cy="135.58" fill="#fff" r="66.38"/><circle id="path941-8-5-3-2-52-0-0" cx="224.7" cy="135.58" r="49.73"/><path d="m271.93 64.66a6.21 6.21 0 0 1 -4.38-1.8c-8.74-8.65-23.06-12.65-34.83-9.73a6.23 6.23 0 0 1 -3-12.09c16-4 34.73 1.24 46.59 13a6.23 6.23 0 0 1 -4.38 10.65z"/><path d="m46.07 64.66a6.23 6.23 0 0 1 -4.38-10.66c11.85-11.72 30.57-16.92 46.58-13a6.23 6.23 0 0 1 -3 12.09c-11.77-2.89-26.08 1.12-34.82 9.77a6.21 6.21 0 0 1 -4.38 1.8z"/><path d="m189.83 126.34a6.23 6.23 0 0 1 -5.72-8.67c4.83-11.29 16-21.39 27.23-24.55a6.23 6.23 0 0 1 3.39 12c-7.58 2.14-15.82 9.65-19.16 17.46a6.23 6.23 0 0 1 -5.74 3.76z" fill="#fff"/><circle id="path941-4-21-1-4-6-3-9" cx="86.88" cy="135.58" fill="#fff" r="66.38"/><circle id="path941-8-5-3-2-52-0-0-6" cx="93.3" cy="135.58" r="49.73"/><path d="m58.43 126.34a6.23 6.23 0 0 1 -5.72-8.67c4.83-11.29 16-21.39 27.23-24.55a6.23 6.23 0 0 1 3.39 12c-7.58 2.14-15.82 9.65-19.16 17.46a6.23 6.23 0 0 1 -5.74 3.76z" fill="#fff"/><path d="m159 242.11c-15.49 0-31-3-41.43-9.05a6.23 6.23 0 0 1 6.23-10.78c17.11 9.88 53.3 9.88 70.41 0a6.23 6.23 0 0 1 6.23 10.78c-10.44 6.03-25.95 9.05-41.44 9.05z"/></g></svg>