<svg id="Capa_1" enable-background="new 0 0 512 512" height="512" viewBox="0 0 512 512" width="512" xmlns="http://www.w3.org/2000/svg"><g><path d="m473.092 231.722-22.564-151.974-11.921-2.614c-120.309-26.381-244.905-26.381-365.214 0l-11.921 2.614-22.564 151.974z" fill="#d09080"/><path d="m61.472 226.129v-167.172c0-1.85-1.5-3.35-3.35-3.35h-38.429c-1.85 0-3.35 1.5-3.35 3.35v195.158c9.17-18.675 25.368-20.893 45.129-27.986z" fill="#d09080"/><path d="m40.868 55.608v116.924c0 11.376-5.762 22.04-15.408 28.071-3.196 1.998-6.241 4.215-9.117 6.628v46.885c9.169-18.676 25.368-20.893 45.128-27.987v-167.172c0-1.85-1.5-3.35-3.35-3.35h-17.253z" fill="#c67d66"/><path d="m50.03 334.677h411.941v70.937h-411.941z" fill="#d09080"/><path d="m438.607 77.134c-9.736-2.135-19.499-4.097-29.286-5.886v90.749c0 14.744-12.064 26.47-26.808 26.419-.095 0-.19-.001-.285-.001h-320.756l-2.848 12.822 2.848 12.478c8.469-3.04 397.85 14.967 406.318 18.006l-17.262-151.973z" fill="#c67d66"/><path d="m416.281 334.677v8.012c0 23.373-18.948 42.321-42.321 42.321h-319.448l-2.462 12.797 2.462 7.806h413.278v-70.937h-51.509z" fill="#c67d66"/><path d="m230.854 116.867h-124.03c-5.635 0-10.203 4.568-10.203 10.203v81.95h144.435v-81.95c.001-5.636-4.567-10.203-10.202-10.203z" fill="#f6f9f9"/><path d="m405.176 116.867h-124.03c-5.635 0-10.203 4.568-10.203 10.203v81.95h144.435v-81.95c.001-5.636-4.567-10.203-10.202-10.203z" fill="#f6f9f9"/><path d="m230.854 116.867h-31.005v32.683c0 21.465-17.401 38.866-38.866 38.866h-64.362v20.604h144.435v-81.95c.001-5.636-4.567-10.203-10.202-10.203z" fill="#e7ecf1"/><path d="m405.176 116.867h-31.005v32.683c0 21.465-17.401 38.866-38.866 38.866h-64.362v20.604h144.435v-81.95c.001-5.636-4.567-10.203-10.202-10.203z" fill="#e7ecf1"/><path d="m54.512 334.677h402.977l10.302-27.023v-18.224c0-24.496-19.858-44.354-44.354-44.354l-344.872-5c-24.496 0-44.354 19.858-44.354 44.355l-.302 23.225z" fill="#f4d8a5"/><path d="m433.436 235.075-13.742 10c4.362 6.867 6.889 15.013 6.889 23.751v12.559c0 18.054-14.635 32.689-32.689 32.689h-346.835l7.452 20.604h402.977l20.302-37.023v-18.225c0-24.497-19.858-44.355-44.354-44.355z" fill="#f1cb86"/><path d="m495.657 254.116v-195.159c0-1.85-1.5-3.35-3.35-3.35h-38.429c-1.85 0-3.35 1.5-3.35 3.35v172.764z" fill="#d09080"/><path d="m475.053 55.608v127.99c0 13.33-12.62 22.191-24.525 19.152v28.971l45.128 22.394v-195.158c0-1.85-1.5-3.35-3.35-3.35h-17.253z" fill="#c67d66"/><path d="m44.21 324.03v-34.6c0-24.496 19.858-44.355 44.355-44.355h334.871c24.496 0 44.355 19.858 44.355 44.355v28.422h36.056v-28.422c0-44.339-36.072-80.41-80.41-80.41h-334.873c-44.338 0-80.41 36.072-80.41 80.41v34.6z" fill="#f6e7c6"/><path d="m51.162 456.392h-47.812c-1.85 0-3.35-1.5-3.35-3.35v-142.038c0-1.85 1.5-3.35 3.35-3.35h47.812c1.85 0 3.35 1.5 3.35 3.35v142.038c0 1.851-1.5 3.35-3.35 3.35z" fill="#d09080"/><path d="m508.65 456.392h-47.812c-1.85 0-3.35-1.5-3.35-3.35v-142.038c0-1.85 1.5-3.35 3.35-3.35h47.812c1.85 0 3.35 1.5 3.35 3.35v142.038c0 1.851-1.5 3.35-3.35 3.35z" fill="#d09080"/><g fill="#c67d66"><path d="m33.908 307.654v104.751c0 12.915-10.469 23.384-23.384 23.384h-10.524v17.254c0 1.85 1.5 3.35 3.35 3.35h47.812c1.85 0 3.35-1.5 3.35-3.35v-142.039c0-1.85-1.5-3.35-3.35-3.35z"/><path d="m491.396 307.654v104.751c0 12.915-10.469 23.384-23.384 23.384h-10.524v17.254c0 1.85 1.5 3.35 3.35 3.35h47.812c1.85 0 3.35-1.5 3.35-3.35v-142.039c0-1.85-1.5-3.35-3.35-3.35z"/></g></g></svg>