<svg id="Layer_1" enable-background="new 0 0 512 512" height="512" viewBox="0 0 512 512" width="512" xmlns="http://www.w3.org/2000/svg"><g><path d="m373.927 507.608-80.333-80.333c-5.858-5.858-5.858-15.355 0-21.213l96.4-96.4c2.813-2.813 6.628-4.394 10.606-4.394h80.333c8.284 0 15 6.716 15 15v80.333c0 3.978-1.581 7.793-4.394 10.606l-96.4 96.4c-5.858 5.86-15.36 5.854-21.212.001z" fill="#ff3838"/><path d="m373.927 507.608c5.852 5.852 15.354 5.859 21.213 0l96.4-96.4c2.813-2.813 4.394-6.628 4.394-10.606v-80.333c0-4.142-1.679-7.892-4.393-10.606l-157.781 157.778z" fill="#e20059"/><path d="m271 111.4c0-8.284-6.716-15-15-15h-17.133v-18.2h9.1c8.284 0 15-6.716 15-15s-6.716-15-15-15h-9.1v-18.2h17.133c8.284 0 15-6.716 15-15s-6.716-15-15-15h-32.133c-8.284 0-15 6.716-15 15v96.4c0 8.284 6.716 15 15 15h32.133c8.284 0 15-6.716 15-15z" fill="#00a8ed"/><path d="m344.367 30c8.284 0 15-6.716 15-15s-6.716-15-15-15h-32.133c-8.284 0-15 6.716-15 15v96.4c0 8.284 6.716 15 15 15h32.133c8.284 0 15-6.716 15-15s-6.716-15-15-15h-17.133v-18.2h9.1c8.284 0 15-6.716 15-15s-6.716-15-15-15h-9.1v-18.2z" fill="#008eed"/><path d="m63.2 0h-40.167c-8.284 0-15 6.716-15 15v96.4c0 8.284 6.716 15 15 15s15-6.716 15-15v-25.167h17.133c8.284 0 15-6.716 15-15s-6.716-15-15-15h-17.133v-26.233h25.167c8.284 0 15-6.716 15-15s-6.716-15-15-15z" fill="#00a8ed"/><path d="m135.5 0h-24.1c-8.284 0-15 6.716-15 15v96.4c0 8.284 6.716 15 15 15s15-6.716 15-15v-17.133h2.887l27.74 27.74c5.857 5.858 15.355 5.858 21.213 0s5.858-15.355 0-21.213l-15.343-15.344c11.937-8.56 19.737-22.54 19.737-38.317-.001-25.989-21.145-47.133-47.134-47.133zm0 64.267h-9.1v-34.267h9.1c9.447 0 17.133 7.686 17.133 17.133s-7.686 17.134-17.133 17.134z" fill="#00a8ed"/><path d="m182.633 199.767c0-25.989-21.144-47.133-47.133-47.133h-24.1c-8.284 0-15 6.716-15 15v96.4c0 8.284 6.716 15 15 15s15-6.716 15-15v-17.134h2.887l27.74 27.74c5.857 5.858 15.355 5.858 21.213 0s5.858-15.355 0-21.213l-15.343-15.343c11.937-8.56 19.736-22.541 19.736-38.317zm-47.133 17.133h-9.1v-34.267h9.1c9.447 0 17.133 7.686 17.133 17.133s-7.686 17.134-17.133 17.134z" fill="#08475e"/><path d="m304.2 152.633c-26.031 0-47.133 21.05-47.133 47.133v64.267c0 8.284 6.716 15 15 15s15-6.716 15-15v-17.133h34.267v17.133c0 8.284 6.716 15 15 15s15-6.716 15-15v-64.267c-.001-26.032-21.05-47.133-47.134-47.133zm17.133 64.267h-34.267v-17.133c0-9.468 7.655-17.133 17.133-17.133 9.449 0 17.133 7.635 17.133 17.133v17.133z" fill="#05303d"/><path d="m215.833 152.633c-8.284 0-15 6.716-15 15v96.4c0 8.284 6.716 15 15 15s15-6.716 15-15v-96.4c0-8.284-6.715-15-15-15z" fill="#08475e"/><path d="m63.2 152.633h-48.2c-8.284 0-15 6.716-15 15s6.716 15 15 15h9.1v81.4c0 8.284 6.716 15 15 15s15-6.716 15-15v-81.4h9.1c8.284 0 15-6.716 15-15s-6.716-15-15-15z" fill="#08475e"/><path d="m424.7 249.033h-17.133v-81.4c0-8.284-6.716-15-15-15s-15 6.716-15 15v96.4c0 8.284 6.716 15 15 15h32.133c8.284 0 15-6.716 15-15s-6.716-15-15-15z" fill="#05303d"/><path d="m438.193 363.008c-5.858-5.858-5.858-15.355 0-21.213l48.2-48.2c5.858-5.858 15.355-5.857 21.213 0 5.858 5.858 5.858 15.355 0 21.213l-48.2 48.2c-5.848 5.848-15.344 5.868-21.213 0z" fill="#f0f5ff"/><path d="m507.607 293.596c5.858 5.858 5.858 15.355 0 21.213l-48.2 48.2c-5.848 5.848-15.345 5.868-21.213 0z" fill="#d8f1fb"/><g fill="#008eed"><path d="m262.967 63.2c0-8.284-6.716-15-15-15h-9.1v30h9.1c8.284 0 15-6.716 15-15z"/><path d="m256 126.4c8.284 0 15-6.716 15-15s-6.716-15-15-15h-17.133v30z"/><path d="m256 0h-17.133v30h17.133c8.284 0 15-6.716 15-15s-6.716-15-15-15z"/></g></g></svg>