<svg id="Capa_1" enable-background="new 0 0 512 512" height="512" viewBox="0 0 512 512" width="512" xmlns="http://www.w3.org/2000/svg"><switch><g><g><g><g><g><g><path d="m433.919 69.075h-355.838c-11.704 0-21.192 9.488-21.192 21.192v298.873c0 7.605 4.075 14.627 10.678 18.4l177.919 101.668c6.515 3.723 14.513 3.723 21.028 0l177.919-101.668c6.603-3.773 10.678-10.795 10.678-18.4v-298.872c0-11.704-9.488-21.193-21.192-21.193z" fill="#da291c"/></g></g><g><path d="m69.83 56.889h372.34c7.147 0 12.941-5.794 12.941-12.941v-31.007c0-7.147-5.794-12.941-12.941-12.941h-372.34c-7.147 0-12.941 5.794-12.941 12.941v31.007c0 7.147 5.794 12.941 12.941 12.941z" fill="#da291c"/></g></g></g><g fill="#cc261a"><path d="m444.433 407.54c6.603-3.773 10.678-10.795 10.678-18.4v-298.873c0-11.704-9.488-21.192-21.193-21.192h-355.837c-2.676 0-5.226.517-7.583 1.422l350.458 350.458z"/><path d="m69.83 56.889h372.34c7.147 0 12.941-5.794 12.941-12.941v-31.007c0-7.147-5.794-12.941-12.941-12.941h-372.34c-7.147 0-12.941 5.794-12.941 12.941v31.007c0 7.147 5.793 12.941 12.941 12.941z"/></g><path d="m352.867 221.785h-50.126c-6.918 0-12.527-5.608-12.527-12.527v-50.126c0-6.918-5.608-12.527-12.527-12.527h-43.376c-6.918 0-12.527 5.608-12.527 12.527v50.126c0 6.918-5.608 12.527-12.527 12.527h-50.126c-6.918 0-12.527 5.608-12.527 12.527v43.376c0 6.918 5.608 12.527 12.527 12.527h50.126c6.918 0 12.527 5.608 12.527 12.527v50.126c0 6.918 5.608 12.527 12.527 12.527h43.376c6.918 0 12.527-5.608 12.527-12.527v-50.126c0-6.918 5.608-12.527 12.527-12.527h50.126c6.918 0 12.527-5.608 12.527-12.527v-43.376c0-6.918-5.608-12.527-12.527-12.527z" fill="#f2f2f2"/></g></g></switch></svg>