<svg id="Capa_1" enable-background="new 0 0 512 512" height="512" viewBox="0 0 512 512" width="512" xmlns="http://www.w3.org/2000/svg"><switch><g><g><g><g><path d="m-6351.8-918.3c-9.6 0-17.3 7.8-17.3 17.3v244.5c0 6.2 3.3 12 8.7 15.1l98.7 56.4v-333.3z" fill="#fff"/><path d="m-6150.7-585 98.7-56.4c5.4-3.1 8.7-8.8 8.7-15.1v-244.5c0-9.6-7.8-17.3-17.3-17.3h-90.1z" fill="#f00"/><path d="m-6261.7-918.3v333.3l46.9 26.8c5.3 3 11.9 3 17.2 0l46.9-26.8v-333.3z" fill="#005ce5"/></g><g><path d="m-6358.5-928.3h96.8v-46.5h-96.8c-5.8 0-10.6 4.7-10.6 10.6v25.4c0 5.8 4.7 10.5 10.6 10.5z" fill="#fff"/><path d="m-6150.7-928.3h96.8c5.8 0 10.6-4.7 10.6-10.6v-25.4c0-5.8-4.7-10.6-10.6-10.6h-96.8z" fill="#f00"/><path d="m-6261.7-928.3h111v-46.5h-111z" fill="#005ce5"/></g></g><g><path d="m-6261.7-918.3h-90.1c-2.2 0-4.3.4-6.2 1.2l96.3 96.3z" fill="#f2f2f2"/><path d="m-6071.3-630.4 19.2-11c5.4-3.1 8.7-8.8 8.7-15.1v-244.5c0-9.6-7.8-17.3-17.3-17.3h-90.1v208.4z" fill="#f20000"/><path d="m-6150.7-709.9v-208.4h-111v97.4z" fill="#0057d8"/><g><path d="m-6358.5-928.3h96.8v-46.5h-96.8c-5.8 0-10.6 4.7-10.6 10.6v25.4c0 5.8 4.7 10.5 10.6 10.5z" fill="#f2f2f2"/><path d="m-6150.7-928.3h96.8c5.8 0 10.6-4.7 10.6-10.6v-25.4c0-5.8-4.7-10.6-10.6-10.6h-96.8z" fill="#f20000"/><path d="m-6261.7-928.3h111v-46.5h-111z" fill="#0057d8"/></g></g><g><g><path d="m-6218.9-865.7v60c0 13.8-7.1 26.6-18.7 33.9l-20.3 12.8c-2.3 1.5-5.3 1.5-7.6 0l-15.8-10c-14.5-9.1-23.2-25-23.2-42.1v-54.6c-.6.1-1.2.2-1.8.3v54.5c0 17.8 9.1 34.4 24.2 43.9l16.7 10.5c2.3 1.5 5.3 1.5 7.6 0l21.2-13.4c12.3-7.7 19.7-21.2 19.7-35.7v-58.4-1.4c-.8-.1-1.4-.2-2-.3z" fill="#f00"/><path d="m-6281.9-769.3 17.1 10.8c1.9 1.2 4.3 1.2 6.2 0l21.6-13.6c11.3-7.1 18.1-19.5 18.1-32.8v-59.8c0-.5-.4-1-.9-1.1-27.7-5.1-56.2-5.1-83.9 0-.5.1-.9.5-.9 1.1v54.5c0 16.5 8.6 32 22.7 40.9z" fill="#005ce5"/><g fill="#fff"><path d="m-6236.2-784.7c-3.5 0-5.3-1.6-6.9-3.1-1.5-1.4-3-2.7-5.9-2.7s-4.4 1.3-5.9 2.7c-1.6 1.4-3.4 3.1-6.9 3.1s-5.3-1.6-6.9-3.1c-1.5-1.4-3-2.7-5.9-2.7s-4.4 1.3-5.9 2.7c-1.6 1.4-3.4 3.1-6.9 3.1s-5.3-1.6-6.9-3.1c-1.2-1.1-2.3-2.1-4.2-2.5.9 1.8 1.9 3.6 3 5.3.8.5 1.5 1.1 2.1 1.7 1.5 1.4 3 2.7 5.9 2.7s4.4-1.3 5.9-2.7c1.6-1.4 3.4-3.1 6.9-3.1s5.3 1.6 6.9 3.1c1.5 1.4 3 2.7 5.9 2.7s4.4-1.3 5.9-2.7c1.6-1.4 3.4-3.1 6.9-3.1s5.3 1.6 6.9 3.1c1.5 1.4 3 2.7 5.9 2.7s4.4-1.3 5.9-2.7c.6-.6 1.3-1.2 2.1-1.7 1.1-1.7 2.1-3.5 3-5.3-1.8.4-3 1.4-4.2 2.5-1.5 1.5-3.3 3.1-6.7 3.1z"/><path d="m-6243.1-782.1c-1.5-1.4-3-2.7-5.9-2.7s-4.4 1.3-5.9 2.7c-1.6 1.4-3.4 3.1-6.9 3.1s-5.3-1.6-6.9-3.1c-1.5-1.4-3-2.7-5.9-2.7s-4.4 1.3-5.9 2.7c-1.6 1.4-3.4 3.1-6.9 3.1-2 0-3.4-.6-4.6-1.3 3 3.6 6.6 6.7 10.6 9.3l16.9 10.7c1.5 1 3.5 1 5 0l16.9-10.7c4.1-2.6 7.6-5.7 10.7-9.3-1.2.7-2.6 1.3-4.6 1.3-3.2-.1-5-1.7-6.6-3.1z"/><path d="m-6287.2-786.1c2.9 0 4.4-1.3 5.9-2.7 1.6-1.4 3.4-3.1 6.9-3.1s5.3 1.6 6.9 3.1c1.5 1.4 3 2.7 5.9 2.7s4.4-1.3 5.9-2.7c1.6-1.4 3.4-3.1 6.9-3.1s5.3 1.6 6.9 3.1c1.5 1.4 3 2.7 5.9 2.7s4.4-1.3 5.9-2.7c1.4-1.3 3-2.7 5.9-3 .4-.9.8-1.8 1.1-2.7l-19.5-27.6-7.7 8.1-11.1-19.4-11.1 19.4-7.7-8.1-19.5 27.6c.3.9.7 1.8 1.1 2.7 2.8.3 4.5 1.7 5.9 3 1.1 1.4 2.6 2.7 5.5 2.7z"/></g></g><g fill="#ffe500"><path d="m-6261.4-846.5.5 1.2c.1.1.2.2.4.2l1.3-.1c.3 0 .5.3.3.6l-.8 1.1c-.1.1-.1.3 0 .4l.8 1.1c.2.2 0 .6-.3.6l-1.3-.1c-.2 0-.3.1-.4.2l-.5 1.2c-.1.3-.5.3-.6 0l-.5-1.2c-.1-.1-.2-.2-.4-.2l-1.3.1c-.3 0-.5-.3-.3-.6l.8-1.1c.1-.1.1-.3 0-.4l-.8-1.1c-.2-.2 0-.6.3-.6l1.3.1c.2 0 .3-.1.4-.2l.5-1.2c.1-.3.5-.3.6 0z"/><g><path d="m-6271.6-860.5.5 1.2c.1.1.2.2.4.2l1.3-.1c.3 0 .5.3.3.6l-.8 1.1c-.1.1-.1.3 0 .4l.8 1.1c.2.2 0 .6-.3.6l-1.3-.1c-.2 0-.3.1-.4.2l-.5 1.2c-.1.3-.5.3-.6 0l-.5-1.2c-.1-.1-.2-.2-.4-.2l-1.3.1c-.3 0-.5-.3-.3-.6l.8-1.1c.1-.1.1-.3 0-.4l-.8-1.1c-.2-.2 0-.6.3-.6l1.3.1c.2 0 .3-.1.4-.2l.5-1.2c.1-.2.5-.2.6 0z"/><path d="m-6251.2-860.5.5 1.2c.1.1.2.2.4.2l1.3-.1c.3 0 .5.3.3.6l-.8 1.1c-.1.1-.1.3 0 .4l.8 1.1c.2.2 0 .6-.3.6l-1.3-.1c-.2 0-.3.1-.4.2l-.5 1.2c-.1.3-.5.3-.6 0l-.5-1.2c-.1-.1-.2-.2-.4-.2l-1.3.1c-.3 0-.5-.3-.3-.6l.8-1.1c.1-.1.1-.3 0-.4l-.8-1.1c-.2-.2 0-.6.3-.6l1.3.1c.2 0 .3-.1.4-.2l.5-1.2c0-.2.4-.2.6 0z"/></g></g></g></g><g><g><g><path d="m78.1 69.1c-11.7 0-21.2 9.5-21.2 21.2v298.9c0 7.6 4.1 14.6 10.7 18.4l120.6 68.9v-407.4z" fill="#009246"/><path d="m323.8 476.5 120.6-68.9c6.6-3.8 10.7-10.8 10.7-18.4v-298.9c0-11.7-9.5-21.2-21.2-21.2h-110.1z" fill="#ce2b37"/><path d="m188.2 69.1v407.4l57.3 32.8c6.5 3.7 14.5 3.7 21 0l57.3-32.8v-407.4z" fill="#f2f2f2"/></g><g><path d="m69.8 56.9h118.3v-56.9h-118.3c-7.1 0-12.9 5.8-12.9 12.9v31c0 7.2 5.8 13 12.9 13z" fill="#009246"/><path d="m323.8 56.9h118.3c7.1 0 12.9-5.8 12.9-12.9v-31c0-7.1-5.8-12.9-12.9-12.9h-118.3z" fill="#ce2b37"/><path d="m188.2 56.9h135.6v-56.9h-135.6z" fill="#f2f2f2"/></g></g><g><path d="m188.2 69.1h-110.1c-2.7 0-5.2.5-7.6 1.4l117.7 117.7z" fill="#008540"/><path d="m421 421 23.5-13.4c6.6-3.8 10.7-10.8 10.7-18.4v-298.9c0-11.7-9.5-21.2-21.2-21.2h-110.2v254.8z" fill="#c12833"/><path d="m323.8 323.8v-254.7h-135.6v119.1z" fill="#e5e5e5"/><g><path d="m69.8 56.9h118.3v-56.9h-118.3c-7.1 0-12.9 5.8-12.9 12.9v31c0 7.2 5.8 13 12.9 13z" fill="#008540"/><path d="m323.8 56.9h118.3c7.1 0 12.9-5.8 12.9-12.9v-31c0-7.1-5.8-12.9-12.9-12.9h-118.3z" fill="#c12833"/><path d="m188.2 56.9h135.6v-56.9h-135.6z" fill="#e5e5e5"/></g></g></g></g></switch></svg>