<?xml version="1.0" encoding="UTF-8" standalone="no"?>
<!-- Created with Inkscape (http://www.inkscape.org/) -->
<svg xmlns:dc="http://purl.org/dc/elements/1.1/" xmlns:cc="http://creativecommons.org/ns#" xmlns:rdf="http://www.w3.org/1999/02/22-rdf-syntax-ns#" xmlns:svg="http://www.w3.org/2000/svg" xmlns="http://www.w3.org/2000/svg" xmlns:sodipodi="http://sodipodi.sourceforge.net/DTD/sodipodi-0.dtd" xmlns:inkscape="http://www.inkscape.org/namespaces/inkscape" width="500" height="190.52" id="svg2" sodipodi:version="0.32" inkscape:version="0.46" version="1.0" sodipodi:docname="Logo La Poste Suisse.svg" inkscape:output_extension="org.inkscape.output.svg.inkscape">
  <defs id="defs4">
    <inkscape:perspective sodipodi:type="inkscape:persp3d" inkscape:vp_x="0 : 526.18109 : 1" inkscape:vp_y="0 : 1000 : 0" inkscape:vp_z="744.09448 : 526.18109 : 1" inkscape:persp3d-origin="372.04724 : 350.78739 : 1" id="perspective10"/>
    <clipPath id="clipPath2528" clipPathUnits="userSpaceOnUse">
      <path id="path2530" d="M 0,0 L 595.276,0 L 595.276,841.89 L 0,841.89 L 0,0 z"/>
    </clipPath>
    <clipPath id="clipPath2500" clipPathUnits="userSpaceOnUse">
      <path id="path2502" d="M 396.624,25.736 L 562.342,25.736 L 562.342,85.087 L 396.624,85.087 L 396.624,25.736 z"/>
    </clipPath>
    <clipPath id="clipPath2474" clipPathUnits="userSpaceOnUse">
      <path id="path2476" d="M 0,0 L 595.276,0 L 595.276,841.89 L 0,841.89 L 0,0 z"/>
    </clipPath>
    <clipPath id="clipPath2460" clipPathUnits="userSpaceOnUse">
      <path id="path2462" d="M 0,841.89 L 595.276,841.89 L 595.276,240.289 L 0,240.289 L 0,841.89 z"/>
    </clipPath>
    <inkscape:perspective id="perspective2450" inkscape:persp3d-origin="372.04724 : 350.78739 : 1" inkscape:vp_z="744.09448 : 526.18109 : 1" inkscape:vp_y="0 : 1000 : 0" inkscape:vp_x="0 : 526.18109 : 1" sodipodi:type="inkscape:persp3d"/>
    <inkscape:perspective id="perspective2726" inkscape:persp3d-origin="372.04724 : 350.78739 : 1" inkscape:vp_z="744.09448 : 526.18109 : 1" inkscape:vp_y="0 : 1000 : 0" inkscape:vp_x="0 : 526.18109 : 1" sodipodi:type="inkscape:persp3d"/>
  </defs>
  <sodipodi:namedview id="base" pagecolor="#ffffff" bordercolor="#666666" borderopacity="1.0" inkscape:pageopacity="0.0" inkscape:pageshadow="2" inkscape:zoom="1.4" inkscape:cx="341.50211" inkscape:cy="217.62312" inkscape:document-units="px" inkscape:current-layer="layer1" showgrid="false" inkscape:window-width="1280" inkscape:window-height="750" inkscape:window-x="-8" inkscape:window-y="-8"/>
  <metadata id="metadata7">
    <rdf:RDF>
      <cc:Work rdf:about="">
        <dc:format>image/svg+xml</dc:format>
        <dc:type rdf:resource="http://purl.org/dc/dcmitype/StillImage"/>
      </cc:Work>
    </rdf:RDF>
  </metadata>
  <g inkscape:label="Ebene 1" inkscape:groupmode="layer" id="layer1" transform="translate(-348.39357,-609.87421)">
    <g id="g2741">
      <path id="path2482" style="fill:#fdd205;fill-opacity:1;fill-rule:nonzero;stroke:none" d="M 358.39356,790.39403 L 838.39357,790.39403 L 838.39357,619.87431 L 358.39356,619.87431 L 358.39356,790.39403 z"/>
      <path d="M 722.48937,751.23608 L 728.4291,723.1825 L 384.29458,723.1825 L 378.36359,751.23608 L 722.48937,751.23608 z" style="fill:#ffffff;fill-opacity:1;fill-rule:nonzero;stroke:none" id="path2486"/>
      <path d="M 729.55881,674.0295 L 694.17957,674.0295 L 681.67994,732.53001 L 717.44934,732.53001 L 719.73497,721.91711 L 696.6137,721.91711 L 699.75826,707.37351 L 719.80776,707.37351 L 722.09048,696.83631 L 702.04389,696.83631 L 704.63233,684.64531 L 727.28192,684.64531 L 729.55881,674.0295 z" style="fill:#231f20;fill-opacity:1;fill-rule:nonzero;stroke:none" id="path2490"/>
      <path d="M 689.06733,674.0295 L 644.71444,674.0295 L 642.35602,684.88115 L 658.23897,684.88115 L 648.02497,732.53001 L 660.67601,732.53001 L 670.89875,684.88115 L 686.70891,684.88115 L 689.06733,674.0295 z" style="fill:#231f20;fill-opacity:1;fill-rule:nonzero;stroke:none" id="path2494"/>
      <path d="M 573.7865,673.40058 C 553.50116,673.40058 545.79407,687.16096 542.5709,703.27975 C 539.26619,719.39855 546.10853,733.16474 564.58866,733.16474 C 584.874,733.16474 592.57818,719.39855 595.80718,703.27975 C 599.10897,687.16096 592.26372,673.40058 573.7865,673.40058 M 582.28264,703.27975 C 580.23577,712.71926 576.37785,722.54602 565.68634,722.54602 C 555.3879,722.54602 553.96993,712.87358 556.09543,703.27975 C 558.13939,693.84898 561.99148,684.0164 572.68882,684.0164 C 582.99017,684.0164 584.40231,693.69175 582.28264,703.27975" style="fill:#231f20;fill-opacity:1;fill-rule:nonzero;stroke:none" id="path2506"/>
      <path d="M 525.18962,674.42343 C 523.69304,674.18759 521.57628,674.03036 519.45079,674.03036 L 503.48631,674.03036 L 490.90224,732.53087 L 503.48631,732.53087 L 507.34131,714.67965 L 514.65242,714.67965 C 518.50742,714.67965 521.02307,714.28949 523.4572,713.58197 C 532.50655,710.83048 538.3269,703.28061 539.66043,695.25907 C 541.62578,684.33171 536.11988,676.23155 525.18962,674.42343 M 527.07635,694.63016 C 526.2873,699.50714 522.98842,702.49447 518.74035,703.51937 C 517.71837,703.7523 515.83163,703.91244 514.73104,703.91244 L 509.62112,703.91244 L 513.70905,684.80049 L 519.20913,684.80049 C 520.78723,684.80049 521.96644,684.96063 522.91272,685.27508 C 526.05728,686.29706 527.94111,689.36301 527.07635,694.63016" style="fill:#231f20;fill-opacity:1;fill-rule:nonzero;stroke:none" id="path2510"/>
      <path d="M 465.90033,674.0295 L 450.80061,674.0295 L 423.19834,721.91711 L 406.2177,721.91711 L 416.51614,674.0295 L 403.85637,674.0295 L 391.27229,732.53001 L 431.06557,732.53001 L 437.74776,720.26913 L 461.33781,720.26913 L 463.07023,732.53001 L 475.72709,732.53001 L 465.90033,674.0295 z M 443.56812,709.65331 L 456.46082,686.29911 L 459.76553,709.65331 L 443.56812,709.65331 z" style="fill:#231f20;fill-opacity:1;fill-rule:nonzero;stroke:none" id="path2514"/>
      <path d="M 620.74123,685.15221 C 622.71531,684.91637 624.53217,684.91637 627.52533,684.91637 L 637.06966,684.91637 L 639.4339,674.03269 L 628.78315,674.03269 C 625.70847,674.03269 621.69042,674.03269 618.22558,674.43158 C 609.9449,675.37495 602.21742,681.29139 602.21742,691.61603 C 602.21742,698.70877 606.24421,702.02221 610.4224,704.93675 L 617.19777,709.66815 C 619.24465,711.08612 620.58982,712.26824 621.30026,713.29313 C 622.00779,714.31512 622.24654,715.02847 622.24654,716.05336 C 622.24654,717.30536 621.90297,718.32735 621.20418,719.18628 C 619.38732,721.15454 616.15541,721.72813 613.26707,721.99891 C 605.92393,722.69771 597.89365,719.81228 597.89365,719.81228 L 597.8063,720.07433 L 594.02118,730.79204 C 598.58953,732.45167 605.2892,733.15629 611.20272,733.15629 C 627.05365,733.0835 636.27478,726.14217 636.27478,714.86833 C 636.27478,709.19647 632.33243,705.41135 628.31147,702.41528 L 620.90137,696.89773 C 617.82668,694.60919 615.78272,693.034 615.78272,690.43391 C 615.78272,687.6766 617.51805,685.54528 620.74123,685.15221" style="fill:#231f20;fill-opacity:1;fill-rule:nonzero;stroke:none" id="path2518"/>
      <path d="M 788.90398,674.01319 C 788.90398,674.01319 796.36358,638.85232 796.40434,638.66016 L 748.88942,638.66016 C 748.85739,638.78536 739.01025,684.76876 738.96949,684.95511 L 750.72957,684.95511 C 750.7616,684.83282 758.30855,649.60789 758.30855,649.60789 L 782.30331,649.60789 C 782.30331,649.60789 774.77092,684.76876 774.73306,684.95511 L 810.37726,684.95511 L 805.64004,707.07769 L 770.17927,707.07769 C 770.15598,707.19997 763.10109,740.14218 763.10109,740.14218 L 736.23838,740.14218 C 736.21508,740.26156 733.93819,751.05206 733.90616,751.24132 L 772.52605,751.24132 C 772.55808,751.11612 779.65372,718.10112 779.65372,718.10112 L 814.96891,718.10112 C 814.9922,717.97301 824.38804,674.19954 824.4288,674.01319 L 788.90398,674.01319 z" style="fill:#ff0000;fill-opacity:1;fill-rule:nonzero;stroke:none" id="path2522"/>
    </g>
  </g>
</svg>