<svg height="512" viewBox="0 0 58 58" width="512" xmlns="http://www.w3.org/2000/svg"><g id="Page-1" fill="none" fill-rule="evenodd"><g id="017---Swiss-Knife" fill-rule="nonzero" transform="translate(0 -1)"><path id="Shape" d="m57.97 43.54c-.87-3.51-3.91-12.49-10.58-19.15l-7.04-7.04c1.54-.09 2.02-1.61 3.86-1.28 2.07.38 1.71 2.34 3.78 2.72 6.73 1.21 9.17-3.04 9.95-5.16.0986508-.277516.0699455-.584408-.0784589-.8388156-.1484045-.2544076-.4014141-.4304554-.6915411-.4811844l-18.37-3.31c-1.0223435-5.03478555-5.6934688-8.47573737-10.8049921-7.95942189s-9.0001711 4.82189086-8.9950079 9.95942189v21.88l-2.37-2.63c-.1845543-.2060564-.4440419-.3294842-.7203504-.3426417-.2763085-.0131576-.5463504.0850545-.7496496.2726417-1.3010781 1.1716099-3.2182748 1.3466406-4.71.43-1.38604418-.839094-2.13460399-2.4268287-1.9-4.03l.71-3.92c.01160303-.0593483.01829236-.1195523.02-.18-.00140316-.2476926-.09395723-.4861974-.26-.67-.53255168-.5896748-1.27784656-.9432167-2.07143049-.9826145-.79358392-.0393978-1.57023118.2385868-2.15856951.7726145l-4.46 4.02c-.40774723.3704771-.43904773 1.0009586-.07 1.41l18.74 21.81v.16c0 5.5228475 4.4771525 10 10 10s10-4.4771525 10-10v-13.3c5.1729367 4.300458 11.2404031 7.3922695 17.76 9.05.3398155.0836302.6986252-.0164635.9460808-.2639192.2474557-.2474556.3475494-.6062653.2639192-.9460808z" fill="#bdc3c7"/><path id="Shape" d="m56.76 44.75c-6.5195969-1.6577305-12.5870633-4.749542-17.76-9.05v-18.64c.2253622.1185972.4685519.1996604.72.24.2081433.0349805.4189447.0517108.63.05l7.04 7.04c6.67 6.66 9.71 15.64 10.58 19.15.0836302.3398155-.0164635.6986252-.2639192.9460808-.2474556.2474557-.6062653.3475494-.9460808.2639192z" fill="#95a5a5"/><path id="Shape" d="m51.521 38.75c-.3977982.0001929-.7578808-.2354119-.917-.6-1.5937775-3.7987982-3.8834087-7.2663126-6.751-10.224l-8.39-8.39c-.2599566-.2510745-.3642126-.6228779-.2726972-.9725073.0915155-.3496295.3645604-.6226744.7141899-.7141899.3496294-.0915154.7214328.0127406.9725073.2726972l8.39 8.39c3.0439231 3.133794 5.4753327 6.8088889 7.169 10.836.1348201.3089106.104956.6649539-.0794397.9470894s-.4985114.4524001-.8355603.4529106z" fill="#fff"/><path id="Shape" d="m39 11v38c0 5.5228475-4.4771525 10-10 10s-10-4.4771525-10-10v-38c0-5.5228475 4.4771525-10 10-10s10 4.4771525 10 10z" fill="#e64c3c"/><circle id="Oval" cx="29" cy="12" fill="#bdc3c7" r="4"/><path id="Shape" d="m35 46c0 1.1045695-.8954305 2-2 2h-2v2c0 1.1045695-.8954305 2-2 2s-2-.8954305-2-2v-2h-2c-1.1045695 0-2-.8954305-2-2s.8954305-2 2-2h2v-2c0-1.1045695.8954305-2 2-2s2 .8954305 2 2v2h2c1.1045695 0 2 .8954305 2 2z" fill="#fff"/><g fill="#c03a2b"><path id="Shape" d="m23 36c-.5522847 0-1-.4477153-1-1v-10c0-.5522847.4477153-1 1-1s1 .4477153 1 1v10c0 .5522847-.4477153 1-1 1z"/><path id="Shape" d="m35 36c-.5522847 0-1-.4477153-1-1v-10c0-.5522847.4477153-1 1-1s1 .4477153 1 1v10c0 .5522847-.4477153 1-1 1z"/><path id="Shape" d="m29 17c-2.7614237 0-5-2.2385763-5-5 0-2.76142375 2.2385763-5 5-5s5 2.23857625 5 5c-.0033061 2.7600532-2.2399468 4.9966939-5 5zm0-8c-1.6568542 0-3 1.3431458-3 3s1.3431458 3 3 3 3-1.3431458 3-3-1.3431458-3-3-3z"/></g></g></g></svg>