<svg height="512" viewBox="0 0 512 512" width="512" xmlns="http://www.w3.org/2000/svg"><g id="BULINE"><circle cx="256" cy="256" fill="#a99bd4" r="256"/></g><g id="Icons"><circle cx="256" cy="256" fill="#db1b1b" r="256"/><path d="m289.5 509.89a258.49 258.49 0 0 1 -33 2.11c-141.38 0-256-114.62-256-256s114.62-256 256-256a258.49 258.49 0 0 1 33 2.11c-125.8 16.19-223 123.68-223 253.89s97.2 237.7 223 253.89z" fill="#c61717"/><path d="m407 213.13h-100.47a7.66 7.66 0 0 1 -7.66-7.66v-100.47a7.65 7.65 0 0 0 -7.65-7.66h-70.44a7.65 7.65 0 0 0 -7.65 7.66v100.47a7.66 7.66 0 0 1 -7.66 7.66h-100.47a7.65 7.65 0 0 0 -7.66 7.65v70.44a7.66 7.66 0 0 0 7.66 7.65h100.47a7.66 7.66 0 0 1 7.66 7.65v100.48a7.64 7.64 0 0 0 7.65 7.65h70.44a7.64 7.64 0 0 0 7.65-7.65v-100.48a7.66 7.66 0 0 1 7.66-7.65h100.47a7.66 7.66 0 0 0 7.66-7.65v-70.44a7.65 7.65 0 0 0 -7.66-7.65z" fill="#fff"/><g fill="#e03636"><circle cx="445.56" cy="142.83" r="16.28"/><circle cx="421.58" cy="118.85" r="11.53"/></g></g></svg>