<svg id="Flat" height="512" viewBox="0 0 128 128" width="512" xmlns="http://www.w3.org/2000/svg"><path d="m126 20.948v66.9h-124v-66.9a5.227 5.227 0 0 1 5.228-5.228h113.544a5.227 5.227 0 0 1 5.228 5.228z" fill="#dbe2eb"/><g opacity=".5"><path d="m122.55 16.047-.014 69.075-120.536-.012v2.734h124v-66.9a5.211 5.211 0 0 0 -3.45-4.897z" fill="#bac2d3"/></g><path d="m2 87.844v19.206a5.228 5.228 0 0 0 5.228 5.229h113.544a5.228 5.228 0 0 0 5.228-5.229v-19.206z" fill="#84879c"/><path d="m126 87.844v19.211a5.229 5.229 0 0 1 -5.226 5.225h-113.548a5.213 5.213 0 0 1 -4.852-3.3h117.977a2.088 2.088 0 0 0 2.086-2.087v-19.049z" fill="#707583"/><path d="m114.607 101.032h-99.968a.969.969 0 1 1 0-1.937h99.968a.969.969 0 1 1 0 1.937z" fill="#2f3a5a"/><path d="m78.737 50.082-19.746-11.921a3.57 3.57 0 0 0 -5.416 3.056v23.843a3.571 3.571 0 0 0 5.416 3.057l19.746-11.917a3.57 3.57 0 0 0 0-6.118z" fill="#ef5361"/><path d="m78.732 56.2-19.741 11.914a3.554 3.554 0 0 1 -4.084-.266l21.719-13.119a1.86 1.86 0 0 0 0-3.178l-21.719-13.119a3.556 3.556 0 0 1 4.084-.275l19.741 11.927a3.567 3.567 0 0 1 0 6.116z" fill="#da2a47"/><rect fill="#9297ab" height="9.537" rx="1.461" width="9.994" x="28.658" y="95.052"/></svg>