<svg id="visual" viewBox="0 0 900 600" width="900" height="600" xmlns="http://www.w3.org/2000/svg" xmlns:xlink="http://www.w3.org/1999/xlink" version="1.1"><path d="M0 350L12.5 345.3C25 340.7 50 331.3 75 320.5C100 309.7 125 297.3 150 309.3C175 321.3 200 357.7 225 388.7C250 419.7 275 445.3 300 456.8C325 468.3 350 465.7 375 444.8C400 424 425 385 450 384.5C475 384 500 422 525 443C550 464 575 468 600 444.8C625 421.7 650 371.3 675 360.7C700 350 725 379 750 385.8C775 392.7 800 377.3 825 359.7C850 342 875 322 887.5 312L900 302L900 601L887.5 601C875 601 850 601 825 601C800 601 775 601 750 601C725 601 700 601 675 601C650 601 625 601 600 601C575 601 550 601 525 601C500 601 475 601 450 601C425 601 400 601 375 601C350 601 325 601 300 601C275 601 250 601 225 601C200 601 175 601 150 601C125 601 100 601 75 601C50 601 25 601 12.5 601L0 601Z" fill="#e3a545" stroke-linecap="round" stroke-linejoin="miter"></path></svg>