<?xml version="1.0" encoding="iso-8859-1"?>
<!-- Generator: Adobe Illustrator 19.0.0, SVG Export Plug-In . SVG Version: 6.00 Build 0)  -->
<svg version="1.1" id="Capa_1" xmlns="http://www.w3.org/2000/svg" xmlns:xlink="http://www.w3.org/1999/xlink" x="0px" y="0px"
	 viewBox="0 0 512 512" style="enable-background:new 0 0 512 512;" xml:space="preserve">
<g>
	<g>
		<path style="fill:#35495E;" d="M186.698,298.457c-1.946,0.002-3.838-0.64-5.379-1.827L91.72,227.69
			c-3.866-2.973-4.59-8.518-1.617-12.384c2.973-3.866,8.518-4.59,12.384-1.617l89.599,68.94c2.995,2.307,4.19,6.264,2.971,9.843
			C193.84,296.051,190.479,298.457,186.698,298.457L186.698,298.457z"/>
		<path style="fill:#35495E;" d="M256,264.828c-2.341,0.001-4.587-0.929-6.243-2.585c-1.656-1.656-2.585-3.901-2.585-6.243V132.414
			c0-4.875,3.952-8.828,8.828-8.828s8.828,3.952,8.828,8.828V256c0.001,2.341-0.929,4.587-2.585,6.243
			C260.587,263.898,258.341,264.828,256,264.828z"/>
		<path style="fill:#35495E;" d="M88.285,441.379c-4.059,0.007-7.599-2.757-8.578-6.696s0.855-8.038,4.445-9.933l89.513-47.319
			c2.787-1.475,6.15-1.35,8.82,0.327c2.67,1.677,4.243,4.651,4.125,7.803c-0.118,3.151-1.908,6-4.696,7.473l-89.513,47.319
			C91.134,441.028,89.72,441.38,88.285,441.379z"/>
		<path style="fill:#35495E;" d="M423.715,441.379c-1.436,0.001-2.849-0.351-4.116-1.026l-89.513-47.319
			c-2.788-1.473-4.578-4.322-4.696-7.473c-0.118-3.151,1.455-6.126,4.125-7.803c2.67-1.677,6.033-1.802,8.82-0.327l89.513,47.319
			c3.59,1.895,5.424,5.994,4.445,9.933C431.315,438.623,427.775,441.386,423.715,441.379z"/>
		<path style="fill:#35495E;" d="M325.302,298.457c-3.78,0-7.141-2.407-8.36-5.985c-1.218-3.579-0.024-7.536,2.972-9.843
			l89.599-68.94c2.501-1.923,5.838-2.366,8.754-1.162c2.916,1.204,4.968,3.873,5.384,7c0.415,3.128-0.87,6.239-3.371,8.162
			l-89.599,68.939C329.14,297.817,327.248,298.459,325.302,298.457z"/>
	</g>
	<circle style="fill:#CC4B4C;" cx="256" cy="344.276" r="88.276"/>
	<g>
		<path style="fill:#E6E7E8;" d="M256,282.483c-19.493,0.021-35.29,15.818-35.31,35.31c0,4.875,3.952,8.828,8.828,8.828
			s8.828-3.952,8.828-8.828c0-9.751,7.904-17.655,17.655-17.655c9.751,0,17.655,7.904,17.655,17.655s-7.905,17.655-17.655,17.655
			c-2.341-0.001-4.587,0.929-6.243,2.585c-1.656,1.656-2.585,3.901-2.585,6.243v17.655c0,4.875,3.952,8.828,8.828,8.828
			s8.828-3.952,8.828-8.828v-9.949c17.217-4.445,28.442-20.999,26.202-38.639C288.789,295.704,273.781,282.482,256,282.483z"/>
		<path style="fill:#E6E7E8;" d="M262.268,390.977c-0.421-0.378-0.862-0.732-1.323-1.06c-0.492-0.336-1.027-0.603-1.591-0.793
			c-0.501-0.255-1.037-0.435-1.59-0.534c-1.721-0.36-3.511-0.173-5.121,0.534c-2.215,0.807-3.96,2.552-4.767,4.767
			c-1.403,3.285-0.668,7.094,1.857,9.621c0.857,0.779,1.841,1.406,2.909,1.854c2.138,0.943,4.573,0.943,6.711,0
			c1.07-0.448,2.055-1.075,2.914-1.854c1.66-1.661,2.582-3.92,2.56-6.268c0.03-1.158-0.212-2.306-0.707-3.354
			C263.672,392.822,263.046,391.836,262.268,390.977z"/>
	</g>
	<circle style="fill:#3B97D3;" cx="256" cy="70.621" r="70.621"/>
	<circle style="fill:#E6E7E8;" cx="256" cy="61.793" r="26.483"/>
	<path style="fill:#7D6599;" d="M291.31,118.466v13.241c-21.824,12.712-48.797,12.712-70.621,0v-13.241
		c1.514-18.036,17.258-31.497,35.31-30.19c9.101-0.126,17.942,3.04,24.894,8.916C287.367,102.374,291.187,110.176,291.31,118.466z"
		/>
	<circle style="fill:#3B97D3;" cx="88.276" cy="211.862" r="70.621"/>
	<circle style="fill:#E6E7E8;" cx="88.276" cy="203.034" r="26.483"/>
	<path style="fill:#F0C419;" d="M123.586,259.708v13.241c-21.824,12.712-48.797,12.712-70.621,0v-13.241
		c1.514-18.036,17.258-31.497,35.31-30.19c9.101-0.126,17.942,3.04,24.894,8.916C119.642,243.615,123.462,251.417,123.586,259.708z"
		/>
	<circle style="fill:#3B97D3;" cx="70.621" cy="441.379" r="70.621"/>
	<circle style="fill:#E6E7E8;" cx="70.621" cy="432.552" r="26.483"/>
	<path style="fill:#F09372;" d="M105.931,489.225v13.241c-21.824,12.712-48.797,12.712-70.621,0v-13.241
		c1.514-18.036,17.258-31.497,35.31-30.19c9.101-0.126,17.942,3.04,24.894,8.916C101.987,473.132,105.807,480.934,105.931,489.225z"
		/>
	<circle style="fill:#3B97D3;" cx="441.379" cy="441.379" r="70.621"/>
	<circle style="fill:#E6E7E8;" cx="441.379" cy="432.552" r="26.483"/>
	<path style="fill:#E64C3C;" d="M476.69,489.225v13.241c-21.824,12.712-48.797,12.712-70.621,0v-13.241
		c1.514-18.036,17.258-31.497,35.31-30.19c9.101-0.126,17.942,3.04,24.894,8.916C472.746,473.132,476.566,480.934,476.69,489.225z"
		/>
	<circle style="fill:#3B97D3;" cx="423.724" cy="211.862" r="70.621"/>
	<circle style="fill:#E6E7E8;" cx="423.724" cy="203.034" r="26.483"/>
	<path style="fill:#81CCB8;" d="M459.035,259.708v13.241c-21.824,12.712-48.797,12.712-70.621,0v-13.241
		c1.514-18.036,17.258-31.497,35.31-30.19c9.101-0.126,17.942,3.04,24.894,8.916C455.091,243.615,458.911,251.417,459.035,259.708z"
		/>
</g>
<g>
</g>
<g>
</g>
<g>
</g>
<g>
</g>
<g>
</g>
<g>
</g>
<g>
</g>
<g>
</g>
<g>
</g>
<g>
</g>
<g>
</g>
<g>
</g>
<g>
</g>
<g>
</g>
<g>
</g>
</svg>
