<svg id="Layer_1" enable-background="new 0 0 512 512" height="512" viewBox="0 0 512 512" width="512" xmlns="http://www.w3.org/2000/svg"><g><path d="m18.949 361.619 449.835 5.239c13.631-30.5 21.219-64.293 21.219-99.86 0-135.311-109.691-245.002-245.002-245.002s-245.001 109.691-245.001 245.002c0 33.543 6.748 65.508 18.949 94.621z" fill="#9957bc"/><path d="m181.589 356.387c2.245 14.551 10.544 34.051 37.331 44.305 48.059 18.398 67.576 55.616 68.678 57.788.65 2.034 8.473 25.302 29.46 42.743 40.732-12.516 76.929-35.371 105.553-65.493l17.357-25.889c-5.702-80.618-24.997-142.612-43.645-185.387-8.827 5.957-19.345 11.796-31.894 17.19-70.836 30.445-86.295-32.641-86.295-32.641l-17.432-82.686-27.421-2.19c-35.459 1.669-68.77 11.531-98.093 27.733l-40.523 34.202 88.305 141.755c-.785 2.965-3.513 14.751-1.381 28.57z" fill="#02c0fc"/><path d="m61.812 424.135c26.114 3.337 56.294 14.034 68.058 44.225 1.824 4.681 3.155 9.136 4.111 13.393l11.416 9.115c17.77 7.92 36.646 13.804 56.346 17.317l76.022 1.629.004.006c14.099-1.887 27.819-4.971 41.054-9.148-22.316-18.014-29.756-42.787-29.756-42.787s-19.101-39.344-69.583-58.669c-50.483-19.326-34.805-71.644-34.805-71.644l-88.794-142.54-28.061 23.684c-30.796 38.551-49.219 87.419-49.219 140.597 0 4.13.123 8.231.343 12.307 7.826 18.675 17.904 36.169 29.886 52.155z" fill="#27a6ff"/><path d="m356.225 153.709c-20.092-11.547-42.134-20.076-65.507-24.995l-30.241-2.415 17.658 83.758s15.459 63.086 86.295 32.642c12.719-5.466 23.35-11.391 32.25-17.431-20.58-47.454-40.455-71.559-40.455-71.559z" fill="#6ad9fb"/><g fill="#94dc79"><path d="m279.437 434.538c-1.373-9.414-6.128-14.495-11.556-17.169.098.243.189.471.265.667-5.042 3.765-26.808 20.99-25.934 37.079.356 6.574 4.393 12.056 11.998 16.295 13.448 7.496 13.929 18.05 14.395 28.257.171 3.752.35 7.538 1.219 11.088 2.661-.268 5.307-.59 7.942-.942 11.878-15.202 27.502-26.452 27.502-38.375-.001-24.248-22.141-11.597-25.831-36.9z"/><path d="m81.757 227.369c0 6.971-1.298 13.109-3.363 18.48.339 6.044 2.105 16.384 9.599 24.608 7.213 7.917 17.992 11.931 32.037 11.931 19.757 0 24.401 13.281 29.778 28.659 3.892 11.133 8.146 23.261 19.313 29.958 13.271-6.498 18.991-18.105 21.268-24.762.99-2.896 3.238-5.201 6.133-6.193 6.96-2.386 9.545-7.063 10.5-10.425.696-2.45 2.242-4.574 4.442-5.859 10.488-6.123 12.242-15.126 11.895-21.539-.218-4.016 1.946-7.702 5.521-9.545 3.89-2.005 7.479-6.292 5.047-15.458-4.568-17.22-17.22-29.344-30.926-24.337-8.639 3.157-9.843 11.34-9.553 16.959.152 2.944-1.691 5.63-4.521 6.453-3.563 1.037-6.413 3.059-8.674 5.447-3.669 3.875-10.129 2.488-12.056-2.488-1.949-5.033-4.794-10.872-8.949-17.146-12.915-19.505 19.505-30.575 34.528-38.218 8.954-4.556 11.542.345 12.171 5.048.553 4.132 3.354 7.616 7.236 9.136 8.741 3.42 17.756-4.448 15.466-13.551-2.975-11.826-14.931-23.259-24.067-25.673-9.89-2.612-14.76 6.666-16.761 12.307-.723 2.038-2.923 3.091-4.997 2.479-6.617-1.953-12.36.061-16.15 2.229-2.181 1.247-4.886.154-5.792-2.189-1.962-5.073-6.394-7.395-9.467-8.426-1.788-.6-2.909-2.316-2.79-4.199.855-13.497-10.289-18.015-10.289-18.015l-3.149-1.181c-26.035 14.385-48.918 33.767-67.363 56.856 8.124 2.653 13.933 8.201 13.933 18.654z"/><path d="m233.281 124.128c-2.213 7.566-2.749 19.688 11.891 27.859 22.667 12.652-3.69 24.776 13.179 49.025s28.993 0 41.645-12.652c9.678-9.678-2.853-44.031-9.279-59.646-15.057-3.169-30.664-4.848-46.664-4.848-3.612 0-7.201.094-10.772.262z"/><path d="m469.415 354.662c-8.009-1.979-10.757-7.634-13.785-13.875-4.198-8.653-8.954-18.46-27.906-19.972-12.149-.969-20.175-4.186-23.851-9.56-1.991-2.911-2.442-6.147-2.285-9.031-2.693 3.293-6.767 6.561-12.679 9.664-20.765 10.896-23.677 24.439-22.517 33.802.895 7.227-.426 14.605-4.147 20.864-5.336 8.975-9.067 23.115 5.578 37.761 24.425 24.425 39.009-10.543 52.715 26.709.616 1.675 1.29 3.271 2.011 4.799 19.08-20.059 34.789-43.351 46.236-68.965.31-4.038.534-8.101.63-12.196z"/></g><path d="m270.055 418.599c-3.922-2.541-8.438-3.561-12.385-3.881-5.186-.421-9.877-3.055-13.009-7.21-2.964-3.932-8.861-8.649-20.575-12.331-17.083-5.369-28.828 4.6-34.411 11.193-4.503 5.318-10.963 8.667-17.929 8.844-8.286.21-16.269-2.872-17.243-11.427-1.581-13.881-7.116-23.809-17.132-20.119s-22.667 11.334-28.993-6.589c-3.734-10.579-.03-17.607 3.633-21.591 2.3-2.501 5.711-3.677 9.06-3.102 7.854 1.347 12.426-1.308 14.869-3.749 2.013-2.011 4.764-3.078 7.607-2.95 11.605.525 20.458-1.835 27.213-5.528-26.134-14.47-14.027-59.351-50.728-59.351-43.753 0-40.042-39.832-40.042-39.832l-.019.01c-2.98 11.027-9.253 19.239-15.341 24.952-7.453 6.995-11.111 17.239-9.666 27.358 1.047 7.33.778 16.377-3.276 25.76-2.551 5.905-3.233 12.448-1.932 18.747 4.035 19.524 17.153 57.027 58.836 64.445 2.57.458 5.011 1.516 6.969 3.242 3.384 2.983 10.023 7.347 19.042 6.211 4.306-.542 8.578.944 11.665 3.994 4.086 4.038 11.092 8.652 21.766 8.652 15.633 0 13.618 13.951 8.985 22.307-2.11 3.805-3.186 8.093-3.186 12.444v.439c0 8.864 4.618 16.976 12.007 21.873 6.085 4.033 12.815 11.808 15.857 26.775 14.057 2.507 28.528 3.816 43.306 3.816 8.916 0 17.716-.489 26.385-1.417-3.157-12.687 3.052-29.707-16.407-40.554-32.157-17.924 15.074-51.431 15.074-51.431z" fill="#47cb8f"/><path d="m356.225 153.709c-5.615 1.812-10.472 5.471-13.657 10.438-8.507 13.264-19.459 39.939 16.733 54.893 5.212 2.153 7.632 8.033 5.784 13.36-1.984 5.72-2.002 13.424 5.901 21.327 10.116 10.116 1.905 15.496-5.284 18.054-4.817 1.714-7 7.303-4.608 11.822 2.48 4.685 6.879 9.526 14.616 10.715 6.805 1.046 11.098-3.432 13.786-8.926 3.698-7.56 14.974-6.197 16.329 2.108.846 5.183-.368 10.922-5.844 16.515.292 7.541 5.227 16.591 27.617 18.377 31.987 2.552 21.192 29.247 41.79 33.909.071-2.321.112-4.65.112-6.988 0-83.675-45.585-156.702-113.275-195.604z" fill="#d2f09e"/><path d="m48.789 413.738c24.956 33.316 58.203 60.056 96.675 77.184-.127-9.369-1.627-19.777-6.24-31.616-15.399-39.52-62.349-45.638-90.435-45.568z" fill="#1d8df2"/><g><path d="m377.21 266.184c-1.919 0-3.811-.817-5.134-2.36l-121.583-141.823c-2.43-2.833-2.102-7.101.733-9.53 2.833-2.427 7.101-2.103 9.53.733l97.601 113.847-38.617-107.157c-1.265-3.511.556-7.385 4.067-8.65 3.509-1.263 7.384.556 8.65 4.067l51.109 141.822c1.106 3.069-.139 6.491-2.958 8.133-1.063.618-2.235.918-3.398.918z" fill="#fea53d"/></g><g><ellipse cx="377.207" cy="269.563" fill="#ff0363" rx="26.359" ry="26.359" transform="matrix(.162 -.987 .987 .162 50.261 598.282)"/></g><path d="m418.109 266.385h-67.453c-1.988 6.913-3.893 17.904.279 26.989 2.9 6.314 8.257 10.677 15.923 12.97 26.047 7.785 29.757 90.588 29.983 96.392-.778 2.608-5.146 18.921 2.828 32.57 2.21 3.781 5.155 6.99 8.814 9.614h28.286c19.638 0 35.706-16.068 35.706-35.706v-74.626c-59.333.058-57.489-48.676-54.366-68.203z" fill="#fe3d97"/><path d="m317.646 266.385c-19.638 0-35.706 16.068-35.706 35.706v107.122c0 19.638 16.068 35.706 35.706 35.706h92.815c-22.453-13.391-13.22-41.931-13.22-41.931s-2.863-89.958-31.357-98.474c-21.206-6.338-17.85-27.642-14.746-38.13h-33.492z" fill="#ff0363"/><path d="m423.527 337.898h-26.716c-1.022 0-1.85-.828-1.85-1.85h-1.272s-28.651 21.07 0 39.208c.435.275.858.561 1.272.855 0-.292 0-.589 0-.855 0-1.022.828-1.85 1.85-1.85h26.716c3.834 0 6.942-3.109 6.942-6.943v-21.623c0-3.833-3.108-6.942-6.942-6.942z" fill="#fff"/><g><path d="m377.204 266.184c-1.163 0-2.335-.3-3.398-.917-2.82-1.642-4.065-5.064-2.958-8.133l51.111-141.822c1.266-3.514 5.139-5.326 8.651-4.067 3.511 1.266 5.332 5.139 4.067 8.65l-38.619 107.157 97.603-113.847c2.429-2.834 6.699-3.16 9.53-.733 2.834 2.429 3.163 6.697.733 9.53l-121.586 141.822c-1.322 1.543-3.214 2.36-5.134 2.36z" fill="#ffc242"/></g><g><path d="m341.228 42.869c8.478-24.38 19.226-39.243 30.706-42.738-63.398 2.706-114.228 53.915-116.311 117.472h71.155c2.317-28.237 7.263-54.065 14.45-74.734z" fill="#fea53d"/></g><g><path d="m413.187 42.869c7.187 20.669 12.133 46.497 14.45 74.734h71.154c-2.083-63.558-52.914-114.767-116.312-117.472 11.48 3.496 22.23 18.358 30.708 42.738z" fill="#fef156"/></g><g><path d="m428.317 117.603c-5.027-61.182-22.214-108.231-43.542-117.344-2.505-.154-5.024-.259-7.568-.259s-5.062.105-7.568.259c-21.328 9.113-38.515 56.162-43.542 117.344z" fill="#ffc242"/></g><g><path d="m505.241 124.361h-256.27c-3.733 0-6.759-3.026-6.759-6.759s3.026-6.759 6.759-6.759h256.271c3.733 0 6.759 3.026 6.759 6.759s-3.027 6.759-6.76 6.759z" fill="#fffbb3"/></g><path d="m436.768 266.385h-19.72c-3.243 18.711-6.564 70.25 55.426 69.47v-33.764c.001-19.638-16.067-35.706-35.706-35.706z" fill="#fea2c8"/><path d="m330.888 373.407h26.715c1.022 0 1.85.828 1.85 1.85v26.716c0 3.834 3.108 6.942 6.943 6.942h21.623c3.834 0 6.943-3.108 6.943-6.942 0-7.124 0-20.491 0-26.716-28.651-18.138 0-39.208 0-39.208 0-5.686 0-20.019 0-26.715 0-3.834-3.108-6.943-6.943-6.943h-21.623c-3.834 0-6.943 3.108-6.943 6.943v26.715c0 1.022-.828 1.85-1.85 1.85-8.891 0-20.899 0-26.715 0-3.834 0-6.943 3.109-6.943 6.943v21.623c0 3.833 3.108 6.942 6.943 6.942z" fill="#ade9f7"/></g></svg>