<svg id="Capa_1" enable-background="new 0 0 512 512" height="512" viewBox="0 0 512 512" width="512" xmlns="http://www.w3.org/2000/svg"><g><path d="m251.404 22.042c-133.189 2.45-240.404 111.183-240.404 244.958 0 51.622 15.979 99.504 43.241 139 1.388.344 2.781.663 4.171 1h395.176c1.39-.337 2.782-.656 4.171-1 27.314-39.571 43.302-87.56 43.241-139.294-.162-137.435-112.184-247.192-249.596-244.664z" fill="#fedf30"/><g><g><path d="m352.712 211.42c2.16-3.265 5.86-5.42 10-5.42 2.589 0 5.008.843 6.986 2.272.002-.091.014-.18.014-.272 0-7.18-5.82-13-13-13-6.518 0-11.901 4.803-12.84 11.06 3.666.359 6.884 2.404 8.84 5.36z" fill="#e30256"/></g><path d="m352.712 209.696c.398-.479.839-.92 1.302-1.338-.004-.119-.014-.237-.014-.358 0-5.352 3.236-9.944 7.856-11.938-1.578-.681-3.316-1.062-5.144-1.062-6.17 0-11.325 4.303-12.656 10.069 3.474.357 6.54 2.082 8.656 4.627z" fill="#d2024e"/><path d="m355.661 217c-.512-6.711-6.107-12-12.949-12s-12.437 5.289-12.949 12z" fill="#fe5694"/><path d="m340.154 216c.692-4.477 3.669-8.198 7.702-9.938-1.578-.681-3.316-1.062-5.144-1.062-6.498 0-11.866 4.772-12.831 11z" fill="#fd3581"/><path d="m395.661 217c-.512-6.711-6.107-12-12.949-12s-12.437 5.289-12.949 12z" fill="#fe5694"/><path d="m375.542 216h4.612c.692-4.477 3.669-8.198 7.702-9.938-1.578-.681-3.316-1.062-5.144-1.062-4.022 0-7.615 1.828-10 4.696 1.468 1.766 2.463 3.931 2.83 6.304z" fill="#fd3581"/><path d="m375.661 217c-.512-6.711-6.107-12-12.949-12s-12.437 5.289-12.949 12z" fill="#fe5694"/><path d="m360.154 216c.692-4.477 3.669-8.198 7.702-9.938-1.578-.681-3.316-1.062-5.144-1.062-6.498 0-11.866 4.772-12.831 11z" fill="#fd3581"/></g><path d="m337.97 257.13h49.483c12.425-7.49 21.185-20.444 22.936-35.54.345-2.975-1.977-5.591-4.972-5.591h-85.412c-2.995 0-5.317 2.616-4.972 5.591 1.752 15.097 10.512 28.05 22.937 35.54z" fill="#fff"/><path d="m336.387 256.13h21.009c-11.587-7.609-19.686-20.091-21.362-34.54-.345-2.975 1.977-5.591 4.972-5.591h-21c-2.995 0-5.317 2.616-4.972 5.591 1.676 14.446 9.772 26.928 21.353 34.54z" fill="#dff6fd"/><g><path d="m195.872 33.857v-15.519h-42.232v15.595c7.021-1.097 14.161-1.664 21.367-1.664 7.034 0 14.005.542 20.865 1.588z" fill="#685e68"/><path d="m174 19.338h-20.36v13.569c6.642-1.027 13.442-1.577 20.36-1.626z" fill="#554e56"/><g fill="#685e68"><path d="m86.64 211.604-19.068 45.526h23.782l19.067-45.526z"/><path d="m239.593 211.604 19.068 45.526h23.781l-19.067-45.526z"/></g><g><path d="m250.178 212.604h-10.166l18.23 43.526h10.166z" fill="#554e56"/><g><path d="m96.387 212.604h-10.166l-18.23 43.526h10.166z" fill="#554e56"/></g></g><path d="m37.133 173.946 16.234 26.785c4.467 7.371 12.46 11.873 21.079 11.873h201.122c8.619 0 16.612-4.502 21.079-11.873l16.233-26.785z" fill="#cbc4cc"/><path d="m84.683 200.731-15.627-25.785h-31.316l15.627 25.785c4.467 7.371 12.46 11.873 21.079 11.873h31.316c-8.618 0-16.611-4.502-21.079-11.873z" fill="#b5adb6"/><path d="m313.04 156.325c-6.855-70.198-66.035-125.057-138.033-125.057s-131.178 54.86-138.033 125.057z" fill="#cbc4cc"/><path d="m215.577 156.325v-10.325c0-2.761-2.239-5-5-5h-71.14c-2.761 0-5 2.239-5 5v10.325z" fill="#554e56"/><path d="m170.86 141h-31.423c-2.761 0-5 2.239-5 5v10.325h31.423v-10.325c0-2.761 2.238-5 5-5z" fill="#433f43"/><path d="m68.37 155.325c6.778-64.568 57.85-115.939 122.282-123.173-5.137-.577-10.355-.883-15.646-.883-71.656 0-130.616 54.339-137.932 124.057h31.296z" fill="#b5adb6"/><path d="m323.014 174.946h-296.014c-2.761 0-5-2.239-5-5v-9.621c0-2.761 2.239-5 5-5h296.014c2.761 0 5 2.239 5 5v9.621c0 2.761-2.238 5-5 5z" fill="#685e68"/><path d="m64 169.946v-9.621c0-2.761 2.239-5 5-5h-42c-2.761 0-5 2.239-5 5v9.621c0 2.761 2.239 5 5 5h42c-2.761 0-5-2.239-5-5z" fill="#554e56"/><path d="m210.577 19.338h-71.14c-2.761 0-5-2.239-5-5v-9.338c0-2.761 2.239-5 5-5h71.14c2.761 0 5 2.239 5 5v9.338c0 2.761-2.238 5-5 5z" fill="#cbc4cc"/><path d="m165.86 14.338v-9.338c0-2.761 2.239-5 5-5h-31.423c-2.761 0-5 2.239-5 5v9.338c0 2.761 2.239 5 5 5h31.423c-2.762 0-5-2.239-5-5z" fill="#b5adb6"/></g><g><path d="m435 407v-145.87c0-2.761-2.239-5-5-5h-418.747c-.158 3.605-.253 7.226-.253 10.87 0 52.06 16.253 100.315 43.943 140z" fill="#62dbfb"/></g><path d="m77 256.13h-65.747c-.158 3.605-.253 7.226-.253 10.87 0 52.06 16.253 100.315 43.943 140h17.057v-145.87c0-2.761 2.239-5 5-5z" fill="#01d0fb"/><g><path d="m131.47 367c-1.595-3.316-3.756-6.428-6.506-9.178-7.685-7.685-18.17-10.856-28.171-9.528-.84 6.319.122 12.829 2.879 18.706z" fill="#00c285"/><path d="m109.448 366c-2.381-5.545-3.209-11.598-2.463-17.495-3.369-.582-6.807-.66-10.192-.211-.793 5.964.028 12.095 2.439 17.706z" fill="#07b27b"/><path d="m178.612 367c2.757-5.877 3.719-12.387 2.879-18.706-10.001-1.329-20.486 1.843-28.171 9.528-2.75 2.75-4.911 5.862-6.506 9.178z" fill="#00c285"/><g><path d="m181.491 348.294c-9.124-1.212-18.644 1.334-26.08 7.623 2.72 1.665 4.781 4.293 5.698 7.419 5.894-5.249 13.192-8.055 20.593-8.427.143-2.205.081-4.421-.211-6.615z" fill="#07b27b"/></g></g><circle cx="139.142" cy="353" fill="#e30256" r="13"/><g><path d="m129.642 354c2.972 0 5.703 1.008 7.892 2.687-.346-1.169-.534-2.405-.534-3.687 0-5.239 3.106-9.743 7.571-11.801-1.654-.762-3.488-1.199-5.429-1.199-7.18 0-13 5.82-13 13 0 .497.034.985.088 1.468 1.089-.296 2.229-.468 3.412-.468z" fill="#d2024e"/></g><g><path d="m129.642 354c-7.18 0-13 5.82-13 13h26c0-7.18-5.82-13-13-13z" fill="#fe5694"/><path d="m127.038 366c.374-4.905 3.472-9.046 7.783-10.921-1.588-.691-3.337-1.079-5.179-1.079-6.842 0-12.437 5.289-12.949 12z" fill="#fd3581"/><path d="m148.642 354c-7.18 0-13 5.82-13 13h26c0-7.18-5.82-13-13-13z" fill="#fe5694"/><path d="m146.038 366c.374-4.905 3.472-9.046 7.783-10.921-1.588-.691-3.337-1.079-5.179-1.079-6.842 0-12.437 5.289-12.949 12z" fill="#fd3581"/></g><path d="m114.178 407h49.928c12.308-7.51 20.973-20.403 22.714-35.409.345-2.975-1.977-5.591-4.972-5.591h-85.412c-2.995 0-5.317 2.616-4.972 5.591 1.741 15.006 10.406 27.899 22.714 35.409z" fill="#fff"/><path d="m112.616 406h20.587c-11.483-7.62-19.502-20.041-21.169-34.409-.345-2.975 1.977-5.591 4.972-5.591h-20.57c-2.995 0-5.317 2.616-4.972 5.591 1.666 14.362 9.677 26.784 21.152 34.409z" fill="#dff6fd"/><g><path d="m436.964 314.055c5.953-7.627 8.321-17.142 7.108-26.274-10.486-1.393-21.479 1.932-29.537 9.99-4.666 4.666-7.734 10.318-9.229 16.284z" fill="#00c285"/><path d="m413.375 309.083c0 1.35-.103 2.677-.299 3.972h3.75c1.503-2.599 3.363-5.049 5.587-7.273 6.092-6.092 13.863-9.474 21.823-10.162.235-2.609.181-5.239-.164-7.839-10.486-1.393-21.479 1.932-29.537 9.99-.916.916-1.762 1.874-2.556 2.861.901 2.653 1.396 5.493 1.396 8.451z" fill="#07b27b"/><g><path d="m412.899 314.055c.308-1.611.476-3.272.476-4.972 0-14.529-11.778-26.308-26.308-26.308s-26.308 11.778-26.308 26.308c0 1.701.167 3.361.476 4.972z" fill="#ffbd86"/></g><g><path d="m373.95 297.845c-1.272 1.272-2.624 2.412-4.029 3.448.762 2.462 1.173 5.077 1.173 7.789 0 1.35-.103 2.677-.299 3.972h11.737c-.196-1.295-.299-2.622-.299-3.972 0-10.704 6.396-19.907 15.571-24.016-3.28-1.469-6.911-2.292-10.737-2.292-1.474 0-2.917.127-4.324.36-1.619 5.384-4.54 10.458-8.793 14.711z" fill="#f6a96c"/></g><path d="m253.857 314.055c-1.125-7.07-4.401-13.862-9.851-19.312-8.058-8.058-19.051-11.383-29.537-9.99-1.38 10.386 1.876 21.265 9.768 29.301h29.62z" fill="#00c285"/><path d="m233.793 313.055c-7.16-7.877-10.107-18.211-8.844-28.117-3.466-.577-7-.646-10.479-.184-1.323 9.962 1.62 20.376 8.825 28.301z" fill="#07b27b"/><path d="m383.94 268.308c-10.486-1.393-21.479 1.932-29.537 9.99-1.841 1.841-3.423 3.841-4.77 5.948 9.29 1.81 16.776 8.716 19.424 17.681 1.721-1.19 3.361-2.549 4.893-4.081 8.058-8.058 11.383-19.051 9.99-29.538z" fill="#00c285"/><path d="m383.94 268.308c-10.486-1.393-21.479 1.932-29.537 9.99-1.576 1.576-2.965 3.268-4.179 5.043 3.496.735 6.733 2.166 9.568 4.138.485-.55.983-1.092 1.509-1.618 6.35-6.35 14.525-9.748 22.837-10.226.183-2.442.125-4.897-.198-7.327z" fill="#07b27b"/><g><path d="m294.514 314.055c.308-1.611.476-3.272.476-4.972 0-14.529-11.778-26.308-26.308-26.308-14.529 0-26.308 11.778-26.308 26.308 0 1.701.167 3.361.476 4.972z" fill="#fed2a4"/></g><g><path d="m256.538 313.055c-.197-1.297-.314-2.62-.314-3.972 0-12.132 8.214-22.34 19.383-25.38-2.207-.601-4.527-.928-6.925-.928-14.529 0-26.308 11.778-26.308 26.308 0 1.35.103 2.677.299 3.972z" fill="#ffbd86"/></g><g><path d="m370.619 314.055c.308-1.611.476-3.272.476-4.972 0-14.529-11.778-26.308-26.308-26.308s-26.308 11.778-26.308 26.308c0 1.701.167 3.361.476 4.972z" fill="#ffbd86"/></g><g><path d="m332.572 309.083c0 1.35-.103 2.677-.299 3.972h8.321c-.196-1.296-.3-2.621-.3-3.972 0-10.637 6.317-19.793 15.4-23.939-3.324-1.517-7.015-2.369-10.908-2.369-7.608 0-14.458 3.233-19.261 8.396 4.37 4.697 7.047 10.991 7.047 17.912z" fill="#f6a96c"/></g><g><path d="m332.096 314.055c.308-1.611.476-3.272.476-4.972 0-14.529-11.779-26.308-26.308-26.308s-26.308 11.778-26.308 26.308c0 1.701.167 3.361.476 4.972z" fill="#ffbd86"/></g><g><path d="m296.567 313.055c-.197-1.296-.309-2.621-.309-3.972 0-11.684 7.619-21.582 18.157-25.014-2.567-.836-5.305-1.294-8.151-1.294-14.53 0-26.308 11.778-26.308 26.308 0 1.35.103 2.677.299 3.972z" fill="#f6a96c"/></g></g><g><g fill="#685e68"><path d="m415.11 366.812h-23.058l18.376 40.188h23.059z"/><path d="m266.49 366.812h-23.058l-18.377 40.188h23.059z"/></g><g fill="#554e56"><path d="m420.63 406-17.463-38.188h-10.658l17.462 38.188z"/><path d="m236.171 406 17.462-38.188h-10.658l-17.462 38.188z"/></g><path d="m197.441 330.812 15.545 25.65c4.271 7.046 11.912 11.35 20.151 11.35h192.268c8.24 0 15.881-4.304 20.151-11.35l15.545-25.65z" fill="#cbc4cc"/><path d="m245.988 356.462-14.939-24.65h-33.002l14.939 24.65c4.271 7.046 11.912 11.35 20.151 11.35h33.002c-8.239 0-15.88-4.304-20.151-11.35z" fill="#b5adb6"/><path d="m470.3 331.812h-282.058c-2.895 0-5.242-2.347-5.242-5.242v-8.272c0-2.895 2.347-5.242 5.242-5.242h282.058c2.895 0 5.242 2.347 5.242 5.242v8.272c0 2.895-2.347 5.242-5.242 5.242z" fill="#685e68"/><path d="m227.036 326.569v-8.272c0-2.895 2.347-5.242 5.242-5.242h-44.036c-2.895 0-5.242 2.347-5.242 5.242v8.272c0 2.895 2.347 5.242 5.242 5.242h44.036c-2.895.001-5.242-2.346-5.242-5.242z" fill="#554e56"/></g><path d="m420.548 442h-329.096c-1.956.332-3.913.656-5.868 1 44.096 42.706 104.181 69 170.416 69s126.32-26.294 170.416-69c-1.955-.344-3.912-.668-5.868-1z" fill="#fe5694"/><g fill="#fe93bb"><path d="m54.241 406c9.217 13.354 19.723 25.747 31.343 37h340.832c11.62-11.253 22.126-23.646 31.343-37z"/><path d="m54.241 406c9.217 13.354 19.723 25.747 31.343 37h340.832c11.62-11.253 22.126-23.646 31.343-37z"/></g></g></svg>