<svg id="visual" viewBox="0 0 900 450" width="900" height="450" xmlns="http://www.w3.org/2000/svg" xmlns:xlink="http://www.w3.org/1999/xlink" version="1.1"><path d="M0 154L60 154L60 96L120 96L120 128L180 128L180 128L240 128L240 136L300 136L300 114L360 114L360 126L420 126L420 149L480 149L480 138L540 138L540 187L600 187L600 159L660 159L660 180L720 180L720 136L780 136L780 131L840 131L840 181L900 181L900 106L900 0L900 0L840 0L840 0L780 0L780 0L720 0L720 0L660 0L660 0L600 0L600 0L540 0L540 0L480 0L480 0L420 0L420 0L360 0L360 0L300 0L300 0L240 0L240 0L180 0L180 0L120 0L120 0L60 0L60 0L0 0Z" fill="#9900ff"></path><path d="M0 119L60 119L60 161L120 161L120 161L180 161L180 89L240 89L240 141L300 141L300 137L360 137L360 132L420 132L420 148L480 148L480 98L540 98L540 141L600 141L600 98L660 98L660 117L720 117L720 163L780 163L780 156L840 156L840 111L900 111L900 81L900 0L900 0L840 0L840 0L780 0L780 0L720 0L720 0L660 0L660 0L600 0L600 0L540 0L540 0L480 0L480 0L420 0L420 0L360 0L360 0L300 0L300 0L240 0L240 0L180 0L180 0L120 0L120 0L60 0L60 0L0 0Z" fill="#8b00e8"></path><path d="M0 133L60 133L60 102L120 102L120 108L180 108L180 69L240 69L240 133L300 133L300 106L360 106L360 93L420 93L420 79L480 79L480 102L540 102L540 78L600 78L600 79L660 79L660 103L720 103L720 90L780 90L780 75L840 75L840 126L900 126L900 66L900 0L900 0L840 0L840 0L780 0L780 0L720 0L720 0L660 0L660 0L600 0L600 0L540 0L540 0L480 0L480 0L420 0L420 0L360 0L360 0L300 0L300 0L240 0L240 0L180 0L180 0L120 0L120 0L60 0L60 0L0 0Z" fill="#7e00d1"></path><path d="M0 101L60 101L60 103L120 103L120 74L180 74L180 105L240 105L240 61L300 61L300 96L360 96L360 102L420 102L420 96L480 96L480 73L540 73L540 85L600 85L600 57L660 57L660 78L720 78L720 87L780 87L780 61L840 61L840 69L900 69L900 75L900 0L900 0L840 0L840 0L780 0L780 0L720 0L720 0L660 0L660 0L600 0L600 0L540 0L540 0L480 0L480 0L420 0L420 0L360 0L360 0L300 0L300 0L240 0L240 0L180 0L180 0L120 0L120 0L60 0L60 0L0 0Z" fill="#7000bb"></path><path d="M0 41L60 41L60 79L120 79L120 55L180 55L180 34L240 34L240 70L300 70L300 42L360 42L360 31L420 31L420 38L480 38L480 47L540 47L540 43L600 43L600 38L660 38L660 67L720 67L720 45L780 45L780 49L840 49L840 29L900 29L900 40L900 0L900 0L840 0L840 0L780 0L780 0L720 0L720 0L660 0L660 0L600 0L600 0L540 0L540 0L480 0L480 0L420 0L420 0L360 0L360 0L300 0L300 0L240 0L240 0L180 0L180 0L120 0L120 0L60 0L60 0L0 0Z" fill="#6300a5"></path><path d="M0 40L60 40L60 25L120 25L120 39L180 39L180 30L240 30L240 38L300 38L300 25L360 25L360 15L420 15L420 27L480 27L480 47L540 47L540 49L600 49L600 38L660 38L660 22L720 22L720 46L780 46L780 25L840 25L840 45L900 45L900 18L900 0L900 0L840 0L840 0L780 0L780 0L720 0L720 0L660 0L660 0L600 0L600 0L540 0L540 0L480 0L480 0L420 0L420 0L360 0L360 0L300 0L300 0L240 0L240 0L180 0L180 0L120 0L120 0L60 0L60 0L0 0Z" fill="#560090"></path></svg>