<svg id="visual" viewBox="0 0 900 600" width="900" height="600" xmlns="http://www.w3.org/2000/svg" xmlns:xlink="http://www.w3.org/1999/xlink" version="1.1"><path d="M0 382L21.5 379.2C43 376.3 86 370.7 128.8 380.2C171.7 389.7 214.3 414.3 257.2 422.5C300 430.7 343 422.3 385.8 410.3C428.7 398.3 471.3 382.7 514.2 380.8C557 379 600 391 642.8 395.5C685.7 400 728.3 397 771.2 395.3C814 393.7 857 393.3 878.5 393.2L900 393L900 601L878.5 601C857 601 814 601 771.2 601C728.3 601 685.7 601 642.8 601C600 601 557 601 514.2 601C471.3 601 428.7 601 385.8 601C343 601 300 601 257.2 601C214.3 601 171.7 601 128.8 601C86 601 43 601 21.5 601L0 601Z" fill="#de7870"></path><path d="M0 395L21.5 403.5C43 412 86 429 128.8 436.8C171.7 444.7 214.3 443.3 257.2 444.5C300 445.7 343 449.3 385.8 450.7C428.7 452 471.3 451 514.2 446.3C557 441.7 600 433.3 642.8 429.8C685.7 426.3 728.3 427.7 771.2 431.7C814 435.7 857 442.3 878.5 445.7L900 449L900 601L878.5 601C857 601 814 601 771.2 601C728.3 601 685.7 601 642.8 601C600 601 557 601 514.2 601C471.3 601 428.7 601 385.8 601C343 601 300 601 257.2 601C214.3 601 171.7 601 128.8 601C86 601 43 601 21.5 601L0 601Z" fill="#d16368"></path><path d="M0 480L21.5 473.7C43 467.3 86 454.7 128.8 456.7C171.7 458.7 214.3 475.3 257.2 484.2C300 493 343 494 385.8 494C428.7 494 471.3 493 514.2 487C557 481 600 470 642.8 463.3C685.7 456.7 728.3 454.3 771.2 450.7C814 447 857 442 878.5 439.5L900 437L900 601L878.5 601C857 601 814 601 771.2 601C728.3 601 685.7 601 642.8 601C600 601 557 601 514.2 601C471.3 601 428.7 601 385.8 601C343 601 300 601 257.2 601C214.3 601 171.7 601 128.8 601C86 601 43 601 21.5 601L0 601Z" fill="#c34e61"></path><path d="M0 536L21.5 533.2C43 530.3 86 524.7 128.8 516.5C171.7 508.3 214.3 497.7 257.2 494C300 490.3 343 493.7 385.8 497.8C428.7 502 471.3 507 514.2 505.3C557 503.7 600 495.3 642.8 499.8C685.7 504.3 728.3 521.7 771.2 529.2C814 536.7 857 534.3 878.5 533.2L900 532L900 601L878.5 601C857 601 814 601 771.2 601C728.3 601 685.7 601 642.8 601C600 601 557 601 514.2 601C471.3 601 428.7 601 385.8 601C343 601 300 601 257.2 601C214.3 601 171.7 601 128.8 601C86 601 43 601 21.5 601L0 601Z" fill="#b4395c"></path><path d="M0 539L21.5 542.2C43 545.3 86 551.7 128.8 553.2C171.7 554.7 214.3 551.3 257.2 553.2C300 555 343 562 385.8 565C428.7 568 471.3 567 514.2 565.2C557 563.3 600 560.7 642.8 561.2C685.7 561.7 728.3 565.3 771.2 560.2C814 555 857 541 878.5 534L900 527L900 601L878.5 601C857 601 814 601 771.2 601C728.3 601 685.7 601 642.8 601C600 601 557 601 514.2 601C471.3 601 428.7 601 385.8 601C343 601 300 601 257.2 601C214.3 601 171.7 601 128.8 601C86 601 43 601 21.5 601L0 601Z" fill="#a32157"></path></svg>