<svg id="visual" viewBox="0 0 900 450" width="900" height="450" xmlns="http://www.w3.org/2000/svg" xmlns:xlink="http://www.w3.org/1999/xlink" version="1.1"><path d="M0 306L60 306L60 322L120 322L120 304L180 304L180 296L240 296L240 276L300 276L300 309L360 309L360 311L420 311L420 326L480 326L480 325L540 325L540 341L600 341L600 329L660 329L660 274L720 274L720 292L780 292L780 330L840 330L840 278L900 278L900 290L900 451L900 451L840 451L840 451L780 451L780 451L720 451L720 451L660 451L660 451L600 451L600 451L540 451L540 451L480 451L480 451L420 451L420 451L360 451L360 451L300 451L300 451L240 451L240 451L180 451L180 451L120 451L120 451L60 451L60 451L0 451Z" fill="#9900ff"></path><path d="M0 324L60 324L60 313L120 313L120 306L180 306L180 334L240 334L240 327L300 327L300 335L360 335L360 304L420 304L420 323L480 323L480 291L540 291L540 305L600 305L600 326L660 326L660 290L720 290L720 329L780 329L780 327L840 327L840 317L900 317L900 344L900 451L900 451L840 451L840 451L780 451L780 451L720 451L720 451L660 451L660 451L600 451L600 451L540 451L540 451L480 451L480 451L420 451L420 451L360 451L360 451L300 451L300 451L240 451L240 451L180 451L180 451L120 451L120 451L60 451L60 451L0 451Z" fill="#8b00e8"></path><path d="M0 366L60 366L60 374L120 374L120 331L180 331L180 352L240 352L240 314L300 314L300 364L360 364L360 354L420 354L420 321L480 321L480 338L540 338L540 329L600 329L600 349L660 349L660 353L720 353L720 314L780 314L780 382L840 382L840 362L900 362L900 327L900 451L900 451L840 451L840 451L780 451L780 451L720 451L720 451L660 451L660 451L600 451L600 451L540 451L540 451L480 451L480 451L420 451L420 451L360 451L360 451L300 451L300 451L240 451L240 451L180 451L180 451L120 451L120 451L60 451L60 451L0 451Z" fill="#7e00d1"></path><path d="M0 354L60 354L60 393L120 393L120 363L180 363L180 371L240 371L240 385L300 385L300 357L360 357L360 393L420 393L420 355L480 355L480 352L540 352L540 344L600 344L600 350L660 350L660 370L720 370L720 343L780 343L780 365L840 365L840 378L900 378L900 351L900 451L900 451L840 451L840 451L780 451L780 451L720 451L720 451L660 451L660 451L600 451L600 451L540 451L540 451L480 451L480 451L420 451L420 451L360 451L360 451L300 451L300 451L240 451L240 451L180 451L180 451L120 451L120 451L60 451L60 451L0 451Z" fill="#7000bb"></path><path d="M0 413L60 413L60 418L120 418L120 395L180 395L180 395L240 395L240 387L300 387L300 386L360 386L360 403L420 403L420 407L480 407L480 407L540 407L540 398L600 398L600 370L660 370L660 396L720 396L720 388L780 388L780 412L840 412L840 376L900 376L900 399L900 451L900 451L840 451L840 451L780 451L780 451L720 451L720 451L660 451L660 451L600 451L600 451L540 451L540 451L480 451L480 451L420 451L420 451L360 451L360 451L300 451L300 451L240 451L240 451L180 451L180 451L120 451L120 451L60 451L60 451L0 451Z" fill="#6300a5"></path><path d="M0 436L60 436L60 409L120 409L120 414L180 414L180 433L240 433L240 419L300 419L300 415L360 415L360 406L420 406L420 424L480 424L480 405L540 405L540 418L600 418L600 407L660 407L660 410L720 410L720 429L780 429L780 418L840 418L840 428L900 428L900 422L900 451L900 451L840 451L840 451L780 451L780 451L720 451L720 451L660 451L660 451L600 451L600 451L540 451L540 451L480 451L480 451L420 451L420 451L360 451L360 451L300 451L300 451L240 451L240 451L180 451L180 451L120 451L120 451L60 451L60 451L0 451Z" fill="#560090"></path></svg>