<svg id="visual" viewBox="0 0 900 450" width="900" height="450" xmlns="http://www.w3.org/2000/svg" xmlns:xlink="http://www.w3.org/1999/xlink" version="1.1"><g stroke-width="1" stroke-linejoin="bevel"><path d="M465 204L501 205L490 198Z" fill="#ff755c" stroke="#ff755c"></path><path d="M465 204L507 210L501 205Z" fill="#ff7b58" stroke="#ff7b58"></path><path d="M507 210L523 208L501 205Z" fill="#ff7b58" stroke="#ff7b58"></path><path d="M501 205L521 174L490 198Z" fill="#ff6f61" stroke="#ff6f61"></path><path d="M523 208L521 174L501 205Z" fill="#fcaf3c" stroke="#fcaf3c"></path><path d="M436 149L421 175L465 204Z" fill="#ff7b58" stroke="#ff7b58"></path><path d="M436 149L465 204L490 198Z" fill="#fea83e" stroke="#fea83e"></path><path d="M521 174L510 149L490 198Z" fill="#ff7b58" stroke="#ff7b58"></path><path d="M428 286L524 289L465 204Z" fill="#ff9b44" stroke="#ff9b44"></path><path d="M465 204L524 289L507 210Z" fill="#ff7b58" stroke="#ff7b58"></path><path d="M507 210L524 289L523 208Z" fill="#ff8153" stroke="#ff8153"></path><path d="M370 254L428 286L465 204Z" fill="#fea83e" stroke="#fea83e"></path><path d="M467 127L436 149L490 198Z" fill="#ff8153" stroke="#ff8153"></path><path d="M524 289L574 242L523 208Z" fill="#ff755c" stroke="#ff755c"></path><path d="M523 208L545 152L521 174Z" fill="#ff9b44" stroke="#ff9b44"></path><path d="M521 174L545 152L510 149Z" fill="#ff8153" stroke="#ff8153"></path><path d="M574 242L545 152L523 208Z" fill="#ff755c" stroke="#ff755c"></path><path d="M480 118L467 127L510 149Z" fill="#fea83e" stroke="#fea83e"></path><path d="M510 149L467 127L490 198Z" fill="#ffa241" stroke="#ffa241"></path><path d="M545 152L538 135L510 149Z" fill="#ff8e4b" stroke="#ff8e4b"></path><path d="M507 115L480 118L510 149Z" fill="#ff9447" stroke="#ff9447"></path><path d="M538 135L507 115L510 149Z" fill="#fea83e" stroke="#fea83e"></path><path d="M462 349L541 318L524 289Z" fill="#ff7b58" stroke="#ff7b58"></path><path d="M524 289L600 288L574 242Z" fill="#ff9447" stroke="#ff9447"></path><path d="M362 237L370 254L421 175Z" fill="#ff6f61" stroke="#ff6f61"></path><path d="M421 175L370 254L465 204Z" fill="#fcaf3c" stroke="#fcaf3c"></path><path d="M393 330L436 332L428 286Z" fill="#ff884f" stroke="#ff884f"></path><path d="M428 286L462 349L524 289Z" fill="#ff8e4b" stroke="#ff8e4b"></path><path d="M348 188L362 237L421 175Z" fill="#ffa241" stroke="#ffa241"></path><path d="M467 127L435 108L436 149Z" fill="#ffa241" stroke="#ffa241"></path><path d="M436 149L392 117L421 175Z" fill="#ffa241" stroke="#ffa241"></path><path d="M480 118L435 108L467 127Z" fill="#ff8e4b" stroke="#ff8e4b"></path><path d="M432 101L435 108L434 84Z" fill="#ff755c" stroke="#ff755c"></path><path d="M436 332L462 349L428 286Z" fill="#fcaf3c" stroke="#fcaf3c"></path><path d="M434 84L435 108L480 118Z" fill="#ff6f61" stroke="#ff6f61"></path><path d="M435 108L392 117L436 149Z" fill="#ffa241" stroke="#ffa241"></path><path d="M541 318L600 288L524 289Z" fill="#ff884f" stroke="#ff884f"></path><path d="M597 132L559 109L545 152Z" fill="#ff7b58" stroke="#ff7b58"></path><path d="M545 152L559 109L538 135Z" fill="#ff755c" stroke="#ff755c"></path><path d="M538 135L528 91L507 115Z" fill="#fea83e" stroke="#fea83e"></path><path d="M507 115L528 91L480 118Z" fill="#ff755c" stroke="#ff755c"></path><path d="M597 132L545 152L574 242Z" fill="#ff6f61" stroke="#ff6f61"></path><path d="M562 338L572 327L541 318Z" fill="#ffa241" stroke="#ffa241"></path><path d="M541 318L572 327L600 288Z" fill="#ff755c" stroke="#ff755c"></path><path d="M432 101L392 117L435 108Z" fill="#fea83e" stroke="#fea83e"></path><path d="M559 109L528 91L538 135Z" fill="#ff8153" stroke="#ff8153"></path><path d="M392 117L348 188L421 175Z" fill="#ff884f" stroke="#ff884f"></path><path d="M510 372L549 345L541 318Z" fill="#ff6f61" stroke="#ff6f61"></path><path d="M356 292L393 330L428 286Z" fill="#ff6f61" stroke="#ff6f61"></path><path d="M436 332L452 360L462 349Z" fill="#ff884f" stroke="#ff884f"></path><path d="M356 292L428 286L370 254Z" fill="#ff9b44" stroke="#ff9b44"></path><path d="M549 345L562 338L541 318Z" fill="#ff9b44" stroke="#ff9b44"></path><path d="M432 362L452 360L436 332Z" fill="#ff8e4b" stroke="#ff8e4b"></path><path d="M462 349L510 372L541 318Z" fill="#ff755c" stroke="#ff755c"></path><path d="M298 253L370 254L362 237Z" fill="#fcaf3c" stroke="#fcaf3c"></path><path d="M298 253L356 292L370 254Z" fill="#ff6f61" stroke="#ff6f61"></path><path d="M654 185L597 132L574 242Z" fill="#ff7b58" stroke="#ff7b58"></path><path d="M432 101L425 74L392 117Z" fill="#ff884f" stroke="#ff884f"></path><path d="M469 22L434 84L480 118Z" fill="#fea83e" stroke="#fea83e"></path><path d="M393 330L432 362L436 332Z" fill="#ff7b58" stroke="#ff7b58"></path><path d="M356 292L374 329L393 330Z" fill="#ff6f61" stroke="#ff6f61"></path><path d="M393 330L384 340L432 362Z" fill="#ff9447" stroke="#ff9447"></path><path d="M459 373L462 349L452 360Z" fill="#fea83e" stroke="#fea83e"></path><path d="M480 381L510 372L462 349Z" fill="#fea83e" stroke="#fea83e"></path><path d="M609 408L621 379L562 338Z" fill="#ff7b58" stroke="#ff7b58"></path><path d="M432 362L459 373L452 360Z" fill="#ff755c" stroke="#ff755c"></path><path d="M374 329L384 340L393 330Z" fill="#ff884f" stroke="#ff884f"></path><path d="M469 22L425 74L434 84Z" fill="#ff8e4b" stroke="#ff8e4b"></path><path d="M434 84L425 74L432 101Z" fill="#ff8153" stroke="#ff8153"></path><path d="M459 373L480 381L462 349Z" fill="#ff7b58" stroke="#ff7b58"></path><path d="M559 109L541 69L528 91Z" fill="#ff8153" stroke="#ff8153"></path><path d="M528 91L469 22L480 118Z" fill="#ffa241" stroke="#ffa241"></path><path d="M589 49L541 69L559 109Z" fill="#ff884f" stroke="#ff884f"></path><path d="M315 99L323 183L348 188Z" fill="#ff755c" stroke="#ff755c"></path><path d="M348 188L323 183L362 237Z" fill="#ff884f" stroke="#ff884f"></path><path d="M298 183L323 183L279 113Z" fill="#ff7b58" stroke="#ff7b58"></path><path d="M684 279L653 216L600 288Z" fill="#ff6f61" stroke="#ff6f61"></path><path d="M600 288L653 216L574 242Z" fill="#ff755c" stroke="#ff755c"></path><path d="M504 404L527 390L510 372Z" fill="#ff9b44" stroke="#ff9b44"></path><path d="M510 372L527 390L549 345Z" fill="#ff9447" stroke="#ff9447"></path><path d="M621 379L633 312L572 327Z" fill="#ffa241" stroke="#ffa241"></path><path d="M572 327L633 312L600 288Z" fill="#ff755c" stroke="#ff755c"></path><path d="M621 379L572 327L562 338Z" fill="#ff8e4b" stroke="#ff8e4b"></path><path d="M653 216L654 185L574 242Z" fill="#ff6f61" stroke="#ff6f61"></path><path d="M597 132L589 49L559 109Z" fill="#ff8153" stroke="#ff8153"></path><path d="M711 213L660 191L653 216Z" fill="#ff8153" stroke="#ff8153"></path><path d="M653 216L660 191L654 185Z" fill="#ff7b58" stroke="#ff7b58"></path><path d="M654 185L658 177L597 132Z" fill="#fcaf3c" stroke="#fcaf3c"></path><path d="M660 191L658 177L654 185Z" fill="#ff7b58" stroke="#ff7b58"></path><path d="M480 381L504 404L510 372Z" fill="#ff8153" stroke="#ff8153"></path><path d="M494 450L504 404L480 381Z" fill="#ffa241" stroke="#ffa241"></path><path d="M418 421L480 381L459 373Z" fill="#ff8153" stroke="#ff8153"></path><path d="M418 421L459 373L432 362Z" fill="#ff8153" stroke="#ff8153"></path><path d="M660 191L661 170L658 177Z" fill="#ff9b44" stroke="#ff9b44"></path><path d="M658 177L661 170L597 132Z" fill="#ff7b58" stroke="#ff7b58"></path><path d="M323 183L298 253L362 237Z" fill="#ff6f61" stroke="#ff6f61"></path><path d="M356 292L329 333L374 329Z" fill="#ff6f61" stroke="#ff6f61"></path><path d="M374 329L329 333L384 340Z" fill="#fea83e" stroke="#fea83e"></path><path d="M298 253L311 300L356 292Z" fill="#ff7b58" stroke="#ff7b58"></path><path d="M315 99L348 188L392 117Z" fill="#ff7b58" stroke="#ff7b58"></path><path d="M323 183L285 235L298 253Z" fill="#fcaf3c" stroke="#fcaf3c"></path><path d="M311 300L329 333L356 292Z" fill="#ff8153" stroke="#ff8153"></path><path d="M384 340L418 421L432 362Z" fill="#ff8153" stroke="#ff8153"></path><path d="M711 213L667 164L660 191Z" fill="#ff755c" stroke="#ff755c"></path><path d="M660 191L667 164L661 170Z" fill="#ff8e4b" stroke="#ff8e4b"></path><path d="M661 170L666 134L597 132Z" fill="#ff6f61" stroke="#ff6f61"></path><path d="M298 183L285 235L323 183Z" fill="#ff9b44" stroke="#ff9b44"></path><path d="M298 253L283 267L311 300Z" fill="#ff7b58" stroke="#ff7b58"></path><path d="M524 23L469 22L528 91Z" fill="#ff6f61" stroke="#ff6f61"></path><path d="M247 150L279 195L298 183Z" fill="#ff8153" stroke="#ff8153"></path><path d="M666 134L589 49L597 132Z" fill="#ff9447" stroke="#ff9447"></path><path d="M541 69L524 23L528 91Z" fill="#ff9b44" stroke="#ff9b44"></path><path d="M589 49L524 23L541 69Z" fill="#ff755c" stroke="#ff755c"></path><path d="M667 164L666 134L661 170Z" fill="#ff8e4b" stroke="#ff8e4b"></path><path d="M285 235L283 267L298 253Z" fill="#ff9447" stroke="#ff9447"></path><path d="M311 300L281 350L329 333Z" fill="#ff9447" stroke="#ff9447"></path><path d="M315 99L392 117L338 45Z" fill="#ff9b44" stroke="#ff9b44"></path><path d="M298 183L279 195L285 235Z" fill="#fcaf3c" stroke="#fcaf3c"></path><path d="M285 235L276 278L283 267Z" fill="#ff8e4b" stroke="#ff8e4b"></path><path d="M338 45L392 117L425 74Z" fill="#ff8e4b" stroke="#ff8e4b"></path><path d="M382 450L418 421L384 340Z" fill="#fea83e" stroke="#fea83e"></path><path d="M702 283L684 279L709 342Z" fill="#ffa241" stroke="#ffa241"></path><path d="M633 312L684 279L600 288Z" fill="#ff755c" stroke="#ff755c"></path><path d="M686 124L681 123L666 134Z" fill="#ffa241" stroke="#ffa241"></path><path d="M609 408L549 345L527 390Z" fill="#ff7b58" stroke="#ff7b58"></path><path d="M609 408L562 338L549 345Z" fill="#ff6f61" stroke="#ff6f61"></path><path d="M199 209L276 278L285 235Z" fill="#fea83e" stroke="#fea83e"></path><path d="M283 267L276 278L311 300Z" fill="#ff8e4b" stroke="#ff8e4b"></path><path d="M684 279L696 253L653 216Z" fill="#ff6f61" stroke="#ff6f61"></path><path d="M686 124L666 134L701 140Z" fill="#ff8e4b" stroke="#ff8e4b"></path><path d="M666 134L681 123L589 49Z" fill="#fcaf3c" stroke="#fcaf3c"></path><path d="M510 -27L510 0L606 0Z" fill="#fcaf3c" stroke="#fcaf3c"></path><path d="M524 23L510 0L469 22Z" fill="#ff7b58" stroke="#ff7b58"></path><path d="M372 0L338 45L425 74Z" fill="#ff8153" stroke="#ff8153"></path><path d="M566 450L609 408L527 390Z" fill="#ff9447" stroke="#ff9447"></path><path d="M709 342L684 279L633 312Z" fill="#ff8e4b" stroke="#ff8e4b"></path><path d="M566 450L527 390L504 404Z" fill="#ffa241" stroke="#ffa241"></path><path d="M701 140L666 134L667 164Z" fill="#ff8e4b" stroke="#ff8e4b"></path><path d="M610 0L606 0L589 49Z" fill="#ff9b44" stroke="#ff9b44"></path><path d="M684 279L702 283L696 253Z" fill="#ff8e4b" stroke="#ff8e4b"></path><path d="M696 253L711 213L653 216Z" fill="#fea83e" stroke="#fea83e"></path><path d="M709 342L633 312L621 379Z" fill="#ff7b58" stroke="#ff7b58"></path><path d="M418 421L494 450L480 381Z" fill="#ff8e4b" stroke="#ff8e4b"></path><path d="M403 0L425 74L469 22Z" fill="#ff884f" stroke="#ff884f"></path><path d="M494 450L498 450L504 404Z" fill="#ff9447" stroke="#ff9447"></path><path d="M767 239L711 213L696 253Z" fill="#ff6f61" stroke="#ff6f61"></path><path d="M286 96L279 113L315 99Z" fill="#ffa241" stroke="#ffa241"></path><path d="M315 99L279 113L323 183Z" fill="#ff9b44" stroke="#ff9b44"></path><path d="M267 359L271 347L230 367Z" fill="#ff884f" stroke="#ff884f"></path><path d="M706 152L701 140L667 164Z" fill="#ff8153" stroke="#ff8153"></path><path d="M295 81L286 96L315 99Z" fill="#ff8e4b" stroke="#ff8e4b"></path><path d="M711 213L706 152L667 164Z" fill="#ff755c" stroke="#ff755c"></path><path d="M338 45L295 81L315 99Z" fill="#ff9447" stroke="#ff9447"></path><path d="M510 -27L403 0L469 22Z" fill="#ff884f" stroke="#ff884f"></path><path d="M382 450L421 450L418 421Z" fill="#ff7b58" stroke="#ff7b58"></path><path d="M418 421L421 450L494 450Z" fill="#ff884f" stroke="#ff884f"></path><path d="M305 382L384 340L329 333Z" fill="#ff884f" stroke="#ff884f"></path><path d="M271 347L281 350L311 300Z" fill="#ff755c" stroke="#ff755c"></path><path d="M281 350L305 382L329 333Z" fill="#ff8e4b" stroke="#ff8e4b"></path><path d="M498 450L566 450L504 404Z" fill="#fcaf3c" stroke="#fcaf3c"></path><path d="M494 450L487 466L498 450Z" fill="#ff884f" stroke="#ff884f"></path><path d="M498 450L528 479L566 450Z" fill="#fea83e" stroke="#fea83e"></path><path d="M421 450L487 466L494 450Z" fill="#ff6f61" stroke="#ff6f61"></path><path d="M276 278L271 347L311 300Z" fill="#ff8153" stroke="#ff8153"></path><path d="M281 350L267 359L305 382Z" fill="#ff9447" stroke="#ff9447"></path><path d="M199 209L285 235L279 195Z" fill="#ff9b44" stroke="#ff9b44"></path><path d="M226 143L247 150L221 122Z" fill="#fea83e" stroke="#fea83e"></path><path d="M279 113L247 150L298 183Z" fill="#ff9b44" stroke="#ff9b44"></path><path d="M247 150L279 113L231 101Z" fill="#fcaf3c" stroke="#fcaf3c"></path><path d="M403 0L372 0L425 74Z" fill="#ff884f" stroke="#ff884f"></path><path d="M338 45L310 16L295 81Z" fill="#ff8153" stroke="#ff8153"></path><path d="M345 450L382 450L384 340Z" fill="#ff7b58" stroke="#ff7b58"></path><path d="M421 450L370 470L487 466Z" fill="#ff8e4b" stroke="#ff8e4b"></path><path d="M606 0L510 0L524 23Z" fill="#ff9b44" stroke="#ff9b44"></path><path d="M510 0L510 -27L469 22Z" fill="#ff7b58" stroke="#ff7b58"></path><path d="M403 0L390 -17L372 0Z" fill="#ffa241" stroke="#ffa241"></path><path d="M606 0L524 23L589 49Z" fill="#fea83e" stroke="#fea83e"></path><path d="M589 49L681 123L616 0Z" fill="#ff7b58" stroke="#ff7b58"></path><path d="M610 0L589 49L616 0Z" fill="#ff7b58" stroke="#ff7b58"></path><path d="M390 -17L357 0L372 0Z" fill="#fcaf3c" stroke="#fcaf3c"></path><path d="M372 0L357 0L338 45Z" fill="#ff8153" stroke="#ff8153"></path><path d="M271 347L267 359L281 350Z" fill="#ff9b44" stroke="#ff9b44"></path><path d="M305 382L345 450L384 340Z" fill="#ff884f" stroke="#ff884f"></path><path d="M230 367L271 347L196 306Z" fill="#ff9b44" stroke="#ff9b44"></path><path d="M616 0L681 123L711 0Z" fill="#ff884f" stroke="#ff884f"></path><path d="M606 0L610 0L510 -27Z" fill="#ff8e4b" stroke="#ff8e4b"></path><path d="M510 -27L390 -17L403 0Z" fill="#fcaf3c" stroke="#fcaf3c"></path><path d="M713 358L621 379L694 420Z" fill="#ff6f61" stroke="#ff6f61"></path><path d="M713 358L709 342L621 379Z" fill="#fea83e" stroke="#fea83e"></path><path d="M702 283L767 239L696 253Z" fill="#ff8153" stroke="#ff8153"></path><path d="M631 480L601 450L566 450Z" fill="#ffa241" stroke="#ffa241"></path><path d="M566 450L601 450L609 408Z" fill="#ff8153" stroke="#ff8153"></path><path d="M725 100L681 123L686 124Z" fill="#ff8e4b" stroke="#ff8e4b"></path><path d="M610 0L616 0L510 -27Z" fill="#fcaf3c" stroke="#fcaf3c"></path><path d="M370 470L528 479L487 466Z" fill="#ff8153" stroke="#ff8153"></path><path d="M487 466L528 479L498 450Z" fill="#ff884f" stroke="#ff884f"></path><path d="M293 432L345 450L305 382Z" fill="#ff9447" stroke="#ff9447"></path><path d="M382 450L370 470L421 450Z" fill="#ff6f61" stroke="#ff6f61"></path><path d="M694 420L621 379L609 408Z" fill="#ff7b58" stroke="#ff7b58"></path><path d="M709 342L747 301L702 283Z" fill="#fea83e" stroke="#fea83e"></path><path d="M231 101L279 113L286 96Z" fill="#ff7b58" stroke="#ff7b58"></path><path d="M247 150L199 209L279 195Z" fill="#ff6f61" stroke="#ff6f61"></path><path d="M231 101L286 96L295 81Z" fill="#fcaf3c" stroke="#fcaf3c"></path><path d="M329 0L338 45L357 0Z" fill="#ff8e4b" stroke="#ff8e4b"></path><path d="M329 0L310 16L338 45Z" fill="#fea83e" stroke="#fea83e"></path><path d="M390 -17L329 0L357 0Z" fill="#fea83e" stroke="#fea83e"></path><path d="M730 104L725 100L701 140Z" fill="#ffa241" stroke="#ffa241"></path><path d="M701 140L725 100L686 124Z" fill="#ff9447" stroke="#ff9447"></path><path d="M730 104L701 140L742 116Z" fill="#fcaf3c" stroke="#fcaf3c"></path><path d="M701 140L706 152L742 116Z" fill="#fcaf3c" stroke="#fcaf3c"></path><path d="M345 450L370 470L382 450Z" fill="#ff884f" stroke="#ff884f"></path><path d="M742 116L706 152L807 215Z" fill="#ff6f61" stroke="#ff6f61"></path><path d="M725 100L711 0L681 123Z" fill="#fcaf3c" stroke="#fcaf3c"></path><path d="M758 329L747 301L709 342Z" fill="#ffa241" stroke="#ffa241"></path><path d="M267 0L231 101L295 81Z" fill="#ff8e4b" stroke="#ff8e4b"></path><path d="M231 101L221 122L247 150Z" fill="#ffa241" stroke="#ffa241"></path><path d="M189 169L199 209L247 150Z" fill="#ff9b44" stroke="#ff9b44"></path><path d="M807 215L706 152L711 213Z" fill="#ff9447" stroke="#ff9447"></path><path d="M267 359L293 432L305 382Z" fill="#ff8e4b" stroke="#ff8e4b"></path><path d="M345 450L284 450L370 470Z" fill="#ff9447" stroke="#ff9447"></path><path d="M189 169L247 150L226 143Z" fill="#ff9b44" stroke="#ff9b44"></path><path d="M267 359L232 439L293 432Z" fill="#ff884f" stroke="#ff884f"></path><path d="M747 301L767 239L702 283Z" fill="#fcaf3c" stroke="#fcaf3c"></path><path d="M631 480L694 420L609 408Z" fill="#ff9b44" stroke="#ff9b44"></path><path d="M713 358L758 329L709 342Z" fill="#ff7b58" stroke="#ff7b58"></path><path d="M631 480L609 408L601 450Z" fill="#ff8e4b" stroke="#ff8e4b"></path><path d="M196 306L271 347L276 278Z" fill="#ff755c" stroke="#ff755c"></path><path d="M766 338L758 329L713 358Z" fill="#ff6f61" stroke="#ff6f61"></path><path d="M747 301L792 298L767 239Z" fill="#ff8e4b" stroke="#ff8e4b"></path><path d="M528 479L631 480L566 450Z" fill="#ffa241" stroke="#ffa241"></path><path d="M195 111L189 169L226 143Z" fill="#ff8e4b" stroke="#ff8e4b"></path><path d="M199 209L196 306L276 278Z" fill="#ff8e4b" stroke="#ff8e4b"></path><path d="M195 111L226 143L221 122Z" fill="#ff7b58" stroke="#ff7b58"></path><path d="M159 278L196 306L199 209Z" fill="#ff7b58" stroke="#ff7b58"></path><path d="M329 0L280 0L310 16Z" fill="#ff8e4b" stroke="#ff8e4b"></path><path d="M310 16L280 0L295 81Z" fill="#ff7b58" stroke="#ff7b58"></path><path d="M231 101L195 111L221 122Z" fill="#fcaf3c" stroke="#fcaf3c"></path><path d="M390 -17L280 0L329 0Z" fill="#ff9447" stroke="#ff9447"></path><path d="M276 450L284 450L293 432Z" fill="#ffa241" stroke="#ffa241"></path><path d="M293 432L284 450L345 450Z" fill="#ffa241" stroke="#ffa241"></path><path d="M749 382L766 338L713 358Z" fill="#ff9b44" stroke="#ff9b44"></path><path d="M758 329L792 298L747 301Z" fill="#ff8e4b" stroke="#ff8e4b"></path><path d="M232 439L276 450L293 432Z" fill="#ff884f" stroke="#ff884f"></path><path d="M284 450L276 450L370 470Z" fill="#ff9b44" stroke="#ff9b44"></path><path d="M232 439L267 359L230 367Z" fill="#ff6f61" stroke="#ff6f61"></path><path d="M166 36L195 111L231 101Z" fill="#fea83e" stroke="#fea83e"></path><path d="M390 -17L267 0L280 0Z" fill="#ff8153" stroke="#ff8153"></path><path d="M280 0L267 0L295 81Z" fill="#ff6f61" stroke="#ff6f61"></path><path d="M807 215L768 101L742 116Z" fill="#ff9b44" stroke="#ff9b44"></path><path d="M742 116L768 101L730 104Z" fill="#ff9b44" stroke="#ff9b44"></path><path d="M730 104L760 60L725 100Z" fill="#ff9b44" stroke="#ff9b44"></path><path d="M735 450L749 382L694 420Z" fill="#ff755c" stroke="#ff755c"></path><path d="M694 420L749 382L713 358Z" fill="#ffa241" stroke="#ffa241"></path><path d="M179 350L207 380L230 367Z" fill="#ffa241" stroke="#ffa241"></path><path d="M631 480L704 450L694 420Z" fill="#ff9447" stroke="#ff9447"></path><path d="M760 60L711 0L725 100Z" fill="#ff884f" stroke="#ff884f"></path><path d="M616 0L711 0L510 -27Z" fill="#ff884f" stroke="#ff884f"></path><path d="M766 338L792 298L758 329Z" fill="#ff6f61" stroke="#ff6f61"></path><path d="M767 239L807 215L711 213Z" fill="#fea83e" stroke="#fea83e"></path><path d="M836 334L792 298L766 338Z" fill="#fea83e" stroke="#fea83e"></path><path d="M768 101L760 60L730 104Z" fill="#fcaf3c" stroke="#fcaf3c"></path><path d="M792 298L807 215L767 239Z" fill="#ff9447" stroke="#ff9447"></path><path d="M768 101L794 81L760 60Z" fill="#ff8153" stroke="#ff8153"></path><path d="M195 111L161 167L189 169Z" fill="#ff884f" stroke="#ff884f"></path><path d="M189 169L161 167L199 209Z" fill="#ff884f" stroke="#ff884f"></path><path d="M196 306L179 350L230 367Z" fill="#ff755c" stroke="#ff755c"></path><path d="M153 257L159 278L199 209Z" fill="#ffa241" stroke="#ffa241"></path><path d="M174 344L179 350L196 306Z" fill="#ff9447" stroke="#ff9447"></path><path d="M137 180L153 257L199 209Z" fill="#fea83e" stroke="#fea83e"></path><path d="M151 300L174 344L196 306Z" fill="#ff884f" stroke="#ff884f"></path><path d="M178 450L232 439L207 380Z" fill="#ff7b58" stroke="#ff7b58"></path><path d="M207 380L232 439L230 367Z" fill="#ff9447" stroke="#ff9447"></path><path d="M151 300L196 306L159 278Z" fill="#ff8e4b" stroke="#ff8e4b"></path><path d="M179 350L178 450L207 380Z" fill="#fcaf3c" stroke="#fcaf3c"></path><path d="M232 439L241 450L276 450Z" fill="#fcaf3c" stroke="#fcaf3c"></path><path d="M276 450L241 450L370 470Z" fill="#ff755c" stroke="#ff755c"></path><path d="M760 60L733 0L711 0Z" fill="#ffa241" stroke="#ffa241"></path><path d="M711 0L857 -29L510 -27Z" fill="#ff6f61" stroke="#ff6f61"></path><path d="M760 60L734 0L733 0Z" fill="#ff884f" stroke="#ff884f"></path><path d="M733 0L857 -29L711 0Z" fill="#fea83e" stroke="#fea83e"></path><path d="M792 298L822 212L807 215Z" fill="#ff8153" stroke="#ff8153"></path><path d="M807 215L846 158L768 101Z" fill="#ffa241" stroke="#ffa241"></path><path d="M704 450L735 450L694 420Z" fill="#fcaf3c" stroke="#fcaf3c"></path><path d="M749 382L794 400L766 338Z" fill="#ff8153" stroke="#ff8153"></path><path d="M631 480L735 450L704 450Z" fill="#ff6f61" stroke="#ff6f61"></path><path d="M119 279L151 300L159 278Z" fill="#ff9b44" stroke="#ff9b44"></path><path d="M846 158L794 81L768 101Z" fill="#ff884f" stroke="#ff884f"></path><path d="M760 60L778 0L734 0Z" fill="#ff6f61" stroke="#ff6f61"></path><path d="M174 344L163 345L179 350Z" fill="#fea83e" stroke="#fea83e"></path><path d="M151 300L163 345L174 344Z" fill="#ff7b58" stroke="#ff7b58"></path><path d="M136 122L137 180L161 167Z" fill="#ff9b44" stroke="#ff9b44"></path><path d="M161 167L137 180L199 209Z" fill="#ffa241" stroke="#ffa241"></path><path d="M153 257L119 279L159 278Z" fill="#ff8153" stroke="#ff8153"></path><path d="M136 122L161 167L195 111Z" fill="#ff8e4b" stroke="#ff8e4b"></path><path d="M797 19L789 45L844 48Z" fill="#ff6f61" stroke="#ff6f61"></path><path d="M794 81L789 45L760 60Z" fill="#ff8e4b" stroke="#ff8e4b"></path><path d="M735 450L794 400L749 382Z" fill="#ff6f61" stroke="#ff6f61"></path><path d="M885 237L870 214L885 247Z" fill="#ffa241" stroke="#ffa241"></path><path d="M166 36L136 122L195 111Z" fill="#ff884f" stroke="#ff884f"></path><path d="M137 180L116 241L153 257Z" fill="#ff8153" stroke="#ff8153"></path><path d="M151 300L93 297L163 345Z" fill="#ff9b44" stroke="#ff9b44"></path><path d="M101 228L116 241L137 180Z" fill="#ff8e4b" stroke="#ff8e4b"></path><path d="M189 0L166 36L231 101Z" fill="#ffa241" stroke="#ffa241"></path><path d="M267 0L189 0L231 101Z" fill="#ffa241" stroke="#ffa241"></path><path d="M390 -17L189 0L267 0Z" fill="#ff9b44" stroke="#ff9b44"></path><path d="M116 241L119 279L153 257Z" fill="#ff8e4b" stroke="#ff8e4b"></path><path d="M870 214L846 158L822 212Z" fill="#ff9447" stroke="#ff9447"></path><path d="M822 212L846 158L807 215Z" fill="#ff7b58" stroke="#ff7b58"></path><path d="M797 19L778 0L789 45Z" fill="#ff9b44" stroke="#ff9b44"></path><path d="M789 45L778 0L760 60Z" fill="#ff6f61" stroke="#ff6f61"></path><path d="M734 0L857 -29L733 0Z" fill="#ffa241" stroke="#ffa241"></path><path d="M794 400L836 334L766 338Z" fill="#fea83e" stroke="#fea83e"></path><path d="M840 57L789 45L794 81Z" fill="#ff755c" stroke="#ff755c"></path><path d="M132 450L179 350L163 345Z" fill="#fcaf3c" stroke="#fcaf3c"></path><path d="M132 450L178 450L179 350Z" fill="#ff9b44" stroke="#ff9b44"></path><path d="M232 439L178 450L241 450Z" fill="#ffa241" stroke="#ffa241"></path><path d="M241 450L87 466L370 470Z" fill="#ff884f" stroke="#ff884f"></path><path d="M116 241L105 275L119 279Z" fill="#ff6f61" stroke="#ff6f61"></path><path d="M119 279L93 297L151 300Z" fill="#ff6f61" stroke="#ff6f61"></path><path d="M76 258L105 275L116 241Z" fill="#fcaf3c" stroke="#fcaf3c"></path><path d="M90 209L101 228L137 180Z" fill="#ff9447" stroke="#ff9447"></path><path d="M735 450L795 450L794 400Z" fill="#ff884f" stroke="#ff884f"></path><path d="M794 400L822 427L836 334Z" fill="#ff755c" stroke="#ff755c"></path><path d="M820 459L795 450L735 450Z" fill="#fea83e" stroke="#fea83e"></path><path d="M870 214L822 212L885 247Z" fill="#ff9447" stroke="#ff9447"></path><path d="M846 158L840 57L794 81Z" fill="#fcaf3c" stroke="#fcaf3c"></path><path d="M47 193L90 209L136 122Z" fill="#ff755c" stroke="#ff755c"></path><path d="M136 122L90 209L137 180Z" fill="#ff9447" stroke="#ff9447"></path><path d="M91 297L93 297L105 275Z" fill="#fcaf3c" stroke="#fcaf3c"></path><path d="M844 48L840 57L900 87Z" fill="#ffa241" stroke="#ffa241"></path><path d="M797 19L857 -29L778 0Z" fill="#ff9447" stroke="#ff9447"></path><path d="M795 450L822 427L794 400Z" fill="#ff755c" stroke="#ff755c"></path><path d="M836 334L874 309L792 298Z" fill="#ffa241" stroke="#ffa241"></path><path d="M91 297L105 275L76 258Z" fill="#fcaf3c" stroke="#fcaf3c"></path><path d="M105 275L93 297L119 279Z" fill="#ff8e4b" stroke="#ff8e4b"></path><path d="M76 258L116 241L101 228Z" fill="#ff9b44" stroke="#ff9b44"></path><path d="M93 297L98 413L163 345Z" fill="#ff9447" stroke="#ff9447"></path><path d="M189 0L150 0L166 36Z" fill="#ff755c" stroke="#ff755c"></path><path d="M166 36L112 43L136 122Z" fill="#ffa241" stroke="#ffa241"></path><path d="M390 -17L150 0L189 0Z" fill="#ff8153" stroke="#ff8153"></path><path d="M101 0L150 0L390 -17Z" fill="#ff8e4b" stroke="#ff8e4b"></path><path d="M900 314L874 309L836 334Z" fill="#ffa241" stroke="#ffa241"></path><path d="M900 99L840 57L846 158Z" fill="#ff755c" stroke="#ff755c"></path><path d="M840 57L844 48L789 45Z" fill="#ff755c" stroke="#ff755c"></path><path d="M885 247L822 212L792 298Z" fill="#ff9447" stroke="#ff9447"></path><path d="M870 214L900 155L846 158Z" fill="#ff6f61" stroke="#ff6f61"></path><path d="M874 309L885 247L792 298Z" fill="#fcaf3c" stroke="#fcaf3c"></path><path d="M90 209L76 258L101 228Z" fill="#ff9447" stroke="#ff9447"></path><path d="M150 0L112 43L166 36Z" fill="#fcaf3c" stroke="#fcaf3c"></path><path d="M90 209L47 193L76 258Z" fill="#ffa241" stroke="#ffa241"></path><path d="M795 450L820 459L822 427Z" fill="#ff8153" stroke="#ff8153"></path><path d="M900 401L900 314L836 334Z" fill="#ff884f" stroke="#ff884f"></path><path d="M631 480L820 459L735 450Z" fill="#ff7b58" stroke="#ff7b58"></path><path d="M127 450L132 450L98 413Z" fill="#ff9b44" stroke="#ff9b44"></path><path d="M178 450L87 466L241 450Z" fill="#ff7b58" stroke="#ff7b58"></path><path d="M132 450L163 345L98 413Z" fill="#fcaf3c" stroke="#fcaf3c"></path><path d="M900 260L885 247L874 309Z" fill="#ff9b44" stroke="#ff9b44"></path><path d="M900 260L900 251L885 247Z" fill="#ff9b44" stroke="#ff9b44"></path><path d="M885 247L900 251L885 237Z" fill="#ff8e4b" stroke="#ff8e4b"></path><path d="M922 232L900 155L870 214Z" fill="#ff8153" stroke="#ff8153"></path><path d="M900 314L900 260L874 309Z" fill="#ffa241" stroke="#ffa241"></path><path d="M98 413L93 297L91 297Z" fill="#ff9447" stroke="#ff9447"></path><path d="M132 450L87 466L178 450Z" fill="#fcaf3c" stroke="#fcaf3c"></path><path d="M922 232L870 214L885 237Z" fill="#fea83e" stroke="#fea83e"></path><path d="M914 307L900 314L900 401Z" fill="#ff7b58" stroke="#ff7b58"></path><path d="M900 155L900 129L846 158Z" fill="#ff8e4b" stroke="#ff8e4b"></path><path d="M150 0L103 23L112 43Z" fill="#fcaf3c" stroke="#fcaf3c"></path><path d="M38 72L47 193L136 122Z" fill="#ff6f61" stroke="#ff6f61"></path><path d="M43 301L98 413L91 297Z" fill="#fcaf3c" stroke="#fcaf3c"></path><path d="M900 129L900 99L846 158Z" fill="#ff8e4b" stroke="#ff8e4b"></path><path d="M38 72L136 122L112 43Z" fill="#ff8153" stroke="#ff8153"></path><path d="M76 258L43 301L91 297Z" fill="#ffa241" stroke="#ffa241"></path><path d="M900 99L900 87L840 57Z" fill="#ff8153" stroke="#ff8153"></path><path d="M844 48L857 -29L797 19Z" fill="#ffa241" stroke="#ffa241"></path><path d="M914 307L922 232L900 260Z" fill="#ff7b58" stroke="#ff7b58"></path><path d="M900 260L922 232L900 251Z" fill="#ff755c" stroke="#ff755c"></path><path d="M900 251L922 232L885 237Z" fill="#fea83e" stroke="#fea83e"></path><path d="M900 155L922 232L900 129Z" fill="#ff8153" stroke="#ff8153"></path><path d="M900 129L922 232L900 99Z" fill="#ff8153" stroke="#ff8153"></path><path d="M900 99L918 0L900 87Z" fill="#ff9447" stroke="#ff9447"></path><path d="M900 401L836 334L822 427Z" fill="#fea83e" stroke="#fea83e"></path><path d="M900 314L914 307L900 260Z" fill="#fea83e" stroke="#fea83e"></path><path d="M150 0L101 0L103 23Z" fill="#fcaf3c" stroke="#fcaf3c"></path><path d="M103 23L82 22L112 43Z" fill="#ff7b58" stroke="#ff7b58"></path><path d="M0 0L101 0L390 -17Z" fill="#ffa241" stroke="#ffa241"></path><path d="M0 247L43 301L76 258Z" fill="#ff884f" stroke="#ff884f"></path><path d="M101 0L82 22L103 23Z" fill="#fea83e" stroke="#fea83e"></path><path d="M900 0L857 -29L844 48Z" fill="#ff7b58" stroke="#ff7b58"></path><path d="M778 0L857 -29L734 0Z" fill="#ff9447" stroke="#ff9447"></path><path d="M884 450L900 401L822 427Z" fill="#ff7b58" stroke="#ff7b58"></path><path d="M820 459L884 450L822 427Z" fill="#ff6f61" stroke="#ff6f61"></path><path d="M11 450L87 466L98 413Z" fill="#fea83e" stroke="#fea83e"></path><path d="M98 413L87 466L127 450Z" fill="#fea83e" stroke="#fea83e"></path><path d="M127 450L87 466L132 450Z" fill="#fcaf3c" stroke="#fcaf3c"></path><path d="M370 470L87 466L528 479Z" fill="#ff884f" stroke="#ff884f"></path><path d="M0 87L38 72L0 59Z" fill="#ff7b58" stroke="#ff7b58"></path><path d="M82 22L38 72L112 43Z" fill="#ff8e4b" stroke="#ff8e4b"></path><path d="M47 193L0 244L76 258Z" fill="#ff7b58" stroke="#ff7b58"></path><path d="M884 450L900 440L900 401Z" fill="#ff6f61" stroke="#ff6f61"></path><path d="M900 401L900 440L914 307Z" fill="#ff9b44" stroke="#ff9b44"></path><path d="M914 307L900 450L922 232Z" fill="#ff884f" stroke="#ff884f"></path><path d="M900 87L900 0L844 48Z" fill="#ff9447" stroke="#ff9447"></path><path d="M918 0L900 0L900 87Z" fill="#ff9b44" stroke="#ff9b44"></path><path d="M820 459L897 450L884 450Z" fill="#ff8153" stroke="#ff8153"></path><path d="M884 450L897 450L900 440Z" fill="#ff9b44" stroke="#ff9b44"></path><path d="M820 459L900 450L897 450Z" fill="#ff755c" stroke="#ff755c"></path><path d="M897 450L900 450L900 440Z" fill="#ff884f" stroke="#ff884f"></path><path d="M900 440L900 450L914 307Z" fill="#ff9b44" stroke="#ff9b44"></path><path d="M-13 191L0 244L47 193Z" fill="#ff755c" stroke="#ff755c"></path><path d="M43 301L10 334L98 413Z" fill="#ff755c" stroke="#ff755c"></path><path d="M0 244L0 247L76 258Z" fill="#ff8e4b" stroke="#ff8e4b"></path><path d="M38 72L0 173L47 193Z" fill="#ff884f" stroke="#ff884f"></path><path d="M0 298L10 334L43 301Z" fill="#ffa241" stroke="#ffa241"></path><path d="M-7 266L0 298L43 301Z" fill="#fea83e" stroke="#fea83e"></path><path d="M922 232L918 0L900 99Z" fill="#fea83e" stroke="#fea83e"></path><path d="M900 0L918 0L857 -29Z" fill="#ffa241" stroke="#ffa241"></path><path d="M0 244L-7 266L0 247Z" fill="#ff9447" stroke="#ff9447"></path><path d="M0 247L-7 266L43 301Z" fill="#ff9447" stroke="#ff9447"></path><path d="M-13 191L-7 266L0 244Z" fill="#ff884f" stroke="#ff884f"></path><path d="M-35 366L0 331L0 298Z" fill="#ff9447" stroke="#ff9447"></path><path d="M0 298L0 331L10 334Z" fill="#ffa241" stroke="#ffa241"></path><path d="M10 334L0 385L98 413Z" fill="#ff7b58" stroke="#ff7b58"></path><path d="M-3 90L-13 191L0 173Z" fill="#ff8153" stroke="#ff8153"></path><path d="M0 173L-13 191L47 193Z" fill="#ff8153" stroke="#ff8153"></path><path d="M38 72L-3 90L0 173Z" fill="#fea83e" stroke="#fea83e"></path><path d="M0 59L38 72L0 27Z" fill="#fcaf3c" stroke="#fcaf3c"></path><path d="M0 87L-3 90L38 72Z" fill="#ff7b58" stroke="#ff7b58"></path><path d="M0 27L38 72L82 22Z" fill="#ff9b44" stroke="#ff9b44"></path><path d="M0 87L0 59L-3 90Z" fill="#ff9447" stroke="#ff9447"></path><path d="M-3 90L-30 0L-13 191Z" fill="#fea83e" stroke="#fea83e"></path><path d="M0 331L0 385L10 334Z" fill="#fea83e" stroke="#fea83e"></path><path d="M-35 366L0 385L0 331Z" fill="#ff8e4b" stroke="#ff8e4b"></path><path d="M0 450L0 385L-35 366Z" fill="#ffa241" stroke="#ffa241"></path><path d="M0 0L0 27L82 22Z" fill="#ff884f" stroke="#ff884f"></path><path d="M0 59L-30 0L-3 90Z" fill="#ff8e4b" stroke="#ff8e4b"></path><path d="M0 27L-4 30L0 59Z" fill="#ff9b44" stroke="#ff9b44"></path><path d="M0 385L11 450L98 413Z" fill="#ff884f" stroke="#ff884f"></path><path d="M101 0L0 0L82 22Z" fill="#ff755c" stroke="#ff755c"></path><path d="M0 27L0 0L-4 30Z" fill="#ff8e4b" stroke="#ff8e4b"></path><path d="M-30 0L0 0L390 -17Z" fill="#fea83e" stroke="#fea83e"></path><path d="M-35 366L0 298L-7 266Z" fill="#fea83e" stroke="#fea83e"></path><path d="M0 385L0 450L11 450Z" fill="#ffa241" stroke="#ffa241"></path><path d="M11 450L0 450L87 466Z" fill="#fea83e" stroke="#fea83e"></path><path d="M-30 0L-35 366L-13 191Z" fill="#ff8e4b" stroke="#ff8e4b"></path><path d="M-13 191L-35 366L-7 266Z" fill="#ff8153" stroke="#ff8153"></path><path d="M0 0L-30 0L-4 30Z" fill="#fea83e" stroke="#fea83e"></path><path d="M-4 30L-30 0L0 59Z" fill="#ffa241" stroke="#ffa241"></path><path d="M510 -27L-30 0L390 -17Z" fill="#ffa241" stroke="#ffa241"></path></g></svg>