<?xml version="1.0" encoding="iso-8859-1"?>
<!-- Generator: Adobe Illustrator 21.0.0, SVG Export Plug-In . SVG Version: 6.00 Build 0)  -->
<svg xmlns="http://www.w3.org/2000/svg" xmlns:xlink="http://www.w3.org/1999/xlink" version="1.1" id="Capa_1" x="0px" y="0px" viewBox="0 0 512 512" style="enable-background:new 0 0 512 512;" xml:space="preserve" width="512" height="512">
<g>
	<path style="fill:#87DA8F;" d="M481.533,362.854C494.062,333.412,501,301.017,501,267c0-135.31-109.69-245-245-245   S11,131.69,11,267c0,33.95,6.909,66.285,19.392,95.681L481.533,362.854z"/>
	<rect x="154.133" y="165.099" style="fill:#4DADE2;" width="50.868" height="80.996"/>
	<rect x="205.001" y="165.099" style="fill:#6CBCE7;" width="50.868" height="80.996"/>
	<rect x="256" y="165.099" style="fill:#8BCBEC;" width="50.868" height="80.996"/>
	<rect x="306.868" y="165.099" style="fill:#AADAF2;" width="50.868" height="80.996"/>
	<path style="fill:#FFCB37;" d="M456.581,285.856H55.419V407.7c23.524,33.475,55.215,60.786,92.177,79.055h216.806   c36.963-18.269,68.653-45.58,92.177-79.055V285.856z"/>
	<path style="fill:#F6A221;" d="M126.476,285.856H55.419v121.844c18.908,26.906,43.1,49.818,71.057,67.266V285.856z"/>
	<path style="fill:#A0391E;" d="M300.274,355.087h-87.689c-2.557,0-4.631,2.073-4.631,4.631v22.26h96.95v-22.26   C304.905,357.16,302.832,355.087,300.274,355.087z"/>
	<path style="fill:#84260D;" d="M261.061,355.087h-48.475c-2.558,0-4.63,2.073-4.63,4.631v22.26h48.475v-22.26   C256.43,357.16,258.503,355.087,261.061,355.087z"/>
	<path style="fill:#BC4C2E;" d="M207.955,381.978v103.733c18.092,0,78.81,0,96.95,0V381.978   C286.792,381.978,226.134,381.978,207.955,381.978z"/>
	<path style="fill:#A0391E;" d="M207.955,381.978v103.733c9.049,0,28.76,0,48.475,0V381.978   C236.737,381.978,217.041,381.978,207.955,381.978z"/>
	<rect x="329.203" y="297.198" style="fill:#64679C;" width="28.401" height="188.513"/>
	<rect x="154.133" y="297.198" style="fill:#64679C;" width="28.401" height="188.513"/>
	<path style="fill:#474979;" d="M329.203,297.198v72.09c0-7.843,6.357-14.201,14.2-14.201l0,0c7.843,0,14.201,6.358,14.201,14.201   v-72.09H329.203z"/>
	<path style="fill:#474979;" d="M154.133,297.198v72.09c0-7.843,6.358-14.201,14.201-14.201l0,0c7.843,0,14.201,6.358,14.201,14.201   v-72.09H154.133z"/>
	<path style="fill:#474979;" d="M134.855,138.555l7.438,20.643c1.849,5.13,6.716,8.55,12.169,8.55h203   c5.491,0,10.383-3.467,12.203-8.647l7.218-20.545H134.855z"/>
	<path style="fill:#383C6B;" d="M195.626,159.198l-7.438-20.643h-53.334l7.438,20.643c1.849,5.13,6.716,8.55,12.169,8.55h53.333   C202.342,167.748,197.475,164.328,195.626,159.198z"/>
	<path style="fill:#F9D987;" d="M482.435,360.681V285.46c0-7.843-6.358-14.201-14.201-14.201c-7.843,0-14.201,6.358-14.201,14.201   v125.788C465.393,395.68,474.961,378.726,482.435,360.681z"/>
	<path style="fill:#FFCB37;" d="M43.766,271.259c-7.843,0-14.201,6.358-14.201,14.201v75.22   c7.474,18.045,17.042,34.999,28.401,50.567V285.46C57.966,277.617,51.609,271.259,43.766,271.259z"/>
	<path style="fill:#F9D987;" d="M468.234,271.26c-7.843,0-14.201,6.357-14.201,14.201v76.858c0-7.843,6.358-14.201,14.201-14.201   c7.349,0,13.393,5.582,14.126,12.738c0.024-0.058,0.051-0.115,0.075-0.174V285.46C482.435,277.617,476.077,271.26,468.234,271.26z"/>
	<path style="fill:#AADAF2;" d="M386.023,448.879c0,2.963,2.402,5.365,5.365,5.365h22.594c4.341-3.666,8.553-7.479,12.627-11.434   v-60.832h-40.587V448.879z"/>
	<path style="fill:#8BCBEC;" d="M85.89,443.298c3.919,3.782,7.965,7.43,12.128,10.946h23.094c2.963,0,5.365-2.402,5.365-5.365   v-66.901H85.89V443.298z"/>
	<path style="fill:#64679C;" d="M389.948,131.353L260.43,1.835c-2.447-2.447-6.414-2.447-8.86,0L122.052,131.353   c-3.046,3.046-0.888,8.255,3.419,8.255h261.058C390.837,139.607,392.994,134.399,389.948,131.353z"/>
	<path style="fill:#474979;" d="M185.712,131.353L287.83,29.235l-27.4-27.4c-2.447-2.447-6.414-2.447-8.86,0L122.052,131.353   c-3.046,3.046-0.888,8.254,3.419,8.254h63.66C184.823,139.607,182.666,134.399,185.712,131.353z"/>
	<path style="fill:#AADAF2;" d="M134.855,270.864l7.438,20.643c1.849,5.13,6.716,8.55,12.169,8.55h203   c5.491,0,10.383-3.467,12.203-8.647l7.218-20.545H134.855z"/>
	<path style="fill:#8BCBEC;" d="M210.626,291.507l-7.438-20.643h-68.334l7.438,20.643c1.849,5.13,6.716,8.55,12.169,8.55h68.333   C217.342,300.056,212.475,296.636,210.626,291.507z"/>
	<path style="fill:#64679C;" d="M141.434,483.599C175.624,501.721,214.609,512,256,512c41.391,0,80.376-10.279,114.566-28.401   H141.434z"/>
	<g>
		<path style="fill:#474979;" d="M256.481,483.599H141.434C175.624,501.721,214.609,512,256,512c0.394,0,0.785-0.007,1.178-0.009    C244.201,507.742,244.238,488.413,256.481,483.599z"/>
	</g>
	<path style="fill:#8BCBEC;" d="M421.245,356.139h-29.857c-2.963,0-5.365,2.402-5.365,5.365v21.526h40.587v-21.526   C426.61,358.541,424.208,356.139,421.245,356.139z"/>
	<path style="fill:#6CBCE7;" d="M121.111,356.139H91.255c-2.963,0-5.365,2.402-5.365,5.365v21.526h40.587v-21.526   C126.476,358.541,124.074,356.139,121.111,356.139z"/>
	<path style="fill:#E8F8FC;" d="M134.855,271.864h242.028c7.843,0,14.201-6.358,14.201-14.201l0,0   c0-7.843-6.358-14.201-14.201-14.201H134.855c-7.843,0-14.201,6.358-14.201,14.201l0,0   C120.654,265.506,127.012,271.864,134.855,271.864z"/>
	<path style="fill:#AADAF2;" d="M188.987,257.663c0-7.843,6.358-14.2,14.201-14.2h-68.334c-7.843,0-14.201,6.358-14.201,14.2   c0,7.843,6.358,14.201,14.201,14.201h68.334C195.345,271.864,188.987,265.506,188.987,257.663z"/>
</g>















</svg>
