<svg id="Layer_1" enable-background="new 0 0 512 512" height="512" viewBox="0 0 512 512" width="512" xmlns="http://www.w3.org/2000/svg"><g><path d="m150.561 488.204 17.733 7.612c27.233 10.445 56.797 16.184 87.706 16.184 3.021 0 6.023-.074 9.018-.182l154.036-61.974c50.28-44.869 81.948-110.154 81.948-182.845 0-135.311-109.691-245.002-245.002-245.002s-245.002 109.691-245.002 245.002c0 97.559 57.028 181.793 139.563 221.205z" fill="#ffc839"/><path d="m223.988 223.392c-1.403-4.142-5.287-6.923-9.661-6.923h-65.119c-9.508 8.806-20.886 23.63-24.935 46.267-1.44 8.051-4.903 27.411-4.797 49.48 13.128.365 25.8 5.552 37.856 15.524 51.364-41.288 86.2 1.333 86.567 1.785.382-41.83-14.035-88.782-19.911-106.133z" fill="#fffae6"/><path d="m75.811 328.77.032-.03c.099-.093 10.084-9.376 25.227-13.956 6.738-2.038 13.38-2.87 19.907-2.504-.095-20.172 2.841-38.481 4.773-49.279 4.169-23.311 16.085-38.101 25.593-46.531h-46.816c-4.373 0-8.258 2.781-9.66 6.923-5.876 17.351-20.293 64.302-19.913 106.132z" fill="#ffe98d"/><path d="m159.428 440.574c-7.286 0-14.457-1.899-20.742-5.586-.422-.247-.854-.505-1.294-.77.493 8.299 4.128 15.699 7.456 20.838 3.717 5.739 5.713 12.418 5.713 19.255v13.892c5.788 2.764 11.705 5.3 17.733 7.612v-21.504c0-6.837 1.996-13.516 5.713-19.255 3.328-5.139 6.963-12.54 7.456-20.839-.44.265-.873.523-1.294.77-6.284 3.688-13.456 5.587-20.741 5.587z" fill="#fff6d2"/><path d="m243.854 329.585.046.046c.006-.615-.002-1.235-.002-1.852-.456-.56-35.282-43.035-86.597-1.758-.351.283-.692.57-1.03.857.77.617 1.539 1.247 2.304 1.903 23.253 19.938 45.476 18.863 60.027 14.452 13.161-3.99 22.361-11.183 25.252-13.648z" fill="#e80054"/><path d="m159.427 327.787c-14.118-12.105-27.824-16.478-39.948-16.831-.014 10.405.744 21.451 2.879 32.231 7.556 38.154 29.478 61.143 65.17 68.35-.076.325-.153.693-.226 1.091 17.506-5.497 32.784-16.025 44.134-29.896 2.443-4.764 4.681-9.846 6.624-15.286 4.211-11.79 5.856-25.457 5.848-39.654-.182.17-40.438 37.759-84.481-.005z" fill="#ff7186"/><path d="m120.971 311.02c-26.646-1.496-46.024 16.767-46.024 16.767-.009 14.199 1.636 27.867 5.847 39.658 1.943 5.44 4.182 10.522 6.624 15.286 17.056 20.845 42.974 34.156 72.009 34.156 10.32 0 20.242-1.689 29.517-4.793.234-1.055.461-1.72.461-1.72-56.632-10.57-68.494-58.967-68.434-99.354z" fill="#ff4155"/><path d="m186.498 411.312c.345.073.683.155 1.031.225-.638 2.736-1.403 8.287 1.498 12.355 1.143 1.603 2.721 2.781 4.697 3.549 13.221-10.085 28.992-25.858 39.74-48.84-11.694 15.356-28.054 26.965-46.966 32.711z" fill="#ff4155"/><path d="m85.391 378.602c14.834 31.717 39.237 49.713 53.295 57.959 6.284 3.686 13.456 5.586 20.741 5.586 7.286 0 14.457-1.899 20.742-5.586 4.232-2.483 9.405-5.856 14.969-10.215-10.175-3.067-5.733-15.972-5.733-15.972-.001 0-.002 0-.002 0-9.406 3.201-19.488 4.941-29.976 4.941-30.206 0-57.046-14.404-74.036-36.713z" fill="#e80054"/><path d="m376.507 169.136c-6.629 12.234-19.58 20.542-34.471 20.542-.792 0-1.576-.036-2.357-.082-1.587 17.003-5.104 36.775-8.182 52.114-4.145 20.659-6.246 41.972-6.246 63.347v23.806c-1.742 1.655-7.102 7.375-7.438 15.35-.237 5.642 2.086 11.121 6.908 16.306-2.348 2.862-8.195 10.968-7.397 19.838.448 4.984 2.917 9.36 7.341 13.025-2.338 3.426-7.264 13.23 3.384 24.049l4.323 12.426c-1.567 3.422-8.772 20.742-2.435 37.535 3.089 8.187 8.918 14.893 17.364 20.027l46.991-18.175c8.67-5.94 16.942-12.421 24.761-19.398v-134.774c0-29.632-6.655-58.85-19.317-85.641-8.034-17.002-16.933-38.286-23.229-60.295z" fill="#6c5475"/><path d="m333.99 429.941-4.636-13.328c-12.682-12.62-2.604-23.503-2.604-23.503-18-13.39 0-32.651 0-32.651-16.77-16.77 0-30.935 0-30.935v-24.469c0-21.17 2.052-42.295 6.217-63.052 3.153-15.714 6.639-35.419 8.213-52.356-14.529-.313-27.115-8.514-33.616-20.512-6.296 22.009-15.195 43.294-23.23 60.296-12.661 26.79-19.316 56.009-19.316 85.641v196.746c8.382-.303 16.652-1.042 24.799-2.167l59.259-22.92c-33.619-19.453-15.086-56.79-15.086-56.79z" fill="#543e5b"/><path d="m384.932 329.525h-60.347c-2.154 2.228-6.471 7.549-6.772 14.686-.237 5.642 2.086 11.121 6.908 16.306-.219.267-.476.594-.748.949h70.345v-22.554c0-5.184-4.202-9.387-9.386-9.387z" fill="#ffb332"/><path d="m326.749 329.525h-27.609c-5.184 0-9.386 4.202-9.386 9.386v22.554h36.135c.525-.643.862-1.006.862-1.006-16.762-16.76-.021-30.918-.002-30.934z" fill="#ff9100"/><path d="m324.665 393.38c-2.338 3.426-7.264 13.23 3.384 24.049l4.323 12.426c-1.567 3.422-8.772 20.742-2.435 37.535 3.926 10.406 12.28 18.418 24.815 23.849 13.911-6.134 27.155-13.502 39.565-22.007v-77.128h-71.073c.452.434.92.861 1.421 1.276z" fill="#f9f2f2"/><path d="m289.754 509.675c23.524-3.242 45.974-9.836 66.872-19.261-43.76-17.917-22.636-60.472-22.636-60.472l-4.636-13.328c-12.682-12.62-2.604-23.503-2.604-23.503-.445-.331-.851-.668-1.252-1.006h-35.744z" fill="#e5e1e1"/><path d="m349.268 152.79c-5.794 4.674-8.732 11.642-8.732 20.71 0 5.407-.402 11.575-1.058 18.086.846.055 1.697.091 2.557.091 15.182 0 28.337-8.64 34.843-21.266-2.344-8.056-4.343-16.218-5.836-24.312-7.114.177-15.538 1.661-21.774 6.691z" fill="#ff4155"/><path d="m368.171 117.293v-11.473h-52.271v11.472c0 16.966-3.522 35.302-8.707 53.118 6.355 12.333 19.06 20.84 33.796 21.229.655-6.535 1.047-12.708 1.047-18.14 0-21.303 16.767-25.627 29.291-25.886-1.982-10.32-3.156-20.548-3.156-30.32z" fill="#e80054"/><path d="m324.721 360.517c-2.348 2.862-8.195 10.968-7.397 19.838.438 4.865 2.814 9.145 7.04 12.756h69.953v-32.651h-69.648c.018.019.034.038.052.057z" fill="#ffdd40"/><path d="m289.754 360.46v32.651h36.996c-18-13.39 0-32.651 0-32.651z" fill="#ffc839"/><g><path d="m366.345 435.233c-1.099 0-2.214-.259-3.255-.807-6.548-3.446-13.631-5.194-21.054-5.194s-14.506 1.748-21.054 5.194c-3.42 1.802-7.654.488-9.455-2.934-1.801-3.421-.487-7.654 2.934-9.455 8.458-4.452 17.994-6.806 27.576-6.806s19.117 2.353 27.576 6.806c3.421 1.801 4.734 6.034 2.934 9.455-1.255 2.382-3.687 3.741-6.202 3.741z" fill="#d1cfcf"/></g><path d="m371.625 104.087v-96.732c0-4.062-3.293-7.355-7.354-7.355h-44.471c-4.062 0-7.355 3.293-7.355 7.355v96.733c0 2.237 1.814 4.051 4.051 4.051h51.078c2.238-.001 4.051-1.814 4.051-4.052z" fill="#ff4155"/><path d="m341.795 48.483c0-8.242 5.319-15.226 12.707-17.75h-43.981c-4.125 0-7.469 3.344-7.469 7.469v20.562c0 4.125 3.344 7.469 7.469 7.469h43.981c-7.387-2.524-12.707-9.508-12.707-17.75z" fill="#ff7186"/><path d="m373.55 30.733h-21.048c-7.387 2.524-12.707 9.508-12.707 17.75 0 8.242 5.319 15.226 12.707 17.75h21.048c4.125 0 7.469-3.344 7.469-7.469v-20.562c0-4.125-3.344-7.469-7.469-7.469z" fill="#f9a0b1"/><g fill="#ffdd40"><path d="m434.736 99.451c-16.935 20.414-33.259 54.526-10.653 98.549 28.506 55.512 30.751 89.64 30.093 103.227-.382 7.887.116 15.801 1.767 23.524 3.016 14.106 9.454 33.632 22.841 44.304 14.257-31.071 22.217-65.633 22.217-102.057.001-64.809-25.175-123.73-66.265-167.547z"/><path d="m232.213 23.149c-124.147 11.963-221.215 116.565-221.215 243.849 0 1.157.028 2.307.044 3.46 16.236-4.404 39.727-16.457 46.708-49.458 11-52 67-51.864 116-51.864s100-17.136 100-76.136c0-27.534-20.099-51.798-41.537-69.851z"/></g></g></svg>