<svg height="512" viewBox="0 0 64 64" width="512" xmlns="http://www.w3.org/2000/svg"><g id="_07-Italy" data-name="07-Italy"><path d="m63 5v54a4 4 0 0 1 -4 4h-16v-62h16a4 4 0 0 1 4 4z" fill="#e21743"/><path d="m21 1h22v62h-22z" fill="#eef2fa"/><path d="m21 1v62h-16a4 4 0 0 1 -4-4v-54a4 4 0 0 1 4-4z" fill="#009e60"/><path d="m43 38.905v24.095h16a4 4 0 0 0 4-4v-42a22 22 0 0 1 -20 21.905z" fill="#c7002b"/><path d="m41 39h-18c-.675 0-1.341-.035-2-.095v24.095h22v-24.095c-.659.06-1.325.095-2 .095z" fill="#dce1eb"/><path d="m1 17v42a4 4 0 0 0 4 4h16v-24.095a22 22 0 0 1 -20-21.905z" fill="#008f57"/><path d="m21 5h22v54h-22z" fill="none"/><path d="m5 59a4 4 0 0 1 -4-4v4a4 4 0 0 0 4 4h16v-4z" fill="#007145"/><path d="m21 59h22v4h-22z" fill="#cdd2e1"/><path d="m59 63a4 4 0 0 0 4-4v-4a4 4 0 0 1 -4 4h-16v4z" fill="#b51135"/><path d="m59 5a4 4 0 0 1 4 4v-4a4 4 0 0 0 -4-4h-16v4z" fill="#ea5172"/><path d="m5 1a4 4 0 0 0 -4 4v4a4 4 0 0 1 4-4h16v-4z" fill="#00e088"/><path d="m21 1h22v4h-22z" fill="#f7faff"/><path d="m44 58h-2v4h-20v-54h-2v54h-15a3 3 0 0 1 -3-3v-54a3 3 0 0 1 3-3h2v-2h-2a5.006 5.006 0 0 0 -5 5v54a5.006 5.006 0 0 0 5 5h50v-2h-11z"/><path d="m59 0h-46v2h7v4h2v-4h20v54h2v-54h15a3 3 0 0 1 3 3v54a3 3 0 0 1 -3 3h-2v2h2a5.006 5.006 0 0 0 5-5v-54a5.006 5.006 0 0 0 -5-5z"/><path d="m9 0h2v2h-2z"/></g></svg>