<svg height="512" viewBox="0 0 64 64" width="512" xmlns="http://www.w3.org/2000/svg"><g id="_02-_United_Kingdom" data-name="02- United Kingdom"><g fill="#e9edf5"><path d="m29 1v28h-28v-3h18.11 4.89 2v-6.89-18.11z"/><path d="m63 26v3h-28v-28h3v18 5 2h6.89z"/><path d="m38 38v6.89 18.11h-3v-28h28v3h-18.11-4.89z"/><path d="m29 35v28h-3v-18.11-4.89-2h-6.89-18.11v-3z"/><path d="m26 40v4.89l-18.11 18.11h-2.89a3.931 3.931 0 0 1 -1.64-.36z"/><path d="m26 38v2l-22.64 22.64a3.988 3.988 0 0 1 -2.36-3.64v-2.89l18.11-18.11z"/><path d="m63 56.11v2.89a3.931 3.931 0 0 1 -.36 1.64l-22.64-22.64h4.89z"/><path d="m40 38 22.64 22.64a3.988 3.988 0 0 1 -3.64 2.36h-2.89l-18.11-18.11v-6.89z"/><path d="m63 5v2.89l-18.11 18.11h-6.89v-2l22.64-22.64a3.988 3.988 0 0 1 2.36 3.64z"/><path d="m60.64 1.36-22.64 22.64v-5h.11l18-18h2.89a3.931 3.931 0 0 1 1.64.36z"/><path d="m24 26h-4.89l-18.11-18.11v-2.89a3.931 3.931 0 0 1 .36-1.64z"/><path d="m26 19.11v6.89h-2l-22.64-22.64a3.988 3.988 0 0 1 3.64-2.36h2.89z"/></g><path d="m63 29v6h-28v28h-6v-28h-28v-6h28v-28h6v28z" fill="#e21743"/><path d="m19.11 38-18.11 18.11v-18.11z" fill="#2448a8"/><path d="m26 44.89v18.11h-18.11z" fill="#2448a8"/><path d="m56.11 63h-18.11v-18.11z" fill="#2448a8"/><path d="m63 38v18.11l-18.11-18.11z" fill="#2448a8"/><path d="m63 7.89v18.11h-18.11z" fill="#2448a8"/><path d="m56.11 1-18 18h-.11v-18z" fill="#2448a8"/><path d="m19.11 26h-18.11v-18.11z" fill="#2448a8"/><path d="m26 1v18.11l-18.11-18.11z" fill="#2448a8"/><path d="m63 26v-9a21.911 21.911 0 0 1 -1.926 9z" fill="#1f3d8f"/><path d="m2.926 26h-1.926v3h3.565a21.969 21.969 0 0 1 -1.639-3z" fill="#dce1eb"/><path d="m59.435 29h3.565v-3h-1.926a21.969 21.969 0 0 1 -1.639 3z" fill="#dce1eb"/><path d="m47.574 38h15.426v-3h-9.358a21.918 21.918 0 0 1 -6.068 3z" fill="#dce1eb"/><path d="m38 39h-3v24h3v-18.11z" fill="#cdd2e1"/><path d="m26 39v1 4.89 18.11h3v-24z" fill="#cdd2e1"/><path d="m10.358 35h-9.358v3h15.426a21.918 21.918 0 0 1 -6.068-3z" fill="#dce1eb"/><path d="m26 40-22.64 22.64a3.931 3.931 0 0 0 1.64.36h2.89l18.11-18.11z" fill="#cdd2e1"/><path d="m26 39h-3a22.1 22.1 0 0 1 -4.441-.449l-17.559 17.559v2.89a3.988 3.988 0 0 0 2.36 3.64l22.64-22.64z" fill="#cdd2e1"/><path d="m41 39 21.64 21.64a3.931 3.931 0 0 0 .36-1.64v-2.89l-17.559-17.559a22.1 22.1 0 0 1 -4.441.449z" fill="#cdd2e1"/><path d="m38 39v5.89l18.11 18.11h2.89a3.988 3.988 0 0 0 3.64-2.36l-21.64-21.64z" fill="#cdd2e1"/><path d="m53.642 35h9.358v-6h-3.565a22.115 22.115 0 0 1 -5.793 6z" fill="#b51135"/><path d="m29 39h6v24h-6z" fill="#b51135"/><path d="m4.565 29h-3.565v6h9.358a22.115 22.115 0 0 1 -5.793-6z" fill="#b51135"/><path d="m16.426 38h-15.426v18.11l17.559-17.559a21.576 21.576 0 0 1 -2.133-.551z" fill="#1f3d8f"/><path d="m7.89 63h18.11v-18.11z" fill="#1f3d8f"/><path d="m38 63h18.11l-18.11-18.11z" fill="#1f3d8f"/><path d="m45.441 38.551 17.559 17.559v-18.11h-15.426a21.576 21.576 0 0 1 -2.133.551z" fill="#1f3d8f"/><path d="m1 17v9h1.926a21.911 21.911 0 0 1 -1.926-9z" fill="#1f3d8f"/><path d="m35 59h3v4h-3z" fill="#bec3d2"/><path d="m26 59h3v4h-3z" fill="#bec3d2"/><path d="m29 59h6v4h-6z" fill="#8b0b27"/><path d="m11.89 59-4 4h18.11v-4z" fill="#172e6b"/><path d="m38 59v4h18.11l-4-4z" fill="#172e6b"/><path d="m8.414 59h-3.414a3.99 3.99 0 0 1 -3.866-3.024l-.134.134v2.89a3.9 3.9 0 0 0 2.958 3.842 3.893 3.893 0 0 0 1.042.158h2.89l4-4z" fill="#bec3d2"/><path d="m62.866 55.976a3.973 3.973 0 0 1 -1.359 2.117 4.417 4.417 0 0 1 -2.507.907h-6.89l4 4h2.89a3.9 3.9 0 0 0 3.842-2.959 3.879 3.879 0 0 0 .158-1.041v-2.89z" fill="#bec3d2"/><path d="m26 1h3v4h-3z" fill="#f7faff"/><path d="m35 1h3v4h-3z" fill="#f7faff"/><path d="m60.64 1.36a3.931 3.931 0 0 0 -1.64-.36h-2.89l-4 4h6.89a3.99 3.99 0 0 1 3.866 3.024l.134-.134v-2.89a3.988 3.988 0 0 0 -2.36-3.64z" fill="#f7faff"/><path d="m7.89 1h-2.89a3.988 3.988 0 0 0 -3.64 2.36 3.931 3.931 0 0 0 -.36 1.64v2.89l.134.134a4.01 4.01 0 0 1 3.866-3.024h6.89z" fill="#f7faff"/><path d="m29 1h6v4h-6z" fill="#ea5172"/><path d="m52.11 5 4-4h-18.11v4z" fill="#376dff"/><path d="m26 5v-4h-18.11l4 4z" fill="#376dff"/><path d="m42 28h2v2h-2z"/><path d="m59 0h-43v2h9v14.7l-15-15v-1.7h-5a5.006 5.006 0 0 0 -5 5v54a5.006 5.006 0 0 0 5 5h45v-2h-11v-14.7l14.7 14.7h-1.7v2h7a5.006 5.006 0 0 0 5-5v-54a5.006 5.006 0 0 0 -5-5zm3 25h-14.7l14.7-14.7zm0-17.524-17.524 17.524h-5.476v-.586l21.8-21.8a2.985 2.985 0 0 1 1.2 2.386zm-23 12.048 17.524-17.524h2.062l-19.586 19.586zm0-2.824v-14.7h14.7zm-11-14.7v26h-26v-1h24a1 1 0 0 0 1-1v-24zm-26 8.3 14.7 14.7h-14.7zm3-8.3h2.476l17.524 17.524v5.476h-.586l-15.708-15.708-1.414 1.414 14.294 14.294h-2.062l-17.524-17.524v-2.062l3.292 3.293 1.415-1.415-4.092-4.092a2.985 2.985 0 0 1 2.385-1.2zm-3 37h14.7l-14.7 14.7zm0 17.524 17.524-17.524h5.476v.586l-21.8 21.799a2.985 2.985 0 0 1 -1.2-2.385zm23-12.048-17.524 17.524h-2.062l19.586-19.586zm0 2.824v14.7h-14.7zm1-10.3h-24v-1h2v-2h-2v-4h27a1 1 0 0 0 1-1v-27h4v27a1 1 0 0 0 1 1h5v-2h-4v-26h1v24a1 1 0 0 0 1 1h24v1h-16v2h16v4h-27a1 1 0 0 0 -1 1v27h-4v-27a1 1 0 0 0 -1-1h-23v2h22v26h-1v-24a1 1 0 0 0 -1-1zm16.414 2h2.062l17.524 17.524v2.062zm4.89 0h14.696v14.7zm-11.304 23v-26h26v1h-24a1 1 0 0 0 -1 1v24zm23 0h-2.476l-17.524-17.524v-5.476h.586l21.8 21.8a2.985 2.985 0 0 1 -2.386 1.2z"/><path d="m12 0h2v2h-2z"/></g></svg>