<?xml version="1.0" encoding="utf-8"?>
<!-- Generator: Adobe Illustrator 23.0.6, SVG Export Plug-In . SVG Version: 6.00 Build 0)  -->
<svg version="1.1" id="icon" xmlns="http://www.w3.org/2000/svg" xmlns:xlink="http://www.w3.org/1999/xlink" x="0px" y="0px"
	 viewBox="0 0 597.1 499.9" style="enable-background:new 0 0 597.1 499.9;" xml:space="preserve">
<style type="text/css">
	.st0{opacity:0.5;fill:#FBB03B;enable-background:new    ;}
	.st1{fill:url(#SVGID_1_);}
	.st2{fill:url(#SVGID_2_);}
	.st3{fill:url(#SVGID_3_);}
	.st4{fill:url(#SVGID_4_);}
	.st5{fill:url(#SVGID_5_);}
	.st6{fill:url(#SVGID_6_);}
	.st7{fill:url(#SVGID_7_);}
	.st8{fill:url(#SVGID_8_);}
	.st9{fill:url(#SVGID_9_);}
	.st10{fill:url(#SVGID_10_);}
	.st11{fill:url(#SVGID_11_);}
	.st12{fill:url(#SVGID_12_);}
	.st13{fill:url(#SVGID_13_);}
	.st14{fill:url(#SVGID_14_);}
	.st15{fill:url(#SVGID_15_);}
	.st16{fill:url(#SVGID_16_);}
	.st17{fill:url(#SVGID_17_);}
	.st18{fill:url(#SVGID_18_);}
	.st19{fill:url(#SVGID_19_);}
	.st20{fill:url(#SVGID_20_);}
	.st21{fill:url(#SVGID_21_);}
	.st22{fill:url(#SVGID_22_);}
	.st23{fill:url(#SVGID_23_);}
	.st24{fill:url(#SVGID_24_);}
	.st25{opacity:0.43;fill:#FBB03B;enable-background:new    ;}
	.st26{fill:#FFFFFF;stroke:url(#SVGID_25_);stroke-width:10;stroke-miterlimit:10;}
	.st27{fill:url(#SVGID_26_);stroke:url(#SVGID_27_);stroke-width:10;stroke-miterlimit:10;}
	.st28{opacity:0.6;fill:url(#SVGID_28_);stroke:#FBB03B;stroke-width:5;stroke-miterlimit:10;enable-background:new    ;}
	.st29{fill:#C7DDEB;}
	.st30{fill:#FFFFFF;}
	.st31{fill:#FBB03B;}
	.st32{fill:none;stroke:#3D4451;stroke-width:9.9601;stroke-miterlimit:10;}
	.st33{fill:#3D4451;}
	.st34{fill:#FFFFFF;stroke:#3D4451;stroke-width:8.4135;stroke-miterlimit:10;}
	.st35{fill:url(#SVGID_29_);}
	.st36{fill:url(#SVGID_30_);}
	.st37{fill:url(#SVGID_31_);}
	.st38{fill:url(#SVGID_32_);}
	.st39{fill:url(#SVGID_33_);}
</style>
<path class="st0" d="M434.5,494c-22.8,0-41.6-7.2-51-20c-4.9-6.5-10.5-11.6-16.9-15.5c-17.2,7-36.6,10.8-56.2,10.8
	c-66.3,0-120.3-41.8-120.3-93.1V375c-0.6-21.7,11.9-45.5,34.2-65.3c42.4-37.6,110.7-54.3,182.7-44.5l0,0
	c55.5,7.5,94.6,28.2,116.2,61.6c30.9,47.6,14.4,103,13.7,105.3c-13,37.6-53.9,56.1-84.9,60.7C445.9,493.5,440.1,494,434.5,494z"/>
<g>
	
		<linearGradient id="SVGID_1_" gradientUnits="userSpaceOnUse" x1="505.1" y1="226.525" x2="505.1" y2="226.525" gradientTransform="matrix(1 0 0 -1 0 618.05)">
		<stop  offset="0" style="stop-color:#3D4451"/>
		<stop  offset="1" style="stop-color:#3D4451"/>
	</linearGradient>
	<path class="st1" d="M505.1,391.5"/>
	
		<linearGradient id="SVGID_2_" gradientUnits="userSpaceOnUse" x1="435" y1="283.625" x2="435" y2="283.625" gradientTransform="matrix(1 0 0 -1 0 618.05)">
		<stop  offset="0" style="stop-color:#3D4451"/>
		<stop  offset="1" style="stop-color:#3D4451"/>
	</linearGradient>
	<path class="st2" d="M435,334.4"/>
	
		<linearGradient id="SVGID_3_" gradientUnits="userSpaceOnUse" x1="245.7689" y1="486.8623" x2="408.5359" y2="113.1625" gradientTransform="matrix(1 0 0 -1 0 618.05)">
		<stop  offset="0" style="stop-color:#3D4451"/>
		<stop  offset="1" style="stop-color:#3D4451"/>
	</linearGradient>
	<path class="st3" d="M413.6,473.2c-24.4,0-44.5-7.7-54.6-21.7c-5.3-7-11.2-12.5-18.1-16.8c-18.5,7.6-39.2,11.7-60.2,11.7
		c-71,0-128.7-45.2-128.7-100.8v-1.3c-0.6-23.5,12.7-49.3,36.7-70.7c45.4-40.8,118.5-58.8,195.6-48.2l0,0
		c59.4,8.1,101.3,30.6,124.4,66.7c33,51.6,15.4,111.5,14.6,114c-14,40.7-57.7,60.8-90.9,65.7C425.9,472.7,419.6,473.2,413.6,473.2z
		 M341.6,420.3l2.8,1.6c9.7,5.4,17.9,12.6,25,22c9.6,13.3,33.6,19.2,61,15.1c29.6-4.4,68.4-22,80.4-56.9
		c0.1-0.3,16.6-56.7-13.3-103.1c-21-32.7-59.8-53.1-115.2-60.7c-73.3-10-142.5,6.8-185.1,45c-21.1,19-32.9,41.1-32.4,60.9v0.1v1.4
		c0,48.4,51.9,87.8,115.8,87.8c20.4,0,40.5-4.1,58.1-11.9L341.6,420.3z"/>
	
		<linearGradient id="SVGID_4_" gradientUnits="userSpaceOnUse" x1="192.8648" y1="463.8199" x2="355.6325" y2="90.1184" gradientTransform="matrix(1 0 0 -1 0 618.05)">
		<stop  offset="0" style="stop-color:#3D4451"/>
		<stop  offset="1" style="stop-color:#3D4451"/>
	</linearGradient>
	<path class="st4" d="M340.2,426.2c-2.4,0-4.4-2-4.4-4.4c0-38.4-42.4-69.7-94.5-69.7c-2.4,0-4.4-2-4.4-4.4s1.9-4.4,4.4-4.4
		c56.9,0,103.2,35.2,103.2,78.4C344.5,424.2,342.6,426.2,340.2,426.2z"/>
	
		<linearGradient id="SVGID_5_" gradientUnits="userSpaceOnUse" x1="161.4573" y1="450.1404" x2="324.2249" y2="76.4394" gradientTransform="matrix(1 0 0 -1 0 618.05)">
		<stop  offset="0" style="stop-color:#3D4451"/>
		<stop  offset="1" style="stop-color:#3D4451"/>
	</linearGradient>
	<path class="st5" d="M260.8,320.9c-18.4-6.3-39.6-2.2-51.5,14.5c-10.4,14.7-2.6,30.9,13,37.1c6.9,2.8,14,3.9,20.5,7.9
		c3.7,2.3,6.7,5.4,10.8,7c9.9,4,19.4,1.5,28.7,8.1c2.6,1.9,11.1,5.9,12.7,8.7c4.1,7.2-6.2,8.7-11.7,9.8c-12.1,2.3-21-4.6-32.6-5.1
		c-3.6-0.1-3.6,5.4,0,5.6c9.7,0.4,17.5,6.8,27.4,6c6.3-0.5,15.4-1.7,20.7-5.4c13.3-9.4-5.7-18.5-12.3-23.4c-5.9-4.3-11-6.9-18.3-7.8
		c-7.6-0.9-13.3-1.9-19.8-6.3c-3.8-2.6-7.6-4.9-11.9-6.5c-7.9-2.9-16.9-3.8-22.5-10.9c-6-7.6-4.3-17.1,2-24.1
		c11.4-12.8,27.9-15.1,43.4-9.8C262.7,327.4,264.2,322.1,260.8,320.9L260.8,320.9z"/>
	
		<linearGradient id="SVGID_6_" gradientUnits="userSpaceOnUse" x1="132.6991" y1="437.6133" x2="295.4665" y2="63.9128" gradientTransform="matrix(1 0 0 -1 0 618.05)">
		<stop  offset="0" style="stop-color:#3D4451"/>
		<stop  offset="1" style="stop-color:#3D4451"/>
	</linearGradient>
	<path class="st6" d="M223.2,371.6c0.3,6.6-3.8,12.6-11,11.9c-3.6-0.4-3.5,5.2,0,5.6c10.1,1.1,16.9-8,16.5-17.5
		C228.7,368,223.1,368,223.2,371.6L223.2,371.6z"/>
	
		<linearGradient id="SVGID_7_" gradientUnits="userSpaceOnUse" x1="127.0653" y1="435.1605" x2="289.8331" y2="61.4588" gradientTransform="matrix(1 0 0 -1 0 618.05)">
		<stop  offset="0" style="stop-color:#3D4451"/>
		<stop  offset="1" style="stop-color:#3D4451"/>
	</linearGradient>
	<path class="st7" d="M162.8,310c-1.3,9.7,5.5,19,14.8,21.7c11.7,3.3,21.7-3.9,30-11.2c2.7-2.4-1.2-6.3-3.9-3.9
		c-6,5.2-12.8,11-21.3,10.3c-8.7-0.6-15.2-8.1-14-16.8C168.8,306.5,163.3,306.5,162.8,310L162.8,310z"/>
	
		<linearGradient id="SVGID_8_" gradientUnits="userSpaceOnUse" x1="198.9002" y1="466.4484" x2="361.6678" y2="92.747" gradientTransform="matrix(1 0 0 -1 0 618.05)">
		<stop  offset="0" style="stop-color:#3D4451"/>
		<stop  offset="1" style="stop-color:#3D4451"/>
	</linearGradient>
	<path class="st8" d="M267.8,349.5c13.9,0.1,24.2-15.3,23-28.3c-0.5-5.8-3.4-10.6-8.8-13.1c-7.5-3.4-17.5-0.5-23.2-7.4
		c-2.3-2.8-6.2,1.2-3.9,3.9c6.4,7.8,15.6,4.8,24,8.2c15.2,6.1,2,31.2-11.1,31.1C264.2,343.9,264.2,349.5,267.8,349.5L267.8,349.5z"
		/>
	
		<linearGradient id="SVGID_9_" gradientUnits="userSpaceOnUse" x1="189.9996" y1="462.5721" x2="352.7673" y2="88.8705" gradientTransform="matrix(1 0 0 -1 0 618.05)">
		<stop  offset="0" style="stop-color:#3D4451"/>
		<stop  offset="1" style="stop-color:#3D4451"/>
	</linearGradient>
	<path class="st9" d="M243.2,315.3c-11.1-4.4-12.5-27.6-2.2-33.5c8-4.6,17.3-1,24.9-7.6c2.7-2.4-1.2-6.3-3.9-3.9
		c-6.1,5.3-14.9,2.9-22,5.9c-5.9,2.5-9.3,7.8-10.6,13.9c-2.3,11.2,0.8,26,12.3,30.6C245.1,322,246.5,316.6,243.2,315.3L243.2,315.3z
		"/>
	
		<linearGradient id="SVGID_10_" gradientUnits="userSpaceOnUse" x1="198.7552" y1="466.3848" x2="361.5225" y2="92.6844" gradientTransform="matrix(1 0 0 -1 0 618.05)">
		<stop  offset="0" style="stop-color:#3D4451"/>
		<stop  offset="1" style="stop-color:#3D4451"/>
	</linearGradient>
	<path class="st10" d="M302.9,412.2c5.3-0.5,16.1-2,16.4,5.7c0.1,3.6,5.7,3.6,5.6,0c-0.5-11.8-13-12-22-11.3
		C299.4,406.9,299.3,412.5,302.9,412.2L302.9,412.2z"/>
	
		<linearGradient id="SVGID_11_" gradientUnits="userSpaceOnUse" x1="104.6696" y1="425.4052" x2="267.4365" y2="51.7061" gradientTransform="matrix(1 0 0 -1 0 618.05)">
		<stop  offset="0" style="stop-color:#3D4451"/>
		<stop  offset="1" style="stop-color:#3D4451"/>
	</linearGradient>
	<path class="st11" d="M209,419c0.4-6.4-0.5-13.5-5.1-18.4c-4.5-4.8-10.9-5.6-17.1-4.6c-3.5,0.5-2,5.9,1.5,5.4
		c11.6-1.7,15.8,7.5,15.2,17.6C203.2,422.6,208.8,422.6,209,419L209,419z"/>
	
		<linearGradient id="SVGID_12_" gradientUnits="userSpaceOnUse" x1="302.4237" y1="511.5384" x2="465.1913" y2="137.8375" gradientTransform="matrix(1 0 0 -1 0 618.05)">
		<stop  offset="0" style="stop-color:#3D4451"/>
		<stop  offset="1" style="stop-color:#3D4451"/>
	</linearGradient>
	<path class="st12" d="M489.9,360.6c-10.9,9.3-29.4,8.8-42.7,6c-12.5-2.6-23.8-9.5-37-8c-12.4,1.4-34.9,16.8-15,26.4
		c9.3,4.5,21.2,4.8,31.2,4.7c5.9,0,30.7-2.7,29.8,8.8c-0.6,8-14.7,9.7-20.4,10.4c-16.8,2.1-33-0.9-49-6c-12-3.8-23-9-35.3-3.8
		c-3.3,1.4-0.5,6.2,2.8,4.8c10.4-4.4,21.3,1.3,31,4.4c8,2.5,16,4.7,24.3,5.9c11.5,1.7,24,1.7,35.3-1.2c14-3.6,26.3-21.5,6.5-27.1
		c-14.6-4.2-30.2-0.4-45.1-3.5c-2.8-0.6-6.1-0.9-8.5-2.5c-6.9-4.5-0.1-11.3,5-13.9c8.6-4.4,19.9-1.4,28.4,1.4
		c19.5,6.3,45.2,11.9,62.6-2.9C496.6,362.2,492.7,358.3,489.9,360.6L489.9,360.6z"/>
	
		<linearGradient id="SVGID_13_" gradientUnits="userSpaceOnUse" x1="281.0311" y1="502.2214" x2="443.7989" y2="128.5196" gradientTransform="matrix(1 0 0 -1 0 618.05)">
		<stop  offset="0" style="stop-color:#3D4451"/>
		<stop  offset="1" style="stop-color:#3D4451"/>
	</linearGradient>
	<path class="st13" d="M331.4,380.8c5.7-18.8,22.6-8.4,35.6-15.2c10.7-5.6,7.3-14.8,9-24.5c4.1-24.2,57.5,0.9,58-31.9
		c0.3-20.6-28.2-17.3-41.3-15c-9.9,1.8-20,4.3-29.2,8.2c-4.4,1.8-8.8,4-12.1,7.6c-5.6,6.2-5.9,18.2-13.7,22.4
		c-3.2,1.7-0.3,6.5,2.8,4.8c12.1-6.5,9.6-22.5,23.1-28.8c7.4-3.5,15.6-5.6,23.5-7.4c9.9-2.3,22-4.8,32.1-2.1
		c5.8,1.5,9.7,4.9,9.2,11.3c-0.8,9.6-10.9,11.9-18.6,12.9c-9.9,1.3-21.2-0.2-30.5,4.3c-8.8,4.3-8.5,10.4-8.6,19.2
		c-0.2,18.6-14.6,14.2-27.4,16.5c-9.5,1.7-14.5,7.2-17.2,16.3C325,382.8,330.4,384.2,331.4,380.8L331.4,380.8z"/>
	
		<linearGradient id="SVGID_14_" gradientUnits="userSpaceOnUse" x1="252.8786" y1="489.9592" x2="415.6465" y2="116.2575" gradientTransform="matrix(1 0 0 -1 0 618.05)">
		<stop  offset="0" style="stop-color:#3D4451"/>
		<stop  offset="1" style="stop-color:#3D4451"/>
	</linearGradient>
	<path class="st14" d="M318.2,234.2c23.6,19.7-16.5,33.4-8,53.3c2,4.8,8.9,6.3,5.5,13c-1.8,3.6-5.5,4.6-7,8.9
		c-3.2,9.7,1.7,16.5,10,21c3.2,1.7,6-3.1,2.8-4.8c-6.3-3.4-9.8-12.8-4.8-18.7c1.7-2,4-2.8,5.3-5.1c0.9-1.6,1.6-3.1,1.6-5
		c0-4.3-2.6-5.2-4.8-8.1c-5.2-6.8-2.8-10.5,1.3-17.1c9-14.4,17.8-28,2-41.2C319.4,227.9,315.5,231.9,318.2,234.2L318.2,234.2z"/>
	
		<linearGradient id="SVGID_15_" gradientUnits="userSpaceOnUse" x1="216.826" y1="474.2563" x2="379.5938" y2="100.5548" gradientTransform="matrix(1 0 0 -1 0 618.05)">
		<stop  offset="0" style="stop-color:#3D4451"/>
		<stop  offset="1" style="stop-color:#3D4451"/>
	</linearGradient>
	<path class="st15" d="M285.1,314.6c5.5-6.3,6.3-15.4,8.4-23.1c1.9-6.9,5.6-13.2,2.3-20.1c-3.7-7.8-13.2-14-21-16.6
		c-3.9-1.3-7.6-1.8-11.7-1.4c-3.8,0.4-15.2,5.9-15.9-0.9c-0.4-3.5-6-3.6-5.6,0c1.7,15.6,17.5,5.3,27.2,6.6c6.9,1,14.4,5.3,18.9,10.6
		c4.3,5,4.3,7.9,2.5,13.9c-2.4,8-3.5,20.7-9,27C278.8,313.3,282.7,317.3,285.1,314.6L285.1,314.6z"/>
	
		<linearGradient id="SVGID_16_" gradientUnits="userSpaceOnUse" x1="114.9208" y1="429.8709" x2="277.689" y2="56.1684" gradientTransform="matrix(1 0 0 -1 0 618.05)">
		<stop  offset="0" style="stop-color:#3D4451"/>
		<stop  offset="1" style="stop-color:#3D4451"/>
	</linearGradient>
	<path class="st16" d="M183.1,333.2c3.9,4-2.9,10.3-4.6,14.1c-2.5,5.6-1.9,10.9,1.7,15.8c2.1,2.9,6.9,0.1,4.8-2.8
		c-5.1-7.1-0.5-11.9,3-18.2c2.5-4.6,2.8-8.9-1-12.9C184.6,326.7,180.6,330.7,183.1,333.2L183.1,333.2z"/>
	
		<linearGradient id="SVGID_17_" gradientUnits="userSpaceOnUse" x1="162.0333" y1="450.391" x2="324.8013" y2="76.6889" gradientTransform="matrix(1 0 0 -1 0 618.05)">
		<stop  offset="0" style="stop-color:#3D4451"/>
		<stop  offset="1" style="stop-color:#3D4451"/>
	</linearGradient>
	<path class="st17" d="M233.2,292.9c-9.7-10.5-24.1-12.6-31.6,1.4c-1.7,3.2,3.1,6,4.8,2.8c5.8-10.9,15.6-8.1,22.8-0.3
		C231.7,299.5,235.6,295.5,233.2,292.9L233.2,292.9z"/>
	
		<linearGradient id="SVGID_18_" gradientUnits="userSpaceOnUse" x1="289.9271" y1="506.0952" x2="452.6945" y2="132.3947" gradientTransform="matrix(1 0 0 -1 0 618.05)">
		<stop  offset="0" style="stop-color:#3D4451"/>
		<stop  offset="1" style="stop-color:#3D4451"/>
	</linearGradient>
	<path class="st18" d="M368.3,445.9c12.4-13.8,26.9-13.6,44-10.6c10.4,1.8,21.5,5.1,31.7,0.8c10.1-4.2,17.5-9.8,28.6-11.8
		c8.2-1.5,14.7-3.9,18.2-12c1.4-3.3-3.4-6.1-4.8-2.8c-4.7,10.9-18.1,8.6-27.5,12.4c-4.7,1.9-8.6,4.8-13,7.2
		c-8.3,4.5-15.7,3.7-24.7,2.1c-21.4-3.6-40.4-7-56.4,10.8C362,444.6,365.9,448.5,368.3,445.9L368.3,445.9z"/>
	
		<linearGradient id="SVGID_19_" gradientUnits="userSpaceOnUse" x1="352.8783" y1="533.515" x2="515.6461" y2="159.8135" gradientTransform="matrix(1 0 0 -1 0 618.05)">
		<stop  offset="0" style="stop-color:#3D4451"/>
		<stop  offset="1" style="stop-color:#3D4451"/>
	</linearGradient>
	<path class="st19" d="M514.2,413.4c1.3-11.4,0.1-22.1-11.3-27.6c-13.5-6.5-24.1,7.1-36.9,2.9c-3.4-1.1-4.9,4.3-1.5,5.4
		c9.2,3,15.4-1.8,24.1-4.1c6.7-1.8,14.7,0.2,18.6,6.4c3.1,5,2.1,11.6,1.5,17.1C508.2,417,513.8,416.9,514.2,413.4L514.2,413.4z"/>
	
		<linearGradient id="SVGID_20_" gradientUnits="userSpaceOnUse" x1="376.0387" y1="543.6024" x2="538.8071" y2="169.8994" gradientTransform="matrix(1 0 0 -1 0 618.05)">
		<stop  offset="0" style="stop-color:#3D4451"/>
		<stop  offset="1" style="stop-color:#3D4451"/>
	</linearGradient>
	<path class="st20" d="M502.3,360.7c-4.6-0.1-6.9-1.3-6.2-6.1c0.5-3.5,2-6.8,2.9-10.2c1.5-6.1,1.1-12.2-5.8-14.1
		c-3.5-1-4.9,4.4-1.5,5.4c6.2,1.7-0.5,14.5-1.1,18.7c-1.1,8.1,4.1,11.7,11.7,11.9C505.9,366.3,505.9,360.8,502.3,360.7L502.3,360.7z
		"/>
	
		<linearGradient id="SVGID_21_" gradientUnits="userSpaceOnUse" x1="218.3716" y1="474.9298" x2="381.1396" y2="101.228" gradientTransform="matrix(1 0 0 -1 0 618.05)">
		<stop  offset="0" style="stop-color:#3D4451"/>
		<stop  offset="1" style="stop-color:#3D4451"/>
	</linearGradient>
	<path class="st21" d="M294.7,357.8c10.5,1.1,17.6-9.9,28.1-6.9c3.4,1,4.9-4.4,1.5-5.4c-5.1-1.5-9.7-1-14.4,1.3
		c-5,2.4-9.2,6-15.1,5.4C291.1,351.8,291.1,357.4,294.7,357.8L294.7,357.8z"/>
	
		<linearGradient id="SVGID_22_" gradientUnits="userSpaceOnUse" x1="335.9695" y1="526.1501" x2="498.7371" y2="152.4489" gradientTransform="matrix(1 0 0 -1 0 618.05)">
		<stop  offset="0" style="stop-color:#3D4451"/>
		<stop  offset="1" style="stop-color:#3D4451"/>
	</linearGradient>
	<path class="st22" d="M430.6,347.6c28,1,49-34,28-55.8c-9.7-10-24.4-14.5-38-14.9c-12.9-0.5-27.4,3-37.6-7.2
		c-10-10-7.6-24.1,3.8-31.6c3-2,0.2-6.8-2.8-4.8c-21.2,14-13.6,43,10.4,48.5c18.3,4.3,36.6-2.3,53.7,8.6
		c24.8,15.8,11.3,52.7-17.3,51.7C427,341.9,427.1,347.5,430.6,347.6L430.6,347.6z"/>
	
		<linearGradient id="SVGID_23_" gradientUnits="userSpaceOnUse" x1="285.4035" y1="504.1261" x2="448.171" y2="130.425" gradientTransform="matrix(1 0 0 -1 0 618.05)">
		<stop  offset="0" style="stop-color:#3D4451"/>
		<stop  offset="1" style="stop-color:#3D4451"/>
	</linearGradient>
	<path class="st23" d="M376.6,260.7c-7.7-6.5-19.6-5.2-26.3,2.4c-1.6,1.8-2.4,3.9-3.7,5.9c-2.3,3.5-4.5,3.9-8.3,5.1
		c-4,1.3-5.6,3.2-6.8,7.3c-1,3.5,4.4,4.9,5.4,1.5c1-3.5,9.9-5,12.6-8.2c2.2-2.6,3.1-6.1,5.5-8.5c4.5-4.6,12.6-5.8,17.7-1.5
		C375.4,266.9,379.3,263,376.6,260.7L376.6,260.7z"/>
	
		<linearGradient id="SVGID_24_" gradientUnits="userSpaceOnUse" x1="393.1294" y1="551.0459" x2="555.8967" y2="177.3455" gradientTransform="matrix(1 0 0 -1 0 618.05)">
		<stop  offset="0" style="stop-color:#3D4451"/>
		<stop  offset="1" style="stop-color:#3D4451"/>
	</linearGradient>
	<path class="st24" d="M505.3,303c-11.8,14.1-29-12.1-15.8-22.3c2.8-2.2-1.1-6.1-3.9-3.9c-18.8,14.5,7.1,50,23.7,30.2
		C511.5,304.3,507.6,300.3,505.3,303L505.3,303z"/>
</g>
<path class="st25" d="M39,441.1l-12.8-13.8c-17.2-18.6-16.1-47.6,2.4-64.8l13.8-12.8c74.4-69,190.6-64.6,259.5,9.8l43.9,47.4
	l-47.4,43.9C224.2,519.9,108,515.5,39,441.1z"/>
<linearGradient id="SVGID_25_" gradientUnits="userSpaceOnUse" x1="25.9339" y1="217.625" x2="379.166" y2="217.625" gradientTransform="matrix(1 0 0 -1 0 618.05)">
	<stop  offset="0" style="stop-color:#3D4451"/>
	<stop  offset="1" style="stop-color:#3D4451"/>
</linearGradient>
<path class="st26" d="M71.3,435.3L33,394l41.3-38.3c74.4-69,190.6-64.6,259.5,9.8l38.3,41.3l-41.3,38.3
	C256.5,514.1,140.3,509.7,71.3,435.3z"/>
<linearGradient id="SVGID_26_" gradientUnits="userSpaceOnUse" x1="111.1" y1="217.625" x2="294.1" y2="217.625" gradientTransform="matrix(1 0 0 -1 0 618.05)">
	<stop  offset="0" style="stop-color:#3D4451"/>
	<stop  offset="1" style="stop-color:#3D4451"/>
</linearGradient>
<linearGradient id="SVGID_27_" gradientUnits="userSpaceOnUse" x1="106.1" y1="217.625" x2="299.1" y2="217.625" gradientTransform="matrix(1 0 0 -1 0 618.05)">
	<stop  offset="0" style="stop-color:#3D4451"/>
	<stop  offset="1" style="stop-color:#3D4451"/>
</linearGradient>
<circle class="st27" cx="202.6" cy="400.4" r="91.5"/>
<linearGradient id="SVGID_28_" gradientUnits="userSpaceOnUse" x1="144.7" y1="217.625" x2="260.5" y2="217.625" gradientTransform="matrix(1 0 0 -1 0 618.05)">
	<stop  offset="0" style="stop-color:#3D4451"/>
	<stop  offset="1" style="stop-color:#3D4451"/>
</linearGradient>
<circle class="st28" cx="202.6" cy="400.4" r="57.9"/>
<path class="st29" d="M199.3,398.3l-0.2-1.9c-0.2-2.8-1.4-5.5-3.5-7.5c-2.3-2.4-5.4-5.5-6.6-7c-7.3-8.7-7.8-20.4-1.1-26l0.2-0.1
	c2.8-2.5,7.3-3.5,12.3-2.7c9.6,1.4,19.3,8.5,26,19l0,0c5.1,8.1,6.7,15.5,4.7,22c-2.8,9.3-11.9,13.2-12.3,13.4
	c-6.4,2.4-13.3-0.9-17.3-4.4l0,0C200.2,401.8,199.4,400.1,199.3,398.3z"/>
<path class="st29" d="M174.8,420.7c-21.7-6.3-20.8-19.4-19-24.5c0,0,2.7-8.2,7.5-10.7c3.2-1.7,10.2-1,16.5,0.3
	c6.7,1.4,12.3,6.2,14.6,12.7C198.6,409.9,190.2,423.4,174.8,420.7z"/>
<g>
	<g>
		<g>
			<g>
				<g>
					<path class="st30" d="M449.6,125.8c-60.1-0.4-91.2,68.2-56.4,106.3c23.5,25.6,15.9,48.5,15.9,48.5h72.1
						c-8.4-26.9,5.5-34.9,9.8-41.9C536.9,188.7,505.7,126.3,449.6,125.8z"/>
				</g>
				<g>
					<path class="st31" d="M474.2,239.7c-3.7,4.6-17.9,11.9-12.4,33.4h-38.4c0,0,3-18.3-12.1-38.7c-15-20.3-13.8-53,3.9-71.3
						c8.5-8.8,20.3-14,32.5-13.7c7.6,0.2,15.2,2.3,21.9,6.1c10.6,6.1,18.3,17.5,20.6,29.6c2.6,13.5,0.4,27.9-5.4,40.2
						c-2.3,4.8-7.1,10.2-10.3,14.4"/>
				</g>
				<g>
					<path class="st32" d="M449.6,125.8c-66.4,0-91.2,68.2-56.4,106.3c23.5,25.6,15.9,48.5,15.9,48.5h72.1
						c-8.4-26.9,5.5-34.9,9.8-41.9C536.9,188.7,495,125.8,449.6,125.8z"/>
				</g>
			</g>
		</g>
		<g>
			<g>
				<path class="st33" d="M431.1,279.2c0-17.2,0.2-34.3-0.3-51.5c-0.2-7.9,0.6-29.7-14-24.9c-9.9,3.3-3.5,17,2.6,20.6
					c9.2,5.5,22.6,3.3,29.3-4.9c4.5-5.5,9.7-22.4-2.9-21.4c-10.6,0.8-14.9,13.8-8.9,21.7c6.2,8.2,18.8,10.3,28.2,7.5
					c7.6-2.3,19.6-10.9,11.2-19.4c-4.4-4.4-11.5-4.4-16.4-0.8c-5.4,3.9-6.8,10.2-7,16.5c-0.5,19.4,0.9,38.9,1.7,58.3
					c0.2,3.6,5.7,3.6,5.6,0c-0.8-19.4-2.3-38.9-1.7-58.3c0.1-4.1,0.6-8.4,3.8-11.3c1.8-1.7,4-2.5,6.5-2.1c3.7,0.5,5.8,3.7,3.6,6.8
					c-3.7,5-12.4,6.5-18.1,5.8c-6.2-0.7-16.1-4.8-14.5-12.6c0.6-3,7.5-10,8.7-3.9c0.6,3.2-1.9,7.4-3.8,9.7
					c-4.7,5.8-13.2,7.3-20.1,4.8c-3.4-1.2-6.2-4-6.9-7.6c-0.4-2-0.2-4,2.4-4c3.3,0,4.3,3.7,4.6,6.4c1.4,10.4,0.8,21.4,0.9,31.8
					c0.1,11,0,22,0,33C425.5,282.8,431.1,282.8,431.1,279.2L431.1,279.2z"/>
			</g>
		</g>
	</g>
	<path class="st34" d="M487.8,298.7h-82.4c-3.6,0-6.5-2.9-6.5-6.5v-3.8c0-3.6,2.9-6.5,6.5-6.5h82.4c3.6,0,6.5,2.9,6.5,6.5v3.8
		C494.4,295.7,491.4,298.7,487.8,298.7z"/>
	<path class="st34" d="M487.8,315.6h-82.4c-3.6,0-6.5-2.9-6.5-6.5v-3.8c0-3.6,2.9-6.5,6.5-6.5h82.4c3.6,0,6.5,2.9,6.5,6.5v3.8
		C494.4,312.6,491.4,315.6,487.8,315.6z"/>
</g>
<g>
	
		<linearGradient id="SVGID_29_" gradientUnits="userSpaceOnUse" x1="452.8853" y1="592.5125" x2="455.9788" y2="592.5125" gradientTransform="matrix(1 0 0 -1 0 618.05)">
		<stop  offset="0" style="stop-color:#3D4451"/>
		<stop  offset="1" style="stop-color:#3D4451"/>
	</linearGradient>
	<path class="st35" d="M457.7,47c0.7-14.3,1.4-28.6,2-42.9c0.3-5.5-8.2-5.5-8.5,0c-0.7,14.3-1.4,28.6-2,42.9
		C448.9,52.4,457.4,52.4,457.7,47L457.7,47z"/>
</g>
<g>
	
		<linearGradient id="SVGID_30_" gradientUnits="userSpaceOnUse" x1="511.4907" y1="557.6284" x2="548.9767" y2="557.6284" gradientTransform="matrix(1 0 0 -1 0 618.05)">
		<stop  offset="0" style="stop-color:#3D4451"/>
		<stop  offset="1" style="stop-color:#3D4451"/>
	</linearGradient>
	<path class="st36" d="M514.1,76.7c12.3-8.2,24.6-16.5,36.8-24.7c4.9-3.3,0.3-11.2-4.6-7.9c-12.3,8.2-24.6,16.5-36.8,24.7
		C504.6,72,509.2,80,514.1,76.7L514.1,76.7z"/>
</g>
<g>
	
		<linearGradient id="SVGID_31_" gradientUnits="userSpaceOnUse" x1="533.8178" y1="493.1756" x2="591.9113" y2="493.1756" gradientTransform="matrix(1 0 0 -1 0 618.05)">
		<stop  offset="0" style="stop-color:#3D4451"/>
		<stop  offset="1" style="stop-color:#3D4451"/>
	</linearGradient>
	<path class="st37" d="M535.4,136.4c19.3-4.2,38.5-8.4,57.8-12.6c6.9-1.5,4-12-2.9-10.5c-19.3,4.2-38.5,8.4-57.8,12.6
		C525.6,127.3,528.6,137.9,535.4,136.4L535.4,136.4z"/>
</g>
<g>
	
		<linearGradient id="SVGID_32_" gradientUnits="userSpaceOnUse" x1="315.4445" y1="507.925" x2="359.7166" y2="507.925" gradientTransform="matrix(1 0 0 -1 0 618.05)">
		<stop  offset="0" style="stop-color:#3D4451"/>
		<stop  offset="1" style="stop-color:#3D4451"/>
	</linearGradient>
	<path class="st38" d="M360.8,112c-14.7-4.2-29.3-8.4-44-12.6c-5.7-1.6-8.1,7.2-2.4,8.8c14.7,4.2,29.3,8.4,44,12.6
		C364,122.4,366.4,113.6,360.8,112L360.8,112z"/>
</g>
<g>
	
		<linearGradient id="SVGID_33_" gradientUnits="userSpaceOnUse" x1="361.2808" y1="570.4955" x2="388.1855" y2="570.4955" gradientTransform="matrix(1 0 0 -1 0 618.05)">
		<stop  offset="0" style="stop-color:#3D4451"/>
		<stop  offset="1" style="stop-color:#3D4451"/>
	</linearGradient>
	<path class="st39" d="M391,58.1c-8.7-9.2-17.4-18.5-26.1-27.7c-4.1-4.4-10.6,2.2-6.6,6.6c8.7,9.2,17.4,18.5,26.1,27.7
		C388.6,69,395.1,62.5,391,58.1L391,58.1z"/>
</g>
</svg>
