<?xml version="1.0" encoding="utf-8"?>
<!-- Generator: Adobe Illustrator 23.0.6, SVG Export Plug-In . SVG Version: 6.00 Build 0)  -->
<svg version="1.1" id="icon" xmlns="http://www.w3.org/2000/svg" xmlns:xlink="http://www.w3.org/1999/xlink" x="0px" y="0px"
	 viewBox="0 0 507.5 470" style="enable-background:new 0 0 507.5 470;" xml:space="preserve">
<style type="text/css">
	.st0{fill:#93278F;stroke:#3D4451;stroke-width:8.4648;stroke-linejoin:round;stroke-miterlimit:10;}
	.st1{fill:#22B573;stroke:#3D4451;stroke-width:9.3963;stroke-miterlimit:10;}
	.st2{fill:#FDC345;stroke:#3D4451;stroke-width:10.7211;stroke-linecap:round;stroke-linejoin:round;stroke-miterlimit:10;}
	.st3{fill:#3D4451;}
	.st4{fill:none;stroke:#3D4451;stroke-width:32.6604;stroke-linecap:round;stroke-miterlimit:10;}
	.st5{fill:none;stroke:#3D4451;stroke-width:26.9352;stroke-linecap:round;stroke-miterlimit:10;}
</style>
<g>
	<g>
		<g>
			<path class="st0" d="M256,130.7c4-3.8,7.6-8.2,10.5-13.1l19.3,2.5l7-25l-17.4-7.8c0.2-5.9-0.5-11.7-1.9-17.3l14.9-11.4
				l-12.8-22.7l-17.2,6.5c-4.1-4.4-8.8-8.2-14.1-11.3l2.3-18.1l-25.1-7.1l-7.4,16.5c-6.2-0.2-12.3,0.5-18.1,2.1l-11-14.3l-22.7,12.7
				l6.6,17.1c-4.3,4.1-8,8.9-11,14.2l-18.3-2.4l-7,25l17.2,7.7c0,5.9,0.7,11.7,2.3,17.2L137,113.3l12.8,22.7l18.1-6.9
				c3.9,4,8.4,7.4,13.3,10.3l-2.5,19.4l25.1,7.1l8-18c5.6,0.1,11.1-0.6,16.4-1.9l12.1,15.7L263,149L256,130.7z M191.8,108.8
				c-13.2-11.8-14.4-31.9-2.7-45.1c11.7-13.1,31.9-14.2,45.1-2.5c13.2,11.8,14.4,31.9,2.7,45.1C225.1,119.5,204.9,120.6,191.8,108.8
				z"/>
			<path class="st1" d="M373.6,95.1c-4.1-1.4-8.4-2.2-12.8-2.5l-5.2-14.1l-19.8,4.2l0.9,14.7c-4.1,2-7.9,4.5-11.2,7.5l-13.2-6.1
				l-11.1,16.9l10.7,9.4c-1.5,4.3-2.5,8.9-2.7,13.7l-13.3,4.9l4.1,19.7l14-0.9c2.1,4.3,4.8,8.2,8,11.6l-5.9,12.7l16.9,11l9.4-10.6
				c4.4,1.5,9,2.3,13.7,2.4L361,203l19.8-4.2l-0.9-14.5c4.1-2.1,7.8-4.7,11.1-7.7l13.4,6.2l11.1-16.9l-11.3-10
				c1.3-4.1,2.1-8.4,2.3-12.8l14.3-5.3l-4.1-19.7l-15.3,0.9c-2-3.9-4.4-7.4-7.2-10.6l6.4-13.9l-16.9-11L373.6,95.1z M381.6,146.9
				c-3.4,13.2-16.9,21.3-30.1,18c-13.3-3.3-21.3-16.8-17.9-30s16.9-21.3,30.1-18C377,120.2,385,133.7,381.6,146.9z"/>
			<path class="st2" d="M340.1,277.5c0.6-7.6,0.2-15.3-1.3-22.9l21.9-15.1l-15.8-31.8l-24.8,8c-5.2-6.2-11.2-11.5-17.8-15.8
				l4.6-25.3l-33.8-11.4l-11.5,22.4c-8.1-0.7-16.4-0.2-24.6,1.4l-14.2-20.5l-32,15.8l7.7,23.5c-6.5,5.5-12,11.8-16.4,18.7l-24.4-4.4
				l-11.4,33.6l22.3,11.3c-0.6,8.1,0,16.3,1.8,24.5l-20.8,14.3l15.8,31.8l24.5-7.9c5.3,6,11.5,11.2,18.1,15.4l-4.7,25.6l33.8,11.4
				l12.1-23.6c7.6,0.5,15.3-0.1,22.9-1.7l15.3,22l32-15.8l-8.4-25.6c5.8-5,10.8-10.8,14.9-17l26.6,4.8l11.4-33.6L340.1,277.5z
				 M254.8,314.1c-24.2,0.1-43.9-19.3-44-43.4c-0.1-24.1,19.4-43.7,43.6-43.8c24.2-0.1,43.9,19.3,44,43.4
				C298.5,294.4,279,314,254.8,314.1z"/>
		</g>
	</g>
	<g>
		<g>
			<g>
				<path class="st3" d="M116.9,217.4c25.7,1.2,46.8-19.1,45.5-44c-1.1-21.3-19-38.5-41-39.6c-25.7-1.3-46.8,19.2-45.5,44
					C77,199,94.9,216.3,116.9,217.4z"/>
			</g>
		</g>
		<path class="st3" d="M109.3,344.3l-32.8-3.9c-11-1.3-18.6-11-17.1-21.7l12-83.6c1.5-10.7,11.7-18.3,22.6-17l0,0
			c29.1,3.4,49.4,29.2,45.3,57.5l-7.4,51.7C130.4,338,120.3,345.6,109.3,344.3z"/>
		<polyline class="st4" points="108.2,330.6 152,366.6 160.2,441 		"/>
		<polyline class="st4" points="76.4,324.3 63.3,371.4 26.3,445.4 		"/>
		<polyline class="st5" points="108.4,252.2 158.6,285.9 198.8,281.6 		"/>
	</g>
	<g>
		<g>
			<g>
				<path class="st3" d="M462,244.6c25.7,1.2,46.8-19.1,45.5-44c-1.1-21.3-19-38.5-41-39.6c-25.7-1.3-46.8,19.2-45.5,44
					C422.1,226.3,440,243.5,462,244.6z"/>
			</g>
		</g>
		<path class="st3" d="M390.3,352.8l-30.5-12.6c-10.2-4.2-15-15.6-10.6-25.5l34.1-77.3c4.4-9.9,16.2-14.5,26.4-10.3l0,0
			c27.1,11.2,39.7,41.4,28.1,67.6l-21.1,47.7C412.3,352.4,400.5,357,390.3,352.8z"/>
		<polyline class="st4" points="393.4,335 437.8,375.7 428,451.9 		"/>
		<polyline class="st4" points="360.5,328.6 358.3,380.1 327.9,451.9 		"/>
		<polyline class="st5" points="400.3,244.5 364.3,251.1 307.7,285.9 		"/>
	</g>
</g>
</svg>
