<?xml version="1.0" encoding="utf-8"?>
<!-- Generator: Adobe Illustrator 23.0.6, SVG Export Plug-In . SVG Version: 6.00 Build 0)  -->
<svg version="1.1" id="icon" xmlns="http://www.w3.org/2000/svg" xmlns:xlink="http://www.w3.org/1999/xlink" x="0px" y="0px"
	 viewBox="0 0 363.9 419.4" style="enable-background:new 0 0 363.9 419.4;" xml:space="preserve">
<style type="text/css">
	.st0{fill:#FBB03B;}
	.st1{fill:#7EB9C7;}
	.st2{fill:none;stroke:#3D4451;stroke-width:7.7364;stroke-linecap:round;stroke-miterlimit:10;}
	.st3{fill:none;stroke:#3D4451;stroke-width:7.4414;stroke-linecap:round;stroke-miterlimit:10;}
	.st4{fill:#F15A24;}
	.st5{fill:none;stroke:#3D4451;stroke-width:12;stroke-linecap:round;stroke-miterlimit:10;}
	.st6{fill:none;stroke:#3D4451;stroke-width:10;stroke-linecap:round;stroke-miterlimit:10;}
	.st7{fill:none;stroke:#3D4451;stroke-width:12;stroke-miterlimit:10;}
	.st8{fill:none;stroke:#3D4451;stroke-width:8.488;stroke-miterlimit:10;}
	.st9{fill:none;stroke:#3D4451;stroke-width:10;stroke-miterlimit:10;}
	.st10{fill:none;stroke:#3D4451;stroke-width:5.4445;stroke-linecap:round;stroke-miterlimit:10;}
	.st11{fill:none;stroke:#3D4451;stroke-width:7.2593;stroke-miterlimit:10;}
	.st12{fill:#F04F4C;stroke:#3D4451;stroke-width:7;stroke-miterlimit:10;}
	.st13{fill:#FDC345;stroke:#3D4451;stroke-width:8;stroke-miterlimit:10;}
</style>
<g>
	<g>
		<path class="st0" d="M100.3,295.4l0.5,72.4c0,2.8,4.9,5,10.9,5c21.6-0.1,43.3-0.2,64.9-0.3c36.3-0.2,72.7-0.4,109-0.5
			c3.5,0,7.1,0,10.6,0c2.9,0,6-0.1,8.1-2.1c2.2-2.1,2.4-5.5,2.4-8.5c0.2-19.3,0.3-38.6,0.5-57.9c0.1-10.7,0.2-21.3,0.4-32
			c0-2.2-0.3-4.8-2.3-5.7c-1.3-0.5-2.7,0-4,0.5c-11.1,4.3-22.2,8.4-33.4,12.5c-13,4.8-26,9.5-38.9,14.3c-11.5,4.2-23,9.8-35.5,9.8
			c-3.9,0-7.7,0-11.6,0"/>
		<path class="st1" d="M85.1,258.2"/>
		<path class="st2" d="M293.5,258.2v134c0,5.2-5.3,9.4-11.8,9.4H81.4c-6.5,0-11.8-4.2-11.8-9.4v-131"/>
		<line class="st3" x1="103.6" y1="315.4" x2="262.3" y2="315.4"/>
		<line class="st3" x1="103.6" y1="348.4" x2="197.3" y2="348.4"/>
	</g>
	<g>
		<path class="st0" d="M127,236.6c0,0-82.7-68.3-65.4-125.9c17.4-57.5,85.1-95.6,138-40.1c0,0,45.5-49.5,105.2,4.2
			s-8.9,117.5-8.9,117.5s4.7,32.8-10,50.9C271.2,261.3,193.8,303.7,127,236.6z"/>
		<path class="st4" d="M286,100.6c0,0,8.3,53.7-13.5,52.1c-49.4-3.7-73.2-45.9-73.2-45.9S253.7,132.3,286,100.6z"/>
		<path class="st5" d="M197.5,104.1c10.5,22.2,32.9,33.8,54.2,42.6c18.8,7.8,38.6,12.7,57.3,20.6c5.6,2.4,11.3,5.2,15.2,10.1
			c10.4,13.3,4.6,36.4-9.3,44.5c-7.4,4.4-16.5,5.1-24.9,3.7c-12.2-2-25-7.1-36.6-11.5c-13.2-5-26-11.2-38.3-18.3"/>
		<path class="st6" d="M208.6,282.9c0,0,7.1,3.1,11.6,2.6c4.6-0.5,15.3-9.5,14.9-14.7c0,0,9.9,3.5,29.7-15.8"/>
		<path class="st7" d="M113.5,257.9C48.7,224.6-13.7,146,29.9,63.8c28.1-53,106.3-76.6,152.7-29.5"/>
		<path class="st5" d="M292.2,226.9c0,0-1.8,28.4-24.2,27.8c-22.3-0.5-63.3-23.4-63.3-23.4"/>
		<line class="st6" x1="235.3" y1="271.4" x2="219" y2="263.9"/>
		<path class="st8" d="M363.9,29.3"/>
		<path class="st7" d="M81,239.3c0,0-7.8,12.2,2.2,22.6c10,10.4,21.1,9.3,28.6-4.9"/>
		<path class="st7" d="M112.9,259.1c3.8-9.7,8.6-20.9,18-26c8-4.3,19.1-1,22.5,8c3.8,10-4.1,23.7-10,31.3
			c-2.9,3.7-6.7,8.3-10.9,10.3c-4.4,2.1-10.1,2-14.5-0.3c-3.6-1.9-6.5-5.4-7.6-9.4C109.2,268,111.1,263.8,112.9,259.1z"/>
		<path class="st5" d="M326.7,177.4c45-57.7,16.1-146.2-52.6-163.8c-22.1-5.7-45.9-3.4-66.7,6.1c-50.1,22.8-79.9,70.1-89.5,125.2
			c-0.7,3.9-1.2,8.1,0.3,11.8c4,9.2,19.6,4.7,25.6,0.6c8.2-5.6,13.2-15.5,16.3-25c15.5-48,50.3-22.5,44.1-26.7
			c0,0,61.1,44,90.7-21.7"/>
		<path class="st9" d="M206.2,284.8c0.9-7.3,3.6-15.1-0.2-22.1c-3.6-6.5-12.6-9.8-18.6-4.8c-3,2.5-4.7,6.2-6.3,9.9
			c-2.4,5.7-4.5,11.6-6.1,17.5c-1.4,5,1.1,10.8,4.9,14c7.1,5.9,16.2,1.9,22.9-2.8c5.1-3.5,7.4-7.4,12.4-11"/>
		<path class="st9" d="M154.4,248.8c5.6-7.8,13.8-13.8,23.7-6.3c6.8,5.2,4.4,16.7,2.6,24.4c-1.5,6.2-3.9,13.6-7.6,18.7
			c-4,5.4-12.6,7.4-18.9,6.8c-3.9-0.4-7.8-1.9-10.4-4.9c-3.6-4.1-2.8-8.9-1.1-13.6c0,0,0.1-0.2,0.2-0.6"/>
		<path class="st10" d="M159.1,105.6c0,0,5.2,7.1,3.3,19"/>
		<path class="st11" d="M201.1,155.1"/>
	</g>
	<polyline class="st12" points="230.1,367 230.1,418 248.9,398.5 267.1,419.4 267.1,369.2 	"/>
	<ellipse class="st13" cx="248.6" cy="354.1" rx="21.2" ry="21.2"/>
</g>
</svg>
