<?xml version="1.0" encoding="utf-8"?>
<!-- Generator: Adobe Illustrator 23.0.6, SVG Export Plug-In . SVG Version: 6.00 Build 0)  -->
<svg version="1.1" id="icon" xmlns="http://www.w3.org/2000/svg" xmlns:xlink="http://www.w3.org/1999/xlink" x="0px" y="0px"
	 viewBox="0 0 503.1 474" style="enable-background:new 0 0 503.1 474;" xml:space="preserve">
<style type="text/css">
	.st0{fill:#FBB03B;}
	.st1{fill:none;stroke:#3D4451;stroke-width:12.3831;stroke-miterlimit:10;}
	.st2{fill:#F3FDFF;stroke:#3D4451;stroke-width:10.2003;stroke-miterlimit:10;}
	.st3{fill:#F04F4C;stroke:#3D4451;stroke-width:11.4753;stroke-miterlimit:10;}
	.st4{fill:#FBB03B;stroke:#3D4451;stroke-width:7.6502;stroke-miterlimit:10;}
	.st5{fill:url(#SVGID_1_);}
	.st6{fill:url(#SVGID_2_);}
	.st7{fill:none;stroke:#3D4451;stroke-width:9.261;stroke-linecap:round;stroke-miterlimit:10;}
	.st8{fill:none;stroke:#3D4451;stroke-width:6.2841;stroke-linecap:round;stroke-miterlimit:10;}
	.st9{fill:none;stroke:#3D4451;stroke-width:10.0072;stroke-linecap:round;stroke-miterlimit:10;stroke-dasharray:26.7923,20.471;}
</style>
<g>
	<path class="st0" d="M418.8,427.2H80.5c-31.4,0-56.8-25.4-56.8-56.8v-7.7c0-31.4,25.4-56.8,56.8-56.8h338.2
		c31.4,0,56.8,25.4,56.8,56.8v7.7C475.6,401.7,450.1,427.2,418.8,427.2z"/>
	<path class="st1" d="M418,442.7H87.1c-29.7,0-53.8-24.1-53.8-53.8v-4.6c0-29.7,24.1-53.8,53.8-53.8H418c29.7,0,53.8,24.1,53.8,53.8
		v4.6C471.8,418.6,447.7,442.7,418,442.7z"/>
	
		<ellipse transform="matrix(0.1602 -0.9871 0.9871 0.1602 -283.9272 437.8814)" class="st2" cx="115.4" cy="385.8" rx="31.3" ry="31.3"/>
	<ellipse class="st2" cx="390" cy="386.9" rx="31.3" ry="31.3"/>
	
		<ellipse transform="matrix(0.1602 -0.9871 0.9871 0.1602 -170.0883 573.949)" class="st2" cx="252.3" cy="386.9" rx="31.3" ry="31.3"/>
	<path class="st3" d="M279.2,289.2h-52.1c-6.6,0-12-5.4-12-12v-52.1c0-6.6,5.4-12,12-12h52.1c6.6,0,12,5.4,12,12v52.1
		C291.2,283.8,285.8,289.2,279.2,289.2z"/>
	<rect x="356.5" y="215.7" class="st4" width="71" height="71"/>
	<rect x="84.6" y="215.7" class="st4" width="71" height="71"/>
	<g>
		<path class="st0" d="M226.4,0v108.7c0,8,9.7,13.4,18.5,10.4l59.9-20.9c7.5-2.6,12.4-8.7,12.4-15.5V0"/>
		
			<linearGradient id="SVGID_1_" gradientUnits="userSpaceOnUse" x1="-6.74" y1="1274.1934" x2="525.0762" y2="-599.2504" gradientTransform="matrix(1 0 0 -1 0 516)">
			<stop  offset="0" style="stop-color:#3D4451"/>
			<stop  offset="1" style="stop-color:#3D4451"/>
		</linearGradient>
		<path class="st5" d="M253,207.7c-5.3,0-9.5-3.6-9.5-8v-85.8c0-4.4,4.3-8,9.5-8c5.3,0,9.5,3.6,9.5,8v85.8
			C262.6,204.2,258.3,207.7,253,207.7z"/>
		<g>
			
				<linearGradient id="SVGID_2_" gradientUnits="userSpaceOnUse" x1="231.9567" y1="525.3271" x2="266.7645" y2="402.7087" gradientTransform="matrix(1 0 0 -1 0 516)">
				<stop  offset="0" style="stop-color:#3D4451"/>
				<stop  offset="1" style="stop-color:#3D4451"/>
			</linearGradient>
			<path class="st6" d="M218.6,126.1c-4.4,0-8.7-1.3-12.2-3.8c-4.7-3.3-7.3-8.3-7.3-13.6V0h12.4v108.7c0,1.7,1.1,2.8,2.1,3.5
				c1.7,1.2,4.8,2.1,8,1l59.5-20.9c4.9-1.7,8.1-5.5,8.1-9.7V0h12.4v82.6c0,9.5-6.5,17.9-16.4,21.4l-59.5,20.9
				C223.5,125.7,221,126.1,218.6,126.1z"/>
		</g>
	</g>
	<polyline class="st7" points="243.5,133.1 183.5,174.3 203,218.7 	"/>
	<polyline class="st7" points="260.2,133.1 320.2,174.3 300.6,218.7 	"/>
	<line class="st8" x1="271.5" y1="35" x2="271.5" y2="83.9"/>
	<g>
		<g>
			<path class="st9" d="M430.3,463.9H72.2C35.1,463.9,5,433.8,5,396.7v-21.5C5,338.1,35.1,308,72.2,308h358.1
				c37.1,0,67.2,30.1,67.2,67.2v21.5C497.6,433.8,467.5,463.9,430.3,463.9z"/>
		</g>
	</g>
</g>
</svg>
