<?xml version="1.0" encoding="utf-8"?>
<!-- Generator: Adobe Illustrator 23.0.6, SVG Export Plug-In . SVG Version: 6.00 Build 0)  -->
<svg version="1.1" id="icon" xmlns="http://www.w3.org/2000/svg" xmlns:xlink="http://www.w3.org/1999/xlink" x="0px" y="0px"
	 viewBox="0 0 466.7 443.4" style="enable-background:new 0 0 466.7 443.4;" xml:space="preserve">
<style type="text/css">
	.st0{fill:#FBB03B;}
	.st1{fill:#7EB9C7;}
	.st2{fill:none;stroke:#3D4451;stroke-width:13.3989;stroke-miterlimit:10;}
	.st3{fill:none;stroke:#3D4451;stroke-width:8.0394;stroke-miterlimit:10;}
	.st4{fill:none;stroke:#3D4451;stroke-width:6.8403;stroke-linecap:round;stroke-miterlimit:10;}
	.st5{fill:none;stroke:#3D4451;stroke-width:5.8804;stroke-miterlimit:10;}
	.st6{fill:none;stroke:#3D4451;stroke-width:10.7191;stroke-miterlimit:10;}
	.st7{fill:none;stroke:#3D4451;stroke-width:5.8804;stroke-linecap:round;stroke-miterlimit:10;}
	.st8{fill:#FDC345;stroke:#3D4451;stroke-width:7.7043;stroke-miterlimit:10;}
	.st9{fill:#F04F4C;stroke:#3D4451;stroke-width:7.8174;stroke-miterlimit:10;}
	.st10{fill:#C7DDEB;stroke:#3D4451;stroke-width:7.3859;stroke-miterlimit:10;}
	.st11{fill:#22B573;stroke:#3D4451;stroke-width:7.3666;stroke-miterlimit:10;}
	.st12{fill:#FBB03B;stroke:#3D4451;stroke-width:9.7718;stroke-miterlimit:10;}
</style>
<g>
	<g>
		<g>
			<path class="st0" d="M303.7,69c-64-64-167.8-64-231.8,0s-64,167.8,0,231.8s167.8,64,231.8,0C367.8,236.8,367.8,133,303.7,69z
				 M284.7,281.8c-53.5,53.5-140.3,53.5-193.8,0S37.4,141.5,90.9,88s140.3-53.5,193.8,0S338.2,228.3,284.7,281.8z"/>
			<path class="st0" d="M434.5,400.4c6.7,6.7,7.7,17.3,1.7,23.3l-15.8,15.8c-5.9,5.9-16.5,5-23.3-1.7l-60-60
				c-6.7-6.7-7.4-17-1.4-22.9l15.8-15.8c5.9-5.9,16.2-5.3,22.9,1.4L434.5,400.4z"/>
			<ellipse class="st1" cx="185.8" cy="237.4" rx="94.5" ry="20.8"/>
			<path class="st2" d="M65.1,288.1c-64-64-64-167.8,0-231.8s167.8-64,231.8,0s64,167.8,0,231.8C232.9,352.2,129.1,352.2,65.1,288.1
				z"/>
			<path class="st3" d="M83.9,269.3c-53.6-53.6-53.6-140.5,0-194.2c53.6-53.6,140.5-53.6,194.2,0c53.6,53.6,53.6,140.5,0,194.2
				C224.4,322.9,137.5,322.9,83.9,269.3z"/>
			
				<rect x="308.1" y="275.7" transform="matrix(0.7071 -0.7071 0.7071 0.7071 -121.1629 320.8713)" class="st4" width="37.3" height="62"/>
			<path class="st5" d="M439.2,380.1c6.7,6.7,7.3,17.7,0.9,24L423.2,421c-6.4,6.4-17.3,5.8-24-0.9l-60-60c-6.7-6.7-7-17.3-0.6-23.7
				l16.9-16.9c6.4-6.4,17-6.1,23.7,0.6L439.2,380.1z"/>
			<path class="st6" d="M439.2,380.1c6.7,6.7,7.3,17.7,0.9,24L423.2,421c-6.4,6.4-17.3,5.8-24-0.9l-60-60c-6.7-6.7-7-17.3-0.6-23.7
				l16.9-16.9c6.4-6.4,17-6.1,23.7,0.6L439.2,380.1z"/>
			<line class="st7" x1="352.6" y1="350.6" x2="408.9" y2="406.9"/>
			<g>
				<g>
					<rect x="189.5" y="93.7" class="st8" width="37.2" height="138.4"/>
					<rect x="142.7" y="142.4" class="st9" width="32.4" height="89.7"/>
					<rect x="240.8" y="163.1" class="st10" width="29.7" height="68.9"/>
					<rect x="99.1" y="172.3" class="st11" width="29.5" height="59.8"/>
				</g>
			</g>
		</g>
	</g>
	<g>
		<g>
			<g>
				<path class="st12" d="M190.4,339.5c22.5,1.1,40.9-17.3,39.8-39.8c-1-19.2-16.6-34.9-35.9-35.9c-22.5-1.1-40.9,17.3-39.8,39.8
					C155.5,322.9,171.1,338.6,190.4,339.5z"/>
				<path class="st12" d="M247.7,421.1c7.9,0,13.7-7.2,12.2-15c-6.6-32.9-33.4-62.3-65.5-62.3s-58.9,29.4-65.5,62.3
					c-1.5,7.7,4.3,15,12.2,15H247.7z"/>
			</g>
		</g>
	</g>
</g>
</svg>
