<?xml version="1.0" encoding="utf-8"?>
<!-- Generator: Adobe Illustrator 23.0.6, SVG Export Plug-In . SVG Version: 6.00 Build 0)  -->
<svg version="1.1" id="icon" xmlns="http://www.w3.org/2000/svg" xmlns:xlink="http://www.w3.org/1999/xlink" x="0px" y="0px"
	 viewBox="0 0 363.5 400.8" style="enable-background:new 0 0 363.5 400.8;" xml:space="preserve">
<style type="text/css">
	.st0{fill:url(#SVGID_1_);}
	.st1{fill:#FBB03B;stroke:#3D4451;stroke-width:7.011;stroke-miterlimit:10;}
	.st2{fill:#F5FAFC;}
	.st3{fill:#FBB03B;}
	.st4{fill:none;stroke:#3D4451;stroke-width:10.0674;stroke-miterlimit:10;}
	.st5{fill:#ED1C24;stroke:#3D4451;stroke-width:4.9967;stroke-miterlimit:10;}
	.st6{fill:none;stroke:#3D4451;stroke-width:9.7909;stroke-miterlimit:10;}
	.st7{fill:none;stroke:#3D4451;stroke-width:9.7588;stroke-miterlimit:10;}
	.st8{fill:#6B968B;}
	.st9{fill:#22B573;}
	.st10{fill:none;stroke:#3D4451;stroke-width:7;stroke-linecap:round;stroke-miterlimit:10;}
	.st11{fill:#22B573;stroke:#3D4451;stroke-width:7;stroke-linecap:round;stroke-miterlimit:10;}
	.st12{fill:none;stroke:#3D4451;stroke-width:11.7342;stroke-linecap:round;stroke-miterlimit:10;}
	.st13{fill:none;stroke:#3D4451;stroke-width:5.2505;stroke-linecap:round;stroke-miterlimit:10;}
	.st14{fill:none;stroke:#3D4451;stroke-width:5.1849;stroke-linecap:round;stroke-miterlimit:10;}
	.st15{fill:#3D4451;}
</style>
<g>
	<g>
		<g>
			<g>
				
					<linearGradient id="SVGID_1_" gradientUnits="userSpaceOnUse" x1="305.8677" y1="368.2216" x2="596.203" y2="1031.8445" gradientTransform="matrix(0.995 -0.1004 -0.1004 -0.995 -53.8064 793.8662)">
					<stop  offset="0" style="stop-color:#3D4451"/>
					<stop  offset="1" style="stop-color:#3D4451"/>
				</linearGradient>
				<path class="st0" d="M345.9,103.5c-0.1-3.4-0.6-6.8-1.6-10.2l9.1-7.7L345,72.1l-10.7,4.6c-2.6-2.5-5.5-4.6-8.6-6.3l1-11.5
					l-15.5-3.6L307,65.8c-3.6,0-7.3,0.6-10.9,1.7l-7.2-8.5l-13.6,8.4l4.4,10.2c-2.6,2.7-4.8,5.8-6.5,9.1l-11.1-0.9l-3.6,15.5
					l10.4,4.1c0.1,3.6,0.7,7.3,1.9,10.8l-8.6,7.3l8.4,13.5l10.6-4.6c2.6,2.5,5.6,4.5,8.7,6.1l-1,11.6l15.5,3.6l4.4-11.1
					c3.4-0.1,6.8-0.7,10.1-1.7l7.7,9.2l13.6-8.4l-4.8-11.1c2.4-2.5,4.3-5.3,5.9-8.2l12.1,1l3.6-15.5L345.9,103.5z M309.8,125.9
					c-12.1,1.2-22.9-7.6-24.1-19.7s7.6-22.9,19.7-24.1s22.9,7.6,24.1,19.7C330.7,113.9,321.9,124.7,309.8,125.9z"/>
				<path class="st1" d="M131.3,229c0.4-4.7,0.1-9.5-0.8-14.2l13.6-9.3l-9.7-19.8l-15.4,4.9c-3.2-3.8-6.9-7.2-11-9.9l2.9-15.7
					l-20.7-7.2L83,171.7c-5-0.5-10.2-0.2-15.3,0.8l-8.8-12.8L39,169.4l4.7,14.6c-4,3.4-7.5,7.3-10.2,11.6l-15.1-2.8l-7.2,20.9
					l13.8,7.1c-0.4,5,0,10.2,1.1,15.2l-12.9,8.8l9.7,19.8l15.2-4.9c3.3,3.8,7.1,7,11.2,9.6l-3,15.9l20.9,7.2l7.6-14.7
					c4.7,0.3,9.5,0,14.2-1l9.4,13.7l19.8-9.4l-5.1-16c3.6-3.1,6.7-6.7,9.3-10.5l16.5,3.1l7.2-20.9L131.3,229z M78.4,255.5
					c-17.2,0-31.1-13.9-31.1-31s13.9-31,31.1-31s31.1,13.9,31.1,31C109.5,241.6,95.5,255.5,78.4,255.5z"/>
				<g>
					<path class="st2" d="M251.1,219.4c-10.5,10.9-32.9,28-17.7,78.4H103c0,0,13.7-42.8-28.8-90.8C11.1,135.6,56.1,4.9,176.2,7.7
						c43.5,1,77.9,19.4,96.6,40"/>
				</g>
				<g>
					<path class="st3" d="M232.7,233.3c-7.7,8.3-36.9,26.2-25.7,64.4h-79.5c0,0,6.2-37.4-25.1-73.9c-31-36.1-28.6-94.2,8-126.8
						c17.6-15.7,42-24.9,67.1-24.3c15.8,0.4,31.4,4.1,45.2,10.9c21.9,10.9,37.9,31,42.7,52.7c5.3,24,0.8,49.6-11.2,71.5
						c-4.7,8.5-10.5,16.6-17.2,23.9"/>
				</g>
				<g>
					<path class="st4" d="M251.1,222.3c-10.5,11-32.9,28.4-17.7,79.5H103c0,0,13.7-43.4-28.8-92.1c-63.1-72.4-18.1-204.9,102-202
						c43.5,1,77.9,19.7,96.6,40.5"/>
				</g>
				<path class="st5" d="M304.5,202.5c1.3-2.2,2.2-4.6,2.9-7.1l8.8-1.4l-0.2-11.9l-8.6-1.1c-0.7-2.6-1.7-5.1-3.1-7.3l5-7l-8.6-8.3
					l-6.7,5.1c-2.4-1.4-4.9-2.4-7.6-3.1l-1.4-8.2l-11.9,0.2l-1.1,8.2c-2.7,0.7-5.3,1.9-7.6,3.3l-6.7-4.8l-8.3,8.5l5.1,6.6
					c-1.3,2.4-2.3,4.9-2.9,7.7l-8.3,1.4l0.2,11.9l8.5,1.1c0.8,2.6,1.9,5,3.3,7.2l-5.1,7.1l8.6,8.3l7-5.4c2.2,1.2,4.6,2.2,7.2,2.8
					l1.5,8.8l11.9-0.2l1.1-8.9c2.5-0.7,4.8-1.7,6.9-3l7.3,5.3l8.3-8.5L304.5,202.5z M275.2,204.8c-9.2-2.4-14.6-11.8-12.2-21
					s11.8-14.6,21-12.2c9.2,2.4,14.6,11.8,12.2,21S284.4,207.2,275.2,204.8z"/>
			</g>
			<path class="st6" d="M363.5,137.1"/>
		</g>
		<path class="st7" d="M241.1,334.1H95.2c-6.9,0-12.6-5.7-12.6-12.6v-5c0-6.9,5.7-12.6,12.6-12.6h145.9c6.9,0,12.6,5.7,12.6,12.6v5
			C253.7,328.4,248,334.1,241.1,334.1z"/>
		<path class="st7" d="M240.1,368.3H94.2c-6.9,0-12.6-5.7-12.6-12.6v-5c0-6.9,5.7-12.6,12.6-12.6h145.9c6.9,0,12.6,5.7,12.6,12.6v5
			C252.7,362.6,247,368.3,240.1,368.3z"/>
	</g>
	<g>
		<g>
			<g>
				<path class="st8" d="M165.6,153.8c0,0-61.7,27.2-83.3-52.8C82.3,101.1,176,97.3,165.6,153.8z"/>
				<path class="st9" d="M169.8,152.9c0,0-14-77.4,106.8-70.5C276.6,82.3,242.6,185.5,169.8,152.9z"/>
				<path class="st10" d="M170.7,155.1c0,0-18.4-74,99.8-78.4C270.5,76.7,243.7,180.1,170.7,155.1z"/>
				<path class="st11" d="M161,158.9c0,0-65.9,18-81.8-68.6C79.1,90.3,176.3,101.9,161,158.9z"/>
				<line class="st12" x1="166.2" y1="154.3" x2="166.5" y2="243.9"/>
			</g>
		</g>
		<line class="st13" x1="171.3" y1="150.5" x2="233.4" y2="104.9"/>
		<line class="st13" x1="165.5" y1="157.1" x2="104.2" y2="110.3"/>
		<path class="st14" d="M222.6,286.1c5.8,0,10.2-6.7,8.9-13.7c-5.1-29.3-26.3-50.9-51.8-50.9h-22c-25.5,0-46.7,21.7-51.8,51.1
			c-1.2,7,3.1,13.7,9,13.7L222.6,286.1z"/>
		<path class="st15" d="M164.9,212.7"/>
		<path class="st15" d="M134,247.4c0-2.2,3.3-4,7.3-4s7.3,1.8,7.3,4s-3.3,4-7.3,4S134,249.6,134,247.4z"/>
		<path class="st15" d="M161.2,263.2c0-2.2,3.3-4,7.3-4s7.3,1.8,7.3,4s-3.3,4-7.3,4C164.4,267.2,161.2,265.4,161.2,263.2z"/>
		<path class="st15" d="M190.4,252.3c0-2.2,3.3-4,7.3-4s7.3,1.8,7.3,4s-3.3,4-7.3,4S190.4,254.5,190.4,252.3z"/>
	</g>
</g>
</svg>
