<svg id="Capa_1" enable-background="new 0 0 512 512" height="512" viewBox="0 0 512 512" width="512" xmlns="http://www.w3.org/2000/svg"><g><g><g><path d="m78.1 69.1c-11.7 0-21.2 9.5-21.2 21.2v298.9c0 7.6 4.1 14.6 10.7 18.4l120.6 68.9v-407.4z" fill="#1a1a1a"/><path d="m323.8 476.5 120.6-68.9c6.6-3.8 10.7-10.8 10.7-18.4v-298.9c0-11.7-9.5-21.2-21.2-21.2h-110.1z" fill="#fc0"/><path d="m188.2 69.1v407.4l57.3 32.8c6.5 3.7 14.5 3.7 21 0l57.3-32.8v-407.4z" fill="#f00"/></g><g><path d="m69.8 56.9h118.3v-56.9h-118.3c-7.1 0-12.9 5.8-12.9 12.9v31c0 7.2 5.8 13 12.9 13z" fill="#1a1a1a"/><path d="m323.8 56.9h118.3c7.1 0 12.9-5.8 12.9-12.9v-31c0-7.1-5.8-12.9-12.9-12.9h-118.3z" fill="#fc0"/><path d="m188.2 56.9h135.6v-56.9h-135.6z" fill="#f00"/></g></g><g><path d="m188.2 69.1h-110.1c-2.7 0-5.2.5-7.6 1.4l117.7 117.7z" fill="#0d0d0d"/><path d="m421 421 23.5-13.4c6.6-3.8 10.7-10.8 10.7-18.4v-298.9c0-11.7-9.5-21.2-21.2-21.2h-110.2v254.8z" fill="#f2c200"/><path d="m323.8 323.8v-254.7h-135.6v119.1z" fill="#f20000"/><path d="m69.8 56.9h118.3v-56.9h-118.3c-7.1 0-12.9 5.8-12.9 12.9v31c0 7.2 5.8 13 12.9 13z" fill="#0d0d0d"/><path d="m323.8 56.9h118.3c7.1 0 12.9-5.8 12.9-12.9v-31c0-7.1-5.8-12.9-12.9-12.9h-118.3z" fill="#f2c200"/><path d="m188.2 56.9h135.6v-56.9h-135.6z" fill="#f20000"/></g></g></svg>