<svg id="visual" viewBox="0 0 900 450" width="900" height="450" xmlns="http://www.w3.org/2000/svg" xmlns:xlink="http://www.w3.org/1999/xlink" version="1.1"><rect x="0" y="0" width="900" height="450" fill="#0d233a"></rect><defs><linearGradient id="grad1_0" x1="50%" y1="0%" x2="100%" y2="100%"><stop offset="10%" stop-color="#fbae3c" stop-opacity="1"></stop><stop offset="90%" stop-color="#fbae3c" stop-opacity="1"></stop></linearGradient></defs><defs><linearGradient id="grad1_1" x1="50%" y1="0%" x2="100%" y2="100%"><stop offset="10%" stop-color="#fbae3c" stop-opacity="1"></stop><stop offset="90%" stop-color="#f17858" stop-opacity="1"></stop></linearGradient></defs><defs><linearGradient id="grad1_2" x1="50%" y1="0%" x2="100%" y2="100%"><stop offset="10%" stop-color="#c6556f" stop-opacity="1"></stop><stop offset="90%" stop-color="#f17858" stop-opacity="1"></stop></linearGradient></defs><defs><linearGradient id="grad1_3" x1="50%" y1="0%" x2="100%" y2="100%"><stop offset="10%" stop-color="#c6556f" stop-opacity="1"></stop><stop offset="90%" stop-color="#864474" stop-opacity="1"></stop></linearGradient></defs><defs><linearGradient id="grad1_4" x1="50%" y1="0%" x2="100%" y2="100%"><stop offset="10%" stop-color="#423760" stop-opacity="1"></stop><stop offset="90%" stop-color="#864474" stop-opacity="1"></stop></linearGradient></defs><defs><linearGradient id="grad1_5" x1="50%" y1="0%" x2="100%" y2="100%"><stop offset="10%" stop-color="#423760" stop-opacity="1"></stop><stop offset="90%" stop-color="#0d233a" stop-opacity="1"></stop></linearGradient></defs><defs><linearGradient id="grad2_0" x1="0%" y1="0%" x2="50%" y2="100%"><stop offset="10%" stop-color="#fbae3c" stop-opacity="1"></stop><stop offset="90%" stop-color="#fbae3c" stop-opacity="1"></stop></linearGradient></defs><defs><linearGradient id="grad2_1" x1="0%" y1="0%" x2="50%" y2="100%"><stop offset="10%" stop-color="#f17858" stop-opacity="1"></stop><stop offset="90%" stop-color="#fbae3c" stop-opacity="1"></stop></linearGradient></defs><defs><linearGradient id="grad2_2" x1="0%" y1="0%" x2="50%" y2="100%"><stop offset="10%" stop-color="#f17858" stop-opacity="1"></stop><stop offset="90%" stop-color="#c6556f" stop-opacity="1"></stop></linearGradient></defs><defs><linearGradient id="grad2_3" x1="0%" y1="0%" x2="50%" y2="100%"><stop offset="10%" stop-color="#864474" stop-opacity="1"></stop><stop offset="90%" stop-color="#c6556f" stop-opacity="1"></stop></linearGradient></defs><defs><linearGradient id="grad2_4" x1="0%" y1="0%" x2="50%" y2="100%"><stop offset="10%" stop-color="#864474" stop-opacity="1"></stop><stop offset="90%" stop-color="#423760" stop-opacity="1"></stop></linearGradient></defs><defs><linearGradient id="grad2_5" x1="0%" y1="0%" x2="50%" y2="100%"><stop offset="10%" stop-color="#0d233a" stop-opacity="1"></stop><stop offset="90%" stop-color="#423760" stop-opacity="1"></stop></linearGradient></defs><g transform="translate(900, 0)"><path d="M0 315C-35.7 316.3 -71.4 317.5 -97 298.6C-122.6 279.7 -138.2 240.7 -156.4 215.2C-174.5 189.7 -195.3 177.8 -222.5 161.6C-249.6 145.5 -283.1 125 -299.6 97.3C-316.1 69.7 -315.5 34.8 -315 0L0 0Z" fill="#252e4f"></path><path d="M0 262.5C-29.8 263.6 -59.5 264.6 -80.9 248.9C-102.2 233.1 -115.1 200.6 -130.3 179.3C-145.4 158.1 -162.8 148.2 -185.4 134.7C-208 121.2 -235.9 104.2 -249.7 81.1C-263.4 58.1 -262.9 29 -262.5 0L0 0Z" fill="#633e6d"></path><path d="M0 210C-23.8 210.8 -47.6 211.7 -64.7 199.1C-81.8 186.5 -92.1 160.5 -104.2 143.5C-116.3 126.5 -130.2 118.5 -148.3 107.8C-166.4 97 -188.7 83.3 -199.7 64.9C-210.7 46.5 -210.4 23.2 -210 0L0 0Z" fill="#a74b75"></path><path d="M0 157.5C-17.9 158.1 -35.7 158.8 -48.5 149.3C-61.3 139.9 -69.1 120.3 -78.2 107.6C-87.3 94.9 -97.7 88.9 -111.2 80.8C-124.8 72.7 -141.6 62.5 -149.8 48.7C-158 34.8 -157.8 17.4 -157.5 0L0 0Z" fill="#df6465"></path><path d="M0 105C-11.9 105.4 -23.8 105.8 -32.3 99.5C-40.9 93.2 -46.1 80.2 -52.1 71.7C-58.2 63.2 -65.1 59.3 -74.2 53.9C-83.2 48.5 -94.4 41.7 -99.9 32.4C-105.4 23.2 -105.2 11.6 -105 0L0 0Z" fill="#fa9249"></path><path d="M0 52.5C-6 52.7 -11.9 52.9 -16.2 49.8C-20.4 46.6 -23 40.1 -26.1 35.9C-29.1 31.6 -32.6 29.6 -37.1 26.9C-41.6 24.2 -47.2 20.8 -49.9 16.2C-52.7 11.6 -52.6 5.8 -52.5 0L0 0Z" fill="#fbae3c"></path></g><g transform="translate(0, 450)"><path d="M0 -315C31.7 -308.1 63.5 -301.2 95.2 -292.9C126.9 -284.6 158.5 -275 185.2 -254.8C211.8 -234.7 233.4 -204.2 236.2 -171.6C239 -139.1 223 -104.6 233 -75.7C243 -46.8 279 -23.4 315 0L0 0Z" fill="#252e4f"></path><path d="M0 -262.5C26.5 -256.8 52.9 -251 79.3 -244.1C105.7 -237.2 132.1 -229.1 154.3 -212.4C176.5 -195.6 194.5 -170.1 196.9 -143C199.2 -115.9 185.8 -87.2 194.2 -63.1C202.5 -39 232.5 -19.5 262.5 0L0 0Z" fill="#633e6d"></path><path d="M0 -210C21.2 -205.4 42.3 -200.8 63.5 -195.3C84.6 -189.8 105.7 -183.3 123.4 -169.9C141.2 -156.5 155.6 -136.1 157.5 -114.4C159.4 -92.7 148.7 -69.8 155.3 -50.5C162 -31.2 186 -15.6 210 0L0 0Z" fill="#a74b75"></path><path d="M0 -157.5C15.9 -154.1 31.7 -150.6 47.6 -146.5C63.4 -142.3 79.3 -137.5 92.6 -127.4C105.9 -117.4 116.7 -102.1 118.1 -85.8C119.5 -69.6 111.5 -52.3 116.5 -37.9C121.5 -23.4 139.5 -11.7 157.5 0L0 0Z" fill="#df6465"></path><path d="M0 -105C10.6 -102.7 21.2 -100.4 31.7 -97.6C42.3 -94.9 52.8 -91.7 61.7 -84.9C70.6 -78.2 77.8 -68.1 78.7 -57.2C79.7 -46.4 74.3 -34.9 77.7 -25.2C81 -15.6 93 -7.8 105 0L0 0Z" fill="#fa9249"></path><path d="M0 -52.5C5.3 -51.4 10.6 -50.2 15.9 -48.8C21.1 -47.4 26.4 -45.8 30.9 -42.5C35.3 -39.1 38.9 -34 39.4 -28.6C39.8 -23.2 37.2 -17.4 38.8 -12.6C40.5 -7.8 46.5 -3.9 52.5 0L0 0Z" fill="#fbae3c"></path></g></svg>