<svg height="512pt" viewBox="-113 0 512 512" width="512pt" xmlns="http://www.w3.org/2000/svg"><g fill="#bd7c63"><path d="m240.296875 319.277344c-4.144531 0-7.5-3.355469-7.5-7.5v-29.042969l-12.007813-19.003906c-2.210937-3.503907-1.167968-8.136719 2.335938-10.347657 3.503906-2.210937 8.136719-1.167968 10.347656 2.335938l13.164063 20.839844c.757812 1.199218 1.160156 2.585937 1.160156 4.003906v31.214844c0 4.144531-3.359375 7.5-7.5 7.5zm0 0"/><path d="m46.539062 319.277344c-4.140624 0-7.5-3.355469-7.5-7.5v-31.214844c0-1.417969.402344-2.804688 1.160157-4.003906l13.164062-20.839844c2.214844-3.503906 6.84375-4.546875 10.347657-2.335938 3.503906 2.210938 4.546874 6.84375 2.335937 10.347657l-12.007813 19.003906v29.042969c0 4.144531-3.355468 7.5-7.5 7.5zm0 0"/><path d="m143.417969 319.277344c-4.144531 0-7.5-3.355469-7.5-7.5v-50.402344c0-4.144531 3.355469-7.5 7.5-7.5s7.5 3.355469 7.5 7.5v50.402344c0 4.144531-3.355469 7.5-7.5 7.5zm0 0"/></g><path d="m237.714844 245.152344c0 9.199218-7.460938 16.660156-16.660156 16.660156-9.203126 0-16.660157-7.460938-16.660157-16.660156 0-9.203125 7.457031-16.660156 16.660157-16.660156 9.199218 0 16.660156 7.457031 16.660156 16.660156zm0 0" fill="#5a5a5a"/><path d="m82.761719 245.152344c0 9.199218-7.457031 16.660156-16.660157 16.660156-9.199218 0-16.660156-7.460938-16.660156-16.660156 0-9.203125 7.460938-16.660156 16.660156-16.660156 9.203126 0 16.660157 7.457031 16.660157 16.660156zm0 0" fill="#5a5a5a"/><path d="m160.710938 353.5h-34.578126v-34.664062c0-2.84375 2.304688-5.148438 5.148438-5.148438h24.28125c2.839844 0 5.144531 2.304688 5.144531 5.148438v34.664062zm0 0" fill="#efe2dd"/><path d="m260.417969 353.5h-34.574219v-34.664062c0-2.84375 2.300781-5.148438 5.144531-5.148438h24.28125c2.84375 0 5.144531 2.304688 5.144531 5.148438v34.664062zm0 0" fill="#efe2dd"/><path d="m260.417969 348.265625h-17.289063v-34.578125h12.140625c2.84375 0 5.148438 2.304688 5.148438 5.148438zm0 0" fill="#e1d3ce"/><path d="m26.425781 353.5h34.574219v-34.664062c0-2.84375-2.304688-5.148438-5.144531-5.148438h-24.28125c-2.84375 0-5.148438 2.304688-5.148438 5.148438zm0 0" fill="#efe2dd"/><path d="m160.710938 348.265625h-17.289063v-34.578125h12.140625c2.84375 0 5.148438 2.304688 5.148438 5.148438zm0 0" fill="#e1d3ce"/><path d="m61 348.265625h-17.285156v-34.578125h12.140625c2.839843 0 5.144531 2.304688 5.144531 5.148438zm0 0" fill="#e1d3ce"/><path d="m160.082031 245.152344c0 9.199218-7.460937 16.660156-16.660156 16.660156-9.203125 0-16.660156-7.460938-16.660156-16.660156 0-9.203125 7.457031-16.660156 16.660156-16.660156 9.199219 0 16.660156 7.457031 16.660156 16.660156zm0 0" fill="#5a5a5a"/><path d="m237.71875 245.15625c0 9.199219-7.460938 16.652344-16.664062 16.652344-6.8125 0-12.667969-4.085938-15.25-9.941406 1.089843.226562 2.222656.339843 3.375.339843 9.199218 0 16.664062-7.464843 16.664062-16.664062 0-2.386719-.503906-4.660157-1.410156-6.710938 7.582031 1.566407 13.285156 8.273438 13.285156 16.324219zm0 0" fill="#444"/><path d="m82.757812 245.15625c0 9.199219-7.449218 16.652344-16.652343 16.652344-6.8125 0-12.667969-4.085938-15.253907-9.941406 1.09375.226562 2.222657.339843 3.378907.339843 9.199219 0 16.660156-7.464843 16.660156-16.664062 0-2.386719-.503906-4.660157-1.410156-6.710938 7.585937 1.566407 13.277343 8.273438 13.277343 16.324219zm0 0" fill="#444"/><path d="m160.085938 245.15625c0 9.199219-7.464844 16.652344-16.664063 16.652344-6.8125 0-12.671875-4.085938-15.253906-9.941406 1.089843.226562 2.222656.339843 3.375.339843 9.203125 0 16.664062-7.464843 16.664062-16.664062 0-2.386719-.503906-4.660157-1.410156-6.710938 7.585937 1.566407 13.289063 8.273438 13.289063 16.324219zm0 0" fill="#444"/><path d="m49.441406 375.019531h187.953125v136.980469h-187.953125zm0 0" fill="#87523e"/><path d="m204.714844 375.019531h32.679687v136.980469h-32.679687zm0 0" fill="#6d4336"/><path d="m264.046875 428.605469h-241.257813c-2.839843 0-5.144531-2.304688-5.144531-5.144531v-36.355469h251.546875v36.355469c0 2.839843-2.304687 5.144531-5.144531 5.144531zm0 0" fill="#bd7c63"/><path d="m281.691406 387.105469h-276.546875c-2.839843 0-5.144531-2.300781-5.144531-5.144531v-28.550782c0-2.839844 2.304688-5.144531 5.144531-5.144531h276.546875c2.839844 0 5.144532 2.304687 5.144532 5.144531v28.550782c0 2.839843-2.304688 5.144531-5.144532 5.144531zm0 0" fill="#87523e"/><path d="m281.691406 387.105469h-27.535156v-38.839844h27.535156c2.839844 0 5.144532 2.304687 5.144532 5.144531v28.550782c0 2.839843-2.304688 5.144531-5.144532 5.144531zm0 0" fill="#6d4336"/><path d="m264.046875 428.605469h-27.535156v-41.5h32.679687v36.355469c0 2.839843-2.304687 5.144531-5.144531 5.144531zm0 0" fill="#ac6a51"/><path d="m242.742188 99.320312c0 54.855469-44.46875 99.324219-99.320313 99.324219-54.855469 0-99.324219-44.46875-99.324219-99.324219 0-54.851562 44.46875-99.320312 99.324219-99.320312 54.851563 0 99.320313 44.46875 99.320313 99.320312zm0 0" fill="#ff4343"/><path d="m242.738281 99.320312c0 54.855469-44.46875 99.324219-99.3125 99.324219-21.023437 0-40.523437-6.535156-56.570312-17.667969 9.277343 2.867188 19.144531 4.410157 29.363281 4.410157 54.855469 0 99.324219-44.46875 99.324219-99.324219 0-33.824219-16.910157-63.710938-42.753907-81.644531 40.511719 12.515625 69.949219 50.273437 69.949219 94.902343zm0 0" fill="#f72c2c"/><path d="m147.132812 53.476562 12.375 25.074219c.601563 1.21875 1.765626 2.066407 3.113282 2.261719l27.671875 4.023438c3.394531.492187 4.746093 4.660156 2.292969 7.054687l-20.023438 19.519531c-.972656.949219-1.417969 2.320313-1.191406 3.660156l4.730468 27.558594c.578126 3.382813-2.96875 5.960938-6.003906 4.363282l-24.75-13.011719c-1.207031-.632813-2.648437-.632813-3.851562 0l-24.75 13.011719c-3.035156 1.597656-6.582032-.980469-6.003906-4.363282l4.726562-27.558594c.230469-1.339843-.214844-2.710937-1.1875-3.660156l-20.023438-19.519531c-2.457031-2.394531-1.101562-6.5625 2.292969-7.054687l27.671875-4.023438c1.347656-.195312 2.511719-1.042969 3.113282-2.261719l12.375-25.074219c1.515624-3.078124 5.902343-3.078124 7.421874 0zm0 0" fill="#ffc143"/><path d="m172.558594 111.40625c-.96875.949219-1.417969 2.328125-1.183594 3.664062l4.722656 27.5625c.578125 3.378907-2.960937 5.949219-6 4.355469l-6.78125-3.5625c0-.234375-.019531-.472656-.0625-.71875l-5.679687-33.121093c-.277344-1.617188.257812-3.265626 1.429687-4.40625l22.230469-21.664063 9.058594 1.316406c3.394531.492188 4.746093 4.660157 2.296875 7.0625zm0 0" fill="#ffb509"/></svg>