<?xml version="1.0" encoding="iso-8859-1"?>
<!-- Generator: Adobe Illustrator 21.0.0, SVG Export Plug-In . SVG Version: 6.00 Build 0)  -->
<svg xmlns="http://www.w3.org/2000/svg" xmlns:xlink="http://www.w3.org/1999/xlink" version="1.1" id="Capa_1" x="0px" y="0px" viewBox="0 0 512 512" style="enable-background:new 0 0 512 512;" xml:space="preserve" width="512" height="512">
<g>
	<polygon style="fill:#FFB74F;" points="181.048,79.112 167.231,85.226 153.633,91.23 119.685,14.412 133.302,8.397 147.099,2.293     "/>
	<polygon style="fill:#0087FF;" points="471.489,385.078 300.897,387.615 300.797,387.725 184.335,512 185.614,126.857    185.614,126.528  "/>
	<polygon style="fill:#FF9B00;" points="147.099,2.293 181.048,79.112 167.231,85.226 133.302,8.397  "/>
	<polygon style="fill:#4B5BE5;" points="471.489,385.078 300.897,387.615 300.797,387.725 185.614,126.857 185.614,126.528  "/>
	<g>
		
			<rect x="70.094" y="73.223" transform="matrix(0.362 -0.9322 0.9322 0.362 -53.1192 152.8157)" style="fill:#FFB74F;" width="29.972" height="83.983"/>
		
			<rect x="45.148" y="194.987" transform="matrix(0.9156 -0.4021 0.4021 0.9156 -77.0827 52.7689)" style="fill:#FFB74F;" width="83.983" height="29.973"/>
		
			<rect x="202.942" y="29.585" transform="matrix(0.3599 -0.933 0.933 0.3599 115.1992 257.0515)" style="fill:#FF9B00;" width="83.983" height="29.973"/>
		
			<rect x="271.624" y="94.902" transform="matrix(0.9137 -0.4063 0.4063 0.9137 -17.5954 136.8961)" style="fill:#FF9B00;" width="83.983" height="29.972"/>
	</g>
</g>















</svg>
