<svg height="128" viewBox="0 0 128 128" width="128" xmlns="http://www.w3.org/2000/svg" xmlns:sketch="http://www.bohemiancoding.com/sketch/ns"><g id="circle-Copy" fill="none" fill-rule="evenodd"><g id="maestro"><path id="Oval-2" d="m64 128c35.3462257 0 64-28.6537743 64-64s-28.6537743-64-64-64-64 28.6537743-64 64 28.6537743 64 64 64z" fill="#fff"/><g id="logo" transform="translate(5.771 29.923)"><path id="path618" d="m58.2132461 59.7983263c6.9979312-6.3320317 11.3718685-15.4833143 11.3718685-25.6541691 0-10.1699337-4.3739373-19.3138481-11.3718685-25.64680085-6.1229596-5.5666618-14.3044051-8.95418366-23.2060905-8.95418366-19.1416168 0-34.62953625 15.49068251-34.62953625 34.60098451 0 19.1176703 15.48791945 34.6083528 34.62953625 34.6083528 8.9007643.000921 17.0822099-3.393969 23.2060905-8.9541837" fill="#4186cd"/><path id="path620" d="m58.2132461 59.7983263c6.9979312-6.3320317 11.3718685-15.4833143 11.3718685-25.6541691 0-10.1699337-4.3739373-19.3138481-11.3718685-25.64680085z" fill="#4487ca"/><path id="path624" d="m81.4709138-.45590629c-8.9532626 0-17.1347082 3.38752186-23.2576677 8.95418367-1.2350916 1.13838418-2.4186059 2.36150242-3.4989656 3.66843382h6.9979312c.9781262 1.1595677 1.8530979 2.382686 2.624915 3.6619866h-12.2468402c-.7202398 1.1733831-1.3889024 2.3965014-2.0069087 3.6619867h16.2597365c.565508 1.1881194 1.0287825 2.4103167 1.4404797 3.6684338h-19.1416169c-.4116972 1.1881194-.7718171 2.4112377-1.0287824 3.6619867h21.2001028c.5148517 2.3615024.7718171 4.8141861.7718171 7.3239733 0 3.8434281-.6180063 7.5413347-1.8015206 10.9924071h-19.1406958c.4116972 1.2571961.8749716 2.4803144 1.4404796 3.6675128h16.2597365c-.6180063 1.2664063-1.2350915 2.4886036-2.0069087 3.6629076h-12.2468401c.7718171 1.2793007 1.698366 2.502419 2.624915 3.6629077h6.9979312c-1.0803598 1.3060104-2.2638741 2.5291286-3.4989656 3.6675128 6.1229595 5.5602147 14.3044051 8.9551047 23.2576677 8.9551047 19.0900392 0 34.5779592-15.4906825 34.5779592-34.6083527 0-19.1103021-15.488841-34.60098459-34.5779592-34.60098459" fill="#ca4638"/><g fill="#231f20"><path id="path626" d="m112.395175 53.3677451h.154732c.052498 0 .102234.0073682.102234-.0147363.052498-.0276307.103154-.0699978.103154-.1114438 0-.0432881-.051577-.0847341-.103154-.1059176 0-.0211835-.102234-.0147364-.102234-.0147364h-.154732zm0 .5618239h-.205388v-.9836523h.411697c.102234 0 .153811 0 .256966.0497352.051577.0561824.102233.1473637.102233.2468341 0 .1114438-.051577.2109142-.154731.2514392l.154731.4365649h-.256965l-.102234-.3932768h-.20723v.3923557zm.154732.3591989c.463275 0 .874972-.3794614.874972-.851025 0-.4715637-.411697-.8510251-.874972-.8510251-.462353 0-.823394.3794614-.823394.8510251 0 .4715636.361041.851025.823394.851025zm-1.131937-.851025c0-.6189274.514852-1.1172007 1.131937-1.1172007.618006 0 1.131937.4982733 1.131937 1.1172007 0 .6189273-.514852 1.1172006-1.131937 1.1172006s-1.131937-.4982733-1.131937-1.1172006z"/><path id="path628" d="m29.6035148 43.7743716h-4.3739372l2.5724166-13.4883789-5.9175714 13.4883789h-3.6021202l-.7202398-13.411013-2.8809594 13.411013h-3.9622401l3.3442338-17.5427212h6.8441205l.1022335 10.8588588 4.7340572-10.8588588h7.2548966z"/><path id="path630" d="m77.7140618 43.5975353c-1.1835143.3242-2.1100632.4641955-3.0872684.4641955-2.2122968 0-3.3967321-1.1033854-3.3967321-3.1342406 0-.400645 0-.8289206.1022335-1.2802217l.2569654-1.3981126.2063091-1.1245689 2.0069087-10.8947787h4.2707827l-.6170853 3.2751571h2.2122968l-.6170853 3.4648878h-2.2122967l-1.1319371 5.9534914c-.0515772.2661755-.0515772.4568273-.0515772.5903756 0 .7377392.4116972 1.0610182 1.4404796 1.0610182.5148518 0 .8740507-.041446 1.1835143-.1335483z"/><path id="path632" d="m60.6318519 34.01153c0 1.8061257.9781263 3.0439803 3.2926566 3.9778974 1.7499433.7174768 2.0575649.928391 2.0575649 1.574949 0 .8933921-.7718171 1.292195-2.5199184 1.292195-1.2866688 0-2.5217604-.1740733-3.9106628-.5682711l-.566429 3.2954196.1547318.0285517.8233944.1473637c.2569654.042367.6180063.0847341 1.131937.1261801 1.0287825.0773659 1.8521769.120654 2.4176849.120654 4.5802463 0 6.6903096-1.5113984 6.6903096-4.765372 0-1.9544104-.8749717-3.1066099-3.0366122-3.9723713-1.8521768-.7239239-2.0575649-.8786558-2.0575649-1.5454763 0-.7736591.7202398-1.1669359 2.1100632-1.1669359.8740506 0 2.0575649.0847341 3.1379247.2182824l.6180063-3.3037087c-1.131937-.1547319-2.8303031-.280912-3.8084293-.280912-4.887868 0-6.586234 2.1929553-6.5346568 4.8215544"/><path id="path634" d="m40.6152634 37.4202353c-.4623534-.0497352-.6686625-.0626295-.9781262-.0626295-2.4176848 0-3.6527764.7303711-3.6527764 2.1708507 0 .8851029.6170853 1.4552161 1.5436342 1.4552161 1.7490223.000921 3.0356912-1.454295 3.0872684-3.5634373zm2.9325366 6.3541363h-3.6021201l.1031545-1.4828467c-1.131937 1.1733831-2.5724167 1.7287598-4.5286691 1.7287598-2.3670286 0-3.9622401-1.5887643-3.9622401-3.8940844 0-3.4787031 2.7787258-5.5031112 7.5634393-5.5031112.5148517 0 1.131937.0340778 1.7499433.1114438.1538108-.4706427.2053881-.6741887.2053881-.92747 0-.9486535-.7718171-1.3004842-2.7787258-1.3004842-1.2350916 0-2.623994.1547318-3.6021202.4006449l-.566429.1473637-.4116972.0911812.6170853-3.2042383c2.1607195-.5489296 3.5496218-.7589228 5.1448333-.7589228 3.7043537 0 5.6606062 1.4478479 5.6606062 4.1888117 0 .7027404-.0515773 1.2369336-.36012 2.825698l-.8749716 5.0600992-.1538108.9062865-.1031546.7239239-.1031545.4991943v.3877506z"/><path id="path636" d="m55.5892521 34.9739988c0-.2947273.0515773-.5406404.0515773-.7239239 0-1.1595677-.7718171-1.8420456-2.058486-1.8420456-1.3889023 0-2.3670286.9136546-2.7271485 2.5576803zm2.1091422 8.4909092c-1.4920569.3941977-2.9334576.5830074-4.4255145.5756392-4.8362907 0-7.3064739-2.1929553-7.3064739-6.3882141 0-4.8989203 3.190423-8.5047245 7.512783-8.5047245 3.5496219 0 5.8144169 2.0170399 5.8144169 5.1862793 0 1.0554922-.1547318 2.0732224-.566429 3.5210702h-8.5415655c-.0515772.2173614-.0515772.3168318-.0515772.4494591 0 1.6513939 1.2866688 2.4950508 3.8075082 2.4950508 1.5436342 0 2.9334576-.2735438 4.4770919-.8998393z"/><path id="path638" d="m99.2742845 35.6002943c0-1.4902149-.6170852-2.9030639-2.3661075-2.9030639-2.2122968 0-3.5496219 2.6009684-3.5496219 4.8915521 0 1.9332269.9256279 3.2337111 2.4701831 3.2042383.925628 0 2.9325366-1.2719325 3.2926566-3.4934394.1013125-.5120887.1528897-1.0803598.1528897-1.6992871zm4.3739375 1.7066552c-.618006 4.7441885-3.9622403 6.8468835-8.3868338 6.8468835-4.8372117 0-6.7925431-2.951878-6.7925431-6.5714976 0-5.0610203 3.2935775-8.4835411 8.4393319-8.4835411 4.476171 0 6.84412 2.8183298 6.84412 6.4388704-.000921.8777348-.000921.9403643-.104075 1.7692848z"/></g><path id="path640" d="m105.088701 41.5814164h.153811s.052499 0 .103155-.0211836c.050656-.0211835.051577-.0699977.051577-.1123648 0-.0349988 0-.0773659-.051577-.0976284 0-.0211835-.103155-.0211835-.153811-.0211835h-.103155zm0 .5553767h-.206309v-.9836524h.411698c.051577 0 .154731.0073682.256965.0571035.051577.0488142.102233.1473636.102233.2459131 0 .1049966-.051577.2109142-.15381.2523602l.15381.4291966h-.256965l-.154732-.3868296h-.15289zm.153811.3582779c.464196 0 .824316-.3794614.824316-.8510251 0-.4641955-.36012-.8436569-.824316-.8436569-.462353 0-.87405.3794614-.87405.8436569 0 .4715637.411697.8510251.87405.8510251zm-1.131016-.8510251c0-.6115591.514852-1.1098325 1.131937-1.1098325.618007 0 1.131937.4982734 1.131937 1.1098325 0 .6189273-.514851 1.1172007-1.131937 1.1172007-.618006 0-1.131937-.4982734-1.131937-1.1172007z" fill="#fff"/><path id="path642" d="m30.6838746 42.7612466h-4.32236l2.5724167-13.4874579-5.9175715 13.4874579h-3.9106628l-.7202399-13.4027238-2.5724166 13.4027238h-3.9106629l3.3442338-17.5427213h6.7400449l.3085426 10.866227 4.7856345-10.866227h6.9979312z" fill="#fff"/><path id="path644" d="m78.7953426 42.5936204c-1.1835143.323279-2.1100632.4632745-3.0881895.4632745-2.2122967 0-3.396732-1.1098325-3.396732-3.1333196 0-.4015659.0515772-.8289205.1031545-1.2793007l.2569654-1.3999546.205388-1.131937 2.0078298-10.8938577h4.2707827l-.6170853 3.2751571h2.2122968l-.6180063 3.4722559h-2.2122968l-1.131937 5.9525704c-.0515773.2606494-.0515773.4568273-.0515773.5912966 0 .7386603.4632745 1.0545711 1.4920569 1.0545711.4632745 0 .8243154-.042367 1.1319371-.1344693z" fill="#fff"/><path id="path646" d="m89.8577474 32.5913128-.1022335-.4494591.8749717-2.2353224c-.2072302-.0211835-.3094637-.0276306-.3094637-.041446-.2569654-.0497352-.3601199-.0773659-.4116972-.0773659-.1022335-.0285517-.2569653-.0349989-.4107762-.0349989-1.4404796 0-2.4186058.6253745-3.756852 2.3126883l.4641955-2.5374178h-4.4770918l-2.624915 14.2463806h4.2717038c.565508-3.2687099.8233944-5.130097 1.1835143-6.6774153.565508-2.5650485 2.4701831-3.7319843 3.8590855-3.4722559.1538108.0285517.2569654.0285517.4623534.1059176l.2569654.0976284z" fill="#231f20"/><path id="path648" d="m91.3498044 28.6134153c-.3601199-.1409165-.4116972-.1409165-.4623535-.1547318-.2072301-.0497352-.3610409-.0773659-.3610409-.0847341-.1538108-.0211835-.3085426-.0349989-.4632745-.0349989-1.3889024 0-2.4176848.6327427-3.755931 2.3200565l.4116972-2.1653246h-3.9106628l-2.624915 14.2675642h4.32236c1.5436343-8.722086 2.2122968-10.2537469 4.2707828-10.2537469.1547318 0 .3085426.0138154.5148517.0349989l.5148518.1049966z" fill="#fff"/><path id="path650" d="m61.7112907 33.0066941c0 1.7987575 1.0287824 3.0430593 3.3451548 3.9778975 1.7490223.7101085 2.0069087.9210228 2.0069087 1.5749489 0 .885103-.7718171 1.2857479-2.4701832 1.2857479-1.3382461 0-2.5217604-.1759154-3.9106628-.562745l-.6170853 3.2898935.2053881.0340778.7718171.1399955c.2569654.0506562.6695836.0921023 1.1835143.1280222 1.0287825.0773659 1.8005996.1188119 2.3670286.1188119 4.6299816 0 6.7400449-1.5040302 6.7400449-4.7580038 0-1.9608575-.8740507-3.1066099-3.0872685-3.9714503-1.8005995-.7239239-2.0078297-.8851029-2.0078297-1.5537655 0-.7662909.7211609-1.1595677 2.1100633-1.1595677.8740506 0 2.0069086.077366 3.1388457.2109143l.6170852-3.3027878c-1.131937-.1547318-2.829382-.281833-3.8581645-.281833-4.8362907.000921-6.5346567 2.1938763-6.5346567 4.8298436" fill="#fff"/><path id="path652" d="m41.5418124 36.4080313c-.4632745-.0488142-.6695836-.0561824-.9781262-.0561824-2.4186059 0-3.6536975.7303711-3.6536975 2.1708507 0 .886024.566429 1.4552161 1.5436342 1.4552161 1.7499433.000921 2.9850349-1.4616632 3.0881895-3.5698844zm3.1379247 6.3532153h-3.6021202l.1031545-1.4754786c-1.0803597 1.1724621-2.5724166 1.7213916-4.5286691 1.7213916-2.3154513 0-3.9106628-1.5887643-3.9106628-3.8940844 0-3.4731769 2.7787258-5.5031112 7.5634393-5.5031112.4632744 0 1.0803597.041446 1.7490222.1123648.1031546-.4715637.1538109-.6677415.1538109-.92747 0-.9422063-.7718172-1.293116-2.7787258-1.293116-1.2350916 0-2.624915.1473637-3.5505429.3932768l-.6170853.1547318-.3601199.0921023.566429-3.2125276c2.1607195-.5480085 3.5496219-.7515546 5.1448334-.7515546 3.7043537 0 5.6606061 1.4478479 5.6606061 4.1823646 0 .7027404-.0515773 1.2369336-.3085426 2.8247769l-.926549 5.0683885-.1538108.9062864-.1031545.7239239-.0515773.4909052z" fill="#fff"/><path id="path654" d="m56.51488 33.9691629v-.7312921c0-1.1595677-.7202398-1.8346774-2.0069087-1.8346774-1.3889023 0-2.3670285.9062864-2.7787257 2.5586013zm2.2647951 8.4899882c-1.4414007.3868296-2.8818803.5765603-4.3748583.5765603-4.8362907 0-7.3580512-2.1929553-7.3580512-6.3955824 0-4.8915521 3.189502-8.4973563 7.511862-8.4973563 3.5505429 0 5.8144169 2.0170399 5.8144169 5.1798322 0 1.0545711-.1547318 2.0805905-.5157727 3.5275173h-8.5406445c-.0515772.2182824-.0515772.3168319-.0515772.4494592 0 1.6523149 1.2857478 2.4959717 3.7559309 2.4959717 1.5436343 0 2.9334577-.2818329 4.4761709-.9072074z" fill="#fff"/><path id="path656" d="m100.303067 34.4683573c0-1.4902149-.6170853-2.9021429-2.3661076-2.9021429-2.2122967 0-3.5496218 2.6000474-3.5496218 4.8915521 0 1.939674.9265489 3.2410792 2.4701831 3.2116065.926549 0 2.9325366-1.2719325 3.2926563-3.4934395.102234-.5203778.15289-1.0886489.15289-1.7075762zm4.477092 1.8282302c-.669584 4.7432674-3.963161 6.8514886-8.3868338 6.8514886-4.888789 0-6.8441204-2.9592462-6.8441204-6.5788658 0-5.0536521 3.3442338-8.48262 8.4909092-8.48262 4.47525 0 6.843199 2.8183298 6.843199 6.4379494 0 .8851029 0 .9422063-.103154 1.7720478z" fill="#fff"/></g></g></g></svg>