<svg id="Capa_1" enable-background="new 0 0 512 512" height="512" viewBox="0 0 512 512" width="512" xmlns="http://www.w3.org/2000/svg"><g><g fill="#ffe177"><path d="m28.293 289.588c0-7.165 5.832-12.996 13-12.996s13 5.832 13 13v82.615h48.617l-5.827-3.69c-12.928-8.183-20.646-22.165-20.646-37.403 0-24.411 19.859-44.27 44.27-44.27s44.271 19.859 44.271 44.27c0 15.238-7.718 29.221-20.646 37.403l-5.827 3.69h23.694l.281-.242c8.209-7.071 18.693-10.965 29.52-10.965 18.539 0 35.014 11.115 41.97 28.316l.41 1.015.974-.5c6.441-3.309 13.389-4.987 20.646-4.987s14.205 1.678 20.646 4.987l.974.5.41-1.015c6.956-17.201 23.431-28.316 41.97-28.316 10.827 0 21.311 3.894 29.52 10.965l.281.242h23.109l-5.828-3.689c-12.927-8.184-20.645-22.167-20.645-37.404 0-24.411 19.859-44.27 44.27-44.27s44.271 19.859 44.271 44.27c0 15.238-7.718 29.221-20.646 37.404l-5.828 3.689h49.203v-82.615c0-7.168 5.832-13 13-13s13 5.832 13 13l-.13 68.293c11.234-28.104 17.423-58.77 17.423-90.885 0-135.31-109.69-245-245-245s-245 109.69-245 245c0 32.115 6.189 62.781 17.423 90.885z"/><path d="m440.084 398.207v30.448c8.554-9.734 16.347-20.15 23.29-31.159-1.914.449-3.89.711-5.917.711z"/><path d="m48.626 397.496c6.785 10.76 14.379 20.957 22.706 30.501v-29.79h-16.789c-2.027 0-4.003-.262-5.917-.711z"/></g><path d="m276.642 389.828.974.5.41-1.015c3.698-9.146 10.419-16.959 18.924-22.002l.491-.292-.128-66.623h-83.211l-.126 66.296.504.289c8.785 5.038 15.709 12.968 19.495 22.331l.41 1.015.974-.5c2.414-1.239 4.898-2.25 7.443-3.029v-70.49c0-2.381 1.931-4.312 4.312-4.312h17.773c2.381 0 4.312 1.93 4.312 4.312v70.49c2.544.78 5.029 1.79 7.443 3.03z" fill="#384949"/><g><path d="m412.406 59.051c-2.603 2.603-6.062 4.036-9.743 4.036s-7.141-1.433-9.743-4.036l-10.161-10.161c-2.75-2.75-4.153-6.504-4.011-10.28l-40.999 80.39h-53.646c.057.183.098.376.098.589v21.66c0 .547-.214 1.056-.603 1.432-.375.363-.884.572-1.396.572-.274 0-.544-.058-.804-.171l-6.535-2.862-17.896 69.248c-.18.695-.787.749-.969.749s-.789-.054-.969-.749l-17.896-69.248-6.534 2.862c-.26.114-.53.171-.804.171-.961 0-1.999-.766-1.999-2.003v-21.66c0-.213.041-.406.098-.589h-53.646l-40.999-80.39c.142 3.776-1.26 7.53-4.011 10.28l-10.158 10.16c-2.603 2.603-6.062 4.036-9.743 4.036s-7.141-1.433-9.743-4.036l-1.67-1.67 46.26 90.705c3.415 6.698 10.297 10.914 17.816 10.914h35.828l-11.712 130h.036l.978.434c.086-7.095 5.877-12.842 12.992-12.842 7.168 0 13 5.832 13 13l-.022 11.361.999.443h83.215l.999-.443-.022-11.365c0-7.165 5.832-12.996 13-12.996 7.115 0 12.906 5.747 12.992 12.842l.978-.434-11.091-130h35.83c7.519 0 14.401-4.216 17.816-10.914l46.26-90.705z" fill="#537983"/><g><path d="m387.839 53.97-5.08-5.08c-2.75-2.75-4.153-6.504-4.011-10.28l-40.999 80.39h13.861c1.879 0 3.6-1.054 4.454-2.728z" fill="#3e5959"/></g><g fill="#3e5959"><path d="m161.108 148.086-44.434-87.125c-2.178 1.377-4.698 2.125-7.337 2.125-3.681 0-7.141-1.433-9.743-4.036l-1.67-1.67 46.26 90.705c3.415 6.699 10.297 10.915 17.816 10.915h16.924c-7.518 0-14.401-4.216-17.816-10.914z"/><path d="m209.282 159h-11.453l-11.712 130h.036c.314-7.444 6.45-13.408 13.97-13.408 1.416 0 2.782.215 4.071.608l10.068-111.752c.263-2.926-2.042-5.448-4.98-5.448z"/></g><g fill="#bc80e0"><path d="m192 361c7.835 0 15.371 2.069 21.975 5.753l.148-77.161c0-7.72-6.28-14-14-14s-14 6.28-14 14v71.802c1.925-.251 3.884-.394 5.877-.394z"/><path d="m141.624 480.84c0-16.187 11.486-30.318 27.312-33.602l2.147-.446v-.32l-1.847-1.077c-13.884-8.095-22.508-23.087-22.508-39.125 0-14.124 6.505-26.755 16.673-35.063h-21.45l2.914-1.845c13.219-8.367 21.11-22.665 21.11-38.248 0-24.962-20.309-45.27-45.271-45.27s-45.27 20.308-45.27 45.27c0 15.583 7.892 29.881 21.11 38.248l2.914 1.845h-44.165v-81.615c0-7.72-6.28-14-14-14s-14 6.28-14 13.998l.164 86.34c2.021 13.274 13.652 23.276 27.086 23.276h15.789v27.626c19.922 23.123 44.091 42.481 71.292 56.871z"/></g><g fill="#bc80e0"><path d="m320 361c1.792 0 3.555.116 5.293.32v-71.727c0-7.72-6.28-14-14-14s-14 6.28-14 13.998l.147 77.488c6.741-3.892 14.494-6.079 22.56-6.079z"/><path d="m470.707 275.592c-7.72 0-14 6.28-14 14v81.615h-44.754l2.914-1.845c13.219-8.367 21.11-22.666 21.11-38.249 0-24.962-20.309-45.27-45.271-45.27s-45.27 20.308-45.27 45.27c0 15.582 7.892 29.88 21.109 38.249l2.914 1.845h-20.864c10.168 8.308 16.673 20.939 16.673 35.063 0 16.038-8.624 31.03-22.508 39.125l-2.252 1.313 2.553.53c15.826 3.284 27.312 17.416 27.312 33.602v2.863c26.936-14.248 50.899-33.366 70.708-56.189v-28.307h16.373c13.434 0 25.064-10.002 27.086-23.276l.164-86.338c.003-7.72-6.277-14.001-13.997-14.001z"/></g><path d="m266.778 117.396h-21.557c-6.117 0-11.779-1.976-16.392-5.315l25.234 97.636c.517 1.999 3.356 1.999 3.873 0l25.234-97.636c-4.613 3.339-10.274 5.315-16.392 5.315z" fill="#fff"/><g fill="#eaf9fa"><path d="m231.003 116.841 16.98 7.438-1.779-6.883h-.982c-6.117 0-11.779-1.976-16.392-5.315l1.172 4.533c.333.023.669.082 1.001.227z"/><path d="m251.243 136.893c-.755-.065-1.429-.4-1.92-.921l-12.862 5.634 17.603 68.11c.517 1.999 3.356 1.999 3.873 0l6.063-23.461z"/></g></g><path d="m208.114 59.608h9.084v-10.107c0-6.697 5.448-12.145 12.145-12.145h53.314c6.696 0 12.145 5.448 12.145 12.145v10.106h9.084c.412 0 .818.023 1.22.062v-28.146c0-17.41-14.113-31.523-31.523-31.523h-35.166c-17.41 0-31.523 14.113-31.523 31.523v28.147c.402-.039.808-.062 1.22-.062z" fill="#fe9738"/><path d="m208.114 59.608h9.084v-10.107c0-6.697 5.448-12.145 12.145-12.145h11.446v-5.834c0-17.409 14.113-31.522 31.522-31.522h-33.894c-17.41 0-31.523 14.113-31.523 31.523v28.147c.402-.039.808-.062 1.22-.062z" fill="#fe7701"/><g><g><g><g><path d="m303.886 58.608h-9.084v30.765c0 1.135-.076 2.251-.208 3.351h9.292c7.56 0 13.688-6.129 13.688-13.689v-6.739c.001-7.56-6.128-13.688-13.688-13.688z" fill="#ffb09e"/></g><g><path d="m216.198 49.501v39.871c0 16.029 12.994 29.024 29.024 29.024h21.556c16.029 0 29.024-12.994 29.024-29.024v-39.871c0-7.26-5.885-13.145-13.145-13.145h-53.314c-7.26 0-13.145 5.886-13.145 13.145z" fill="#ffcebf"/></g><path d="m217.198 89.373v-30.765h-9.084c-7.56 0-13.689 6.129-13.689 13.689v6.739c0 7.56 6.129 13.689 13.689 13.689h9.292c-.132-1.101-.208-2.218-.208-3.352z" fill="#f89580"/><path d="m233 89.372v-39.871c0-7.26 5.885-13.145 13.145-13.145h-16.802c-7.26 0-13.145 5.885-13.145 13.145v39.871c0 16.029 12.994 29.024 29.024 29.024h16.802c-16.03 0-29.024-12.994-29.024-29.024z" fill="#ffb09e"/><g><g><path d="m237.763 76.764c-4.143 0-7.5-3.358-7.5-7.5v-8.037c0-4.142 3.357-7.5 7.5-7.5s7.5 3.358 7.5 7.5v8.037c0 4.142-3.358 7.5-7.5 7.5z" fill="#f89580"/></g><g><path d="m274.237 76.764c-4.143 0-7.5-3.358-7.5-7.5v-8.037c0-4.142 3.357-7.5 7.5-7.5s7.5 3.358 7.5 7.5v8.037c0 4.142-3.357 7.5-7.5 7.5z" fill="#f89580"/></g></g></g></g></g><g><path d="m256 104.803c-6.437 0-12.872-2.45-17.771-7.349-2.93-2.929-2.93-7.678-.001-10.607 2.93-2.929 7.679-2.929 10.606 0 3.951 3.951 10.381 3.951 14.332 0 2.929-2.929 7.678-2.927 10.606 0 2.929 2.929 2.929 7.678-.001 10.607-4.899 4.9-11.334 7.349-17.771 7.349z" fill="#f89580"/></g><g><circle cx="256" cy="148" fill="#3e5959" r="5"/></g><g><circle cx="256" cy="173" fill="#3e5959" r="5"/></g><g fill="#fb2b3a"><path d="m249.5 133.919v-7c0-.664.329-1.249.828-1.613l-19.325-8.465c-1.982-.868-4.204.584-4.204 2.748v21.66c0 2.164 2.221 3.616 4.204 2.748l19.325-8.465c-.499-.364-.828-.949-.828-1.613z"/><path d="m280.998 116.841-19.325 8.465c.499.364.828.949.828 1.613v7c0 .664-.329 1.249-.828 1.613l19.326 8.465c1.982.868 4.204-.584 4.204-2.748v-21.66c-.002-2.164-2.223-3.616-4.205-2.748z"/></g><g><path d="m260.5 136.919h-9c-1.657 0-3-1.343-3-3v-7c0-1.657 1.343-3 3-3h9c1.657 0 3 1.343 3 3v7c0 1.657-1.343 3-3 3z" fill="#fe646f"/></g><g><path d="m412.475 205.586c-15.166 5.208-21.184 11.226-26.393 26.393-.925 2.695-4.744 2.695-5.669 0-5.208-15.166-11.226-21.184-26.393-26.393-2.695-.925-2.695-4.744 0-5.669 15.166-5.208 21.184-11.226 26.393-26.393.925-2.695 4.744-2.695 5.669 0 5.208 15.166 11.226 21.184 26.393 26.393 2.695.926 2.695 4.744 0 5.669z" fill="#ffc344"/></g><g><path d="m474.475 114.083c-15.166 5.208-21.184 11.226-26.393 26.393-.925 2.695-4.744 2.695-5.669 0-5.208-15.166-11.226-21.184-26.393-26.393-2.695-.925-2.695-4.744 0-5.669 15.166-5.208 21.184-11.226 26.393-26.393.925-2.695 4.744-2.695 5.669 0 5.208 15.166 11.226 21.184 26.393 26.393 2.695.925 2.695 4.743 0 5.669z" fill="#ffc344"/></g><g><path d="m97.979 114.083c-15.166 5.208-21.184 11.226-26.393 26.393-.925 2.695-4.744 2.695-5.669 0-5.208-15.166-11.226-21.184-26.393-26.393-2.695-.925-2.695-4.744 0-5.669 15.166-5.208 21.184-11.226 26.393-26.393.925-2.695 4.744-2.695 5.669 0 5.208 15.166 11.226 21.184 26.393 26.393 2.695.925 2.695 4.743 0 5.669z" fill="#ffc344"/></g><g><path d="m51.976 102.588c-3.339 2.238-7.374 4.082-12.451 5.825-2.695.925-2.695 4.744 0 5.669 15.166 5.208 21.184 11.226 26.393 26.393.925 2.695 4.744 2.695 5.669 0 1.744-5.077 3.588-9.112 5.825-12.451-5.069-14.397-11.039-20.367-25.436-25.436z" fill="#feb137"/></g><g><path d="m428.472 102.588c-3.339 2.238-7.374 4.082-12.451 5.825-2.695.925-2.695 4.744 0 5.669 15.166 5.208 21.184 11.226 26.393 26.393.925 2.695 4.744 2.695 5.669 0 1.744-5.077 3.588-9.112 5.825-12.451-5.068-14.397-11.038-20.367-25.436-25.436z" fill="#feb137"/></g><g><path d="m147.979 205.586c-15.166 5.208-21.184 11.226-26.393 26.393-.925 2.695-4.744 2.695-5.669 0-5.208-15.166-11.226-21.184-26.393-26.393-2.695-.925-2.695-4.744 0-5.669 15.166-5.208 21.184-11.226 26.393-26.393.925-2.695 4.744-2.695 5.669 0 5.208 15.166 11.226 21.184 26.393 26.393 2.695.926 2.695 4.744 0 5.669z" fill="#ffc344"/></g><g><path d="m100.974 194.746c-3.14 1.948-6.872 3.599-11.449 5.171-2.695.925-2.695 4.744 0 5.669 15.166 5.208 21.184 11.226 26.393 26.393.925 2.695 4.744 2.695 5.669 0 1.571-4.575 3.221-8.305 5.168-11.444-5.119-14.678-11.109-20.669-25.781-25.789z" fill="#feb137"/></g><g><path d="m365.47 194.746c-3.14 1.948-6.872 3.599-11.449 5.171-2.695.925-2.695 4.744 0 5.669 15.166 5.208 21.184 11.226 26.393 26.393.925 2.695 4.744 2.695 5.669 0 1.571-4.575 3.221-8.305 5.168-11.444-5.119-14.678-11.108-20.669-25.781-25.789z" fill="#feb137"/></g><g><path d="m205.624 504.684c0-16.187 11.486-30.318 27.312-33.602l2.553-.53-2.252-1.313c-13.884-8.095-22.508-23.087-22.508-39.125 0-17.496 9.983-32.694 24.546-40.227-6.616-17.466-23.491-29.887-43.275-29.887-25.554 0-46.27 20.716-46.27 46.27 0 17.069 9.25 31.969 23.003 39.989-16.048 3.329-28.109 17.546-28.109 34.581v2.331c20.149 10.776 41.985 18.802 65 23.617z" fill="#9857bd"/><path d="m166 480.84c0-13.855 7.979-25.846 19.592-31.631 3.203-1.596 3.872-5.876 1.188-8.243-9.61-8.476-15.674-20.875-15.674-34.696 0-21.153 14.199-38.977 33.582-44.494-5.54-1.577-11.493-2.172-17.679-1.508-22.51 2.419-40.171 21.171-41.227 43.785-.84 17.99 8.606 33.84 22.951 42.206-16.048 3.329-28.109 17.546-28.109 34.581v2.331c8.19 4.38 16.664 8.295 25.376 11.739z" fill="#814aa0"/><path d="m343.267 446.259c13.754-8.02 23.003-22.92 23.003-39.989 0-25.554-20.716-46.27-46.27-46.27-19.784 0-36.659 12.421-43.276 29.887 14.563 7.533 24.546 22.731 24.546 40.227 0 16.038-8.624 31.03-22.508 39.125l-2.252 1.313 2.553.53c15.826 3.284 27.312 17.416 27.312 33.602v2.105c23.015-4.815 44.851-12.84 65-23.617v-2.331c.001-17.036-12.06-31.253-28.108-34.582z" fill="#9857bd"/><path d="m299.106 406.27c0-21.153 14.199-38.977 33.582-44.494-5.538-1.576-11.488-2.172-17.672-1.508-17.587 1.887-32.216 13.744-38.279 29.626 14.556 7.536 24.533 22.73 24.533 40.221 0 16.038-8.624 31.03-22.508 39.125l-2.252 1.313 2.553.53c5.678 1.178 10.793 3.759 15.024 7.324.873-12.815 8.578-23.753 19.504-29.196 3.203-1.596 3.872-5.876 1.188-8.243-9.609-8.478-15.673-20.877-15.673-34.698z" fill="#814aa0"/><g><path d="m279.267 470.103c13.754-8.02 23.003-22.92 23.003-39.989 0-25.554-20.716-46.27-46.27-46.27s-46.27 20.716-46.27 46.27c0 17.069 9.25 31.969 23.003 39.989-16.048 3.329-28.109 17.546-28.109 34.581v1.904c16.569 3.535 33.752 5.412 51.376 5.412s34.807-1.877 51.376-5.413v-1.904c0-17.035-12.061-31.251-28.109-34.58z" fill="#bc80e0"/></g><path d="m230 504.684c0-13.855 7.979-25.846 19.592-31.631 3.203-1.596 3.872-5.876 1.188-8.243-9.61-8.476-15.674-20.875-15.674-34.696 0-21.153 14.199-38.977 33.582-44.494-5.54-1.577-11.493-2.172-17.679-1.508-22.51 2.419-40.171 21.171-41.227 43.785-.84 17.99 8.606 33.84 22.951 42.206-16.048 3.329-28.109 17.546-28.109 34.581v1.904c8.311 1.774 16.777 3.129 25.376 4.04z" fill="#af66da"/></g><g><g><path d="m426.63 18.99-3.81-3.81c-7.525-7.525-19.726-7.525-27.251 0l-5.454 5.454v-7.178c0-3.014-2.443-5.457-5.457-5.457h-.548c-3.014 0-5.457 2.443-5.457 5.457v20.533c-1.952 5.251-.822 11.388 3.399 15.608l10.161 10.161c5.772 5.772 15.129 5.772 20.901 0l13.517-13.517c7.524-7.525 7.524-19.725-.001-27.251z" fill="#ffcebf"/></g><path d="m404.486 59.671-10.161-10.161c-3.986-3.986-6.042-9.594-4.614-14.629.225-.792.295-1.62.302-2.444l.101-11.804v-7.178c0-3.014-2.443-5.457-5.457-5.457h-.548c-3.014 0-5.457 2.443-5.457 5.457v20.533c-1.952 5.251-.822 11.388 3.399 15.608l10.161 10.161c4.513 4.513 11.212 5.48 16.681 2.936-1.596-.714-3.097-1.711-4.407-3.022z" fill="#ffb09e"/><g><path d="m85.37 18.99 3.81-3.81c7.525-7.525 19.726-7.525 27.251 0l5.454 5.454v-7.178c0-3.014 2.443-5.457 5.457-5.457h.548c3.014 0 5.457 2.443 5.457 5.457v20.533c1.952 5.251.822 11.388-3.399 15.608l-10.161 10.161c-5.772 5.772-15.129 5.772-20.901 0l-13.516-13.517c-7.525-7.525-7.525-19.725 0-27.251z" fill="#ffcebf"/></g><g><path d="m114.387 58.532-13.517-13.517c-7.525-7.525-7.525-19.726 0-27.251l3.81-3.81c1.355-1.355 2.866-2.457 4.469-3.324-6.762-2.354-14.567-.852-19.969 4.55l-3.81 3.81c-7.525 7.525-7.525 19.726 0 27.251l13.517 13.517c5.229 5.229 13.394 5.704 19.176 1.457-1.323-.682-2.567-1.574-3.676-2.683z" fill="#ffb09e"/></g></g></g></svg>