<svg height="512" viewBox="0 0 64 64" width="512" xmlns="http://www.w3.org/2000/svg"><g id="_06-Germany" data-name="06-Germany"><path d="m63 5v16h-62v-16a4 4 0 0 1 4-4h54a4 4 0 0 1 4 4z" fill="#23272b"/><path d="m1 21h62v22h-62z" fill="#e21743"/><path d="m63 43v16a4 4 0 0 1 -4 4h-54a4 4 0 0 1 -4-4v-16z" fill="#ffce54"/><path d="m1 17v4h.37a22.058 22.058 0 0 1 -.37-4z" fill="#23272b"/><path d="m63 21v-4a22.058 22.058 0 0 1 -.37 4z" fill="#23272b"/><path d="m41 39h-18a22 22 0 0 1 -21.63-18h-.37v22h62v-22h-.37a22 22 0 0 1 -21.63 18z" fill="#c7002b"/><path d="m1 59a4 4 0 0 0 4 4h54a4 4 0 0 0 4-4v-16h-62z" fill="#ffb844"/><path d="m59 59h-54a4 4 0 0 1 -4-4v4a4 4 0 0 0 4 4h54a4 4 0 0 0 4-4v-4a4 4 0 0 1 -4 4z" fill="#d79d44"/><path d="m59 1h-54a4 4 0 0 0 -4 4v4a4 4 0 0 1 4-4h54a4 4 0 0 1 4 4v-4a4 4 0 0 0 -4-4z" fill="#555a66"/><path d="m2 59v-15h4v-2h-4v-20h54v-2h-54v-15a3 3 0 0 1 3-3h2v-2h-2a5.006 5.006 0 0 0 -5 5v54a5.006 5.006 0 0 0 5 5h50v-2h-50a3 3 0 0 1 -3-3z"/><path d="m59 0h-46v2h46a3 3 0 0 1 3 3v15h-4v2h4v20h-54v2h54v15a3 3 0 0 1 -3 3h-2v2h2a5.006 5.006 0 0 0 5-5v-54a5.006 5.006 0 0 0 -5-5z"/><path d="m9 0h2v2h-2z"/></g></svg>