<svg height="512" viewBox="0 0 58 58" width="512" xmlns="http://www.w3.org/2000/svg"><g id="Page-1" fill="none" fill-rule="evenodd"><g id="027---Join-Team" fill-rule="nonzero"><path id="Shape" d="m48.16 17.63c-1.01 3.59-3.09 9.05-6.93 12.64l-28.23 1.73c-5.3-3.31-7.97-10.14-9.16-14.37 1.50963348-1.0647115 3.31268151-1.634279 5.16-1.63h34c1.8473185-.004279 3.6503665.5652885 5.16 1.63z" fill="#ecf0f1"/><path id="Shape" d="m42.65 28.77c-.4420852.5286822-.9163165 1.0296308-1.42 1.5l-6.42.39 2.74-9.66h2.9z" fill="#c03a2b"/><path id="Shape" d="m17.49 31.72-4.49.28c-1.3758716-.8821072-2.6070824-1.9716444-3.65-3.23l2.2-7.77h2.9z" fill="#c03a2b"/><circle id="Oval" cx="13" cy="8" fill="#f9c795" r="8"/><circle id="Oval" cx="39" cy="8" fill="#f9c795" r="8"/><path id="Shape" d="m52 25v7.52l-39 3.48h-11c-1.10320187-.0032948-1.9967052-.8967981-2-2v-9c-.00042769-2.9363634 1.4331976-5.6878786 3.84-7.37 1.19 4.23 3.86 11.06 9.16 14.37l28.23-1.73c3.84-3.59 5.92-9.05 6.93-12.64 2.4068024 1.6821214 3.8404277 4.4336366 3.84 7.37z" fill="#2c3e50"/><path id="Shape" d="m29.65 33.77c-1.0429176 1.2583556-2.2741284 2.3478928-3.65 3.23-1.3758716-.8821072-2.6070824-1.9716444-3.65-3.23l2.2-7.77h2.9z" fill="#c03a2b"/><path id="Shape" d="m35.16 22.63c-1.0549856 4.0512664-2.9303564 7.8428509-5.51 11.14l-2.2-7.77h-2.9l-2.2 7.77c-2.5796436-3.2971491-4.4550144-7.0887336-5.51-11.14 1.5096335-1.0647115 3.3126815-1.634279 5.16-1.63h8c1.8473185-.004279 3.6503665.5652885 5.16 1.63z" fill="#fff"/><path id="Shape" d="m39 30v.93l-8.68 10.07h-15.32c-1.1032019-.0032948-1.9967052-.8967981-2-2v-9c-.0004277-2.9363634 1.4331976-5.6878786 3.84-7.37 1.19 4.23 3.86 11.06 9.16 14.37 5.3-3.31 7.97-10.14 9.16-14.37 2.4068024 1.6821214 3.8404277 4.4336366 3.84 7.37z" fill="#35495e"/><path id="Shape" d="m22 21 2.553 5h2.894l2.553-5z" fill="#e64c3c"/><circle id="Oval" cx="26" cy="13" fill="#fdd7ad" r="8"/><path id="Shape" d="m35 16 2.553 5h2.894l2.553-5z" fill="#e64c3c"/><path id="Shape" d="m17 16-2.553 5h-2.894l-2.553-5z" fill="#e64c3c"/><circle id="Oval" cx="44" cy="44" fill="#4fba6f" r="14"/><path id="Shape" d="m52 44c-.0032948 1.1032019-.8967981 1.9967052-2 2h-4v4c0 1.1045695-.8954305 2-2 2s-2-.8954305-2-2v-4h-4c-1.1032019-.0032948-1.9967052-.8967981-2-2 .0081672-1.1011688.8988312-1.9918328 2-2h4v-4c.0032948-1.1032019.8967981-1.9967052 2-2 1.1011688.0081672 1.9918328.8988312 2 2v4h4c1.1032019.0032948 1.9967052.8967981 2 2z" fill="#ecf0f1"/></g></g></svg>