<svg height="512pt" viewBox="0 0 512 512" width="512pt" xmlns="http://www.w3.org/2000/svg"><path d="m150 512h-150v-75c0-30.328125 24.671875-55 55-55h40c30.328125 0 55 24.671875 55 55zm0 0" fill="#1aff84"/><path d="m95 382h-20v130h75v-75c0-30.328125-24.671875-55-55-55zm0 0" fill="#14db72"/><path d="m75 412c-30.328125 0-55-24.671875-55-55s24.671875-55 55-55 55 24.671875 55 55-24.671875 55-55 55zm0 0" fill="#ffdfcf"/><path d="m75 302v110c30.328125 0 55-24.671875 55-55s-24.671875-55-55-55zm0 0" fill="#ffbcab"/><path d="m512 512h-150v-75c0-30.328125 24.671875-55 55-55h40c30.328125 0 55 24.671875 55 55zm0 0" fill="#0cf"/><path d="m512 283h-30c0-24.8125-20.1875-45-45-45h-121c-24.507812 0-46.304688-11.8125-60-30.046875-13.695312 18.234375-35.492188 30.046875-60 30.046875h-121c-24.8125 0-45 20.1875-45 45h-30c0-41.355469 33.644531-75 75-75h121c24.8125 0 45-20.1875 45-45h30c0 24.8125 20.1875 45 45 45h121c41.355469 0 75 33.644531 75 75zm0 0" fill="#003fa1"/><path d="m322.5 133h-133v-133h133zm0 0" fill="#ffef00"/><path d="m331 512h-150v-75c0-30.328125 24.671875-55 55-55h40c30.328125 0 55 24.671875 55 55zm0 0" fill="#ff4359"/><path d="m276 382h-20v130h75v-75c0-30.328125-24.671875-55-55-55zm0 0" fill="#e2095a"/><path d="m256 412c-30.328125 0-55-24.671875-55-55s24.671875-55 55-55 55 24.671875 55 55-24.671875 55-55 55zm0 0" fill="#ffdfcf"/><path d="m256 302v110c30.328125 0 55-24.671875 55-55s-24.671875-55-55-55zm0 0" fill="#ffbcab"/><path d="m457 382h-20v130h75v-75c0-30.328125-24.671875-55-55-55zm0 0" fill="#2fbdf3"/><path d="m437 412c-30.328125 0-55-24.671875-55-55s24.671875-55 55-55 55 24.671875 55 55-24.671875 55-55 55zm0 0" fill="#ffdfcf"/><path d="m437 302v110c30.328125 0 55-24.671875 55-55s-24.671875-55-55-55zm0 0" fill="#ffbcab"/><path d="m437 208h-121c-24.8125 0-45-20.1875-45-45h-15v44.953125c13.695312 18.234375 35.492188 30.046875 60 30.046875h121c24.8125 0 45 20.1875 45 45h30c0-41.355469-33.644531-75-75-75zm0 0" fill="#00245e"/><path d="m322.5 133h-66.5v-133h66.5zm0 0" fill="#ffc600"/></svg>