<svg id="Capa_1" enable-background="new 0 0 512 512" height="512" viewBox="0 0 512 512" width="512" xmlns="http://www.w3.org/2000/svg"><g><path d="m256.536 22.001c-135.084-.29-244.31 107.666-245.526 242.745-.684 75.981 33.235 144.05 86.939 189.441l11.733 6.347c37.397 20.231 77.184 35.692 118.43 46.021l21.397 5.358c2.157.057 4.32.087 6.491.087 4.383 0 8.737-.12 13.063-.348l3.128-.681c45.655-9.934 89.723-26.112 130.96-48.077 59.42-44.705 97.849-115.809 97.849-195.894 0-135.131-109.401-244.71-244.464-244.999z" fill="#6936b0"/><g><path d="m416.795 257.582-1.961 2.77v21.769h1c5.029 0 9.066 4.037 9.066 9v30.104c0 4.963-4.038 9-9 9h-15.187l6.438 20.583c1.268 4.052 3.798 7.358 7.024 9.622 4.545 3.19 10.468 4.308 16.177 2.523 9.761-3.053 15.198-13.44 12.145-23.2z" fill="#fece85"/></g><g><g fill="#c4573a"><path d="m400.144 172.707-.161.804c-1.396 6.97-3.917 13.655-7.493 19.872l-.862 1.499h29.133v-24.915c-2.398 1.717-5.326 2.74-8.493 2.74z"/><path d="m369.704 216.854-.793.472c-3.484 2.074-7.146 3.825-10.884 5.204l-.654.241v13.291l23.837.003 2.111.023z"/><path d="m311.69 236.063v-13.745l-.636-.249c-25.562-9.995-42.079-34.18-42.079-61.613v-.733l-.518-.285c-3.25-1.79-5.269-5.203-5.269-8.906v-21.583c0-3.026 2.146-5.676 5.103-6.301l.683-.145.1-.69c.552-3.808 3.669-6.826 7.581-7.341 18.273-2.402 35.899-11.915 44.904-24.234.907-1.24 2.302-1.951 3.828-1.951 1.509 0 2.886.701 3.779 1.924 11.357 15.557 29.617 24.844 48.844 24.844h14.64c4.036 0 7.582 2.861 8.431 6.804l.139.645.647.126c3.012.589 5.199 3.247 5.199 6.32v3.033h5.203c3.168 0 6.095 1.022 8.493 2.74v-33.837c0-47.295-38.34-85.634-85.634-85.634-47.295 0-85.634 38.34-85.634 85.634v124.611c0 3.581.246 7.102.672 10.568h61.524z"/></g><g><path d="m270 172.118c-.668-3.799-1.024-7.695-1.024-11.663v-.733l-.518-.285c-3.25-1.79-5.269-5.203-5.269-8.906v-21.583c0-3.026 2.146-5.676 5.103-6.301l.683-.145.1-.69c.144-.992.465-1.928.926-2.783v-18.145c0-43.822 32.924-79.932 75.381-85.002-3.364-.402-6.781-.632-10.254-.632-47.295 0-85.634 38.34-85.634 85.634v124.611c0 3.581.246 7.102.672 10.568h20.508c-.427-3.465-.672-6.987-.672-10.568v-53.377z" fill="#a74b30"/></g></g><path d="m412.268 130.98h-5.203v19.55c0 4.036-2.37 7.519-5.787 9.159v.765c0 4.538-.461 8.969-1.335 13.252h12.325c8.635 0 15.635-7 15.635-15.635v-11.457c-.001-8.634-7.001-15.634-15.635-15.634z" fill="#fece85"/><path d="m358.372 222.378c-7.237 2.726-15.068 4.228-23.246 4.228-8.63 0-16.871-1.679-24.436-4.698v14.155h47.682z" fill="#fedba6"/><path d="m357.799 200.035c-.719-1.016-.807-2.282-.235-3.388.572-1.105 1.656-1.766 2.901-1.766h32.318c6.025-10.068 9.496-21.841 9.496-34.427v-36.772c0-5.318-4.311-9.629-9.629-9.629h-14.64c-19.74 0-37.224-9.625-48.036-24.434-2.286-3.131-6.934-3.102-9.221.028-9.271 12.684-26.941 21.56-44.227 23.833-4.858.639-8.549 4.664-8.549 9.564v37.411c0 37.086 30.065 67.151 67.151 67.151 12.891 0 24.929-3.639 35.155-9.936z" fill="#fedba6"/><g><path d="m288.698 160.455v-49.659c-4.003 1.233-8.097 2.149-12.173 2.685-4.858.639-8.549 4.664-8.549 9.564v37.411c0 37.086 30.065 67.151 67.151 67.151 3.524 0 6.984-.275 10.361-.798-32.167-4.984-56.79-32.792-56.79-66.354z" fill="#fece85"/></g><path d="m340.373 151.527h-2.993v-15.374c0-.37-.036-.732-.088-1.088h-8.659c-1.879 0-3.578 1.113-4.329 2.836l-1.924 4.418v16.708c0 4.143 3.358 7.5 7.5 7.5h10.493c4.142 0 7.5-3.357 7.5-7.5s-3.358-7.5-7.5-7.5z" fill="#d6694b"/><g><path d="m262.189 128.947v21.584c0 6.166 4.998 11.164 11.164 11.164h34.365c4.442 0 8.461-2.633 10.235-6.706l7.269-16.688c.591-1.357 1.931-2.235 3.412-2.235h12.986c1.481 0 2.82.878 3.412 2.235l7.269 16.688c1.774 4.072 5.793 6.706 10.235 6.706h34.364c6.166 0 11.164-4.998 11.164-11.164v-21.584c0-4.11-3.332-7.443-7.443-7.443h-130.99c-4.11 0-7.442 3.332-7.442 7.443z" fill="#03bed7"/></g><g><path d="m283.124 150.531v-21.584c0-4.11 3.332-7.443 7.443-7.443h-20.936c-4.11 0-7.443 3.332-7.443 7.443v21.584c0 6.166 4.998 11.164 11.164 11.164h20.936c-6.165-.001-11.164-4.999-11.164-11.164z" fill="#07b2cd"/></g><g><path d="m359.459 186.219c0 11.995-8.357 22.759-20.186 24.743-15.19 2.548-28.477-9.242-28.477-23.984v-.759c0-4.06 3.291-7.352 7.352-7.352h33.961c4.058 0 7.35 3.292 7.35 7.352z" fill="#fe5694"/></g><path d="m325 186.978v-.759c0-4.06 3.291-7.352 7.352-7.352h-14.205c-4.06 0-7.352 3.291-7.352 7.352v.759c0 14.742 13.287 26.532 28.477 23.984 1.016-.17 1.997-.428 2.959-.723-9.946-3.059-17.231-12.347-17.231-23.261z" fill="#fd3581"/><g fill="#fd3581"><path d="m212.839 363.966 14.845-10.394c.814-.57 1.706-.984 2.64-1.258.144-2.361.346-4.719.644-7.07l5.967-47.099c.522-4.124 5.557-5.846 8.496-2.907l19.623 19.623v-51.594l-28.305-27.667c-4.962-6.175-12.573-10.131-21.111-10.131h-70.189l-33.945 47.952v21.769h1c5.029 0 9.066 4.037 9.066 9v30.104c0 4.963-4.038 9-9 9h-2.766l.259 2.098c1.376 11.152 1.018 22.45-1.061 33.493l-11.053 75.301c41.583 35.147 95.028 56.686 153.483 57.756l-15.66-106.98c-.166.009-.328.038-.495.038-2.938 0-5.698-1.435-7.38-3.838l-17.267-24.66c-2.852-4.072-1.863-9.684 2.209-12.536z"/><path d="m265.054 332.291-27.389 21.068c.988.627 1.864 1.438 2.553 2.422l17.268 24.66c.716 1.023 1.188 2.144 1.43 3.295l6.138-4.722z"/></g><path d="m170.451 223.134c-7.306 0-14.32-1.247-20.871-3.5l-4.851 6.852v26.67c0 12.82 1.917 25.568 5.687 37.821l18.122 58.898c.579 1.883 3.244 1.883 3.823 0l18.122-58.898c3.77-12.253 5.687-25.001 5.687-37.821v-35.392c-7.883 3.446-16.579 5.37-25.719 5.37z" fill="#ffefd2"/><path d="m171.245 290.977c-3.77-12.253-5.687-25.001-5.687-37.821v-30.229c-5.552-.422-10.911-1.542-15.986-3.281l-4.842 6.84v26.67c0 12.82 1.917 25.568 5.687 37.821l18.122 58.898c.579 1.883 3.244 1.883 3.823 0l8.503-27.634z" fill="#fedba6"/><g><path d="m133.891 40.253c11.007-5.536 23.42-8.674 36.559-8.674s25.552 3.137 36.559 8.674c4.658-3.785 7.651-9.547 7.651-15.98v-3.676c0-11.328-9.268-20.597-20.597-20.597h-47.226c-11.328 0-20.597 9.269-20.597 20.597v3.676c.001 6.433 2.994 12.195 7.651 15.98z" fill="#fe860a"/><path d="m133.065 39.524c7.954-4.042 16.642-6.837 25.82-8.122-.83-2.227-1.306-4.622-1.306-7.129v-3.676c.001-11.328 9.27-20.597 20.598-20.597h-31.34c-11.328 0-20.597 9.269-20.597 20.597v3.676c.001 6.038 2.65 11.474 6.825 15.251z" fill="#fe7701"/><path d="m101.634 131.98h4.354v-1.479c0-2.312 1.389-4.355 3.538-5.206l81.934-32.432c5.773-2.285 11.85-3.444 18.06-3.444 14.002 0 25.394 11.392 25.394 25.394v17.167h4.354c6.42 0 11.876 4.162 13.843 9.925v-28.667c0-45.651-37.008-82.659-82.659-82.659-45.651 0-82.659 37.008-82.659 82.659v28.666c1.966-5.762 7.421-9.924 13.841-9.924z" fill="#fe9738"/><path d="m101.634 130.98h3.354v-.479c0-2.549 1.477-4.839 3.749-5.931v-11.333c0-42.088 31.465-76.804 72.15-81.97-3.42-.437-6.898-.688-10.437-.688-45.651 0-82.659 37.008-82.659 82.659v26.121c2.616-4.979 7.829-8.379 13.843-8.379z" fill="#fe860a"/><g><path d="m105.988 158.672v-27.692h-4.354c-8.635 0-15.635 7-15.635 15.635v11.457c0 8.635 7 15.635 15.635 15.635h6.142c-1.158-4.828-1.788-9.858-1.788-15.035z" fill="#fedba6"/><path d="m239.267 130.98h-4.354v27.692c0 5.177-.63 10.208-1.789 15.035h6.142c8.635 0 15.635-7 15.635-15.635v-11.457c.001-8.635-6.999-15.635-15.634-15.635z" fill="#fece85"/></g><g><g><circle cx="102.918" cy="171.553" fill="#fff" r="8.169"/></g><g><circle cx="237.982" cy="171.553" fill="#fff" r="8.169"/></g></g><path d="m209.519 88.42c-6.309 0-12.562 1.193-18.428 3.515l-81.933 32.432c-2.517.996-4.17 3.428-4.17 6.135v28.17c0 19.66 8.678 37.282 22.399 49.281h24.148c1.245 0 2.329.66 2.901 1.766s.484 2.371-.235 3.387l-5.239 7.401c6.733 2.34 13.959 3.627 21.489 3.627 36.154 0 65.462-29.308 65.462-65.462v-43.858c0-14.577-11.817-26.394-26.394-26.394z" fill="#fedba6"/><g fill="#fece85"><path d="m127.387 207.953h20.077c-13.718-11.999-22.389-29.624-22.389-49.281v-40.606l-15.917 6.301c-2.517.996-4.17 3.428-4.17 6.135v28.17c0 19.659 8.678 37.282 22.399 49.281z"/><path d="m154.195 213.114-5.233 7.393c6.733 2.34 13.959 3.627 21.489 3.627 3.415 0 6.769-.263 10.044-.767-9.62-1.482-18.542-5.064-26.3-10.253z"/></g><g><g><path d="m137.182 148.32c-4.142 0-7.5-3.357-7.5-7.5v-7.892c0-4.143 3.358-7.5 7.5-7.5s7.5 3.357 7.5 7.5v7.892c0 4.143-3.358 7.5-7.5 7.5z" fill="#d6694b"/></g><g><path d="m203.719 148.32c-4.142 0-7.5-3.357-7.5-7.5v-7.892c0-4.143 3.358-7.5 7.5-7.5s7.5 3.357 7.5 7.5v7.892c0 4.143-3.358 7.5-7.5 7.5z" fill="#d6694b"/></g></g><g><path d="m142.29 179.081c0 13.882 9.672 26.34 23.362 28.636 17.58 2.949 32.958-10.696 32.958-27.757v-.879c0-4.699-3.809-8.508-8.508-8.508h-39.304c-4.698 0-8.508 3.809-8.508 8.508z" fill="#fe5694"/></g><path d="m163 179.081c0-4.699 3.809-8.508 8.508-8.508h-20.71c-4.699 0-8.508 3.809-8.508 8.508 0 13.882 9.672 26.34 23.362 28.636 5.375.902 10.542.245 15.129-1.579-10.662-4.298-17.781-15.151-17.781-27.057z" fill="#fd3581"/><g><path d="m176.466 162.528h-10.229c-4.142 0-7.5-3.357-7.5-7.5v-12.742c0-4.143 3.358-7.5 7.5-7.5s7.5 3.357 7.5 7.5v5.242h2.729c4.142 0 7.5 3.357 7.5 7.5s-3.358 7.5-7.5 7.5z" fill="#d6694b"/></g></g><g><path d="m94.447 343.295c-4.962 0-9-4.037-9-9v-30.105c0-4.963 4.038-9 9-9h2.718v-21.769l-5.46-7.713-24.182 77.31c-3.053 9.76 2.384 20.147 12.145 23.2 5.709 1.786 11.632.667 16.177-2.523 3.225-2.264 5.756-5.571 7.024-9.622l3.372-10.78h-11.794z" fill="#fd3581"/></g><path d="m397.778 330.225c-4.962 0-9-4.037-9-9v-30.105c0-4.963 4.038-9 9-9h2.718v-21.769l-17.869-25.243c-.51-.029-1.024-.047-1.541-.047h-117.032v194.089h144.107v-98.926h-10.383z" fill="#fece85"/><path d="m265.054 235.062h-28.84l28.84 28.84z" fill="#fece85"/><path d="m402.715 448.587h-133.215c-.15 0-.291-.03-.437-.044v63.11c50.185-2.637 96.366-20.376 134.088-48.758v-14.352c-.145.014-.287.044-.436.044z" fill="#03bed7"/><path d="m269.5 449.587c-.148 0-.292-.011-.437-.022v62.088c10.818-.568 21.448-1.842 31.848-3.77v-58.296z" fill="#07b2cd"/><path d="m397.778 330.225c-4.962 0-9-4.037-9-9v-30.105c0-4.963 4.038-9 9-9h2.718v-6.447c-5.483-6.104-13.434-9.946-22.284-9.946h-84.209c-16.54 0-29.949 13.409-29.949 29.949v148.464c0 3.008 2.438 5.446 5.446 5.446h133.214c3.008 0 5.446-2.438 5.446-5.446v-113.915z" fill="#fff"/><path d="m295.893 444.14v-148.464c0-16.54 13.409-29.949 29.949-29.949h-31.839c-16.54 0-29.949 13.409-29.949 29.949v148.464c0 3.008 2.438 5.446 5.446 5.446h31.839c-3.007.001-5.446-2.438-5.446-5.446z" fill="#d4f2f6"/><g><g><path d="m151.536 206.953h-94.403c-3.462 0-5.482 3.906-3.482 6.731l12.751 18.012c24.619 6.747 50.592 6.805 75.242.168l.623-.168 12.751-18.012c2-2.826-.021-6.731-3.482-6.731z" fill="#fff"/></g><path d="m112.504 295.19v-23.181l-2.022 2.856c-1.431 2.021-3.671 3.18-6.147 3.18-2.477 0-4.717-1.158-6.147-3.18l-2.022-2.856v23.181z" fill="#fff"/><g><path d="m86.593 231.696-12.751-18.012c-2-2.825.02-6.731 3.482-6.731h-20.191c-3.462 0-5.482 3.906-3.482 6.731l12.751 18.012z" fill="#d4f2f6"/></g><g><path d="m111.298 275.443 30.968-43.747h-75.864l30.968 43.747c3.401 4.803 10.528 4.803 13.928 0z" fill="#a2e62e"/></g><path d="m97.37 275.443c3.4 4.803 10.528 4.803 13.928 0l3.132-4.424-27.837-39.323h-20.191z" fill="#97d729"/></g><g><path d="m255.849 393.796-14.845 10.395c-4.524 3.168-10.76 2.068-13.927-2.456l-17.267-24.66c-3.168-4.524-2.068-10.76 2.456-13.927l14.845-10.395c4.524-3.168 10.76-2.068 13.927 2.456l17.267 24.66c3.168 4.524 2.068 10.759-2.456 13.927z" fill="#fedba6"/></g><path d="m242.077 401.735-17.267-24.66c-3.168-4.524-2.068-10.76 2.456-13.927l12.883-9.021c-3.345-3.591-8.902-4.27-13.037-1.374l-14.845 10.395c-4.524 3.168-5.624 9.403-2.456 13.927l17.267 24.66c3.168 4.524 9.403 5.624 13.927 2.456l1.963-1.374c-.316-.339-.619-.693-.891-1.082z" fill="#fece85"/><g><path d="m112.57 344.295h-18.123c-5.523 0-10-4.477-10-10v-30.104c0-5.523 4.477-10 10-10h18.123c5.523 0 10 4.477 10 10v30.104c0 5.523-4.477 10-10 10z" fill="#fedba6"/></g><path d="m98 334.295v-30.104c0-5.523 4.477-10 10-10h-13.553c-5.523 0-10 4.477-10 10v30.104c0 5.523 4.477 10 10 10h13.553c-5.523 0-10-4.477-10-10z" fill="#fece85"/><g><g><path d="m451 145c-1.599 0-3.002-1.068-3.427-2.609-3.415-12.366-5.598-14.549-17.964-17.964-1.541-.425-2.609-1.828-2.609-3.427s1.068-3.002 2.609-3.427c12.366-3.415 14.549-5.598 17.964-17.964.425-1.541 1.828-2.609 3.427-2.609s3.002 1.068 3.427 2.609c3.415 12.366 5.598 14.549 17.964 17.964 1.542.425 2.609 1.828 2.609 3.427s-1.068 3.002-2.609 3.427c-12.366 3.415-14.549 5.598-17.964 17.964-.425 1.541-1.828 2.609-3.427 2.609z" fill="#fe860a"/></g></g><g><g><path d="m47 295c-1.599 0-3.002-1.068-3.427-2.609-3.415-12.366-5.598-14.549-17.964-17.964-1.541-.425-2.609-1.828-2.609-3.427s1.068-3.002 2.609-3.427c12.366-3.415 14.549-5.598 17.964-17.964.425-1.541 1.828-2.609 3.427-2.609s3.002 1.068 3.427 2.609c3.415 12.366 5.598 14.549 17.964 17.964 1.541.425 2.609 1.828 2.609 3.427s-1.068 3.002-2.609 3.427c-12.366 3.415-14.549 5.598-17.964 17.964-.425 1.541-1.828 2.609-3.427 2.609z" fill="#fff"/></g></g><g><g><path d="m462 288c-1.599 0-3.002-1.068-3.427-2.609-3.415-12.366-5.598-14.549-17.964-17.964-1.541-.425-2.609-1.828-2.609-3.427s1.068-3.002 2.609-3.427c12.366-3.415 14.549-5.598 17.964-17.964.425-1.542 1.828-2.609 3.427-2.609s3.002 1.068 3.427 2.609c3.415 12.366 5.598 14.549 17.964 17.964 1.542.425 2.609 1.828 2.609 3.427s-1.068 3.002-2.609 3.427c-12.366 3.415-14.549 5.598-17.964 17.964-.425 1.541-1.828 2.609-3.427 2.609z" fill="#fff"/></g></g><g><g><path d="m57 154c-1.599 0-3.002-1.068-3.427-2.609-3.415-12.366-5.598-14.549-17.964-17.964-1.541-.425-2.609-1.828-2.609-3.427s1.068-3.002 2.609-3.427c12.366-3.415 14.549-5.598 17.964-17.964.425-1.541 1.828-2.609 3.427-2.609s3.002 1.068 3.427 2.609c3.415 12.366 5.598 14.549 17.964 17.964 1.541.425 2.609 1.828 2.609 3.427s-1.068 3.002-2.609 3.427c-12.366 3.415-14.549 5.598-17.964 17.964-.425 1.541-1.828 2.609-3.427 2.609z" fill="#fe9738"/></g></g><g><g><path d="m454.867 193.882h-94.403c-3.462 0-5.482 3.906-3.482 6.731l12.751 18.012c24.619 6.747 50.592 6.805 75.242.168l.623-.168 12.751-18.012c2-2.825-.02-6.731-3.482-6.731z" fill="#fff"/></g><path d="m415.835 282.12v-23.181l-2.022 2.856c-1.431 2.021-3.671 3.18-6.147 3.18-2.477 0-4.717-1.158-6.147-3.18l-2.022-2.856v23.181z" fill="#d4f2f6"/><g><path d="m389.924 218.626-12.751-18.012c-2-2.825.02-6.731 3.482-6.731h-20.191c-3.462 0-5.482 3.906-3.482 6.731l12.751 18.012z" fill="#d4f2f6"/></g><g><path d="m414.63 262.372 30.968-43.747h-75.865l30.968 43.747c3.401 4.804 10.528 4.804 13.929 0z" fill="#a2e62e"/></g><path d="m400.702 262.372c3.4 4.803 10.528 4.803 13.928 0l3.132-4.424-27.837-39.323h-20.191z" fill="#97d729"/></g><g><path d="m415.901 331.224h-18.123c-5.523 0-10-4.477-10-10v-30.104c0-5.523 4.477-10 10-10h18.123c5.523 0 10 4.477 10 10v30.104c0 5.523-4.477 10-10 10z" fill="#fedba6"/></g><path d="m400.877 321.224v-30.104c0-5.523 4.477-10 10-10h-13.099c-5.523 0-10 4.477-10 10v30.104c0 5.523 4.477 10 10 10h13.099c-5.523 0-10-4.477-10-10z" fill="#fece85"/></g></svg>