<svg height="512" viewBox="0 0 58 51" width="512" xmlns="http://www.w3.org/2000/svg"><g id="Page-1" fill="none" fill-rule="evenodd"><g id="020---Group-Love" fill-rule="nonzero"><path id="Shape" d="m43.5 0c-10.05 0-14.5 9.32-14.5 9.32s-4.45-9.32-14.5-9.32c-8.58 0-14.5 7.42-14.5 16.21 0 5.43 2.35 10.03 6.49 14.84 2.96473466 3.3062972 6.1414442 6.416199 9.51 9.31.65.58 1.32 1.17 2 1.77.97.85 1.97 1.72 3 2.61.97.84 1.97 1.71 3 2.6.65.58 1.32 1.16 2 1.76l1.52 1.34c.8440947.7501226 2.1159053.7501226 2.96 0l1.52-1.34c.68-.6 1.35-1.18 2-1.76 1.03-.89 2.03-1.76 3-2.6 1.03-.89 2.03-1.76 3-2.61.68-.6 1.35-1.19 2-1.77 3.3685558-2.893801 6.5452653-6.0037028 9.51-9.31 4.14-4.81 6.49-9.41 6.49-14.84 0-8.79-5.92-16.21-14.5-16.21z" fill="#ff5364"/><path id="Shape" d="m37 39v5.74c-.97.84-1.97 1.71-3 2.6-.65.58-1.32 1.16-2 1.76l-1.52 1.34c-.8440947.7501226-2.1159053.7501226-2.96 0l-1.52-1.34c-.68-.6-1.35-1.18-2-1.76-1.03-.89-2.03-1.76-3-2.6v-5.74c0-3.3137085 2.6862915-6 6-6h4c3.3137085 0 6 2.6862915 6 6z" fill="#955ba5"/><path id="Shape" d="m21 35v9.74c-1.03-.89-2.03-1.76-3-2.61-.68-.6-1.35-1.19-2-1.77-3.3685558-2.893801-6.54526534-6.0037028-9.51-9.31 1.13482968-1.3051405 2.78048556-2.0531659 4.51-2.05h4c3.3137085 0 6 2.6862915 6 6z" fill="#f29c1f"/><path id="Shape" d="m51.51 31.05c-2.9647347 3.3062972-6.1414442 6.416199-9.51 9.31-.65.58-1.32 1.17-2 1.77-.97.85-1.97 1.72-3 2.61v-9.74c0-3.3137085 2.6862915-6 6-6h4c1.7295144-.0031659 3.3751703.7448595 4.51 2.05z" fill="#3b97d3"/><circle id="Oval" cx="29" cy="27" fill="#fdd7ad" r="6"/><path id="Shape" d="m26 39v10.1c-.68-.6-1.35-1.18-2-1.76v-8.34c0-.5522847.4477153-1 1-1s1 .4477153 1 1z" fill="#894b9d"/><path id="Shape" d="m34 39v8.34c-.65.58-1.32 1.16-2 1.76v-10.1c0-.5522847.4477153-1 1-1s1 .4477153 1 1z" fill="#894b9d"/><circle id="Oval" cx="13" cy="23" fill="#fdd7ad" r="6"/><path id="Shape" d="m18 35v7.13c-.68-.6-1.35-1.19-2-1.77v-5.36c0-.5522847.4477153-1 1-1s1 .4477153 1 1z" fill="#e57e25"/><circle id="Oval" cx="45" cy="23" fill="#fdd7ad" r="6"/><path id="Shape" d="m42 35v5.36c-.65.58-1.32 1.17-2 1.77v-7.13c0-.5522847.4477153-1 1-1s1 .4477153 1 1z" fill="#2980ba"/><path id="Shape" d="m4.021 18c-.53113453.0008334-.97025708-.4136983-1-.944-.012-.28-.021-.562-.021-.846 0-7.333 4.605-12.883 10.95-13.2.266903-.01805721.5296541.07333203.7277429.25312115.1980887.17978913.3144395.43247996.3222571.69987885.0271841.55140127-.3976137 1.02051406-.949 1.048-5.245.26-9.051 4.969-9.051 11.199 0 .247.007.491.021.734.01528046.2651565-.0755498.5254995-.2524561.7236045-.17690629.1981051-.42535458.3176964-.6905439.3323955z" fill="#fff"/></g></g></svg>