<svg id="visual" viewBox="0 0 900 450" width="900" height="450" xmlns="http://www.w3.org/2000/svg" xmlns:xlink="http://www.w3.org/1999/xlink" version="1.1"><path d="M0 286L21.5 284C43 282 86 278 128.8 285.2C171.7 292.3 214.3 310.7 257.2 316.8C300 323 343 317 385.8 308C428.7 299 471.3 287 514.2 285.5C557 284 600 293 642.8 296.3C685.7 299.7 728.3 297.3 771.2 296C814 294.7 857 294.3 878.5 294.2L900 294L900 451L878.5 451C857 451 814 451 771.2 451C728.3 451 685.7 451 642.8 451C600 451 557 451 514.2 451C471.3 451 428.7 451 385.8 451C343 451 300 451 257.2 451C214.3 451 171.7 451 128.8 451C86 451 43 451 21.5 451L0 451Z" fill="#de7870"></path><path d="M0 296L21.5 302.3C43 308.7 86 321.3 128.8 327.2C171.7 333 214.3 332 257.2 333C300 334 343 337 385.8 338C428.7 339 471.3 338 514.2 334.5C557 331 600 325 642.8 322.3C685.7 319.7 728.3 320.3 771.2 323.2C814 326 857 331 878.5 333.5L900 336L900 451L878.5 451C857 451 814 451 771.2 451C728.3 451 685.7 451 642.8 451C600 451 557 451 514.2 451C471.3 451 428.7 451 385.8 451C343 451 300 451 257.2 451C214.3 451 171.7 451 128.8 451C86 451 43 451 21.5 451L0 451Z" fill="#d16368"></path><path d="M0 359L21.5 354.3C43 349.7 86 340.3 128.8 342C171.7 343.7 214.3 356.3 257.2 363C300 369.7 343 370.3 385.8 370.3C428.7 370.3 471.3 369.7 514.2 365.2C557 360.7 600 352.3 642.8 347.3C685.7 342.3 728.3 340.7 771.2 337.8C814 335 857 331 878.5 329L900 327L900 451L878.5 451C857 451 814 451 771.2 451C728.3 451 685.7 451 642.8 451C600 451 557 451 514.2 451C471.3 451 428.7 451 385.8 451C343 451 300 451 257.2 451C214.3 451 171.7 451 128.8 451C86 451 43 451 21.5 451L0 451Z" fill="#c34e61"></path><path d="M0 401L21.5 399C43 397 86 393 128.8 387C171.7 381 214.3 373 257.2 370.3C300 367.7 343 370.3 385.8 373.5C428.7 376.7 471.3 380.3 514.2 379C557 377.7 600 371.3 642.8 374.7C685.7 378 728.3 391 771.2 396.5C814 402 857 400 878.5 399L900 398L900 451L878.5 451C857 451 814 451 771.2 451C728.3 451 685.7 451 642.8 451C600 451 557 451 514.2 451C471.3 451 428.7 451 385.8 451C343 451 300 451 257.2 451C214.3 451 171.7 451 128.8 451C86 451 43 451 21.5 451L0 451Z" fill="#b4395c"></path><path d="M0 404L21.5 406.3C43 408.7 86 413.3 128.8 414.5C171.7 415.7 214.3 413.3 257.2 414.8C300 416.3 343 421.7 385.8 423.8C428.7 426 471.3 425 514.2 423.5C557 422 600 420 642.8 420.3C685.7 420.7 728.3 423.3 771.2 419.5C814 415.7 857 405.3 878.5 400.2L900 395L900 451L878.5 451C857 451 814 451 771.2 451C728.3 451 685.7 451 642.8 451C600 451 557 451 514.2 451C471.3 451 428.7 451 385.8 451C343 451 300 451 257.2 451C214.3 451 171.7 451 128.8 451C86 451 43 451 21.5 451L0 451Z" fill="#a32157"></path></svg>