<svg id="visual" viewBox="0 0 900 450" width="900" height="450" xmlns="http://www.w3.org/2000/svg" xmlns:xlink="http://www.w3.org/1999/xlink" version="1.1"><path d="M0 308L129 300L257 285L386 331L514 285L643 318L771 330L900 272L900 451L771 451L643 451L514 451L386 451L257 451L129 451L0 451Z" fill="#ffa55b"></path><path d="M0 313L129 299L257 302L386 335L514 295L643 330L771 320L900 308L900 451L771 451L643 451L514 451L386 451L257 451L129 451L0 451Z" fill="#e98643"></path><path d="M0 337L129 374L257 382L386 382L514 344L643 369L771 343L900 373L900 451L771 451L643 451L514 451L386 451L257 451L129 451L0 451Z" fill="#d3672d"></path><path d="M0 380L129 379L257 392L386 365L514 363L643 399L771 395L900 402L900 451L771 451L643 451L514 451L386 451L257 451L129 451L0 451Z" fill="#bd4719"></path><path d="M0 417L129 411L257 393L386 424L514 424L643 412L771 398L900 398L900 451L771 451L643 451L514 451L386 451L257 451L129 451L0 451Z" fill="#a62008"></path></svg>