<svg id="Capa_1" enable-background="new 0 0 510 510" height="512" viewBox="0 0 510 510" width="512" xmlns="http://www.w3.org/2000/svg"><g><g><g><path d="m415.649 342.796-15.652-25.592 33.308-20.361c4.028-2.272 6.389-6.555 6.158-11.176-.801-16.042 7.393-30.91 21.384-38.801l24.588-13.868 14.738 26.131-24.589 13.868c-4.029 2.272-6.389 6.554-6.158 11.175.795 15.946-7.293 30.729-21.128 38.655z" fill="#90cb1b"/></g></g><g><g><path d="m28.724 138.732-13.2-35.921c-5.926-14.803-3.091-31.415 7.431-43.422 3.049-3.479 3.857-8.301 2.108-12.584l-10.669-26.136 27.775-11.338 10.669 26.136c6.07 14.872 3.266 31.614-7.321 43.695-3.049 3.479-3.856 8.301-2.108 12.584l.192.495 13.282 36.144z" fill="#badd39"/></g></g><g><g><path d="m12.803 195h30v30h-30z" fill="#f2ce2a" transform="matrix(.707 -.707 .707 .707 -140.349 81.167)"/></g></g><g><g><path d="m68.41 310.607h30v30h-30z" fill="#81dfff" transform="matrix(.707 -.707 .707 .707 -205.808 154.348)"/></g></g><g><g><path d="m432.803 30h30v30h-30z" fill="#6aa9ff" transform="matrix(.707 -.707 .707 .707 99.332 329.817)"/></g></g><g><g><path d="m467.197 349.394h30v30h-30z" fill="#f2b600" transform="matrix(.707 -.707 .707 .707 -116.433 447.695)"/></g></g><path d="m89.301 392.051c-26.033 15.037-31.498 31.656-31.498 42.949 0 16.271 10.927 39.308 62.979 56.657 59.449 19.817 129.605 18.18 132.021 18.343l10-52-10-38-19.895-35.984-28.096-21.782c-.103.017-72.359 4.913-115.511 29.817z" fill="#f6eef5"/><path d="m302.218 362.233h-1.424l-24.961 21.434-23.03 36.333v90c49.65 0 96.536-6.514 132.022-18.343 52.053-17.35 62.979-40.387 62.979-56.657 0-43.776-75.205-66.292-145.586-72.767z" fill="#e9e6f1"/><path d="m252.803 225c-41.421 0-75-33.579-75-75s33.579-75 75-75l10-45-10-30c-86.984 0-157.5 70.515-157.5 157.5s157.5 262.5 157.5 262.5l10-102.426z" fill="#ff6e6b"/><path d="m252.803 0v75c41.422 0 75 33.579 75 75s-33.578 75-75 75v195s157.5-175.515 157.5-262.5-70.515-157.5-157.5-157.5z" fill="#fb4739"/></g></svg>