<svg id="visual" viewBox="0 0 900 450" width="900" height="450" xmlns="http://www.w3.org/2000/svg" xmlns:xlink="http://www.w3.org/1999/xlink" version="1.1"><g stroke-width="1" stroke-linejoin="bevel"><path d="M470 237L515 143L411 164Z" fill="#a80186" stroke="#a80186"></path><path d="M515 143L526 109L411 164Z" fill="#c9007f" stroke="#c9007f"></path><path d="M470 237L577 168L515 143Z" fill="#c9007f" stroke="#c9007f"></path><path d="M515 143L577 168L526 109Z" fill="#960688" stroke="#960688"></path><path d="M526 109L380 67L411 164Z" fill="#6f138a" stroke="#6f138a"></path><path d="M339 95L324 200L411 164Z" fill="#d8007a" stroke="#d8007a"></path><path d="M411 164L371 292L470 237Z" fill="#591889" stroke="#591889"></path><path d="M324 200L371 292L411 164Z" fill="#840d89" stroke="#840d89"></path><path d="M525 385L606 238L470 237Z" fill="#591889" stroke="#591889"></path><path d="M470 237L606 238L577 168Z" fill="#840d89" stroke="#840d89"></path><path d="M380 67L339 95L411 164Z" fill="#840d89" stroke="#840d89"></path><path d="M713 154L611 100L577 168Z" fill="#ff0066" stroke="#ff0066"></path><path d="M577 168L611 100L526 109Z" fill="#a80186" stroke="#a80186"></path><path d="M526 109L408 0L380 67Z" fill="#a80186" stroke="#a80186"></path><path d="M371 292L434 338L470 237Z" fill="#960688" stroke="#960688"></path><path d="M532 0L408 0L526 109Z" fill="#a80186" stroke="#a80186"></path><path d="M380 67L268 0L339 95Z" fill="#a80186" stroke="#a80186"></path><path d="M611 100L532 0L526 109Z" fill="#f3006e" stroke="#f3006e"></path><path d="M226 216L283 285L324 200Z" fill="#960688" stroke="#960688"></path><path d="M324 200L283 285L371 292Z" fill="#b90083" stroke="#b90083"></path><path d="M371 292L414 450L434 338Z" fill="#960688" stroke="#960688"></path><path d="M464 450L525 385L434 338Z" fill="#591889" stroke="#591889"></path><path d="M434 338L525 385L470 237Z" fill="#ff0066" stroke="#ff0066"></path><path d="M611 100L633 0L532 0Z" fill="#960688" stroke="#960688"></path><path d="M721 90L633 0L611 100Z" fill="#b90083" stroke="#b90083"></path><path d="M339 95L226 216L324 200Z" fill="#ff0066" stroke="#ff0066"></path><path d="M210 52L226 216L339 95Z" fill="#f3006e" stroke="#f3006e"></path><path d="M160 299L268 321L283 285Z" fill="#960688" stroke="#960688"></path><path d="M283 285L268 321L371 292Z" fill="#6f138a" stroke="#6f138a"></path><path d="M698 306L713 154L606 238Z" fill="#591889" stroke="#591889"></path><path d="M606 238L713 154L577 168Z" fill="#f3006e" stroke="#f3006e"></path><path d="M638 390L698 306L606 238Z" fill="#840d89" stroke="#840d89"></path><path d="M408 0L268 0L380 67Z" fill="#960688" stroke="#960688"></path><path d="M761 57L721 90L798 156Z" fill="#d8007a" stroke="#d8007a"></path><path d="M713 154L721 90L611 100Z" fill="#591889" stroke="#591889"></path><path d="M525 385L638 390L606 238Z" fill="#591889" stroke="#591889"></path><path d="M414 450L464 450L434 338Z" fill="#a80186" stroke="#a80186"></path><path d="M525 385L604 450L638 390Z" fill="#6f138a" stroke="#6f138a"></path><path d="M292 450L414 450L371 292Z" fill="#960688" stroke="#960688"></path><path d="M268 0L210 52L339 95Z" fill="#b90083" stroke="#b90083"></path><path d="M721 90L706 0L633 0Z" fill="#b90083" stroke="#b90083"></path><path d="M464 450L604 450L525 385Z" fill="#b90083" stroke="#b90083"></path><path d="M638 390L681 399L698 306Z" fill="#f3006e" stroke="#f3006e"></path><path d="M268 0L221 0L210 52Z" fill="#6f138a" stroke="#6f138a"></path><path d="M604 450L681 399L638 390Z" fill="#a80186" stroke="#a80186"></path><path d="M798 156L721 90L713 154Z" fill="#960688" stroke="#960688"></path><path d="M721 90L761 57L706 0Z" fill="#b90083" stroke="#b90083"></path><path d="M798 156L713 154L836 242Z" fill="#c9007f" stroke="#c9007f"></path><path d="M207 384L292 450L268 321Z" fill="#6f138a" stroke="#6f138a"></path><path d="M268 321L292 450L371 292Z" fill="#b90083" stroke="#b90083"></path><path d="M836 242L713 154L698 306Z" fill="#b90083" stroke="#b90083"></path><path d="M135 263L160 299L226 216Z" fill="#f3006e" stroke="#f3006e"></path><path d="M226 216L160 299L283 285Z" fill="#c9007f" stroke="#c9007f"></path><path d="M160 299L207 384L268 321Z" fill="#a80186" stroke="#a80186"></path><path d="M61 76L136 157L210 52Z" fill="#c9007f" stroke="#c9007f"></path><path d="M210 52L136 157L226 216Z" fill="#840d89" stroke="#840d89"></path><path d="M136 157L135 263L226 216Z" fill="#b90083" stroke="#b90083"></path><path d="M160 299L134 329L207 384Z" fill="#591889" stroke="#591889"></path><path d="M604 450L703 450L681 399Z" fill="#591889" stroke="#591889"></path><path d="M681 399L792 350L698 306Z" fill="#e60074" stroke="#e60074"></path><path d="M93 450L134 329L0 368Z" fill="#b90083" stroke="#b90083"></path><path d="M135 263L134 329L160 299Z" fill="#a80186" stroke="#a80186"></path><path d="M207 384L205 450L292 450Z" fill="#840d89" stroke="#840d89"></path><path d="M703 450L792 350L681 399Z" fill="#591889" stroke="#591889"></path><path d="M900 119L789 0L761 57Z" fill="#ff0066" stroke="#ff0066"></path><path d="M761 57L789 0L706 0Z" fill="#ff0066" stroke="#ff0066"></path><path d="M792 350L836 242L698 306Z" fill="#a80186" stroke="#a80186"></path><path d="M798 156L900 119L761 57Z" fill="#960688" stroke="#960688"></path><path d="M221 0L138 0L210 52Z" fill="#c9007f" stroke="#c9007f"></path><path d="M93 450L205 450L207 384Z" fill="#a80186" stroke="#a80186"></path><path d="M138 0L61 76L210 52Z" fill="#591889" stroke="#591889"></path><path d="M136 157L0 196L135 263Z" fill="#b90083" stroke="#b90083"></path><path d="M900 238L900 140L836 242Z" fill="#960688" stroke="#960688"></path><path d="M836 242L900 140L798 156Z" fill="#a80186" stroke="#a80186"></path><path d="M900 140L900 119L798 156Z" fill="#a80186" stroke="#a80186"></path><path d="M900 366L836 242L792 350Z" fill="#d8007a" stroke="#d8007a"></path><path d="M900 366L900 238L836 242Z" fill="#840d89" stroke="#840d89"></path><path d="M703 450L819 450L792 350Z" fill="#ff0066" stroke="#ff0066"></path><path d="M0 265L134 329L135 263Z" fill="#840d89" stroke="#840d89"></path><path d="M134 329L93 450L207 384Z" fill="#f3006e" stroke="#f3006e"></path><path d="M900 119L900 0L789 0Z" fill="#e60074" stroke="#e60074"></path><path d="M61 76L0 196L136 157Z" fill="#840d89" stroke="#840d89"></path><path d="M819 450L900 366L792 350Z" fill="#ff0066" stroke="#ff0066"></path><path d="M0 0L0 101L61 76Z" fill="#c9007f" stroke="#c9007f"></path><path d="M61 76L0 101L0 196Z" fill="#b90083" stroke="#b90083"></path><path d="M0 196L0 265L135 263Z" fill="#d8007a" stroke="#d8007a"></path><path d="M138 0L0 0L61 76Z" fill="#e60074" stroke="#e60074"></path><path d="M0 265L0 368L134 329Z" fill="#840d89" stroke="#840d89"></path><path d="M819 450L900 450L900 366Z" fill="#a80186" stroke="#a80186"></path><path d="M0 368L0 450L93 450Z" fill="#d8007a" stroke="#d8007a"></path></g></svg>