<svg enable-background="new 0 0 100 100" height="512" viewBox="0 0 100 100" width="512" xmlns="http://www.w3.org/2000/svg"><path d="m76.7403641 83.1660919-53.0546837-33.1660194 53.0546837-33.1660156 3.180664 5.0878906-44.9160118 28.078125 44.9160118 28.0781288z" fill="#92d7f6"/><circle cx="29.345" cy="50" fill="#e6e7e8" r="23.743"/><circle cx="29.345" cy="50" fill="#db584d" r="21.093"/><path d="m23.9989338 57.0786057c.4153099 2.582798 2.6532688 4.56427 5.3513584 4.56427 2.6981239 0 4.9361115-1.981472 5.3513908-4.5643349-.9525452-.6628685-.8968163-1.5734444-.8968163-1.5734444l-.012825-2.8242035h-8.8834343l-.0221081 2.829834c.0000001 0 .0650426.9049759-.8875655 1.5678788z" fill="#d6b24e"/><path d="m36.3509483 41.5957527c-.0015221 0-.0029907.4842567-.0044594.4842567-.0945396-3.8504486-3.204792-7.4546432-6.9961452-7.4546432s-6.9016647 3.6041946-6.9961472 7.4546432c-.0014668 0-.0029354-.4842567-.0044613-.4842567-.7729988 0-1.39958 1.7466927-1.39958 3.3047829 0 1.5580864.6265812 2.8209915 1.39958 2.8209915v.1007156c0 1.9246368 1.6766357 4.3598366 3.3888321 6.3448029 1.9090862 2.2132492 5.3144073 2.2132492 7.2234917 0 1.7122574-1.9849663 3.3888893-4.420166 3.3888893-6.3448029v-.1007156c.7729454 0 1.3995819-1.2629051 1.3995819-2.8209915 0-1.5580902-.6266365-3.3047829-1.3995819-3.3047829z" fill="#ffd25a"/><path d="m34.9176636 59.6898994-1.265461 3.7264442-2.5938225 7.5997696c-.0209942.0069962-.0419464.0139923-.0629425.0069962-.0489445.0069962-.0978909.0139999-.1537914.0069962l-.3286247-.7481384-.7201023-1.6499023-.0769386-7.0055046-.0279523-2.3632203.929884-.9507484.4894142-.4964561 1.9156647.94384h.007l.8529434.4195557.6572037.3215828z" fill="#e6e7e8"/><path d="m47.5163803 60.7246284c-2.9434433 4.984951-7.8794479 8.6484947-13.7173386 9.8929176-.6781998.1468811-1.3633537.26577-2.0625057.3356628l.8949337-3.0272903 1.0207329-4.5095749.007-.0489044.8809357-3.8663254.230732-.9858246 1.7338791-1.9365768h.007c.2866324.0628129 8.6554946 1.9365769 11.0046309 4.145916z" fill="#344e5c"/><path d="m33.8048668 55.193924-4.4591847 2.3221817 3.4783078 2.1723403z" fill="#dad7dc"/><path d="m29.0028744 59.26334-.0279922 2.3632202-.0768967 7.0055046-.7201042 1.6499023-.3286228.7481384c-.0489464.0070038-.1048889 0-.1537933-.0069962-.0209942.0069962-.0419464 0-.0629425-.0069962l-2.6218147-7.6906624v-.007l-1.2375107-3.6285515.3705692-.1817856.6712017-.3285828.8529434-.4195557 1.9156666-.94384.4894142.4964561z" fill="#e6e7e8"/><path d="m26.9683208 70.9532089c-.7061481-.0698929-1.3983021-.1887817-2.076458-.3356628-5.8379364-1.2514191-10.7739401-4.9149628-13.7173376-9.8929176 2.3631334-2.2163391 10.7179537-4.0831032 11.0046301-4.145916h.0069981l1.733881 1.9365768.223732.9858246v.007l.8669415 3.8103371v.007l1.0487251 4.6004677z" fill="#344e5c"/><path d="m24.8864994 55.193924 4.4591827 2.3221817-3.4783077 2.1723403z" fill="#dad7dc"/><path d="m30.9954376 71.0231094c-.0489445.0069962-.0978909.0139999-.1537914.0069962-.1608353.0209961-.3286247.034996-.5034122.034996-.3285809.0209961-.6572037.0279083-.9927826.0279083s-.6642017-.0069122-.9927826-.0279083c-.1678314 0-.3356209-.0139999-.5034103-.034996-.0489464.0070038-.1048889 0-.1537933-.0069962l.1677895-2.1813507.5733089-7.285183.1118469-1.4192963-.8319931-1.6009979.356575-.22369 1.272459-.7901306 1.2724609.7901306.3565731.22369-.8319912 1.6009979.111845 1.4262962.5733089 7.278183z" fill="#f37735"/><path d="m28.3526688 71.0651016c-.1678314 0-.3356209-.0139999-.5034103-.034996-.0489464.0070038-.1048889 0-.1537933-.0069962-.0209942.0069962-.0419464 0-.0629425-.0069962-.223732-.0070038-.4404678-.0279922-.6642017-.0629044-.7061481-.0698929-1.3983021-.1887817-2.076458-.3356628l-3.3978634-6.5579529 1.9995613-1.167614-2.2792377-1.258419.9648323-5.0548477h.0069981l2.6987114-1.3843918h.0069981v.007l.0139542.0559006.7620945 3.5027542.2027378.929924.1747875.810955v.0069962l1.8178177 8.3339081.3146267 1.4402084z" fill="#293b44"/><path d="m35.1973419 62.8919792 1.9995613 1.167614-3.3978615 6.5579529c-.6781998.1468811-1.3633537.26577-2.0625057.3356628-.2237339.0279083-.4474659.0559006-.6781559.0629044-.0209942.0069962-.0419464.0139923-.0629425.0069962-.0489445.0069962-.0978909.0139999-.1537914.0069962-.1608353.0209961-.3286247.034996-.5034122.034996l.1747875-.7831345.3146267-1.4402084 1.8107758-8.319912.1817894-.8389473.2027779-.922924.7690506-3.5306625.007-.0279922v-.007h.0069962l2.6987114 1.3843918h.007l.9718285 5.0548477z" fill="#293b44"/><path d="m21.1260929 43.7276993c.2640247 1.0032845.817543 1.7725258.8897839 3.4814377h.4495869c-.1220074-.7319221-.2991772-2.5678253.2991772-5.3459778 0 0 1.3560371-.1130295 2.8251019-1.6384888 0 0-.3955383 1.1863785-1.3560371 1.8079681 0 0 2.2600803-.7345009 4.9156418-3.3335495 0 0-.2259979 1.5819168-2.8251019 3.1640701 0 0 3.6161766-.5650215 5.4242058-2.9381294 0 0-.7345028 1.6386032-2.4860764 2.6556168 0 0 3.4466362-.5650215 4.9721565-3.5031509 0 0 1.4690628-.1694794 1.6386032 2.3731117.1694832 2.5425911.1129684 3.277092.6214752 3.6726303l-.2529297 3.0858994h.3195992c.1647263-.8600883.6135521-2.9970474 1.0633736-3.3119545 0 0 1.4690628-7.1192093-1.6385498-8.4753036 0 0-1.0735245-4.6896458-8.3057632-2.9380112-7.232296 1.7515144-6.9497852 6.723671-6.9497852 6.723671s.1130274 3.4466933.3955381 4.5201606z" fill="#344e5c"/><circle cx="78.33" cy="19.378" fill="#f37735" r="16.067"/><path d="m78.3306656 29.8664989c-5.7836533 0-10.4889221-4.7048416-10.4889221-10.4884968s4.7052688-10.4884977 10.4889221-10.4884977c5.7832336 0 10.4885025 4.7048426 10.4885025 10.4884977s-4.7052689 10.4884968-10.4885025 10.4884968z" fill="#f58758"/><circle cx="78.33" cy="80.622" fill="#467080" r="16.067"/><path d="m78.3306656 91.1102066c-5.7836533 0-10.4889221-4.7048416-10.4889221-10.4885025 0-5.7836533 4.7052689-10.4884949 10.4889221-10.4884949 5.7832336 0 10.4885025 4.7048416 10.4885025 10.4884949 0 5.7836609-4.7052689 10.4885025-10.4885025 10.4885025z" fill="#628a98"/></svg>