<svg id="visual" viewBox="0 0 900 600" width="900" height="600" xmlns="http://www.w3.org/2000/svg" xmlns:xlink="http://www.w3.org/1999/xlink" version="1.1"><g stroke-width="1" stroke-linejoin="bevel"><path d="M481 294L473 243L417 299Z" fill="#7e6fad" stroke="#7e6fad"></path><path d="M473 243L415 236L417 299Z" fill="#9d6fac" stroke="#9d6fac"></path><path d="M482 362L535 294L481 294Z" fill="#7e6fad" stroke="#7e6fad"></path><path d="M481 294L539 239L473 243Z" fill="#d2709b" stroke="#d2709b"></path><path d="M539 239L476 187L473 243Z" fill="#f29c5c" stroke="#f29c5c"></path><path d="M473 243L423 183L415 236Z" fill="#ba6fa6" stroke="#ba6fa6"></path><path d="M417 299L427 364L481 294Z" fill="#5c6ea8" stroke="#5c6ea8"></path><path d="M476 187L423 183L473 243Z" fill="#e5758c" stroke="#e5758c"></path><path d="M427 364L482 362L481 294Z" fill="#f58c6b" stroke="#f58c6b"></path><path d="M352 238L417 299L415 236Z" fill="#d2709b" stroke="#d2709b"></path><path d="M352 238L356 303L417 299Z" fill="#ba6fa6" stroke="#ba6fa6"></path><path d="M417 299L358 364L427 364Z" fill="#f07e7b" stroke="#f07e7b"></path><path d="M535 294L539 239L481 294Z" fill="#9d6fac" stroke="#9d6fac"></path><path d="M365 182L352 238L415 236Z" fill="#9d6fac" stroke="#9d6fac"></path><path d="M423 183L365 182L415 236Z" fill="#5c6ea8" stroke="#5c6ea8"></path><path d="M302 354L358 364L356 303Z" fill="#7e6fad" stroke="#7e6fad"></path><path d="M356 303L358 364L417 299Z" fill="#14688f" stroke="#14688f"></path><path d="M479 417L540 361L482 362Z" fill="#f29c5c" stroke="#f29c5c"></path><path d="M482 362L540 361L535 294Z" fill="#f07e7b" stroke="#f07e7b"></path><path d="M535 294L604 245L539 239Z" fill="#9d6fac" stroke="#9d6fac"></path><path d="M539 239L537 176L476 187Z" fill="#f58c6b" stroke="#f58c6b"></path><path d="M476 187L478 114L423 183Z" fill="#f58c6b" stroke="#f58c6b"></path><path d="M423 183L414 114L365 182Z" fill="#f58c6b" stroke="#f58c6b"></path><path d="M426 421L479 417L427 364Z" fill="#f07e7b" stroke="#f07e7b"></path><path d="M427 364L479 417L482 362Z" fill="#f07e7b" stroke="#f07e7b"></path><path d="M297 187L302 239L352 238Z" fill="#f29c5c" stroke="#f29c5c"></path><path d="M352 238L300 301L356 303Z" fill="#e5758c" stroke="#e5758c"></path><path d="M363 417L426 421L427 364Z" fill="#3a6c9e" stroke="#3a6c9e"></path><path d="M302 239L300 301L352 238Z" fill="#3a6c9e" stroke="#3a6c9e"></path><path d="M605 304L604 245L535 294Z" fill="#3a6c9e" stroke="#3a6c9e"></path><path d="M539 239L606 184L537 176Z" fill="#9d6fac" stroke="#9d6fac"></path><path d="M604 357L605 304L540 361Z" fill="#f07e7b" stroke="#f07e7b"></path><path d="M540 361L605 304L535 294Z" fill="#3a6c9e" stroke="#3a6c9e"></path><path d="M541 116L478 114L537 176Z" fill="#5c6ea8" stroke="#5c6ea8"></path><path d="M537 176L478 114L476 187Z" fill="#ba6fa6" stroke="#ba6fa6"></path><path d="M478 114L414 114L423 183Z" fill="#9d6fac" stroke="#9d6fac"></path><path d="M365 182L297 187L352 238Z" fill="#5c6ea8" stroke="#5c6ea8"></path><path d="M300 301L302 354L356 303Z" fill="#ba6fa6" stroke="#ba6fa6"></path><path d="M358 364L363 417L427 364Z" fill="#e5758c" stroke="#e5758c"></path><path d="M296 421L363 417L358 364Z" fill="#f29c5c" stroke="#f29c5c"></path><path d="M302 115L297 187L365 182Z" fill="#9d6fac" stroke="#9d6fac"></path><path d="M302 239L244 304L300 301Z" fill="#9d6fac" stroke="#9d6fac"></path><path d="M596 426L604 357L540 361Z" fill="#f29c5c" stroke="#f29c5c"></path><path d="M414 114L362 114L365 182Z" fill="#9d6fac" stroke="#9d6fac"></path><path d="M483 485L543 427L479 417Z" fill="#7e6fad" stroke="#7e6fad"></path><path d="M479 417L543 427L540 361Z" fill="#ba6fa6" stroke="#ba6fa6"></path><path d="M667 233L606 184L604 245Z" fill="#f58c6b" stroke="#f58c6b"></path><path d="M604 245L606 184L539 239Z" fill="#ba6fa6" stroke="#ba6fa6"></path><path d="M607 121L541 116L537 176Z" fill="#e5758c" stroke="#e5758c"></path><path d="M235 238L244 304L302 239Z" fill="#7e6fad" stroke="#7e6fad"></path><path d="M300 301L244 304L302 354Z" fill="#f07e7b" stroke="#f07e7b"></path><path d="M302 354L296 421L358 364Z" fill="#f58c6b" stroke="#f58c6b"></path><path d="M363 417L418 481L426 421Z" fill="#ba6fa6" stroke="#ba6fa6"></path><path d="M426 421L483 485L479 417Z" fill="#e5758c" stroke="#e5758c"></path><path d="M361 486L418 481L363 417Z" fill="#5c6ea8" stroke="#5c6ea8"></path><path d="M240 363L296 421L302 354Z" fill="#f58c6b" stroke="#f58c6b"></path><path d="M543 427L596 426L540 361Z" fill="#f29c5c" stroke="#f29c5c"></path><path d="M593 479L596 426L543 427Z" fill="#14688f" stroke="#14688f"></path><path d="M664 361L660 296L605 304Z" fill="#9d6fac" stroke="#9d6fac"></path><path d="M605 304L660 296L604 245Z" fill="#ba6fa6" stroke="#ba6fa6"></path><path d="M664 361L605 304L604 357Z" fill="#f58c6b" stroke="#f58c6b"></path><path d="M362 114L302 115L365 182Z" fill="#d2709b" stroke="#d2709b"></path><path d="M246 183L235 238L302 239Z" fill="#5c6ea8" stroke="#5c6ea8"></path><path d="M418 481L483 485L426 421Z" fill="#f07e7b" stroke="#f07e7b"></path><path d="M246 183L302 239L297 187Z" fill="#f58c6b" stroke="#f58c6b"></path><path d="M540 53L472 56L478 114Z" fill="#d2709b" stroke="#d2709b"></path><path d="M478 114L472 56L414 114Z" fill="#f58c6b" stroke="#f58c6b"></path><path d="M414 114L358 63L362 114Z" fill="#f07e7b" stroke="#f07e7b"></path><path d="M362 114L358 63L302 115Z" fill="#f07e7b" stroke="#f07e7b"></path><path d="M245 127L246 183L297 187Z" fill="#7e6fad" stroke="#7e6fad"></path><path d="M665 179L607 121L606 184Z" fill="#3a6c9e" stroke="#3a6c9e"></path><path d="M606 184L607 121L537 176Z" fill="#e5758c" stroke="#e5758c"></path><path d="M541 116L540 53L478 114Z" fill="#ba6fa6" stroke="#ba6fa6"></path><path d="M472 56L423 53L414 114Z" fill="#ba6fa6" stroke="#ba6fa6"></path><path d="M660 296L667 233L604 245Z" fill="#f58c6b" stroke="#f58c6b"></path><path d="M244 304L240 363L302 354Z" fill="#14688f" stroke="#14688f"></path><path d="M182 355L240 363L244 304Z" fill="#f58c6b" stroke="#f58c6b"></path><path d="M423 53L358 63L414 114Z" fill="#d2709b" stroke="#d2709b"></path><path d="M304 486L361 486L363 417Z" fill="#f07e7b" stroke="#f07e7b"></path><path d="M425 534L475 533L483 485Z" fill="#f29c5c" stroke="#f29c5c"></path><path d="M483 485L546 481L543 427Z" fill="#3a6c9e" stroke="#3a6c9e"></path><path d="M658 415L604 357L596 426Z" fill="#7e6fad" stroke="#7e6fad"></path><path d="M658 415L664 361L604 357Z" fill="#14688f" stroke="#14688f"></path><path d="M660 296L715 242L667 233Z" fill="#5c6ea8" stroke="#5c6ea8"></path><path d="M667 233L665 179L606 184Z" fill="#5c6ea8" stroke="#5c6ea8"></path><path d="M607 58L541 116L607 121Z" fill="#e5758c" stroke="#e5758c"></path><path d="M607 58L540 53L541 116Z" fill="#f07e7b" stroke="#f07e7b"></path><path d="M472 56L472 0L423 53Z" fill="#f58c6b" stroke="#f58c6b"></path><path d="M239 66L245 127L302 115Z" fill="#f07e7b" stroke="#f07e7b"></path><path d="M302 115L245 127L297 187Z" fill="#7e6fad" stroke="#7e6fad"></path><path d="M173 234L179 295L235 238Z" fill="#14688f" stroke="#14688f"></path><path d="M592 542L593 479L546 481Z" fill="#ba6fa6" stroke="#ba6fa6"></path><path d="M546 481L593 479L543 427Z" fill="#5c6ea8" stroke="#5c6ea8"></path><path d="M663 479L658 415L596 426Z" fill="#5c6ea8" stroke="#5c6ea8"></path><path d="M240 363L244 426L296 421Z" fill="#f58c6b" stroke="#f58c6b"></path><path d="M296 421L304 486L363 417Z" fill="#f58c6b" stroke="#f58c6b"></path><path d="M244 426L304 486L296 421Z" fill="#14688f" stroke="#14688f"></path><path d="M425 534L418 481L361 486Z" fill="#ba6fa6" stroke="#ba6fa6"></path><path d="M425 534L483 485L418 481Z" fill="#d2709b" stroke="#d2709b"></path><path d="M483 485L541 537L546 481Z" fill="#7e6fad" stroke="#7e6fad"></path><path d="M358 539L425 534L361 486Z" fill="#f07e7b" stroke="#f07e7b"></path><path d="M361 0L302 53L358 63Z" fill="#f07e7b" stroke="#f07e7b"></path><path d="M358 63L302 53L302 115Z" fill="#ba6fa6" stroke="#ba6fa6"></path><path d="M664 112L607 58L607 121Z" fill="#5c6ea8" stroke="#5c6ea8"></path><path d="M173 234L235 238L178 181Z" fill="#e5758c" stroke="#e5758c"></path><path d="M235 238L179 295L244 304Z" fill="#9d6fac" stroke="#9d6fac"></path><path d="M240 363L183 424L244 426Z" fill="#7e6fad" stroke="#7e6fad"></path><path d="M721 307L715 242L660 296Z" fill="#3a6c9e" stroke="#3a6c9e"></path><path d="M667 233L714 175L665 179Z" fill="#5c6ea8" stroke="#5c6ea8"></path><path d="M665 179L664 112L607 121Z" fill="#7e6fad" stroke="#7e6fad"></path><path d="M721 307L660 296L664 361Z" fill="#f58c6b" stroke="#f58c6b"></path><path d="M714 175L664 112L665 179Z" fill="#f29c5c" stroke="#f29c5c"></path><path d="M540 53L472 0L472 56Z" fill="#d2709b" stroke="#d2709b"></path><path d="M423 53L361 0L358 63Z" fill="#3a6c9e" stroke="#3a6c9e"></path><path d="M543 0L472 0L540 53Z" fill="#ba6fa6" stroke="#ba6fa6"></path><path d="M472 0L421 0L423 53Z" fill="#ba6fa6" stroke="#ba6fa6"></path><path d="M723 357L721 307L664 361Z" fill="#f29c5c" stroke="#f29c5c"></path><path d="M178 181L235 238L246 183Z" fill="#f29c5c" stroke="#f29c5c"></path><path d="M121 352L182 355L179 295Z" fill="#f58c6b" stroke="#f58c6b"></path><path d="M179 295L182 355L244 304Z" fill="#7e6fad" stroke="#7e6fad"></path><path d="M475 533L541 537L483 485Z" fill="#5c6ea8" stroke="#5c6ea8"></path><path d="M593 479L663 479L596 426Z" fill="#3a6c9e" stroke="#3a6c9e"></path><path d="M481 600L541 537L475 533Z" fill="#f58c6b" stroke="#f58c6b"></path><path d="M307 538L358 539L361 486Z" fill="#f07e7b" stroke="#f07e7b"></path><path d="M425 534L481 600L475 533Z" fill="#5c6ea8" stroke="#5c6ea8"></path><path d="M772 186L714 175L715 242Z" fill="#7e6fad" stroke="#7e6fad"></path><path d="M715 242L714 175L667 233Z" fill="#f07e7b" stroke="#f07e7b"></path><path d="M245 127L178 181L246 183Z" fill="#9d6fac" stroke="#9d6fac"></path><path d="M185 118L178 181L245 127Z" fill="#f29c5c" stroke="#f29c5c"></path><path d="M421 0L361 0L423 53Z" fill="#ba6fa6" stroke="#ba6fa6"></path><path d="M716 412L723 357L664 361Z" fill="#5c6ea8" stroke="#5c6ea8"></path><path d="M716 412L664 361L658 415Z" fill="#f58c6b" stroke="#f58c6b"></path><path d="M600 0L543 0L540 53Z" fill="#5c6ea8" stroke="#5c6ea8"></path><path d="M239 0L239 66L302 53Z" fill="#14688f" stroke="#14688f"></path><path d="M302 53L239 66L302 115Z" fill="#e5758c" stroke="#e5758c"></path><path d="M183 424L235 478L244 426Z" fill="#f07e7b" stroke="#f07e7b"></path><path d="M244 426L235 478L304 486Z" fill="#3a6c9e" stroke="#3a6c9e"></path><path d="M304 486L307 538L361 486Z" fill="#e5758c" stroke="#e5758c"></path><path d="M654 545L663 479L593 479Z" fill="#9d6fac" stroke="#9d6fac"></path><path d="M237 537L307 538L304 486Z" fill="#3a6c9e" stroke="#3a6c9e"></path><path d="M718 475L716 412L658 415Z" fill="#3a6c9e" stroke="#3a6c9e"></path><path d="M716 53L656 54L664 112Z" fill="#9d6fac" stroke="#9d6fac"></path><path d="M664 112L656 54L607 58Z" fill="#ba6fa6" stroke="#ba6fa6"></path><path d="M607 58L600 0L540 53Z" fill="#ba6fa6" stroke="#ba6fa6"></path><path d="M182 355L183 424L240 363Z" fill="#7e6fad" stroke="#7e6fad"></path><path d="M119 412L183 424L182 355Z" fill="#5c6ea8" stroke="#5c6ea8"></path><path d="M239 66L185 118L245 127Z" fill="#3a6c9e" stroke="#3a6c9e"></path><path d="M543 600L592 542L541 537Z" fill="#f29c5c" stroke="#f29c5c"></path><path d="M541 537L592 542L546 481Z" fill="#ba6fa6" stroke="#ba6fa6"></path><path d="M714 175L715 114L664 112Z" fill="#5c6ea8" stroke="#5c6ea8"></path><path d="M772 186L715 114L714 175Z" fill="#5c6ea8" stroke="#5c6ea8"></path><path d="M782 298L715 242L721 307Z" fill="#5c6ea8" stroke="#5c6ea8"></path><path d="M657 0L600 0L607 58Z" fill="#3a6c9e" stroke="#3a6c9e"></path><path d="M361 0L293 0L302 53Z" fill="#9d6fac" stroke="#9d6fac"></path><path d="M239 66L187 66L185 118Z" fill="#3a6c9e" stroke="#3a6c9e"></path><path d="M412 600L425 534L358 539Z" fill="#9d6fac" stroke="#9d6fac"></path><path d="M412 600L481 600L425 534Z" fill="#f07e7b" stroke="#f07e7b"></path><path d="M357 600L412 600L358 539Z" fill="#14688f" stroke="#14688f"></path><path d="M114 183L120 240L173 234Z" fill="#3a6c9e" stroke="#3a6c9e"></path><path d="M173 234L120 240L179 295Z" fill="#f07e7b" stroke="#f07e7b"></path><path d="M114 183L173 234L178 181Z" fill="#e5758c" stroke="#e5758c"></path><path d="M239 0L187 66L239 66Z" fill="#d2709b" stroke="#d2709b"></path><path d="M121 127L114 183L178 181Z" fill="#f07e7b" stroke="#f07e7b"></path><path d="M120 240L115 303L179 295Z" fill="#7e6fad" stroke="#7e6fad"></path><path d="M127 476L179 474L183 424Z" fill="#ba6fa6" stroke="#ba6fa6"></path><path d="M183 424L179 474L235 478Z" fill="#7e6fad" stroke="#7e6fad"></path><path d="M235 478L237 537L304 486Z" fill="#3a6c9e" stroke="#3a6c9e"></path><path d="M307 538L357 600L358 539Z" fill="#9d6fac" stroke="#9d6fac"></path><path d="M115 303L121 352L179 295Z" fill="#3a6c9e" stroke="#3a6c9e"></path><path d="M781 359L721 307L723 357Z" fill="#e5758c" stroke="#e5758c"></path><path d="M781 359L782 298L721 307Z" fill="#9d6fac" stroke="#9d6fac"></path><path d="M782 234L772 186L715 242Z" fill="#f07e7b" stroke="#f07e7b"></path><path d="M782 298L782 234L715 242Z" fill="#f29c5c" stroke="#f29c5c"></path><path d="M187 532L237 537L235 478Z" fill="#f07e7b" stroke="#f07e7b"></path><path d="M663 479L718 475L658 415Z" fill="#9d6fac" stroke="#9d6fac"></path><path d="M716 412L781 359L723 357Z" fill="#f29c5c" stroke="#f29c5c"></path><path d="M714 542L718 475L663 479Z" fill="#5c6ea8" stroke="#5c6ea8"></path><path d="M302 600L357 600L307 538Z" fill="#9d6fac" stroke="#9d6fac"></path><path d="M481 600L543 600L541 537Z" fill="#f07e7b" stroke="#f07e7b"></path><path d="M592 542L654 545L593 479Z" fill="#7e6fad" stroke="#7e6fad"></path><path d="M600 600L654 545L592 542Z" fill="#d2709b" stroke="#d2709b"></path><path d="M293 0L239 0L302 53Z" fill="#d2709b" stroke="#d2709b"></path><path d="M716 53L657 0L656 54Z" fill="#f58c6b" stroke="#f58c6b"></path><path d="M656 54L657 0L607 58Z" fill="#f29c5c" stroke="#f29c5c"></path><path d="M716 53L664 112L715 114Z" fill="#f29c5c" stroke="#f29c5c"></path><path d="M781 427L781 359L716 412Z" fill="#e5758c" stroke="#e5758c"></path><path d="M121 127L178 181L185 118Z" fill="#e5758c" stroke="#e5758c"></path><path d="M120 240L65 243L115 303Z" fill="#d2709b" stroke="#d2709b"></path><path d="M780 67L716 53L715 114Z" fill="#f58c6b" stroke="#f58c6b"></path><path d="M179 474L187 532L235 478Z" fill="#e5758c" stroke="#e5758c"></path><path d="M121 352L119 412L182 355Z" fill="#e5758c" stroke="#e5758c"></path><path d="M62 360L119 412L121 352Z" fill="#5c6ea8" stroke="#5c6ea8"></path><path d="M112 52L121 127L187 66Z" fill="#f58c6b" stroke="#f58c6b"></path><path d="M187 66L121 127L185 118Z" fill="#14688f" stroke="#14688f"></path><path d="M237 537L302 600L307 538Z" fill="#14688f" stroke="#14688f"></path><path d="M543 600L600 600L592 542Z" fill="#9d6fac" stroke="#9d6fac"></path><path d="M127 476L187 532L179 474Z" fill="#f29c5c" stroke="#f29c5c"></path><path d="M237 537L240 600L302 600Z" fill="#7e6fad" stroke="#7e6fad"></path><path d="M777 486L781 427L718 475Z" fill="#14688f" stroke="#14688f"></path><path d="M718 475L781 427L716 412Z" fill="#5c6ea8" stroke="#5c6ea8"></path><path d="M836 360L835 295L782 298Z" fill="#3a6c9e" stroke="#3a6c9e"></path><path d="M714 542L663 479L654 545Z" fill="#f29c5c" stroke="#f29c5c"></path><path d="M772 186L786 115L715 114Z" fill="#14688f" stroke="#14688f"></path><path d="M716 53L719 0L657 0Z" fill="#d2709b" stroke="#d2709b"></path><path d="M834 182L786 115L772 186Z" fill="#7e6fad" stroke="#7e6fad"></path><path d="M834 182L772 186L782 234Z" fill="#f07e7b" stroke="#f07e7b"></path><path d="M835 295L782 234L782 298Z" fill="#ba6fa6" stroke="#ba6fa6"></path><path d="M658 600L714 542L654 545Z" fill="#f58c6b" stroke="#f58c6b"></path><path d="M119 412L127 476L183 424Z" fill="#f58c6b" stroke="#f58c6b"></path><path d="M54 174L65 243L114 183Z" fill="#f07e7b" stroke="#f07e7b"></path><path d="M114 183L65 243L120 240Z" fill="#f07e7b" stroke="#f07e7b"></path><path d="M115 303L62 360L121 352Z" fill="#14688f" stroke="#14688f"></path><path d="M119 412L56 424L127 476Z" fill="#14688f" stroke="#14688f"></path><path d="M777 0L719 0L716 53Z" fill="#7e6fad" stroke="#7e6fad"></path><path d="M239 0L175 0L187 66Z" fill="#f58c6b" stroke="#f58c6b"></path><path d="M65 119L54 174L114 183Z" fill="#f07e7b" stroke="#f07e7b"></path><path d="M187 532L240 600L237 537Z" fill="#5c6ea8" stroke="#5c6ea8"></path><path d="M176 600L240 600L187 532Z" fill="#e5758c" stroke="#e5758c"></path><path d="M836 360L782 298L781 359Z" fill="#ba6fa6" stroke="#ba6fa6"></path><path d="M600 600L658 600L654 545Z" fill="#3a6c9e" stroke="#3a6c9e"></path><path d="M832 66L780 67L786 115Z" fill="#5c6ea8" stroke="#5c6ea8"></path><path d="M786 115L780 67L715 114Z" fill="#5c6ea8" stroke="#5c6ea8"></path><path d="M65 243L57 306L115 303Z" fill="#14688f" stroke="#14688f"></path><path d="M714 542L777 486L718 475Z" fill="#5c6ea8" stroke="#5c6ea8"></path><path d="M834 421L836 360L781 359Z" fill="#f29c5c" stroke="#f29c5c"></path><path d="M785 543L777 486L714 542Z" fill="#f07e7b" stroke="#f07e7b"></path><path d="M57 306L62 360L115 303Z" fill="#f58c6b" stroke="#f58c6b"></path><path d="M835 295L843 242L782 234Z" fill="#5c6ea8" stroke="#5c6ea8"></path><path d="M843 242L834 182L782 234Z" fill="#f07e7b" stroke="#f07e7b"></path><path d="M834 421L781 359L781 427Z" fill="#7e6fad" stroke="#7e6fad"></path><path d="M835 295L900 302L843 242Z" fill="#ba6fa6" stroke="#ba6fa6"></path><path d="M175 0L112 52L187 66Z" fill="#f07e7b" stroke="#f07e7b"></path><path d="M65 119L114 183L121 127Z" fill="#f29c5c" stroke="#f29c5c"></path><path d="M65 243L0 245L57 306Z" fill="#5c6ea8" stroke="#5c6ea8"></path><path d="M112 52L65 119L121 127Z" fill="#5c6ea8" stroke="#5c6ea8"></path><path d="M846 481L834 421L781 427Z" fill="#9d6fac" stroke="#9d6fac"></path><path d="M836 360L900 302L835 295Z" fill="#f29c5c" stroke="#f29c5c"></path><path d="M0 353L62 360L57 306Z" fill="#f07e7b" stroke="#f07e7b"></path><path d="M0 417L56 424L62 360Z" fill="#f58c6b" stroke="#f58c6b"></path><path d="M62 360L56 424L119 412Z" fill="#9d6fac" stroke="#9d6fac"></path><path d="M120 545L176 600L187 532Z" fill="#9d6fac" stroke="#9d6fac"></path><path d="M175 0L124 0L112 52Z" fill="#f58c6b" stroke="#f58c6b"></path><path d="M112 52L59 57L65 119Z" fill="#f07e7b" stroke="#f07e7b"></path><path d="M658 600L717 600L714 542Z" fill="#14688f" stroke="#14688f"></path><path d="M777 486L846 481L781 427Z" fill="#3a6c9e" stroke="#3a6c9e"></path><path d="M120 545L187 532L127 476Z" fill="#d2709b" stroke="#d2709b"></path><path d="M60 541L120 545L127 476Z" fill="#d2709b" stroke="#d2709b"></path><path d="M900 184L847 125L834 182Z" fill="#f29c5c" stroke="#f29c5c"></path><path d="M834 182L847 125L786 115Z" fill="#9d6fac" stroke="#9d6fac"></path><path d="M780 67L777 0L716 53Z" fill="#f29c5c" stroke="#f29c5c"></path><path d="M832 66L777 0L780 67Z" fill="#d2709b" stroke="#d2709b"></path><path d="M780 600L785 543L714 542Z" fill="#5c6ea8" stroke="#5c6ea8"></path><path d="M847 125L832 66L786 115Z" fill="#ba6fa6" stroke="#ba6fa6"></path><path d="M56 424L56 478L127 476Z" fill="#ba6fa6" stroke="#ba6fa6"></path><path d="M0 477L56 478L56 424Z" fill="#14688f" stroke="#14688f"></path><path d="M60 0L59 57L112 52Z" fill="#f58c6b" stroke="#f58c6b"></path><path d="M0 186L65 243L54 174Z" fill="#5c6ea8" stroke="#5c6ea8"></path><path d="M0 186L54 174L0 115Z" fill="#ba6fa6" stroke="#ba6fa6"></path><path d="M0 186L0 245L65 243Z" fill="#f29c5c" stroke="#f29c5c"></path><path d="M0 245L0 303L57 306Z" fill="#f07e7b" stroke="#f07e7b"></path><path d="M839 532L846 481L777 486Z" fill="#7e6fad" stroke="#7e6fad"></path><path d="M900 359L900 302L836 360Z" fill="#f29c5c" stroke="#f29c5c"></path><path d="M843 242L900 184L834 182Z" fill="#14688f" stroke="#14688f"></path><path d="M900 359L836 360L900 422Z" fill="#9d6fac" stroke="#9d6fac"></path><path d="M847 125L900 113L832 66Z" fill="#ba6fa6" stroke="#ba6fa6"></path><path d="M0 303L0 353L57 306Z" fill="#3a6c9e" stroke="#3a6c9e"></path><path d="M900 302L900 237L843 242Z" fill="#5c6ea8" stroke="#5c6ea8"></path><path d="M0 115L54 174L65 119Z" fill="#f29c5c" stroke="#f29c5c"></path><path d="M900 422L836 360L834 421Z" fill="#14688f" stroke="#14688f"></path><path d="M900 237L900 184L843 242Z" fill="#f29c5c" stroke="#f29c5c"></path><path d="M62 600L115 600L120 545Z" fill="#d2709b" stroke="#d2709b"></path><path d="M120 545L115 600L176 600Z" fill="#f58c6b" stroke="#f58c6b"></path><path d="M785 543L839 532L777 486Z" fill="#9d6fac" stroke="#9d6fac"></path><path d="M717 600L780 600L714 542Z" fill="#ba6fa6" stroke="#ba6fa6"></path><path d="M836 600L839 532L785 543Z" fill="#9d6fac" stroke="#9d6fac"></path><path d="M846 481L900 422L834 421Z" fill="#ba6fa6" stroke="#ba6fa6"></path><path d="M0 353L0 417L62 360Z" fill="#3a6c9e" stroke="#3a6c9e"></path><path d="M56 478L60 541L127 476Z" fill="#14688f" stroke="#14688f"></path><path d="M0 536L60 541L56 478Z" fill="#5c6ea8" stroke="#5c6ea8"></path><path d="M124 0L60 0L112 52Z" fill="#f29c5c" stroke="#f29c5c"></path><path d="M59 57L0 115L65 119Z" fill="#f58c6b" stroke="#f58c6b"></path><path d="M0 64L0 115L59 57Z" fill="#f29c5c" stroke="#f29c5c"></path><path d="M900 481L900 422L846 481Z" fill="#14688f" stroke="#14688f"></path><path d="M900 184L900 113L847 125Z" fill="#7e6fad" stroke="#7e6fad"></path><path d="M832 66L843 0L777 0Z" fill="#9d6fac" stroke="#9d6fac"></path><path d="M900 62L843 0L832 66Z" fill="#14688f" stroke="#14688f"></path><path d="M0 417L0 477L56 424Z" fill="#3a6c9e" stroke="#3a6c9e"></path><path d="M60 541L62 600L120 545Z" fill="#d2709b" stroke="#d2709b"></path><path d="M0 0L0 64L59 57Z" fill="#d2709b" stroke="#d2709b"></path><path d="M900 544L900 481L839 532Z" fill="#14688f" stroke="#14688f"></path><path d="M839 532L900 481L846 481Z" fill="#7e6fad" stroke="#7e6fad"></path><path d="M900 113L900 62L832 66Z" fill="#3a6c9e" stroke="#3a6c9e"></path><path d="M0 600L62 600L60 541Z" fill="#7e6fad" stroke="#7e6fad"></path><path d="M780 600L836 600L785 543Z" fill="#e5758c" stroke="#e5758c"></path><path d="M0 477L0 536L56 478Z" fill="#ba6fa6" stroke="#ba6fa6"></path><path d="M60 0L0 0L59 57Z" fill="#f29c5c" stroke="#f29c5c"></path><path d="M836 600L900 544L839 532Z" fill="#d2709b" stroke="#d2709b"></path><path d="M900 62L900 0L843 0Z" fill="#f07e7b" stroke="#f07e7b"></path><path d="M0 536L0 600L60 541Z" fill="#f07e7b" stroke="#f07e7b"></path><path d="M836 600L900 600L900 544Z" fill="#7e6fad" stroke="#7e6fad"></path></g></svg>